<?xml version="1.0" encoding="utf-8"?>
<!-- Generator: Adobe Illustrator 22.0.1, SVG Export Plug-In . SVG Version: 6.00 Build 0)  -->
<svg version="1.1" id="Слой_1" xmlns="http://www.w3.org/2000/svg" xmlns:xlink="http://www.w3.org/1999/xlink" x="0px" y="0px"
	 viewBox="0 0 300 300" style="enable-background:new 0 0 300 300;" xml:space="preserve">
<style type="text/css">
	.st0{fill:#212124;}
</style>
<path class="st0" d="M279.8,171.2c0,0-2.6-3.6-3.4-4.6c-0.6-0.7-1.2-1.5-3-0.3c-3.9,2.6-8.3,5-13.7,5c-4.2,0-7.8-1.1-10.5-3.4
	c1.1-0.5,2.3-1.1,3.5-1.7c6.4-3.4,11.8-7.9,14.3-10.5c12.5-12.5,8.6-31.1-6.7-31.1c-14.4,0-25.7,14-25.7,29.6c0,2.3,0.3,5.7,1.3,9.2
	c-0.8,0.4-6.5,3.2-13.4,6.9c-6.4-4.8-16.4-2.7-16.4-2.7l0,0c9.3-13.2,23.3-33.8,24.4-35.5c0.9-1.2,0.7-2.4-0.1-4.3
	c-1.1-2.3-2.1-2.7-3.6-2.7h-29c-1,0-1.7,0.4-2,1.5c-0.3,1.1-0.9,4.8-1,6c-0.1,1.3,1.1,2.1,2.3,2.1h21l-19,27.2
	c-0.1,0.1-0.2,0.2-0.4,0.4c-2.8,4-7,9.6-12.1,9.6c-3.2,0-7.1-2.3-7.1-9.7c0-7.2,2.9-22.6,5.1-34.5c0.2-1.3-0.2-2.5-2.3-2.5h-5.2
	c-1.2,0-1.9,0.7-2,1.7c-0.3,1.8-0.6,3.6-0.9,5.3c-2.5-4.9-6.6-7.6-12.5-7.6c-5.5,0-10.8,2-15.1,6.4c-10.9,10.9-8.8,28.6-18.2,38
	c-4,4-8.6,2.8-8.6-5.2c0-9.1,3.5-19.2,7.4-28.8c0.7-1.7,0-3.1-0.8-4.2c-1.1-1.5-1.5-2.3-3.4-2.3c-3,0-7.7,1.9-17.2,1.9
	c-2,0-3.9-0.1-5.7-0.2c0.1-1.4,0.1-2.4,0.2-2.7c0.1-1.3-0.4-2.2-1.8-2.2h-4.8c-1.7,0-2.2,0.8-2.4,2.2c-0.8,5.8-2.4,27.1-13.1,37.7
	c-1.2,1.2-2,1.6-2,1.6c2.7-5.2,4.1-12,4.1-17.4c0-15.2-9-24.6-20.3-24.6c-3.4,0-7.1,1.1-10.5,3.2c1.6-9.3,3.1-17.9,3.6-20.9
	c0.4-2.5-0.4-3.8-1.1-4.8c-1.1-1.7-2-2.4-3.4-2.4H32.2c-1,0-1.7,0.7-1.9,1.7c-0.3,1.2-0.9,4.5-1,6c-0.1,1.3,0.8,1.8,1.9,1.8h12.2
	c-1.9,12-5.7,35.1-6.8,41c-1.4,7.4-6.7,16.5-15.6,19.7c-1.1,0.4-1.5,1.4-1.1,2.6c0.4,1.2,1.9,4.3,2.4,5.1c0.5,0.8,1.5,1.3,2.5,1
	c4.6-1.6,8.8-4.2,12.2-7.6c0.8-0.8,1.6-1.7,2.4-2.7c4,9,12.1,12.2,20.4,12.2c9.4,0,19.5-3.3,26.7-10.4c8.3-8.3,11.8-22,13.3-31.8
	c2.1,0.3,4.4,0.5,6.7,0.5c5.7,0,10.5-1.2,10.5-1.2s-5.7,15.3-5.7,26.5c0,12.7,6.1,16.3,12.8,16.3c6.9,0,11.8-5.2,15.3-11.6
	c0.9,2,2.3,4.4,4.1,6.2c3.1,3.1,7,5.4,12.6,5.4c6.4,0,11.9-3.7,15.8-9.4c0.7,2.4,1.8,4.4,3.2,5.9c2,2,5.6,3.5,10.1,3.5
	c7.8,0,12.4-5.9,24.5-5.9c1.5,0,2.9,0.2,4.2,0.7c-5.6,3.4-10.9,7.1-14.1,10.3c-10,10-10.5,23.3-3.9,29.8c8,8,19.3,4,26.5-3.1
	c8.3-8.3,10.7-24,5.9-34.8c5.8-3.1,10.7-5.3,11.8-5.9c3.6,5,9.7,8.8,19.6,8.8c7.1,0,14.3-2.5,19.8-6.7
	C280.2,173.3,280.4,172,279.8,171.2z M64.6,167.8c-2.3,2.3-5,3.5-7.8,3.5c-2.6,0-4.9-1.2-6.8-3.1c-6.4-6.4-5.9-22.2,2.4-30.5
	c2.3-2.3,5.2-3.7,8.1-3.7c2.6,0,4.9,1.1,6.8,3.1C73.3,143.1,73.7,158.7,64.6,167.8z M156.4,171.2c-6.9,0-11.4-8.4-10.1-18.7
	c1.4-10.3,8.1-18.7,15.1-18.7c6.4,0,10.8,7.2,10.3,16.4c-0.2,1.3-0.4,2.6-0.5,3.9C169.4,163.7,163,171.2,156.4,171.2z M214.2,207.5
	c-9.1,9.1-20.6-2.5-7.1-16c3.1-3.1,8.1-6.4,13.3-9.5C223.3,189.4,221,200.7,214.2,207.5z M250.6,137.9c6.8-6.8,14.4-4.8,14.4,1.8
	c0,6.5-7.7,13.4-17.1,18.8c-0.9,0.5-2,1.1-3.1,1.7c-0.4-1.6-0.6-3.4-0.6-5.4C244.2,149.2,246.6,141.9,250.6,137.9z"/>
</svg>
