<?xml version="1.0" encoding="utf-8"?>
<!-- Generator: Adobe Illustrator 23.0.4, SVG Export Plug-In . SVG Version: 6.00 Build 0)  -->
<svg version="1.1" id="Слой_1" xmlns="http://www.w3.org/2000/svg" xmlns:xlink="http://www.w3.org/1999/xlink" x="0px" y="0px"
	 viewBox="0 0 300 300" style="enable-background:new 0 0 300 300;" xml:space="preserve">
<style type="text/css">
	.st0{fill-rule:evenodd;clip-rule:evenodd;fill:#063869;}
	.st1{fill-rule:evenodd;clip-rule:evenodd;fill:#CEDC39;}
</style>
<g id="Symbols_1_">
	<g id="Header-1920px_1_" transform="translate(-275.000000, -24.000000)">
		<g id="Header_1_">
			<g id="logo_white-green_1_" transform="translate(275.000000, 24.000000)">
				<path class="st0" d="M150.7,257.8c-27.4,0.2-48.8-8.8-64.2-27c-15.4-18.2-23.2-42.7-23.5-73.7c-0.2-30,7.6-54.3,23.5-72.8
					c7.3-8.6,15.9-15.1,25.4-19.8v40.4c-8.7,12.8-13.1,30.1-13,52c0.3,48.7,17.5,73,51.6,72.8c15.9-0.1,28.3-6.8,37.3-19.8
					c8.9-13.1,13.3-31,13.2-53.6c-0.1-23.7-4.4-41.5-12.8-53.5V63.6c9.8,4.3,18.2,10.5,25.3,18.7c15.3,17.6,23.1,42.2,23.3,73.6
					c0.2,31.3-7.4,56.1-22.8,74.3S177.5,257.6,150.7,257.8z"/>
				<path id="Fill-3_1_" class="st1" d="M150.7,217.8c-12.8,0.1-23.3-11.1-23.4-24.9l-0.8-125.3c-0.1-13.9,10.2-25.2,23.1-25.3
					c12.8-0.1,23.3,11.1,23.4,25l0.8,125.3C173.9,206.4,163.5,217.7,150.7,217.8"/>
			</g>
		</g>
	</g>
</g>
</svg>
