<svg xmlns="http://www.w3.org/2000/svg" viewBox="0 0 165.9 65.8">
    <path d="M43.6 19.9c-0.8 0.7-1.3 1.4-1.7 2.3-0.4 0.9-0.6 2-0.6 3.3s0.3 2.3 1 3.2 1.6 1.6 2.6 2.1c1.1 0.5 2.2 1 3.5 1.3 1.2 0.3 2.4 0.6 3.4 0.9 1 0.3 1.9 0.6 2.6 1s1 0.9 1 1.6c0 2.2-1.7 3.3-5.2 3.3-2.2 0-4.2-0.4-6-1.2-0.6-0.3-1.1-0.4-1.5-0.4s-0.8 0.2-1.1 0.6c-0.4 0.4-0.5 0.9-0.5 1.4 0 0.6 0.3 1 0.8 1.4 2.5 1.4 5.4 2.1 8.5 2.1 3 0 5.2-0.7 6.9-2.1 1.5-1.2 2.3-2.9 2.3-4.9 0-2.6-1.2-4.6-3.7-5.8-1-0.5-2.2-0.9-3.4-1.2-1.2-0.3-2.4-0.6-3.5-0.9-1.1-0.3-1.9-0.7-2.6-1.1-0.7-0.4-1-1.1-1-2s0.5-1.7 1.4-2.3 2.3-0.9 4.1-0.9c1.8 0 3.5 0.2 5 0.7 0.5 0.2 0.9 0.2 1.3 0.2 0.3 0 0.7-0.2 1.1-0.6 0.4-0.4 0.5-0.8 0.5-1.2s-0.1-0.8-0.4-1.2-0.6-0.6-1-0.8c-2.2-0.8-4.5-1.2-6.9-1.2C47.6 17.8 45.3 18.5 43.6 19.9z" style="fill:#4A4A4A"/><path d="M70.1 13.6c-0.3 0-0.5 0.2-0.8 0.4l-6.4 6.3c-0.3 0.2-0.5 0.5-0.5 0.7 0 0.6 0.3 0.9 0.9 0.9h3.3v14.6c0 2.5 0.9 4.3 2.6 5.3 0.7 0.4 1.5 0.7 2.3 0.8s1.7 0.1 2.6 0.1c1 0 2.1-0.3 3.5-0.9 0.6-0.3 0.9-0.7 0.9-1.4 0-0.6-0.2-1.1-0.5-1.4s-0.7-0.5-1.2-0.5c-0.4 0-0.8 0.1-1.2 0.2-0.4 0.1-1 0.2-1.8 0.2s-1.5-0.1-1.8-0.3c-0.6-0.4-1-1.2-1-2.4V21.9h5.4c0.5 0 1-0.2 1.3-0.5s0.5-0.8 0.5-1.3-0.2-1-0.5-1.3-0.8-0.5-1.3-0.5H71v-3.7c0-0.3-0.1-0.5-0.2-0.7C70.6 13.6 70.5 13.5 70.1 13.6 70.2 13.5 70.2 13.5 70.1 13.6z" style="fill:#4A4A4A"/><path d="M95 17.8c-2.7 0-5.2 1.5-7.4 4.4v-2c0-0.6-0.2-1.1-0.6-1.6-0.4-0.4-0.9-0.6-1.5-0.6s-1.1 0.2-1.5 0.7c-0.4 0.4-0.6 1-0.6 1.5v20.2c0 0.6 0.2 1.1 0.6 1.5s0.9 0.6 1.5 0.6 1.1-0.2 1.5-0.6c0.4-0.4 0.6-0.9 0.6-1.5V26.1c0.8-1.2 1.9-2.2 3.1-3s2.6-1.2 4.2-1.2h0.2c0.6 0 1.1-0.2 1.6-0.5 0.4-0.4 0.6-0.9 0.6-1.5s-0.2-1.1-0.6-1.5c-0.4-0.4-0.9-0.6-1.5-0.6H95z" style="fill:#4A4A4A"/><path d="M103.7 8.3c-0.7 0-1.2 0.2-1.7 0.7s-0.7 1-0.7 1.7v0.2c0 0.7 0.2 1.3 0.7 1.7 0.4 0.5 1 0.7 1.7 0.7h0.3c0.7 0 1.3-0.2 1.7-0.7 0.5-0.5 0.7-1 0.7-1.7v-0.2c0-0.7-0.2-1.3-0.7-1.7-0.5-0.5-1-0.7-1.7-0.7H103.7zM102.3 18.6c-0.4 0.4-0.6 0.9-0.6 1.6v20.2c0 0.6 0.2 1.1 0.6 1.5 0.4 0.4 0.9 0.6 1.6 0.6 0.6 0 1.1-0.2 1.5-0.6 0.4-0.4 0.6-0.9 0.6-1.5V20.2c0-0.7-0.2-1.2-0.6-1.6-0.4-0.4-0.9-0.6-1.5-0.6C103.2 18 102.7 18.2 102.3 18.6z" style="fill:#4A4A4A"/><path d="M117.8 21.4v-1.2c0-0.6-0.2-1.1-0.6-1.5-0.4-0.4-0.9-0.6-1.5-0.6s-1.1 0.2-1.5 0.6c-0.4 0.4-0.6 0.9-0.6 1.5v31.1c0 0.6 0.2 1.1 0.6 1.6 0.4 0.4 0.9 0.6 1.5 0.6s1.1-0.2 1.5-0.6 0.6-0.9 0.6-1.6v-12c2.3 2.4 5 3.6 8 3.6s5.6-1 7.9-3.2c2.4-2.4 3.6-5.5 3.6-9.3s-1.2-6.9-3.6-9.3c-2.2-2.2-4.8-3.2-7.8-3.2C122.9 17.8 120.2 19 117.8 21.4zM117.8 35.3v-9.9c2.2-2.3 4.6-3.5 7.5-3.5 2.3 0 4.2 0.7 5.6 2.1 1.4 1.5 2.1 3.7 2.1 6.3 0 1.4-0.1 2.6-0.5 3.7-1.2 3.2-3.6 4.8-7.2 4.8h-0.1C122.4 38.8 119.9 37.6 117.8 35.3z" style="fill:#4A4A4A"/><path d="M145.1 21.2c-2.2 2.3-3.3 5.3-3.3 9s1.1 6.7 3.3 9c2.1 2.3 5.1 3.5 8.8 3.5 3.6 0 6.6-1.2 8.8-3.5 2.1-2.3 3.2-5.3 3.2-9 0-0.1 0-0.1 0-0.2v-0.4c0-3.4-1.1-6.3-3.2-8.5-2.2-2.3-5.2-3.5-8.8-3.5C150.2 17.8 147.3 18.9 145.1 21.2zM151.1 38.4c-0.9-0.3-1.8-0.8-2.5-1.5-0.8-0.7-1.4-1.6-1.8-2.7-0.5-1.1-0.7-2.4-0.7-4 0-1.5 0.2-2.9 0.7-4 1.3-3.1 3.7-4.6 7.1-4.6 2.1 0 3.8 0.6 5.2 1.9 1.7 1.6 2.5 3.8 2.5 6.6 0 2.9-0.8 5.2-2.5 6.7-0.8 0.7-1.6 1.2-2.5 1.5-0.9 0.3-1.8 0.5-2.7 0.5C153 38.9 152.1 38.7 151.1 38.4z" style="fill:#4A4A4A"/><path d="M37.6 61.7c-0.3 0-0.5 0.1-0.8 0.3-0.2 0.2-0.3 0.5-0.3 0.8v0.1c0 0.3 0.1 0.5 0.3 0.7s0.5 0.3 0.8 0.3h0.2c0.3 0 0.6-0.1 0.8-0.3 0.2-0.2 0.3-0.5 0.3-0.7v-0.1c0-0.3-0.1-0.6-0.3-0.8-0.2-0.2-0.5-0.3-0.8-0.3H37.6z" style="fill:#2CB543"/><path d="M42.2 55.5c-0.7 0.9-1.1 2.1-1.1 3.5 0 1.6 0.4 2.9 1.3 3.8s2.1 1.3 3.7 1.3c0.8 0 1.4-0.1 2-0.2 0.2-0.1 0.5-0.2 0.7-0.3 0.2-0.1 0.5-0.2 0.7-0.4 0.3-0.1 0.4-0.4 0.4-0.7 0-0.2-0.1-0.3-0.2-0.5-0.1-0.1-0.3-0.2-0.5-0.2s-0.4 0.1-0.6 0.2c-0.7 0.3-1.5 0.5-2.5 0.5s-1.7-0.3-2.3-0.8c-0.6-0.5-0.9-1.2-1-2.1h6.5c0.3 0 0.5-0.1 0.6-0.3 0.2-0.2 0.2-0.4 0.2-0.6 0-1.4-0.4-2.5-1.2-3.4-0.8-1-2-1.5-3.4-1.5C44.2 53.9 43 54.5 42.2 55.5zM43.2 56.9c0.5-1 1.3-1.5 2.5-1.5 0.7 0 1.3 0.2 1.8 0.7 0.6 0.5 1 1.2 1 2.2h-5.7C42.9 57.7 43 57.3 43.2 56.9z" style="fill:#2CB543"/><path d="M61.6 54.7c-0.3 0.2-0.7 0.6-1.1 1.2-0.2-0.6-0.6-1-1.1-1.4-0.6-0.4-1.2-0.6-1.9-0.6-1.4 0-2.5 0.6-3.3 1.8v-0.8c0-0.2-0.1-0.5-0.3-0.6-0.2-0.2-0.4-0.3-0.6-0.3-0.3 0-0.5 0.1-0.6 0.3-0.2 0.2-0.2 0.4-0.2 0.6v8.2c0 0.2 0.1 0.4 0.3 0.6 0.2 0.2 0.4 0.3 0.6 0.3s0.4-0.1 0.6-0.3c0.2-0.2 0.3-0.4 0.3-0.6v-5.7c0.7-1.2 1.7-1.9 2.8-1.9 0.7 0 1.2 0.2 1.5 0.6s0.4 1 0.4 1.8v5.2c0 0.2 0.1 0.4 0.3 0.6 0.2 0.2 0.4 0.3 0.6 0.3 0.3 0 0.5-0.1 0.6-0.3 0.2-0.2 0.2-0.4 0.2-0.6v-5.7c0.7-1.2 1.7-1.9 2.8-1.9 0.7 0 1.2 0.2 1.5 0.6s0.4 1 0.4 1.8v5.2c0 0.2 0.1 0.4 0.3 0.6 0.2 0.2 0.4 0.3 0.6 0.3s0.5-0.1 0.6-0.3c0.2-0.2 0.2-0.4 0.2-0.6v-5.5c0-1-0.3-1.8-0.8-2.5-0.6-0.8-1.4-1.2-2.4-1.2C63.1 53.9 62.3 54.2 61.6 54.7z" style="fill:#2CB543"/><path d="M70.6 54.6c-0.3 0.1-0.5 0.4-0.5 0.6 0 0.3 0.1 0.5 0.2 0.6s0.3 0.2 0.4 0.2 0.2 0 0.3 0c1-0.3 1.8-0.4 2.6-0.4 0.9 0 1.5 0.2 1.9 0.5 0.4 0.4 0.6 1 0.6 1.8v0.2h-2.3c-1.4 0-2.5 0.3-3.3 0.9-0.7 0.5-1.1 1.3-1.1 2.3 0 0.9 0.3 1.6 0.9 2.1s1.3 0.8 2.2 0.8 1.6-0.2 2.2-0.5 1-0.6 1.4-1v0.5c0 0.2 0.1 0.4 0.3 0.6 0.2 0.2 0.4 0.3 0.6 0.3s0.5-0.1 0.6-0.3c0.2-0.2 0.3-0.4 0.3-0.6v-5.4c0-1-0.3-1.9-1-2.6-0.7-0.8-1.7-1.2-3-1.2h-0.1C72.7 53.9 71.6 54.2 70.6 54.6zM71.2 61c0-0.5 0.3-0.9 0.8-1.2 0.5-0.2 1.2-0.3 2.1-0.3h2.1v1.6c-0.3 0.4-0.7 0.7-1.3 1-0.5 0.3-1.1 0.4-1.7 0.4 0 0 0 0-0.1 0C71.8 62.6 71.2 62.1 71.2 61z" style="fill:#2CB543"/><path d="M81.7 50.1c-0.3 0-0.5 0.1-0.7 0.3-0.2 0.2-0.3 0.4-0.3 0.7v0.1c0 0.3 0.1 0.5 0.3 0.7 0.2 0.2 0.4 0.3 0.7 0.3h0.1c0.3 0 0.5-0.1 0.7-0.3 0.2-0.2 0.3-0.4 0.3-0.7v-0.1c0-0.3-0.1-0.5-0.3-0.7C82.3 50.2 82.1 50.1 81.7 50.1 81.8 50.1 81.7 50.1 81.7 50.1zM81.2 54.3c-0.2 0.2-0.3 0.4-0.3 0.6v8.2c0 0.2 0.1 0.4 0.3 0.6 0.2 0.2 0.4 0.3 0.6 0.3s0.5-0.1 0.6-0.3c0.2-0.2 0.2-0.4 0.2-0.6v-8.2c0-0.3-0.1-0.5-0.2-0.6-0.2-0.2-0.4-0.2-0.6-0.2C81.6 54 81.4 54.1 81.2 54.3z" style="fill:#2CB543"/><path d="M86.2 50.1c-0.2 0.2-0.3 0.4-0.3 0.6v12.5c0 0.2 0.1 0.4 0.3 0.6 0.2 0.2 0.4 0.3 0.6 0.3s0.5-0.1 0.6-0.3c0.2-0.2 0.2-0.4 0.2-0.6V50.7c0-0.2-0.1-0.5-0.2-0.6-0.2-0.2-0.4-0.2-0.6-0.2C86.6 49.8 86.3 49.9 86.2 50.1z" style="fill:#2CB543"/><path d="M6 33.2c-1.2 0.5-2.2 0.4-3 0.1-0.2 0.3-0.3 0.6-0.5 0.9-0.5 1.1-1 2.2-1.3 3.3C1 38.6 0.8 39.8 0.8 41c0 1.2 0.2 2.3 0.7 3.2s1.4 1.5 2.5 1.6c1 0.1 2-0.4 3-1 1.9-1.3 3.6-3.2 5.2-5 1.6-1.8 3.2-3.7 4.8-5.6s3.3-3.7 5.3-5.3c1-0.8 2.1-1.5 3.6-1.8 0.2 0 0.4 0 0.5 0 0.2 0 0.3 0 0.5 0 0.3 0 0.7 0.1 1 0.2 0.7 0.2 1.3 0.6 1.8 1.2 0.4 0.5 0.7 1 0.9 1.6 0.3-4.7 1.4-18.3-6.2-14.7-4.9 2.3-8.4 8.2-11.9 12.2C10.7 29.6 8.6 32.2 6 33.2" style="fill:#2CB543"/><path d="M16.3 61.7c0.7-2.4 1.6-4.7 2.7-6.9 0.6-1.1 1.1-2.2 1.8-3.3 0.6-1.1 1.2-2.1 2-3.1 1.4-2 2.8-4 4.1-6.1 1.3-2 2.6-4.1 2.9-6.4 0.2-1.2 0.2-2.4 0.1-3.5-0.1-1.1-0.4-2.3-1.1-3-0.2-0.2-0.4-0.4-0.7-0.6-2.2 3.8-5.1 7.3-7.3 11.1-3.2 5.3-5.2 10.6-5.3 16.8v9C15.4 66.2 15.7 64 16.3 61.7" style="fill:#32cb4b"/><path d="M0 37c0.3-1.2 0.8-2.3 1.3-3.4 0.6-1.1 1.2-2.2 1.8-3.2 1.3-2.1 2.6-4.2 4.1-6.1 3-3.9 6.1-7.7 9.4-11.3V0C12.5 5.1 8.4 10.4 4.8 16c-2 3.1-4.1 6.4-4.5 10.1-0.2 2.3-0.3 4.8-0.3 7C0 34.7 0 36 0 37" style="fill:#32cb4b"/>
</svg>
