<svg width="120" height="120" xmlns="http://www.w3.org/2000/svg" preserveAspectRatio="none">
 <!-- Created with Method Draw - http://github.com/duopixel/Method-Draw/ -->
 <g>
  <title>background</title>
  <rect fill="none" id="canvas_background" height="122" width="122" y="-1" x="-1"/>
 </g>
 <g>
  <title>Layer 1</title>
  <g stroke="null" id="svg_381">
   <path stroke="null" id="svg_1" d="m118.666668,1.666671l0,25.999998l-6.5,0l0,64.999996l6.5,0l0,25.999998l-25.999999,0l0,-6.5l-64.999996,0l0,6.5l-25.999999,0l0,-25.999998l6.5,0l0,-64.999996l-6.5,0l0,-25.999998l25.999999,0l0,6.5l64.999996,0l0,-6.5l25.999999,0zm-110.499994,6.5l0,12.999999l12.999999,0l0,-12.999999l-12.999999,0zm90.999995,0l0,12.999999l12.999999,0l0,-12.999999l-12.999999,0zm-90.999995,90.999995l0,12.999999l12.999999,0l0,-12.999999l-12.999999,0zm90.999995,0l0,12.999999l12.999999,0l0,-12.999999l-12.999999,0zm-71.499996,0l64.999996,0l0,-6.5l6.5,0l0,-64.999996l-6.5,0l0,-6.5l-64.999996,0l0,6.5l-6.5,0l0,64.999996l6.5,0l0,6.5zm6.5,-64.999996l51.999997,0l0,12.999999l-51.999997,0l0,-12.999999zm19.499999,12.999999l12.999999,0l0,38.999998l-12.999999,0l0,-38.999998z" fill-rule="evenodd" fill="#000000"/>
  </g>
 </g>
</svg>