<?xml version="1.0" encoding="utf-8"?>
<!-- Generator: Adobe Illustrator 23.0.3, SVG Export Plug-In . SVG Version: 6.00 Build 0)  -->
<svg version="1.1" id="Слой_1" xmlns="http://www.w3.org/2000/svg" xmlns:xlink="http://www.w3.org/1999/xlink" x="0px" y="0px"
	 viewBox="0 0 300 300" style="enable-background:new 0 0 300 300;" xml:space="preserve">
<style type="text/css">
	.st0{fill-rule:evenodd;clip-rule:evenodd;fill:#356AE6;}
</style>
<g>
	<path class="st0" d="M226.1,135.3c4.8,3.4,7.3,7.6,7.3,12.5v2.4c-0.1,3.8-1.4,9.1-7.3,13.5l0,0c-2.8,2-31.8,22.1-62.4,43.3
		c-30,20.8-63.7,44.2-67.9,47.1v3.4l-2-3.4c-0.1-0.2-0.2-0.3-0.1-0.6h-0.1v-17.6c0-6,0.7-8.9,7.4-13.4c5.6-3.6,94.1-64.9,105.8-73.1
		c-11.7-8.1-99-68.7-105-73.1l-0.7-0.5c-4.4-3.2-7.9-5.7-7.9-12.4v-21l1.7,1.2C100.2,47.3,222.7,132.7,226.1,135.3L226.1,135.3z"/>
	<path class="st0" d="M149.5,159c-3,0-6-1.1-9.2-3.2c-7.7-5.1-46.9-32.4-47.3-32.7l-0.5-0.3v-13.5c0-3.1,1.3-5.5,3.7-6.7
		c2.5-1.3,5.6-0.9,8.4,1.1c5.9,3.8,63.1,43.5,63.6,43.9l1.3,0.9l-1.3,0.9c0,0-3.9,2.6-8.1,5.6C156.4,157.7,152.9,159,149.5,159z"/>
</g>
</svg>
