<?xml version="1.0" encoding="utf-8"?>
<!-- Generator: Adobe Illustrator 23.0.1, SVG Export Plug-In . SVG Version: 6.00 Build 0)  -->
<svg version="1.1" id="Слой_1" xmlns="http://www.w3.org/2000/svg" xmlns:xlink="http://www.w3.org/1999/xlink" x="0px" y="0px"
	 viewBox="0 0 300 300" style="enable-background:new 0 0 300 300;" xml:space="preserve">
<style type="text/css">
	.st0{fill-rule:evenodd;clip-rule:evenodd;fill:#005AF0;}
</style>
<path class="st0" d="M236.9,68.2l-19.1-19.5c-4.1-4.1-9.6-6.5-15.4-6.5h-124c-11.9,0-21.6,9.7-21.6,21.6v172.5
	c0,11.9,9.7,21.6,21.6,21.6h143.1c11.9,0,21.6-9.7,21.6-21.6v-153C243.1,77.6,240.9,72.2,236.9,68.2z M183.2,141.2l-40.6,67.5h-7.3
	l7.3-44l-22.5,0h-0.3c-2,0-3.7-1.6-3.7-3.7c0-0.9,0.8-2.3,0.8-2.3l40.4-67.4l7.5,0l-7.5,44.1l22.6,0h0.4c2,0,3.7,1.6,3.7,3.7
	C184,139.9,183.6,140.6,183.2,141.2z"/>
</svg>
