<?xml version="1.0" encoding="utf-8"?>
<!-- Generator: Adobe Illustrator 24.2.0, SVG Export Plug-In . SVG Version: 6.00 Build 0)  -->
<svg version="1.1" id="Слой_1" xmlns="http://www.w3.org/2000/svg" xmlns:xlink="http://www.w3.org/1999/xlink" x="0px" y="0px"
	 viewBox="0 0 300 300" style="enable-background:new 0 0 300 300;" xml:space="preserve">
<style type="text/css">
	.st0{fill:#00A5FF;}
</style>
<g id="icon">
	<path class="st0" d="M233.9,111.7h-16.7v73.4c-0.2,11.8-9.8,21.4-21.6,21.5h-64l-1.5,1.5c1.8,6.2,7.3,10.6,13.8,10.8h26.8
		l39.2,32.8v-32.8h24c7.6,0,15-6.9,15-14.5V125C248.9,117.4,241.4,111.7,233.9,111.7z"/>
	<path class="st0" d="M195.5,86.4H65.6c-7.6,0-14.5,6.1-14.5,13.7v85c0,7.6,7,14.1,14.5,14.1h24.5v33.2l38.7-33.2h66.7
		c7.8-0.1,14.1-6.3,14.3-14.1v-85C209.6,92.4,203.2,86.3,195.5,86.4z"/>
</g>
</svg>
