<?xml version="1.0" encoding="utf-8"?>
<!-- Generator: Adobe Illustrator 22.1.0, SVG Export Plug-In . SVG Version: 6.00 Build 0)  -->
<svg version="1.1" id="Слой_1" xmlns="http://www.w3.org/2000/svg" xmlns:xlink="http://www.w3.org/1999/xlink" x="0px" y="0px"
	 viewBox="0 0 300 300" style="enable-background:new 0 0 300 300;" xml:space="preserve">
<style type="text/css">
	.st0{fill:#00AEEF;}
	.st1{fill:#FFFFFF;}
</style>
<g>
	<g>
		<path class="st0" d="M257,208.8c0,5.1-4,9.2-9.2,9.2H52.2c-5.1,0-9.2-4-9.2-9.2V91.2c0-5.1,4-9.2,9.2-9.2h195.7
			c5.1,0,9.2,4,9.2,9.2v117.6L257,208.8L257,208.8z"/>
	</g>
	<path class="st1" d="M255,85.3c-25.3,39.4-64.6,75.4-105.2,74.5c-15-0.4-31.8-4.8-46.3-16.5c-10.8-8.8-21.6-22.5-25.6-42.1
		c-1.8,0-2.9,0-4.6,0c-6.6,0-10.4,5.9-9.7,11.2c0.2,1.3,0.4,2.6,0.5,4c3.1,19,14.5,40.6,33.3,54.4c14.6,10.8,32.8,17.9,52.5,17.9
		c35.7-0.2,73.8-22.7,107.1-81.1V91.2C257,89,256.3,86.9,255,85.3z"/>
</g>
</svg>
