<?xml version="1.0" encoding="utf-8"?>
<!-- Generator: Adobe Illustrator 23.0.1, SVG Export Plug-In . SVG Version: 6.00 Build 0)  -->
<svg version="1.1" id="Слой_1" xmlns="http://www.w3.org/2000/svg" xmlns:xlink="http://www.w3.org/1999/xlink" x="0px" y="0px"
	 viewBox="0 0 300 300" style="enable-background:new 0 0 300 300;" xml:space="preserve">
<style type="text/css">
	.st0{clip-path:url(#SVGID_2_);}
	.st1{fill:#FF7A59;}
</style>
<g>
	<defs>
		<rect id="SVGID_1_" x="28.9" y="48" width="166.7" height="174.6"/>
	</defs>
	<clipPath id="SVGID_2_">
		<use xlink:href="#SVGID_1_"  style="overflow:visible;"/>
	</clipPath>
	<g class="st0">
		<path class="st1" d="M156.9,105.5V84.7c5.6-2.6,9.2-8.2,9.2-14.4v-0.5c0-8.8-7.2-16-16-16h-0.5c-8.8,0-16,7.2-16,16v0.5
			c0,6.2,3.6,11.8,9.2,14.4v20.8c-7.9,1.2-15.3,4.5-21.6,9.5l-57-44.4c0.4-1.5,0.6-3,0.6-4.5c0-10-8-18.1-18-18.1
			c-10,0-18.1,8-18.1,18c0,10,8,18.1,18,18.1c0,0,0,0,0,0c3.1,0,6.2-0.8,8.9-2.4l56.2,43.7c-10.3,15.6-10.1,35.9,0.7,51.2
			l-17.1,17.1c-1.4-0.4-2.8-0.7-4.3-0.7c-8.2,0-14.8,6.6-14.8,14.8c0,8.2,6.6,14.8,14.8,14.8c8.2,0,14.8-6.6,14.8-14.8
			c0-1.4-0.3-2.9-0.7-4.3l16.9-16.9c19.9,15.3,48.5,11.6,63.9-8.3c15.3-19.9,11.6-48.5-8.3-63.9
			C171.8,109.7,164.6,106.7,156.9,105.5 M149.9,173.9c-12.9,0-23.4-10.5-23.4-23.4c0-12.9,10.5-23.4,23.4-23.4
			c12.9,0,23.3,10.5,23.4,23.4C173.3,163.4,162.9,173.9,149.9,173.9"/>
	</g>
</g>
</svg>
