<?xml version="1.0" encoding="utf-8"?>
<!-- Generator: Adobe Illustrator 22.1.0, SVG Export Plug-In . SVG Version: 6.00 Build 0)  -->
<svg version="1.1" id="Слой_1" xmlns="http://www.w3.org/2000/svg" xmlns:xlink="http://www.w3.org/1999/xlink" x="0px" y="0px"
	 viewBox="0 0 300 300" style="enable-background:new 0 0 300 300;" xml:space="preserve">
<style type="text/css">
	.st0{fill:#139CD8;}
	.st1{fill:#FFFFFF;}
</style>
<g>
	<path class="st0" d="M133.3,91.7c14.2-15,37.8-15.6,52.8-1.4c2.8,2.7,5.3,5.8,7.1,9.3c5.8-2.6,12.2-3.9,18.6-3.9
		c25.6,1.6,45,23.6,43.5,49.1c-1.4,23.4-20.1,42-43.5,43.5c-3,0-6.1-0.3-9-0.9c-5.9,10.6-17.1,17.2-29.3,17.2
		c-5.1,0-10.1-1.1-14.6-3.4c-8.3,19.5-30.8,28.5-50.2,20.3c-9.7-4.1-17.3-12.1-20.9-22c-2.4,0.5-4.9,0.8-7.3,0.8
		c-19.9-0.2-35.8-16.4-35.7-36.2c0.1-12.7,6.9-24.4,17.9-30.8c-2.3-5.2-3.4-10.8-3.4-16.4C59.1,94,77.5,75.5,100.3,75.4
		C113.3,75.4,125.5,81.4,133.3,91.7"/>
	<path class="st1" d="M75.6,152.8c-0.2,0.3,0,0.4,0,0.5l1.2,0.8c2,1,4.2,1.5,6.4,1.4c4.3,0,7.1-2.3,7.1-6.1l0,0c0-3.5-3.1-4.7-6-5.6
		l-0.3-0.2c-2.1-0.7-4-1.3-4-2.7l0,0c0-1.2,1.1-2.1,2.8-2.1c1.9,0,3.8,0.5,5.5,1.4c0,0,0.4,0.3,0.6-0.2c0.2-0.4,0.9-2.2,0.9-2.4
		c0-0.2,0-0.4-0.2-0.5c-1.9-1.2-4-1.8-6.2-1.8h-0.4c-4,0-6.8,2.4-6.8,5.8l0,0c0,3.7,3.1,4.9,6,5.6l0.4,0.2c2.1,0.7,3.9,1.2,3.9,2.6
		l0,0c0,1.4-1.2,2.4-3.1,2.4c-2,0-4-0.5-5.6-1.6c-0.3-0.2-0.5-0.3-0.7-0.4c-0.2-0.1-0.4-0.1-0.5,0.1c0,0,0,0.1-0.1,0.1L75.6,152.8z"
		/>
	<path class="st1" d="M139.6,152.8c-0.2,0.3,0,0.4,0,0.5l1.2,0.8c2,1,4.2,1.5,6.4,1.4c4.3,0,7.1-2.3,7.1-6.1l0,0
		c0-3.5-3.1-4.7-6-5.6h-0.3c-2.1-0.7-4-1.3-4-2.7l0,0c0-1.2,1.1-2.1,2.8-2.1c1.9,0,3.8,0.5,5.5,1.4c0,0,0.4,0.3,0.6-0.2
		c0.2-0.4,0.9-2.2,0.9-2.4c0-0.2,0-0.4-0.2-0.5c-1.8-1.2-4-1.9-6.2-2h-0.4c-4,0-6.8,2.4-6.8,5.8l0,0c0,3.7,3.1,4.9,6,5.6l0.4,0.2
		c2.1,0.7,3.9,1.2,3.9,2.6l0,0c0,1.4-1.2,2.4-3.1,2.4c-2,0-4-0.5-5.6-1.6c-0.3-0.2-0.5-0.3-0.7-0.4c-0.2-0.1-0.4-0.1-0.5,0.1
		c0,0,0,0.1-0.1,0.1L139.6,152.8z"/>
	<path class="st1" d="M186.8,141.5c-0.3-1.1-0.9-2.2-1.6-3.2c-0.8-0.9-1.7-1.6-2.8-2.1c-2.5-1-5.3-1-7.8,0c-1.1,0.5-2,1.2-2.8,2.1
		c-0.8,0.9-1.3,2-1.6,3.2c-0.7,2.6-0.7,5.3,0,7.8c0.3,1.1,0.9,2.2,1.6,3.2c0.8,0.9,1.7,1.6,2.8,2.1c2.5,1,5.3,1,7.8,0
		c1.1-0.5,2-1.2,2.8-2.1c0.8-0.9,1.3-2,1.6-3.2c0.3-1.3,0.5-2.6,0.5-3.9C187.3,144.2,187.2,142.9,186.8,141.5 M183.2,145.5
		c0.1,1.7-0.3,3.4-1.2,4.9c-0.8,1.2-2.2,1.8-3.6,1.7c-1.4,0.1-2.8-0.6-3.6-1.7c-1.6-3.1-1.6-6.8,0-9.9c0.8-1.2,2.2-1.8,3.6-1.7
		c1.4-0.1,2.8,0.6,3.6,1.7C182.9,142,183.3,143.7,183.2,145.5"/>
	<path class="st1" d="M216.7,151.6c0-0.2-0.2-0.3-0.4-0.3c0,0,0,0,0,0c-0.6,0.2-1.1,0.4-1.7,0.5c-0.6,0.1-1.3,0.2-1.9,0.2
		c-1.5,0.1-3.1-0.5-4.2-1.5c-1.1-1.4-1.7-3.2-1.5-5c-0.1-1.7,0.4-3.4,1.4-4.8c1-1.2,2.5-1.9,4.1-1.8c1.3,0,2.6,0.1,3.9,0.5
		c0,0,0.3,0,0.4-0.3c0.3-0.9,0.6-1.5,0.9-2.5c0-0.2-0.1-0.4-0.2-0.4c0,0,0,0,0,0c-0.8-0.3-1.6-0.5-2.5-0.6c-0.9-0.1-1.8-0.2-2.7-0.2
		c-1.4,0-2.8,0.2-4.1,0.8c-1.1,0.5-2.2,1.2-3,2.1c-0.8,0.9-1.4,2-1.8,3.2c-0.4,1.2-0.6,2.6-0.6,3.9c-0.1,2.6,0.7,5.2,2.4,7.2
		c1.9,1.9,4.5,2.9,7.2,2.7c1.8,0,3.5-0.3,5.2-0.9c0.1-0.1,0.2-0.3,0.2-0.4L216.7,151.6z"/>
	<path class="st1" d="M235.3,140.8c-0.3-1.1-0.9-2.1-1.6-2.9c-0.6-0.8-1.5-1.4-2.4-1.8c-1.1-0.5-2.4-0.7-3.6-0.7
		c-1.4,0-2.8,0.2-4.1,0.8c-1.1,0.5-2,1.2-2.8,2.1c-0.8,1-1.3,2.1-1.7,3.2c-0.3,1.3-0.5,2.6-0.5,3.9c0,1.3,0.2,2.6,0.6,3.9
		c0.3,1.2,0.9,2.3,1.8,3.2c0.9,0.9,1.9,1.6,3.1,2c1.4,0.6,3,0.8,4.5,0.7c2.1,0.1,4.3-0.3,6.2-1.2c0.2,0,0.3-0.2,0-0.6l-0.9-2.3
		c0-0.3-0.4-0.2-0.4-0.2c-1.6,0.7-3.4,1-5.1,0.9c-1.5,0.1-3.1-0.5-4.3-1.4c-1-1.1-1.5-2.6-1.4-4.1h12.3c0.2,0,0.3-0.1,0.3-0.3
		c0,0,0,0,0,0c0.5-1.7,0.5-3.6-0.2-5.3 M223,143.3c0.1-1,0.5-2,1-2.9c0.8-1.2,2.1-1.9,3.5-1.8c1.4-0.1,2.7,0.6,3.5,1.8
		c0.5,0.9,0.8,1.9,0.9,2.9H223z"/>
	<path class="st1" d="M136.5,140.8c-0.3-1.1-0.9-2.1-1.6-2.9c-0.6-0.8-1.5-1.4-2.4-1.8c-1.1-0.5-2.3-0.8-3.6-0.8
		c-1.4,0-2.8,0.2-4.1,0.8c-1.1,0.5-2,1.2-2.8,2.1c-0.8,1-1.3,2.1-1.7,3.2c-0.3,1.3-0.5,2.6-0.5,3.9c0,1.3,0.2,2.6,0.6,3.9
		c0.3,1.2,0.9,2.3,1.8,3.2c0.9,0.9,1.9,1.6,3.1,2c1.4,0.6,3,0.8,4.5,0.7c2.1,0.1,4.3-0.3,6.2-1.2c0.2,0,0.3-0.2,0-0.6l-0.9-2.3
		c0-0.3-0.4-0.2-0.4-0.2c-1.6,0.7-3.4,1-5.1,0.9c-1.5,0.1-3.1-0.5-4.3-1.4c-1-1.1-1.5-2.6-1.4-4.1h12.3c0.2,0,0.3-0.1,0.3-0.3
		c0,0,0,0,0,0c0.5-1.7,0.5-3.6-0.2-5.3 M124.2,143.2c0.1-1,0.5-2,1-2.9c0.8-1.2,2.1-1.9,3.5-1.8c1.4-0.1,2.7,0.6,3.5,1.8
		c0.5,0.9,0.8,1.9,0.9,2.9H124.2z"/>
	<path class="st1" d="M102.5,142.8c-0.5,0-1.1,0-1.9,0c-1,0-2.1,0.2-3.1,0.4c-0.9,0.2-1.8,0.6-2.6,1.2c-0.8,0.5-1.4,1.2-1.8,2
		c-0.4,0.9-0.7,1.8-0.7,2.8c0,1,0.2,1.9,0.6,2.8c0.4,0.8,0.9,1.4,1.6,1.9c0.8,0.5,1.6,0.9,2.6,1.1c1.1,0.3,2.1,0.4,3.2,0.3
		c1.3,0,2.5-0.1,3.8-0.3c1.2-0.2,2.7-0.5,3.2-0.6c0.3-0.1,0.6-0.1,0.9-0.3c0.2,0,0.3-0.2,0.3-0.4c0,0,0,0,0,0v-11.4
		c0.2-2-0.5-4-1.9-5.5c-1.7-1.2-3.7-1.9-5.8-1.7c-1.1,0-2.2,0.1-3.3,0.3c-1.4,0.2-2.7,0.7-3.9,1.4c-0.1,0.1-0.1,0.4,0,0.5l0.9,2.4
		c0,0.3,0.4,0.2,0.4,0.2c0.1,0,0.1,0,0.2,0c1.7-0.8,3.5-1.2,5.4-1.3c1.1-0.1,2.2,0.2,3.1,0.8c0.7,0.5,1,1.3,1,3v0.5L102.5,142.8
		 M97.6,151.5c-0.3-0.2-0.5-0.5-0.7-0.8c-0.8-1.3-0.5-3,0.7-4c1-0.7,2.3-1,3.6-0.9c1.1,0,2.2,0.1,3.3,0.3v5.6
		c-1.1,0.2-2.2,0.4-3.3,0.4C100,152.4,98.7,152.2,97.6,151.5"/>
	<path class="st1" d="M202.1,136.4c0.1-0.2,0-0.3-0.1-0.4c0,0,0,0,0,0c-0.7-0.2-1.4-0.3-2-0.3c-1.1-0.1-2.2,0.1-3.2,0.5
		c-0.8,0.3-1.5,0.9-2,1.5v-1.5c0-0.2-0.2-0.3-0.3-0.3H191c-0.2,0-0.3,0.2-0.3,0.3v18.5c0,0.2,0.2,0.3,0.3,0.3h3.2
		c0.2,0,0.3-0.2,0.3-0.3v-9.2c0-1.1,0.1-2.2,0.4-3.2c0.2-0.7,0.6-1.3,1.1-1.8c0.4-0.4,0.9-0.8,1.5-0.9c0.5-0.2,1.1-0.2,1.6-0.3
		c0.5,0,0.9,0.1,1.4,0.2c0.3,0,0.3,0,0.4-0.3C201.3,138.5,201.9,136.8,202.1,136.4"/>
	<path class="st1" d="M171.6,127.9l-1.2-0.3c-0.6-0.1-1.1-0.2-1.7-0.2c-1.9-0.1-3.8,0.6-5.2,1.9c-1.4,1.6-2.2,3.5-2.5,5.6l-0.2,0.9
		H158c-0.2,0-0.4,0.1-0.4,0.3l-0.4,2.6c0,0.3,0,0.4,0.4,0.4h2.7l-2.8,15.5c-0.2,1-0.4,2.1-0.8,3.1c-0.2,0.6-0.5,1.2-0.9,1.8
		c-0.3,0.4-0.7,0.7-1.1,0.9c-0.5,0.1-1,0.2-1.4,0.2c-0.3,0-0.7,0-1,0c-0.2,0-0.5-0.1-0.7-0.3c0,0-0.3,0-0.4,0.2
		c-0.1,0.2-0.9,2.3-0.9,2.5c-0.1,0.2,0,0.4,0.2,0.5c0.4,0.1,0.7,0.3,1.1,0.3c0.6,0.1,1.2,0.2,1.8,0.2c1,0,2.1-0.1,3.1-0.5
		c0.9-0.4,1.7-0.9,2.3-1.6c0.7-0.8,1.3-1.7,1.6-2.7c0.5-1.4,0.8-2.8,1.1-4.2l2.8-15.8h4.1c0.2,0,0.4-0.1,0.4-0.3l0.4-2.6
		c0-0.3,0-0.4-0.4-0.4h-3.9c0.1-1,0.3-1.9,0.7-2.8c0.2-0.5,0.5-0.9,0.9-1.3c0.3-0.3,0.6-0.5,1-0.7c0.4-0.1,0.9-0.2,1.4-0.2
		c0.3,0,0.8,0,1,0s0.5,0,0.6,0.2c0.4,0,0.4,0,0.5-0.2l0.9-2.6c0-0.2-0.2-0.3-0.3-0.3"/>
	<path class="st1" d="M116.5,154.6c0,0.2-0.2,0.3-0.3,0.3h-3.2c-0.2,0-0.3-0.2-0.3-0.3v-26.4c0-0.2,0.2-0.3,0.3-0.3h3.2
		c0.2,0,0.3,0.2,0.3,0.3L116.5,154.6L116.5,154.6z"/>
</g>
</svg>
