<svg xmlns="http://www.w3.org/2000/svg" xml:space="preserve" viewBox="0 0 300 300">
  <path fill="#035188" d="M89.3 177.5c0 2.5-.5 3.4-3.2 3.4-8.3 0-8.3.1-11.4-7.4-1.7-4.4-3.4-8.8-5.1-13.1-.3-.8-.1-2.2-1.4-2.2 0 6.6-.1 13.2.1 19.7.1 2.5-.8 3-3.1 3-10.4.1-10.4.2-10.4-10.1 0-15.6.1-31.1-.1-46.7 0-3 .9-3.7 3.7-3.7 7.9.1 7.9 0 11 7.5 2 5 4.1 10 6.1 15.1.2-.1.4-.1.6-.2 0-6.4.1-12.8-.1-19.2-.1-2.4.7-3.1 3.1-3.1 10.2-.1 10.2-.2 10.2 10-.1 15.7-.1 31.4 0 47zm128.8-10.8c-.9 2.2-1.1 4-.4 6.3 2 6.3.3 12-4.5 16.4-4.8 4.5-10.6 5.5-16.8 3.1-2-.8-3.6-.7-5.6-.1-33 9.3-58.5-14.5-58.3-42.5a44.5 44.5 0 0 1 27.7-41.1 44.2 44.2 0 0 1 47.9 9.7 44.5 44.5 0 0 1 10 48.2zm35.8-13.8c-1-2.3-1.1-4.3 0-6.7 3.4-7.6 6.5-15.4 9.7-23.1.5-1.2 1.5-2.6-1-2.6-4.4 0-9.4-1-13.1.6-2.7 1.2-2.4 6.5-3.5 9.9-.1.3-.3.6-.7 1.7-1.1-3.7-2.2-6.7-3-9.8-.5-1.9-1.3-2.6-3.2-2.5-3.4.1-6.8.1-10.2 0-2.4-.1-3 .4-1.9 2.8 3.3 7.7 6.3 15.5 9.5 23.2.9 2.1.9 3.8.1 5.9-3.5 8.3-6.7 16.7-10.1 25-1 2.5-1.2 3.8 2.2 3.5 3-.3 6-.2 9 0 2.4.2 3.5-.7 4-3 .9-3.8 2.2-7.5 3.6-12 1.4 4.8 2.8 8.5 3.6 12.3.5 2.3 1.6 2.9 3.8 2.8 4-.1 8.1 0 12.8 0-4-9.8-7.7-18.9-11.6-28zm-205.7-2v-20.4c0-10.2 0-10-10.2-10.1-2.8 0-3.5.9-3.4 3.6.1 15.4.1 30.9.1 46.3 0 10.9 0 10.8 10.8 10.6 2.3-.1 2.8-.7 2.8-2.9-.2-9-.1-18.1-.1-27.1zm74.9 0c5.4 6.4 4.4 13.7 2 20.8-2.2 6.5-7.7 8.9-14.2 9.1-4.2.2-8.4-.1-12.6.1-2.6.1-3-.9-3-3.2.1-9 0-18.1 0-27.1s.1-18.1-.1-27.1c0-2.4.5-3.2 3-3.1 4.8.3 9.7 0 14.5.4 5.7.4 10 3.1 12 8.7 2.2 6.2 2.6 12.4-1.9 17.8-1.1 1.6-1 2.1.3 3.6zm-14.4-12.6c.9 1.5-1 4.3 1.4 4.5 2.8.2 3.1-2.5 3.1-4.8 0-2-.2-4.4-2.8-4.2-3.2.2-.5 3.1-1.7 4.5zM205 173c-2.6-2.9-4.9-1.2-6.9.7-2.6 2.5-2.9 6.3-.9 8.5 2 2.3 4.2 2.3 6.4.2 2.7 2.4 5.3 1.6 7.6-.5 3.7-3.3 3.7-8.7.1-12.1-4.4-4.2-13.4-3.5-17.3 1.4-4 4.9-3.2 12.2 1.6 15.6 5.5 3.8 14.7 2.4 17.9-2.8-.7-.3-1.3-.1-1.8.3-3.3 3.1-7.3 3.1-11.4 2.7-4-.4-8.2-4.8-7.6-8.6.6-3.6 2.2-6.9 5.9-8.4 3.8-1.6 7.7-1.7 11.2 1a6.3 6.3 0 0 1 .2 9.9c-.8.7-1.8 1.5-2.8.9-.8-.6-.2-1.7 0-2.6.3-1.1.6-2.3.8-3.4.2-1.1 1.1-2.4.3-3.3-1.3-1.4-2 1-3.3.5zm-91.1-11c-.1-1.7.1-3.3-.7-4.7-.7-1.3-1.9-1.8-3.3-1.5-1.5.3-.9 1.7-.9 2.6-.1 2.1-.1 4.2 0 6.2.1 1.1-.9 3 1 3.3 1.9.3 3.1-1.1 3.6-2.9.2-1.1.2-2.1.3-3zm87.8 11.6c-2.7 1-3.6 3.3-3.3 5.9.3 2.5 2 3 4.3 2.2 2.5-2.3 3.5-4.8 1.6-8-.9-.1-1.9-.4-2.6-.1zm1.9-12.1c2.7.3 3.3-.7 3.9-2.8 6.4-20.5-9.1-41.6-30.6-41.6-12.2 0-23.5 6.8-28.7 17.9-5.5 11.8-4.6 23.3 3.3 33.6 7.9 10.4 18.7 14.3 31.6 12.2 2.3-.4 3.2-1.1 3.2-3.7.1-9.4 8.1-16.7 17.3-15.6z"/>
</svg>
