<?xml version="1.0" encoding="utf-8"?>
<!-- Generator: Adobe Illustrator 23.0.4, SVG Export Plug-In . SVG Version: 6.00 Build 0)  -->
<svg version="1.1" id="Слой_1" xmlns="http://www.w3.org/2000/svg" xmlns:xlink="http://www.w3.org/1999/xlink" x="0px" y="0px"
	 viewBox="0 0 300 300" style="enable-background:new 0 0 300 300;" xml:space="preserve">
<style type="text/css">
	.st0{fill:#FF4A00;}
</style>
<path class="st0" d="M177,150c0,8-1.5,15.7-4.1,22.8c-7.1,2.7-14.8,4.1-22.8,4.1H150c-8,0-15.7-1.5-22.8-4.1
	c-2.7-7.1-4.1-14.7-4.1-22.8V150c0-8,1.5-15.7,4.1-22.8c7.1-2.7,14.8-4.1,22.8-4.1h0.1c8,0,15.7,1.5,22.8,4.1
	C175.5,134.3,176.9,141.9,177,150L177,150L177,150L177,150z M256.3,132h-62.9l44.5-44.5c-3.5-4.9-7.4-9.5-11.6-13.8l0,0
	c-4.3-4.3-8.9-8.1-13.8-11.6L168,106.6V43.7c-5.9-1-11.9-1.5-17.9-1.5h-0.1c-6,0-12,0.5-17.9,1.5v62.9L87.5,62.1
	c-4.9,3.5-9.5,7.4-13.8,11.6l0,0c-4.3,4.3-8.1,8.9-11.6,13.8l44.5,44.5H43.7c0,0-1.5,11.8-1.5,17.9v0.1c0,6,0.5,12,1.5,17.9h62.9
	l-44.5,44.5c7,9.8,15.6,18.4,25.4,25.4l44.5-44.5v62.9c5.9,1,11.9,1.5,17.9,1.5h0.2c6,0,12-0.5,17.9-1.5v-62.9l44.5,44.5
	c4.9-3.5,9.5-7.4,13.8-11.6l0,0c4.3-4.3,8.1-8.9,11.6-13.8L193.4,168h62.9c1-5.9,1.5-11.9,1.5-17.9v-0.2
	C257.8,143.9,257.3,137.9,256.3,132L256.3,132z"/>
</svg>
