<svg xmlns="http://www.w3.org/2000/svg" xmlns:xlink="http://www.w3.org/1999/xlink" viewBox="0 0 32 32" version="1.1">
	<g id="surface1">
		<path style=" " d="M 16 4 C 9.382813 4 4 9.382813 4 16 C 4 22.617188 9.382813 28 16 28 C 22.617188 28 28 22.617188 28 16 C 28 9.382813 22.617188 4 16 4 Z M 16 6 C 16.390625 6 16.777344 6.050781 17.15625 6.09375 C 18.632813 7.65625 21 10.925781 21 16 C 21 21.074219 18.632813 24.34375 17.15625 25.90625 C 16.777344 25.949219 16.390625 26 16 26 C 10.464844 26 6 21.535156 6 16 C 6 10.464844 10.464844 6 16 6 Z "></path>
	</g>
</svg>