<?xml version="1.0" encoding="utf-8"?>
<!-- Generator: Adobe Illustrator 22.1.0, SVG Export Plug-In . SVG Version: 6.00 Build 0)  -->
<svg version="1.1" id="Слой_1" xmlns="http://www.w3.org/2000/svg" xmlns:xlink="http://www.w3.org/1999/xlink" x="0px" y="0px"
	 viewBox="0 0 300 300" style="enable-background:new 0 0 300 300;" xml:space="preserve">
<style type="text/css">
	.st0{fill:#E3E3E3;}
	.st1{opacity:0.1;fill:#231F20;enable-background:new    ;}
	.st2{fill:#D54B3D;}
	.st3{fill:#D72B27;}
	.st4{fill:url(#SVGID_1_);}
</style>
<g>
	<path class="st0" d="M244.2,231.9H55.5c-7.3,0-13.5-6-13.5-13.5V82.1c0-7.3,6-13.5,13.5-13.5h188.7c7.3,0,13.5,6,13.5,13.5v136.3
		C257.7,226,251.7,231.9,244.2,231.9L244.2,231.9z"/>
	<path class="st1" d="M69,231.9l80.7-64.9l0.6-3.5l-83.2-59.9L66.9,229L69,231.9z"/>
	<path class="st2" d="M55.5,231.9c-7.5,0-13.5-6-13.5-13.5V81.9c0-7.5,6-8.9,13.5-8.9S69,74.6,69,81.9v150H55.5L55.5,231.9z"/>
	<path class="st3" d="M55.5,75c9.6,0,11.6,2.9,11.6,6.9V230H55.5c-6.4,0-11.6-5.2-11.6-11.6V81.9C44,77.7,45.9,75,55.5,75L55.5,75z
		 M55.5,73.1C48,73.1,42,74.6,42,81.9v136.5c0,7.5,6,13.5,13.5,13.5H69v-150C69,74.4,63,73.1,55.5,73.1L55.5,73.1L55.5,73.1z"/>
	<path class="st2" d="M244.2,231.9h-13.5V81.5c0-7.5,6-8.5,13.5-8.5s13.5,1,13.5,8.5v137.1C257.7,226,251.7,231.9,244.2,231.9
		L244.2,231.9z"/>
	<path class="st3" d="M244.2,75c8.7,0,11.6,1.7,11.6,6.5v137.1c0,6.4-5.2,11.6-11.6,11.6h-11.6V81.5C232.7,76.5,235.6,75,244.2,75
		L244.2,75z M244.2,73.1c-7.5,0-13.5,1-13.5,8.5v150.6h13.5c7.5,0,13.5-6,13.5-13.5V81.5C257.7,74,251.7,73.1,244.2,73.1L244.2,73.1
		L244.2,73.1z"/>
	
		<linearGradient id="SVGID_1_" gradientUnits="userSpaceOnUse" x1="-805.64" y1="687.9799" x2="-804.7924" y2="687.9799" gradientTransform="matrix(253.1598 0 0 -174.8345 203998.875 120440.4219)">
		<stop  offset="0" style="stop-color:#000000;stop-opacity:0.1"/>
		<stop  offset="1" style="stop-color:#000000;stop-opacity:0.2"/>
	</linearGradient>
	<path class="st4" d="M186.5,231.9L43.2,87.5l7.5,3.1l99.8,71.8l107.3-78.7v134.9c0,7.3-6,13.3-13.5,13.3H186.5z"/>
	<path class="st2" d="M149.7,167L47.8,93.1c-6-4.4-7.7-12.9-3.3-18.9s13.1-7.3,19.3-2.9l86.1,62.6l86.7-63.4
		c6-4.4,14.4-3.1,18.9,3.1c4.4,6,3.1,14.4-3.1,18.9L149.7,167L149.7,167z"/>
	<path class="st3" d="M244.2,69.8L244.2,69.8c3.7,0,7.1,1.7,9.4,4.8c3.7,5.2,2.5,12.3-2.5,16.2l-101.5,73.9L49,91.6
		c-5.2-3.9-6.5-11.2-2.9-16.2c2.1-2.9,5.8-4.8,9.6-4.8c2.5,0,5,0.8,6.9,2.3l85.9,62.4l1.2,0.8l1.2-0.8l86.5-63.4
		C239.4,70.6,241.7,69.8,244.2,69.8L244.2,69.8z M244.2,67.9c-2.7,0-5.6,0.8-7.9,2.5l-86.7,63.4l-86-62.7c-2.3-1.7-5.2-2.5-8.1-2.5
		c-4.2,0-8.5,1.9-11.2,5.6c-4.2,6-2.5,14.4,3.5,18.9l101.9,74.1l102.4-74.7c6-4.4,7.3-12.7,3.1-18.9
		C252.5,69.8,248.5,67.9,244.2,67.9L244.2,67.9L244.2,67.9z"/>
</g>
</svg>
