<svg xmlns="http://www.w3.org/2000/svg" xmlns:xlink="http://www.w3.org/1999/xlink" viewBox="0 0 32 32" version="1.1">
	<g id="surface1">
		<path style=" " d="M 16 6 C 12.484375 6 9.273438 7.070313 6.90625 8.84375 C 4.539063 10.617188 3 13.15625 3 16 C 3 18.84375 4.539063 21.382813 6.90625 23.15625 C 9.273438 24.929688 12.484375 26 16 26 C 19.515625 26 22.726563 24.929688 25.09375 23.15625 C 27.460938 21.382813 29 18.84375 29 16 C 29 13.15625 27.460938 10.617188 25.09375 8.84375 C 22.726563 7.070313 19.515625 6 16 6 Z M 16 8 C 19.109375 8 21.898438 8.957031 23.875 10.4375 C 25.851563 11.917969 27 13.875 27 16 C 27 18.125 25.851563 20.082031 23.875 21.5625 C 21.898438 23.042969 19.109375 24 16 24 C 12.890625 24 10.101563 23.042969 8.125 21.5625 C 6.148438 20.082031 5 18.125 5 16 C 5 13.875 6.148438 11.917969 8.125 10.4375 C 10.101563 8.957031 12.890625 8 16 8 Z "></path>
	</g>
</svg>