<?xml version="1.0" encoding="utf-8"?>
<!-- Generator: Adobe Illustrator 23.0.1, SVG Export Plug-In . SVG Version: 6.00 Build 0)  -->
<svg version="1.1" id="Слой_1" xmlns="http://www.w3.org/2000/svg" xmlns:xlink="http://www.w3.org/1999/xlink" x="0px" y="0px"
	 viewBox="0 0 300 300" style="enable-background:new 0 0 300 300;" xml:space="preserve">
<style type="text/css">
	.st0{fill:url(#SVGID_1_);}
	.st1{fill:url(#SVGID_2_);}
	.st2{fill:url(#SVGID_3_);}
	.st3{fill:url(#SVGID_4_);}
	.st4{fill:url(#SVGID_5_);}
	.st5{fill:url(#SVGID_6_);}
	.st6{fill:url(#SVGID_7_);}
	.st7{fill:url(#SVGID_8_);}
	.st8{fill:url(#SVGID_9_);}
	.st9{fill:url(#SVGID_10_);}
	.st10{fill:url(#SVGID_11_);}
</style>
<linearGradient id="SVGID_1_" gradientUnits="userSpaceOnUse" x1="145.1498" y1="134.4" x2="192.2498" y2="134.4">
	<stop  offset="0" style="stop-color:#FDE1A4"/>
	<stop  offset="4.530320e-02" style="stop-color:#FDE1A4"/>
	<stop  offset="0.271" style="stop-color:#FCD787"/>
	<stop  offset="0.5452" style="stop-color:#FBCE6B"/>
	<stop  offset="0.7853" style="stop-color:#FAC85A"/>
	<stop  offset="0.9632" style="stop-color:#FAC654"/>
	<stop  offset="1" style="stop-color:#FAC654"/>
</linearGradient>
<path class="st0" d="M191,117.1c-12,2.2-24.1,5.4-36,9.4c-3.7,8.3-7.1,16.8-9.9,25.3c8.7-2.2,17.6-4,26.4-5.3
	c3.8-0.6,7.7-1,11.7-1.4c2.4-9.4,5.4-18.9,9-28.1L191,117.1z"/>
<linearGradient id="SVGID_2_" gradientUnits="userSpaceOnUse" x1="91.5" y1="134.15" x2="126.6" y2="134.15">
	<stop  offset="0" style="stop-color:#FDE1A4"/>
	<stop  offset="4.530320e-02" style="stop-color:#FDE1A4"/>
	<stop  offset="0.1855" style="stop-color:#FCD88A"/>
	<stop  offset="0.3513" style="stop-color:#FBD072"/>
	<stop  offset="0.5281" style="stop-color:#FACA61"/>
	<stop  offset="0.7215" style="stop-color:#FAC757"/>
	<stop  offset="0.9632" style="stop-color:#FAC654"/>
	<stop  offset="1" style="stop-color:#FAC654"/>
</linearGradient>
<path class="st1" d="M105.8,129c-5.2,7.5-10,15.2-14.3,23.1c7.3-4.7,14.8-9.1,22.4-13c3.8-7.8,8.1-15.5,12.7-22.9
	C119.4,120.2,112.5,124.5,105.8,129"/>
<linearGradient id="SVGID_3_" gradientUnits="userSpaceOnUse" x1="107.7" y1="146.5" x2="149.2" y2="146.5">
	<stop  offset="0" style="stop-color:#8AA4C4"/>
	<stop  offset="0.227" style="stop-color:#8AA4C4"/>
	<stop  offset="0.521" style="stop-color:#86A1C2"/>
	<stop  offset="0.7916" style="stop-color:#7B98BC"/>
	<stop  offset="1" style="stop-color:#6D8CB5"/>
</linearGradient>
<path class="st2" d="M117.2,142.4c-3.5,7.2-6.7,14.7-9.5,22.1c10.3-4.5,21.2-8.3,32.3-11.4c2.6-8.3,5.7-16.5,9.2-24.6
	C138.2,132.5,127.5,137.2,117.2,142.4"/>
<linearGradient id="SVGID_4_" gradientUnits="userSpaceOnUse" x1="157.6" y1="102.4" x2="207.3" y2="102.4">
	<stop  offset="0" style="stop-color:#164989"/>
	<stop  offset="1" style="stop-color:#1E446D"/>
</linearGradient>
<path class="st3" d="M172,94.7c-5.3,8.5-10.1,17.3-14.4,26.2c10.8-3.4,21.7-6.2,32.7-8.2c1.3-0.2,2.6-0.5,3.8-0.7
	c3.8-9.5,8.3-18.9,13.2-28.1C195.6,86.6,183.7,90.2,172,94.7"/>
<linearGradient id="SVGID_5_" gradientUnits="userSpaceOnUse" x1="53.9" y1="181.75" x2="79.2" y2="181.75">
	<stop  offset="0" style="stop-color:#164989"/>
	<stop  offset="1" style="stop-color:#1E446D"/>
</linearGradient>
<path class="st4" d="M65.2,177.2c-4.1,6.6-7.9,13.4-11.3,20.2c5.6-4.6,11.6-9,17.6-13.1c2.3-6.1,4.9-12.2,7.7-18.2
	C74.4,169.7,69.7,173.4,65.2,177.2"/>
<linearGradient id="SVGID_6_" gradientUnits="userSpaceOnUse" x1="78" y1="163.05" x2="110.5" y2="163.05">
	<stop  offset="0" style="stop-color:#F7B219"/>
	<stop  offset="0.3356" style="stop-color:#F2AB1C"/>
	<stop  offset="0.82" style="stop-color:#E49823"/>
	<stop  offset="1" style="stop-color:#DD8F27"/>
</linearGradient>
<path class="st5" d="M86.9,160.6c-3.3,6.4-6.3,13-8.9,19.5c7.7-4.8,15.7-9.1,23.9-12.9c2.5-7.1,5.4-14.2,8.6-21.2
	C102.5,150.4,94.6,155.3,86.9,160.6"/>
<linearGradient id="SVGID_7_" gradientUnits="userSpaceOnUse" x1="188" y1="128.5971" x2="240.5" y2="128.5971">
	<stop  offset="0" style="stop-color:#8AA4C4"/>
	<stop  offset="0.227" style="stop-color:#8AA4C4"/>
	<stop  offset="0.521" style="stop-color:#86A1C2"/>
	<stop  offset="0.7916" style="stop-color:#7B98BC"/>
	<stop  offset="1" style="stop-color:#6D8CB5"/>
</linearGradient>
<path class="st6" d="M197.4,116c-3.7,9.4-6.8,19-9.4,28.6c14.4-1.2,28.8-1.3,42.2-0.2c3.2-11.2,6.6-21.8,10.3-31.8
	c-0.6,0-1.2,0-1.9,0C225.2,112.5,211.3,113.7,197.4,116"/>
<linearGradient id="SVGID_8_" gradientUnits="userSpaceOnUse" x1="199.4" y1="93.85" x2="257.3" y2="93.85">
	<stop  offset="0" style="stop-color:#F7B219"/>
	<stop  offset="0.3356" style="stop-color:#F2AB1C"/>
	<stop  offset="0.82" style="stop-color:#E49823"/>
	<stop  offset="1" style="stop-color:#DD8F27"/>
</linearGradient>
<path class="st7" d="M213.3,82.4c-5.2,9.3-9.9,18.9-13.9,28.6c13.2-2,26.5-3,39.3-3c1.3,0,2.5,0,3.6,0c4.4-11.2,9.5-21.8,15-31.3
	C247.2,77.1,231.8,78.5,213.3,82.4"/>
<linearGradient id="SVGID_9_" gradientUnits="userSpaceOnUse" x1="137.1" y1="166.1" x2="181.9541" y2="166.1">
	<stop  offset="0" style="stop-color:#F7B219"/>
	<stop  offset="0.3356" style="stop-color:#F2AB1C"/>
	<stop  offset="0.82" style="stop-color:#E49823"/>
	<stop  offset="1" style="stop-color:#DD8F27"/>
</linearGradient>
<path class="st8" d="M172.1,151c-9.6,1.4-19.2,3.4-28.6,5.9c-2.7,8.6-4.8,17.2-6.4,25.6c5.2-0.9,10.5-1.6,15.7-2.2
	c7.9-0.8,16-1.3,24.2-1.5c1-9.4,2.7-19.2,5-29.1C178.7,150,175.4,150.5,172.1,151"/>
<linearGradient id="SVGID_10_" gradientUnits="userSpaceOnUse" x1="42.7502" y1="207.4" x2="68.8845" y2="207.4">
	<stop  offset="0" style="stop-color:#FDE1A4"/>
	<stop  offset="4.530320e-02" style="stop-color:#FDE1A4"/>
	<stop  offset="0.1855" style="stop-color:#FCD88A"/>
	<stop  offset="0.3513" style="stop-color:#FBD072"/>
	<stop  offset="0.5281" style="stop-color:#FACA61"/>
	<stop  offset="0.7215" style="stop-color:#FAC757"/>
	<stop  offset="0.9632" style="stop-color:#FAC654"/>
	<stop  offset="1" style="stop-color:#FAC654"/>
</linearGradient>
<path class="st9" d="M49.1,207.5c-2.4,5.3-4.5,10.6-6.3,15.7c6.6-5.3,13.6-10.1,21-14.5c1.4-5.6,3.1-11.3,5.1-17.1
	C62,196.5,55.4,201.8,49.1,207.5"/>
<linearGradient id="SVGID_11_" gradientUnits="userSpaceOnUse" x1="99.1" y1="175.35" x2="138.3401" y2="175.35">
	<stop  offset="0" style="stop-color:#164989"/>
	<stop  offset="1" style="stop-color:#1E446D"/>
</linearGradient>
<path class="st10" d="M105.5,170.5c-2.5,7.3-4.7,14.6-6.4,21.8c10.6-3.7,21.8-6.7,33.2-8.9c1.5-8.2,3.5-16.6,6-25
	C127,161.6,116,165.7,105.5,170.5"/>
</svg>
