<?xml version="1.0" encoding="utf-8"?>
<!-- Generator: Adobe Illustrator 22.1.0, SVG Export Plug-In . SVG Version: 6.00 Build 0)  -->
<svg version="1.1" id="Слой_1" xmlns="http://www.w3.org/2000/svg" xmlns:xlink="http://www.w3.org/1999/xlink" x="0px" y="0px"
	 viewBox="0 0 300 300" style="enable-background:new 0 0 300 300;" xml:space="preserve">
<style type="text/css">
	.st0{clip-path:url(#XMLID_2_);fill:url(#XMLID_3_);}
	.st1{clip-path:url(#XMLID_4_);fill:url(#XMLID_5_);}
	.st2{clip-path:url(#XMLID_6_);fill:url(#XMLID_7_);}
	.st3{clip-path:url(#XMLID_8_);fill:url(#XMLID_9_);}
	.st4{clip-path:url(#XMLID_10_);fill:url(#XMLID_11_);}
	.st5{clip-path:url(#XMLID_12_);fill:url(#XMLID_13_);}
	.st6{clip-path:url(#XMLID_14_);fill:url(#XMLID_15_);}
	.st7{clip-path:url(#XMLID_16_);fill:url(#XMLID_17_);}
	.st8{clip-path:url(#XMLID_18_);fill:url(#XMLID_19_);}
	.st9{clip-path:url(#XMLID_20_);fill:url(#XMLID_21_);}
	.st10{clip-path:url(#XMLID_22_);fill:url(#XMLID_23_);}
</style>
<g>
	<g id="XMLID_143_">
		<defs>
			<path id="XMLID_56_" d="M191,117.1c-12,2.2-24.1,5.4-36,9.4c-3.7,8.3-7.1,16.8-9.9,25.3c8.7-2.2,17.6-4,26.4-5.3
				c3.8-0.6,7.7-1,11.7-1.4c2.4-9.4,5.4-18.9,9-28.1L191,117.1z"/>
		</defs>
		<clipPath id="XMLID_2_">
			<use xlink:href="#XMLID_56_"  style="overflow:visible;"/>
		</clipPath>
		
			<linearGradient id="XMLID_3_" gradientUnits="userSpaceOnUse" x1="-138.9243" y1="598.113" x2="-132.4457" y2="598.113" gradientTransform="matrix(7.2619 0 0 -7.2619 1154.004 4477.7588)">
			<stop  offset="0" style="stop-color:#FDE1A4"/>
			<stop  offset="4.530320e-02" style="stop-color:#FDE1A4"/>
			<stop  offset="0.271" style="stop-color:#FCD787"/>
			<stop  offset="0.5452" style="stop-color:#FBCE6B"/>
			<stop  offset="0.7853" style="stop-color:#FAC85A"/>
			<stop  offset="0.9632" style="stop-color:#FAC654"/>
			<stop  offset="1" style="stop-color:#FAC654"/>
		</linearGradient>
		<rect id="XMLID_57_" x="145.1" y="116.9" class="st0" width="47" height="34.9"/>
	</g>
	<g id="XMLID_140_">
		<defs>
			<path id="XMLID_54_" d="M105.8,129c-5.2,7.5-10,15.2-14.3,23.1c7.3-4.7,14.8-9.1,22.4-13c3.8-7.8,8.1-15.5,12.7-22.9
				C119.4,120.2,112.5,124.5,105.8,129"/>
		</defs>
		<clipPath id="XMLID_4_">
			<use xlink:href="#XMLID_54_"  style="overflow:visible;"/>
		</clipPath>
		
			<linearGradient id="XMLID_5_" gradientUnits="userSpaceOnUse" x1="-141.4731" y1="616.0054" x2="-134.9955" y2="616.0054" gradientTransform="matrix(5.4078 0 0 -5.4078 856.4581 3465.356)">
			<stop  offset="0" style="stop-color:#FDE1A4"/>
			<stop  offset="4.530320e-02" style="stop-color:#FDE1A4"/>
			<stop  offset="0.1855" style="stop-color:#FCD88A"/>
			<stop  offset="0.3513" style="stop-color:#FBD072"/>
			<stop  offset="0.5281" style="stop-color:#FACA61"/>
			<stop  offset="0.7215" style="stop-color:#FAC757"/>
			<stop  offset="0.9632" style="stop-color:#FAC654"/>
			<stop  offset="1" style="stop-color:#FAC654"/>
		</linearGradient>
		<rect id="XMLID_55_" x="91.4" y="116.2" class="st1" width="35" height="35.9"/>
	</g>
	<g id="XMLID_137_">
		<defs>
			<path id="XMLID_52_" d="M117.2,142.4c-3.5,7.2-6.7,14.7-9.5,22.1c10.3-4.5,21.2-8.3,32.3-11.4c2.6-8.3,5.7-16.5,9.2-24.6
				C138.2,132.5,127.5,137.2,117.2,142.4"/>
		</defs>
		<clipPath id="XMLID_6_">
			<use xlink:href="#XMLID_52_"  style="overflow:visible;"/>
		</clipPath>
		
			<linearGradient id="XMLID_7_" gradientUnits="userSpaceOnUse" x1="-141.5909" y1="603.4619" x2="-135.1113" y2="603.4619" gradientTransform="matrix(6.4059 0 0 -6.4059 1014.676 4012.2461)">
			<stop  offset="0" style="stop-color:#8AA4C4"/>
			<stop  offset="0.227" style="stop-color:#8AA4C4"/>
			<stop  offset="0.521" style="stop-color:#86A1C2"/>
			<stop  offset="0.7916" style="stop-color:#7B98BC"/>
			<stop  offset="1" style="stop-color:#6D8CB5"/>
		</linearGradient>
		<rect id="XMLID_53_" x="107.7" y="128.5" class="st2" width="41.5" height="36"/>
	</g>
	<g id="XMLID_122_">
		<defs>
			<path id="XMLID_50_" d="M172,94.7c-5.3,8.5-10.1,17.3-14.4,26.2c10.8-3.4,21.7-6.2,32.7-8.2c1.3-0.2,2.6-0.5,3.8-0.7
				c3.8-9.5,8.3-18.9,13.2-28.1C195.6,86.6,183.7,90.2,172,94.7"/>
		</defs>
		<clipPath id="XMLID_8_">
			<use xlink:href="#XMLID_50_"  style="overflow:visible;"/>
		</clipPath>
		
			<linearGradient id="XMLID_9_" gradientUnits="userSpaceOnUse" x1="-138.463" y1="598.8414" x2="-131.9843" y2="598.8414" gradientTransform="matrix(7.6738 0 0 -7.6738 1220.1842 4697.6938)">
			<stop  offset="0" style="stop-color:#164989"/>
			<stop  offset="1" style="stop-color:#1E446D"/>
		</linearGradient>
		<rect id="XMLID_51_" x="157.6" y="83.8" class="st3" width="49.7" height="37"/>
	</g>
	<g id="XMLID_119_">
		<defs>
			<path id="XMLID_48_" d="M65.2,177.2c-4.1,6.6-7.9,13.4-11.3,20.2c5.6-4.6,11.6-9,17.6-13.1c2.3-6.1,4.9-12.2,7.7-18.2
				C74.4,169.7,69.7,173.4,65.2,177.2"/>
		</defs>
		<clipPath id="XMLID_10_">
			<use xlink:href="#XMLID_48_"  style="overflow:visible;"/>
		</clipPath>
		
			<linearGradient id="XMLID_11_" gradientUnits="userSpaceOnUse" x1="-144.0125" y1="632.5991" x2="-137.5337" y2="632.5991" gradientTransform="matrix(3.9068 0 0 -3.9068 616.5145 2653.1687)">
			<stop  offset="0" style="stop-color:#164989"/>
			<stop  offset="1" style="stop-color:#1E446D"/>
		</linearGradient>
		<rect id="XMLID_49_" x="53.9" y="166.1" class="st4" width="25.3" height="31.3"/>
	</g>
	<g id="XMLID_116_">
		<defs>
			<path id="XMLID_46_" d="M86.9,160.6c-3.3,6.4-6.3,13-8.9,19.5c7.7-4.8,15.7-9.1,23.9-12.9c2.5-7.1,5.4-14.2,8.6-21.2
				C102.5,150.4,94.6,155.3,86.9,160.6"/>
		</defs>
		<clipPath id="XMLID_12_">
			<use xlink:href="#XMLID_46_"  style="overflow:visible;"/>
		</clipPath>
		
			<linearGradient id="XMLID_13_" gradientUnits="userSpaceOnUse" x1="-142.588" y1="616.6425" x2="-136.1094" y2="616.6425" gradientTransform="matrix(5.0129 0 0 -5.0129 792.8 3254.2476)">
			<stop  offset="0" style="stop-color:#F7B219"/>
			<stop  offset="0.3356" style="stop-color:#F2AB1C"/>
			<stop  offset="0.82" style="stop-color:#E49823"/>
			<stop  offset="1" style="stop-color:#DD8F27"/>
		</linearGradient>
		<rect id="XMLID_47_" x="78" y="146" class="st5" width="32.5" height="34.1"/>
	</g>
	<g id="XMLID_113_">
		<defs>
			<path id="XMLID_44_" d="M197.4,116c-3.7,9.4-6.8,19-9.4,28.6c14.4-1.2,28.8-1.3,42.2-0.2c3.2-11.2,6.6-21.8,10.3-31.8
				c-0.6,0-1.2,0-1.9,0C225.2,112.5,211.3,113.7,197.4,116"/>
		</defs>
		<clipPath id="XMLID_14_">
			<use xlink:href="#XMLID_44_"  style="overflow:visible;"/>
		</clipPath>
		
			<linearGradient id="XMLID_15_" gradientUnits="userSpaceOnUse" x1="-136.2348" y1="593.272" x2="-129.7566" y2="593.272" gradientTransform="matrix(8.1084 0 0 -8.1084 1292.6721 4939.043)">
			<stop  offset="0" style="stop-color:#8AA4C4"/>
			<stop  offset="0.227" style="stop-color:#8AA4C4"/>
			<stop  offset="0.521" style="stop-color:#86A1C2"/>
			<stop  offset="0.7916" style="stop-color:#7B98BC"/>
			<stop  offset="1" style="stop-color:#6D8CB5"/>
		</linearGradient>
		<rect id="XMLID_45_" x="188" y="112.5" class="st6" width="52.5" height="32"/>
	</g>
	<g id="XMLID_109_">
		<defs>
			<path id="XMLID_42_" d="M213.3,82.4c-5.2,9.3-9.9,18.9-13.9,28.6c13.2-2,26.5-3,39.3-3c1.3,0,2.5,0,3.6,0
				c4.4-11.2,9.5-21.8,15-31.3C247.2,77.1,231.8,78.5,213.3,82.4"/>
		</defs>
		<clipPath id="XMLID_16_">
			<use xlink:href="#XMLID_42_"  style="overflow:visible;"/>
		</clipPath>
		
			<linearGradient id="XMLID_17_" gradientUnits="userSpaceOnUse" x1="-136.9802" y1="592.1987" x2="-130.5011" y2="592.1987" gradientTransform="matrix(8.9311 0 0 -8.9311 1422.7679 5382.8926)">
			<stop  offset="0" style="stop-color:#F7B219"/>
			<stop  offset="0.3356" style="stop-color:#F2AB1C"/>
			<stop  offset="0.82" style="stop-color:#E49823"/>
			<stop  offset="1" style="stop-color:#DD8F27"/>
		</linearGradient>
		<rect id="XMLID_43_" x="199.4" y="76.8" class="st7" width="57.9" height="34.3"/>
	</g>
	<g id="XMLID_106_">
		<defs>
			<path id="XMLID_38_" d="M172.1,151c-9.6,1.4-19.2,3.4-28.6,5.9c-2.7,8.6-4.8,17.2-6.4,25.6c5.2-0.9,10.5-1.6,15.7-2.2
				c7.9-0.8,16-1.3,24.2-1.5c1-9.4,2.7-19.2,5-29.1C178.7,150,175.4,150.5,172.1,151"/>
		</defs>
		<clipPath id="XMLID_18_">
			<use xlink:href="#XMLID_38_"  style="overflow:visible;"/>
		</clipPath>
		
			<linearGradient id="XMLID_19_" gradientUnits="userSpaceOnUse" x1="-139.1104" y1="596.6588" x2="-132.6326" y2="596.6588" gradientTransform="matrix(6.9397 0 0 -6.9397 1102.4988 4306.7363)">
			<stop  offset="0" style="stop-color:#F7B219"/>
			<stop  offset="0.3356" style="stop-color:#F2AB1C"/>
			<stop  offset="0.82" style="stop-color:#E49823"/>
			<stop  offset="1" style="stop-color:#DD8F27"/>
		</linearGradient>
		<rect id="XMLID_41_" x="137.1" y="149.7" class="st8" width="45" height="32.8"/>
	</g>
	<g id="XMLID_103_">
		<defs>
			<path id="XMLID_35_" d="M49.1,207.5c-2.4,5.3-4.5,10.6-6.3,15.7c6.6-5.3,13.6-10.1,21-14.5c1.4-5.6,3.1-11.3,5.1-17.1
				C62,196.5,55.4,201.8,49.1,207.5"/>
		</defs>
		<clipPath id="XMLID_20_">
			<use xlink:href="#XMLID_35_"  style="overflow:visible;"/>
		</clipPath>
		
			<linearGradient id="XMLID_21_" gradientUnits="userSpaceOnUse" x1="-146.7266" y1="624.4681" x2="-140.2492" y2="624.4681" gradientTransform="matrix(4.0347 0 0 -4.0347 634.7479 2726.9695)">
			<stop  offset="0" style="stop-color:#FDE1A4"/>
			<stop  offset="4.530320e-02" style="stop-color:#FDE1A4"/>
			<stop  offset="0.1855" style="stop-color:#FCD88A"/>
			<stop  offset="0.3513" style="stop-color:#FBD072"/>
			<stop  offset="0.5281" style="stop-color:#FACA61"/>
			<stop  offset="0.7215" style="stop-color:#FAC757"/>
			<stop  offset="0.9632" style="stop-color:#FAC654"/>
			<stop  offset="1" style="stop-color:#FAC654"/>
		</linearGradient>
		<rect id="XMLID_36_" x="42.8" y="191.6" class="st9" width="26.1" height="31.6"/>
	</g>
	<g id="XMLID_100_">
		<defs>
			<path id="XMLID_32_" d="M105.5,170.5c-2.5,7.3-4.7,14.6-6.4,21.8c10.6-3.7,21.8-6.7,33.2-8.9c1.5-8.2,3.5-16.6,6-25
				C127,161.6,116,165.7,105.5,170.5"/>
		</defs>
		<clipPath id="XMLID_22_">
			<use xlink:href="#XMLID_32_"  style="overflow:visible;"/>
		</clipPath>
		
			<linearGradient id="XMLID_23_" gradientUnits="userSpaceOnUse" x1="-141.9556" y1="602.7599" x2="-135.4767" y2="602.7599" gradientTransform="matrix(6.0566 0 0 -6.0566 958.8577 3825.9495)">
			<stop  offset="0" style="stop-color:#164989"/>
			<stop  offset="1" style="stop-color:#1E446D"/>
		</linearGradient>
		<rect id="XMLID_33_" x="99.1" y="158.3" class="st10" width="39.2" height="34"/>
	</g>
</g>
</svg>
