<?xml version="1.0" encoding="utf-8"?>
<!-- Generator: Adobe Illustrator 22.1.0, SVG Export Plug-In . SVG Version: 6.00 Build 0)  -->
<svg version="1.1" id="Слой_1" xmlns="http://www.w3.org/2000/svg" xmlns:xlink="http://www.w3.org/1999/xlink" x="0px" y="0px"
	 viewBox="0 0 300 300" style="enable-background:new 0 0 300 300;" xml:space="preserve">
<style type="text/css">
	.st0{fill:#32CB4B;}
</style>
<path class="st0" d="M226.7,82.9l-33.5-33.5c-4.8-4.8-10.8-7.2-16.8-7.2H78.1c-7.2,0-12,4.8-12,12v191.6c0,7.2,4.8,12,12,12h143.7
	c7.2,0,12-4.8,12-12V99.7C233.8,93.7,231.4,87.7,226.7,82.9z M132.7,180.4c2,1.8,2.2,4.8,0.4,6.8c-0.9,1.1-2.3,1.6-3.6,1.6
	c-1.1,0-2.3-0.4-3.2-1.2L102.1,166l25.6-22.7c2-1.7,5-1.6,6.8,0.4s1.6,5-0.4,6.8L116.5,166L132.7,180.4z M159.5,138.1l-9.6,57.5
	c-0.4,2.3-2.4,4-4.7,4c-0.3,0-0.5,0-0.8-0.1c-2.6-0.4-4.4-2.9-3.9-5.5l9.6-57.5c0.4-2.6,2.9-4.4,5.5-3.9
	C158.2,133,159.9,135.4,159.5,138.1z M172.3,188.7c-0.9,0.8-2,1.2-3.2,1.2c-1.3,0-2.6-0.5-3.6-1.6c-1.8-2-1.6-5,0.4-6.8l17.5-15.6
	l-16.2-14.4c-2-1.8-2.2-4.8-0.4-6.8s4.8-2.2,6.8-0.4l24.2,21.5L172.3,188.7z"/>
</svg>
