<?xml version="1.0" encoding="utf-8"?>
<!-- Generator: Adobe Illustrator 23.1.1, SVG Export Plug-In . SVG Version: 6.00 Build 0)  -->
<svg version="1.1" id="Слой_1" xmlns="http://www.w3.org/2000/svg" xmlns:xlink="http://www.w3.org/1999/xlink" x="0px" y="0px"
	 viewBox="0 0 300 300" style="enable-background:new 0 0 300 300;" xml:space="preserve">
<style type="text/css">
	.st0{fill:#1AF6A8;}
	.st1{fill:#1B0B4F;}
</style>
<g>
	<path class="st0" d="M171,216.3c24-12.4,40.5-37.4,40.5-66.3c0-8.8-1.5-17.2-4.3-25H171V216.3z"/>
	<path class="st1" d="M212.3,117.5C199.7,88.4,170.7,68,137,68c-45.2,0-82,36.8-82,82s36.8,82,82,82c9.3,0,18.2-1.6,26.5-4.4v4.9h81
		v-115H212.3z M137,217c-36.9,0-67-30.1-67-67c0-36.9,30.1-67,67-67c25.2,0,47.1,13.9,58.6,34.5h-32.1v94
		C155.4,215,146.4,217,137,217z M204,150c0,21.3-10,40.3-25.5,52.5v-70h23.2C203.2,138.1,204,143.9,204,150z M229.5,217.5h-46
		C204.9,202.7,219,178,219,150c0-6-0.7-11.9-1.9-17.5h12.4V217.5z"/>
</g>
</svg>
