<?xml version="1.0" encoding="utf-8"?>
<!-- Generator: Adobe Illustrator 23.1.1, SVG Export Plug-In . SVG Version: 6.00 Build 0)  -->
<svg version="1.1" id="Слой_1" xmlns="http://www.w3.org/2000/svg" xmlns:xlink="http://www.w3.org/1999/xlink" x="0px" y="0px"
	 viewBox="0 0 300 300" style="enable-background:new 0 0 300 300;" xml:space="preserve">
<style type="text/css">
	.st0{fill:#003963;}
	.st1{fill:#9BCCED;}
	.st2{fill:#FFFFFF;}
</style>
<g>
	<path class="st0" d="M155.1,160.4c0-0.9-0.7-1.7-1.6-1.7h-4.8c-0.5,0-0.9-0.4-0.9-0.9v-7.1c0-0.5,0.4-1,0.9-1h4.8
		c0.9-0.1,1.7-0.8,1.7-1.7v-29.1c0-1.6-1.3-2.8-2.8-2.8H45.2c-1.6,0-2.8,1.3-2.8,2.8v62.3c0,1.6,1.3,2.8,2.8,2.8h107.1
		c1.6,0,2.8-1.3,2.8-2.8V160.4L155.1,160.4"/>
	<path class="st1" d="M254.8,116h-94.4c-1.6,0-2.8,1.3-2.8,2.8V148c0,0.9,0.8,1.7,1.7,1.7h5c0.5,0,0.9,0.4,0.9,0.9v7.1
		c0,0.5-0.4,0.9-0.9,0.9h-5c-0.9,0.1-1.6,0.8-1.6,1.7v20.8c0,1.6,1.3,2.8,2.8,2.8h94.4c1.6,0,2.8-1.3,2.8-2.8v-62.3
		C257.6,117.3,256.3,116,254.8,116"/>
	<path class="st2" d="M66.7,152.8c0,4,2.7,7.1,7.2,7.1s7.2-3.1,7.2-7.1c0-3.9-2.7-7.2-7.2-7.2S66.7,148.9,66.7,152.8 M92.1,168.6
		H80.8v-3.5h-0.1c-2,3.2-5.9,4.6-9.6,4.6c-9.4,0-16-7.9-16-17c0-9.1,6.5-16.9,15.9-16.9c3.7,0,7.5,1.4,9.8,4.1v-3.1h11.3V168.6"/>
	<path class="st2" d="M121,147.2c-1.7-1.2-3.7-2.2-5.8-2.2c-4.3,0-7.8,3.3-7.8,7.8c0,4.6,3.3,7.8,7.9,7.8c2,0,4.2-0.8,5.6-2.2v9.5
		c-2.5,1.2-5.2,1.8-7.9,1.8c-9.4,0-17.3-7-17.3-16.6c0-10.2,7.8-17.3,17.8-17.3c2.6,0,5.2,0.6,7.4,1.9V147.2"/>
	<polygon class="st2" points="138.7,168.6 127.4,168.6 127.4,146.1 123.8,146.1 123.8,136.9 127.4,136.9 127.4,127.3 138.7,127.3 
		138.7,136.9 145.1,136.9 145.1,146.1 138.7,146.1 	"/>
	<path class="st2" d="M194.2,136.6v11c1.4,1.3,2.3,3.2,2.3,5.3c0,4-2.7,7.1-7.2,7.1c-4.6,0-7.2-3.1-7.2-7.1c0-1.9,0.6-3.7,1.9-5
		v-11.2c-7.7,1.8-13.7,7.4-13.7,16.3c0,10.8,8.9,16.8,19,16.8c10.2,0,19-6.1,19-16.8C208.3,143.9,202.1,138.2,194.2,136.6
		 M233.2,136.1c-4.4,0-7.5,1.3-10.1,5.1H223v-4.1h-11.2v31.5H223v-16.4c0-3.9,1.3-7.3,5.8-7.3c5.5,0,5.1,5.3,5.1,8.3v15.4H245v-19.5
		C245,141.4,241.6,136.1,233.2,136.1"/>
	<path class="st2" d="M192.6,151.6c0,0.4-0.3,0.8-0.7,0.8h-5.7c-0.4,0-0.7-0.4-0.7-0.8v-22.5c0-0.4,0.3-0.8,0.7-0.8h5.6
		c0.4,0,0.7,0.4,0.7,0.8L192.6,151.6"/>
</g>
</svg>
