<?xml version="1.0" encoding="utf-8"?>
<!-- Generator: Adobe Illustrator 22.1.0, SVG Export Plug-In . SVG Version: 6.00 Build 0)  -->
<svg version="1.1" id="Слой_1" xmlns="http://www.w3.org/2000/svg" xmlns:xlink="http://www.w3.org/1999/xlink" x="0px" y="0px"
	 viewBox="0 0 300 300" style="enable-background:new 0 0 300 300;" xml:space="preserve">
<style type="text/css">
	.st0{fill-rule:evenodd;clip-rule:evenodd;fill:#32CB4B;}
</style>
<path class="st0" d="M78.5,42.2h124c5.8,0,11.3,2.3,15.4,6.5l19.1,19.5c3.9,4,6.2,9.4,6.2,15.1v153c0,11.9-9.7,21.6-21.6,21.6H78.5
	c-11.9,0-21.6-9.7-21.6-21.6V63.8C56.9,51.9,66.6,42.2,78.5,42.2z M131.7,170.4c2,1.8,2.2,4.8,0.4,6.8c-0.9,1.1-2.3,1.6-3.6,1.6
	c-1.1,0-2.3-0.4-3.2-1.2L101.1,156l25.6-22.7c2-1.7,5-1.6,6.8,0.4c1.8,2,1.6,5-0.4,6.8L115.5,156L131.7,170.4z M158.5,128.1
	l-9.6,57.5c-0.4,2.3-2.4,4-4.7,4c-0.3,0-0.5,0-0.8-0.1c-2.6-0.4-4.4-2.9-3.9-5.5l9.6-57.5c0.4-2.6,2.9-4.4,5.5-3.9
	C157.2,123,158.9,125.4,158.5,128.1z M171.3,178.7c-0.9,0.8-2,1.2-3.2,1.2c-1.3,0-2.6-0.5-3.6-1.6c-1.8-2-1.6-5,0.4-6.8l17.5-15.6
	l-16.2-14.4c-2-1.8-2.2-4.8-0.4-6.8c1.8-2,4.8-2.2,6.8-0.4l24.2,21.5L171.3,178.7z"/>
</svg>
