<?xml version="1.0" encoding="utf-8"?>
<!-- Generator: Adobe Illustrator 23.0.3, SVG Export Plug-In . SVG Version: 6.00 Build 0)  -->
<svg version="1.1" id="Слой_1" xmlns="http://www.w3.org/2000/svg" xmlns:xlink="http://www.w3.org/1999/xlink" x="0px" y="0px"
	 viewBox="0 0 300 300" style="enable-background:new 0 0 300 300;" xml:space="preserve">
<style type="text/css">
	.st0{fill:url(#SVGID_1_);}
</style>
<linearGradient id="SVGID_1_" gradientUnits="userSpaceOnUse" x1="150.0696" y1="66.2288" x2="150.0696" y2="257.6775">
	<stop  offset="0" style="stop-color:#717073"/>
	<stop  offset="1" style="stop-color:#717073"/>
</linearGradient>
<path class="st0" d="M196.7,176.4c10.4,18.7,9.1,42-3.7,59c-6.6,8.7-15.8,15.4-26.2,19.1c-12,4.2-24.9,3.7-37-0.8
	c-19.5-7.5-33.2-26.6-34.5-47.4c-0.4-5,0-10,1.2-15c0.8-3.3,2.9-9.6,2.9-9.6c0.4-0.8,0.8-1.2,1.7-1.2H114c1.2,0,2.1,0.8,2.1,2.1
	c0,0.4,0,0.4,0,0.8c0,0-3.7,7.9-4.6,12c-1.2,6.2-0.8,12.9,0.8,19.1c2.9,9.1,8.7,17,17,22c10.8,6.6,24.1,7.5,35.7,2.5
	c9.1-4.2,16.6-11.2,20.8-20.8c3.7-8.7,4.2-18.7,1.2-27.4c-1.2-4.2-33.2-60.7-34.1-61.9c0-0.4,0-0.8,0-1.2l6.6-11.6
	c0.4-0.4,0.8-0.8,1.7-0.8c0.5,0,1,0.5,1.4,0.9C162.6,116.2,192.5,169.8,196.7,176.4z M170.1,176c1.2,0,2.1-0.8,2.1-2.1
	c0-0.4-0.4-1.2-0.4-1.2c-2.9-5-6.2-11.2-6.2-11.2c-0.4-0.4-0.8-0.8-1.7-0.8c0,0-52.4,0-57.8,0c-4.6,0-9.1-0.4-13.3-1.7
	c-10-2.9-18.3-9.6-23.3-18.7c-5.4-9.6-6.6-21.6-2.9-32c3.7-10.8,12.5-19.9,23.3-24.1c10-3.7,21.6-3.3,31.2,1.7
	c6.6,3.3,12,8.3,16.2,14.5c0.4,0.4,0.8,0.8,1.7,0.8c0.8,0,1.2-0.4,1.7-0.8l6.2-11.2c0-0.4,0-0.4,0-0.8s0-0.8-0.4-1.2
	c0,0-4.2-5-6.6-7.1c-4.2-3.7-9.1-7.1-14.5-9.1c-10.4-4.6-22.4-5.4-33.7-2.9c-10.8,2.5-20.8,8.3-28.3,16.6
	c-15.4,17-18.3,42.4-7.5,62.7c4.2,7.9,10.8,14.5,18.3,19.5c3.7,2.5,7.9,4.6,12,5.8c2.5,0.8,5.4,1.7,7.9,2.1c2.9,0.4,6.2,0.4,9.1,0.8
	C111.1,176,170.1,176,170.1,176z M249.4,111.2c-0.4-3.3-1.7-6.2-2.9-9.1c-2.1-5.8-5.4-11.2-9.6-15.8c-7.9-9.1-19.1-15.8-31.2-17.9
	c-22-4.2-44.9,5.8-56.5,25.3c0,0-33.7,59.8-34.1,59.8c0,0.4,0,0.4,0,0.8c0,0.8,0.8,2.1,1.7,2.1h13.3c0.4,0,1.2-0.4,1.7-0.8
	c0,0,25.8-45.7,28.3-49.9c2.9-5.4,5.8-10,9.6-13.7c7.9-7.1,18.3-10.8,28.7-10c11.6,0.8,22.4,6.6,29.1,15.8
	c6.6,9.1,9.1,21.2,6.6,32.4c-2.5,10-8.7,18.7-17,24.1c-3.7,2.5-8.3,4.2-12.9,5.4c-2.5,0.4-7.5,0.8-7.5,0.8c-0.8,0-1.7,0.8-1.7,2.1
	c0,0.4,0,0.8,0.4,0.8c0,0,4.2,7.1,6.2,10.8c0.4,0.8,0.8,1.2,1.7,1.2c0,0,7.1-1.2,10-2.1c4.6-1.7,9.1-3.7,13.3-6.2
	c7.5-5,13.7-11.6,17.9-19.5c4.6-8.3,6.2-17.5,6.2-26.6C250.2,117.4,250.2,114.5,249.4,111.2z"/>
</svg>
