<svg xmlns="http://www.w3.org/2000/svg" viewBox="0 0 4850 91" style="width:4850px;height:91px;">
	<style type="text/css">  
	.st0{fill-rule:evenodd;clip-rule:evenodd;fill:#F3F3F3;}
	.st1{fill-rule:evenodd;clip-rule:evenodd;fill:#EBEBEB;}
	.st2{opacity:0.4;fill-rule:evenodd;clip-rule:evenodd;fill:#F3F3F3;enable-background:new    ;}
	.st3{fill-rule:evenodd;clip-rule:evenodd;fill:#F7F7F7;}
</style>
<path class="st0" d="M1605.5 88.8c-1.9 0-3.9-0.1-5.8-0.1 -1 0-1.9 0-2.9-0.1 -1.8 0-3.7-0.1-5.5-0.2 -0.9 0-1.8-0.1-2.6-0.1 -2.2-0.1-4.5-0.2-6.7-0.3 -0.4 0-0.8 0-1.1 0 -2.5-0.1-5-0.2-7.5-0.4 -0.8 0-1.5-0.1-2.2-0.1 -1.7-0.1-3.5-0.2-5.2-0.3 -0.9-0.1-1.7-0.1-2.6-0.2 -1.6-0.1-3.1-0.2-4.7-0.4 -0.8-0.1-1.7-0.1-2.5-0.2 -1.8-0.1-3.5-0.3-5.2-0.5 -0.6-0.1-1.1-0.1-1.7-0.2 -2.2-0.2-4.4-0.4-6.6-0.7 -0.7-0.1-1.3-0.1-1.9-0.2 -1.5-0.2-3.1-0.3-4.6-0.5 -0.8-0.1-1.6-0.2-2.4-0.3 -1.3-0.2-2.7-0.3-4-0.5 -0.8-0.1-1.6-0.2-2.4-0.3 -1.4-0.2-2.8-0.4-4.2-0.6 -0.6-0.1-1.3-0.2-1.9-0.3 -1.9-0.3-3.9-0.6-5.8-0.9 -0.6-0.1-1.2-0.2-1.8-0.3 -1.3-0.2-2.7-0.5-4-0.7 -0.8-0.1-1.5-0.3-2.3-0.4 -1.1-0.2-2.3-0.4-3.4-0.6 -0.8-0.1-1.6-0.3-2.4-0.5 -1.1-0.2-2.2-0.4-3.3-0.7 -0.7-0.1-1.4-0.3-2.2-0.4 -1.6-0.3-3.3-0.7-4.9-1 -0.7-0.2-1.4-0.3-2.1-0.5 -1.1-0.3-2.2-0.5-3.3-0.8 -0.8-0.2-1.6-0.4-2.4-0.6 -0.9-0.2-1.8-0.4-2.7-0.7 -0.8-0.2-1.6-0.4-2.4-0.6 -0.9-0.2-1.8-0.4-2.6-0.7 -0.8-0.2-1.6-0.4-2.4-0.6 -0.9-0.2-1.9-0.5-2.8-0.7 -1.3-0.3-2.6-0.7-3.9-1.1 -0.8-0.2-1.6-0.4-2.5-0.7 -0.9-0.2-1.7-0.5-2.6-0.7 -0.7-0.2-1.4-0.4-2-0.6 -0.9-0.3-1.8-0.5-2.6-0.8 -0.6-0.2-1.3-0.4-1.9-0.6 -0.9-0.3-1.8-0.5-2.7-0.8 -0.5-0.1-0.9-0.3-1.4-0.4 -2.3-0.7-4.6-1.4-6.8-2.1 24.7 3.4 53.3 5.4 87.8 5.4 33 0 60.6-1.9 84.6-5 29.8 5.5 65.3 9.1 111.2 9.1 10.7 0 20.8-0.2 30.5-0.6 -1.1 0.3-2.3 0.6-3.4 0.9 -0.9 0.2-1.7 0.4-2.6 0.6 -0.7 0.2-1.4 0.3-2.1 0.5 -1.2 0.3-2.5 0.6-3.7 0.9 -0.9 0.2-1.7 0.4-2.6 0.6 -0.8 0.2-1.6 0.4-2.4 0.5 -1.2 0.3-2.3 0.5-3.5 0.8 -0.9 0.2-1.8 0.4-2.7 0.6 -1 0.2-2 0.4-2.9 0.6 -0.7 0.1-1.5 0.3-2.2 0.4 -1.5 0.3-3 0.6-4.5 0.8 -0.7 0.1-1.4 0.3-2.2 0.4 -1.3 0.2-2.6 0.4-3.9 0.7 -0.8 0.1-1.6 0.3-2.4 0.4 -1.4 0.2-2.7 0.4-4.1 0.7 -0.7 0.1-1.4 0.2-2 0.3 -1.7 0.3-3.4 0.5-5.2 0.7 -0.6 0.1-1.2 0.2-1.8 0.2 -1.5 0.2-3 0.4-4.5 0.6 -0.5 0.1-1 0.1-1.6 0.2 -1.9 0.2-3.8 0.5-5.7 0.7 -0.6 0.1-1.2 0.1-1.9 0.2 -2 0.2-4 0.4-6 0.6 -0.4 0-0.8 0.1-1.1 0.1 -1.9 0.2-3.7 0.3-5.6 0.5 -0.6 0-1.1 0.1-1.7 0.1 -2.1 0.2-4.3 0.3-6.5 0.5 -0.5 0-1.1 0.1-1.6 0.1 -2.1 0.1-4.2 0.3-6.3 0.4 -0.3 0-0.6 0-0.8 0.1 -2.3 0.1-4.7 0.3-7.1 0.4 -0.6 0-1.1 0.1-1.7 0.1 -2.4 0.1-4.9 0.2-7.3 0.3 -0.4 0-0.8 0-1.2 0 -2.3 0.1-4.6 0.1-7 0.2 -0.5 0-0.9 0-1.4 0 -2.6 0.1-5.2 0.1-7.8 0.1 -0.6 0-1.1 0-1.7 0 -2.7 0-5.5 0-8.3 0 -2.9 0-5.7 0-8.6 0C1607.3 88.8 1606.4 88.8 1605.5 88.8zM797.2 88.8c-1.9 0-3.9-0.1-5.8-0.1 -1 0-1.9 0-2.9-0.1 -1.8 0-3.7-0.1-5.5-0.2 -0.9 0-1.8-0.1-2.6-0.1 -2.2-0.1-4.5-0.2-6.7-0.3 -0.4 0-0.8 0-1.1 0 -2.5-0.1-5-0.2-7.5-0.4 -0.8 0-1.5-0.1-2.2-0.1 -1.7-0.1-3.5-0.2-5.2-0.3 -0.9-0.1-1.7-0.1-2.6-0.2 -1.6-0.1-3.2-0.2-4.7-0.4 -0.8-0.1-1.7-0.1-2.5-0.2 -1.8-0.1-3.5-0.3-5.2-0.5 -0.5-0.1-1.1-0.1-1.7-0.2 -2.2-0.2-4.4-0.4-6.6-0.7 -0.7-0.1-1.3-0.1-1.9-0.2 -1.5-0.2-3.1-0.3-4.6-0.5 -0.8-0.1-1.6-0.2-2.4-0.3 -1.3-0.2-2.7-0.3-4-0.5 -0.8-0.1-1.6-0.2-2.4-0.3 -1.4-0.2-2.8-0.4-4.2-0.6 -0.6-0.1-1.3-0.2-1.9-0.3 -2-0.3-3.9-0.6-5.8-0.9 -0.6-0.1-1.2-0.2-1.8-0.3 -1.3-0.2-2.7-0.5-4-0.7 -0.8-0.1-1.5-0.3-2.3-0.4 -1.1-0.2-2.3-0.4-3.4-0.6 -0.8-0.1-1.6-0.3-2.4-0.5 -1.1-0.2-2.2-0.4-3.3-0.7 -0.7-0.1-1.4-0.3-2.2-0.4 -1.6-0.3-3.3-0.7-4.9-1 -0.7-0.2-1.4-0.3-2.1-0.5 -1.1-0.3-2.2-0.5-3.3-0.8 -0.8-0.2-1.6-0.4-2.4-0.6 -0.9-0.2-1.8-0.4-2.7-0.7 -0.8-0.2-1.6-0.4-2.4-0.6 -0.9-0.2-1.8-0.4-2.6-0.7 -0.8-0.2-1.6-0.4-2.4-0.6 -0.9-0.2-1.9-0.5-2.8-0.7 -1.3-0.3-2.6-0.7-3.9-1.1 -0.8-0.2-1.6-0.4-2.5-0.7 -0.9-0.2-1.7-0.5-2.6-0.7 -0.7-0.2-1.4-0.4-2-0.6 -0.9-0.3-1.8-0.5-2.6-0.8 -0.6-0.2-1.3-0.4-1.9-0.6 -0.9-0.3-1.8-0.5-2.7-0.8 -0.5-0.1-0.9-0.3-1.4-0.4 -2.3-0.7-4.6-1.4-6.8-2.1 24.7 3.4 53.3 5.4 87.8 5.4 33 0 60.6-1.9 84.6-5 29.8 5.5 65.3 9.1 111.2 9.1 10.7 0 20.8-0.2 30.5-0.6 -1.1 0.3-2.3 0.6-3.4 0.9 -0.9 0.2-1.7 0.4-2.6 0.6 -0.7 0.2-1.4 0.3-2.1 0.5 -1.2 0.3-2.5 0.6-3.7 0.9 -0.9 0.2-1.7 0.4-2.6 0.6 -0.8 0.2-1.6 0.4-2.4 0.5 -1.2 0.3-2.3 0.5-3.5 0.8 -0.9 0.2-1.8 0.4-2.7 0.6 -1 0.2-2 0.4-2.9 0.6 -0.7 0.1-1.5 0.3-2.2 0.4 -1.5 0.3-3 0.6-4.5 0.8 -0.7 0.1-1.4 0.3-2.2 0.4 -1.3 0.2-2.6 0.4-3.9 0.7 -0.8 0.1-1.6 0.3-2.4 0.4 -1.4 0.2-2.7 0.4-4.1 0.7 -0.7 0.1-1.4 0.2-2 0.3 -1.7 0.3-3.4 0.5-5.2 0.7 -0.6 0.1-1.2 0.2-1.8 0.2 -1.5 0.2-3 0.4-4.5 0.6 -0.5 0.1-1 0.1-1.6 0.2 -1.9 0.2-3.8 0.5-5.7 0.7 -0.6 0.1-1.2 0.1-1.9 0.2 -2 0.2-4 0.4-6 0.6 -0.4 0-0.8 0.1-1.1 0.1 -1.9 0.2-3.7 0.3-5.6 0.5 -0.6 0-1.1 0.1-1.7 0.1 -2.1 0.2-4.3 0.3-6.5 0.5 -0.5 0-1.1 0.1-1.6 0.1 -2.1 0.1-4.2 0.3-6.3 0.4 -0.3 0-0.6 0-0.8 0.1 -2.3 0.1-4.7 0.3-7.1 0.4 -0.6 0-1.1 0.1-1.7 0.1 -2.4 0.1-4.9 0.2-7.3 0.3 -0.4 0-0.8 0-1.2 0 -2.3 0.1-4.6 0.1-7 0.2 -0.5 0-0.9 0-1.4 0 -2.6 0.1-5.2 0.1-7.8 0.1 -0.6 0-1.1 0-1.7 0 -2.7 0-5.5 0-8.3 0 -2.9 0-5.7 0-8.6 0C798.9 88.8 798.1 88.8 797.2 88.8zM-11.1 88.8c-1.9 0-3.9-0.1-5.8-0.1 -1 0-1.9 0-2.9-0.1 -1.8 0-3.7-0.1-5.5-0.2 -0.9 0-1.8-0.1-2.6-0.1 -2.2-0.1-4.5-0.2-6.7-0.3 -0.4 0-0.8 0-1.1 0 -2.5-0.1-5-0.2-7.5-0.4 -0.8 0-1.5-0.1-2.2-0.1 -1.7-0.1-3.5-0.2-5.2-0.3 -0.9-0.1-1.7-0.1-2.6-0.2 -1.6-0.1-3.2-0.2-4.7-0.4 -0.8-0.1-1.7-0.1-2.5-0.2 -1.8-0.1-3.5-0.3-5.2-0.5 -0.5-0.1-1.1-0.1-1.7-0.2 -2.2-0.2-4.4-0.4-6.6-0.7 -0.7-0.1-1.3-0.1-1.9-0.2 -1.5-0.2-3.1-0.3-4.6-0.5 -0.8-0.1-1.6-0.2-2.4-0.3 -1.3-0.2-2.7-0.3-4-0.5 -0.8-0.1-1.6-0.2-2.4-0.3 -1.4-0.2-2.8-0.4-4.2-0.6 -0.6-0.1-1.3-0.2-1.9-0.3 -2-0.3-3.9-0.6-5.8-0.9 -0.6-0.1-1.2-0.2-1.8-0.3 -1.3-0.2-2.7-0.5-4-0.7 -0.8-0.1-1.5-0.3-2.3-0.4 -1.1-0.2-2.3-0.4-3.4-0.6 -0.8-0.1-1.6-0.3-2.4-0.5 -1.1-0.2-2.2-0.4-3.3-0.7 -0.7-0.1-1.4-0.3-2.2-0.4 -1.6-0.3-3.3-0.7-4.9-1 -0.7-0.2-1.4-0.3-2.1-0.5 -1.1-0.3-2.2-0.5-3.3-0.8 -0.8-0.2-1.6-0.4-2.4-0.6 -0.9-0.2-1.8-0.4-2.7-0.7 -0.8-0.2-1.6-0.4-2.4-0.6 -0.9-0.2-1.8-0.4-2.6-0.7 -0.8-0.2-1.6-0.4-2.4-0.6 -0.9-0.2-1.9-0.5-2.8-0.7 -1.3-0.3-2.6-0.7-3.9-1.1 -0.8-0.2-1.6-0.4-2.5-0.7 -0.9-0.2-1.7-0.5-2.6-0.7 -0.7-0.2-1.4-0.4-2-0.6 -0.9-0.3-1.8-0.5-2.6-0.8 -0.6-0.2-1.3-0.4-1.9-0.6 -0.9-0.3-1.8-0.5-2.7-0.8 -0.5-0.1-0.9-0.3-1.4-0.4 -2.3-0.7-4.6-1.4-6.8-2.1 24.7 3.4 53.3 5.4 87.8 5.4 33 0 60.6-1.9 84.6-5 29.8 5.5 65.3 9.1 111.2 9.1 10.7 0 20.8-0.2 30.5-0.6 -1.1 0.3-2.3 0.6-3.4 0.9 -0.9 0.2-1.7 0.4-2.6 0.6 -0.7 0.2-1.4 0.3-2.1 0.5 -1.2 0.3-2.5 0.6-3.7 0.9 -0.9 0.2-1.7 0.4-2.6 0.6 -0.8 0.2-1.6 0.4-2.4 0.5 -1.2 0.3-2.4 0.5-3.5 0.8 -0.9 0.2-1.8 0.4-2.7 0.6 -1 0.2-2 0.4-2.9 0.6 -0.7 0.1-1.5 0.3-2.2 0.4 -1.5 0.3-3 0.6-4.5 0.8 -0.7 0.1-1.4 0.3-2.2 0.4 -1.3 0.2-2.6 0.4-3.9 0.7 -0.8 0.1-1.6 0.3-2.4 0.4 -1.4 0.2-2.7 0.4-4.1 0.7 -0.7 0.1-1.4 0.2-2 0.3 -1.7 0.3-3.5 0.5-5.2 0.7 -0.6 0.1-1.2 0.2-1.8 0.2 -1.5 0.2-3 0.4-4.5 0.6 -0.5 0.1-1 0.1-1.6 0.2 -1.9 0.2-3.8 0.5-5.7 0.7 -0.6 0.1-1.2 0.1-1.9 0.2 -2 0.2-4 0.4-6 0.6 -0.4 0-0.8 0.1-1.1 0.1 -1.9 0.2-3.7 0.3-5.6 0.5 -0.6 0-1.1 0.1-1.7 0.1 -2.1 0.2-4.3 0.3-6.5 0.5 -0.5 0-1.1 0.1-1.6 0.1 -2.1 0.1-4.2 0.3-6.3 0.4 -0.3 0-0.6 0-0.8 0.1 -2.3 0.1-4.7 0.3-7.1 0.4 -0.6 0-1.1 0.1-1.7 0.1 -2.4 0.1-4.9 0.2-7.3 0.3 -0.4 0-0.8 0-1.1 0 -2.3 0.1-4.6 0.1-7 0.2 -0.5 0-0.9 0-1.4 0 -2.6 0.1-5.2 0.1-7.8 0.1 -0.6 0-1.1 0-1.7 0 -2.7 0-5.5 0-8.3 0 -2.9 0-5.7 0-8.6 0C-9.4 88.8-10.3 88.8-11.1 88.8zM4030.5 88.8c-1.9 0-3.9-0.1-5.8-0.1 -1 0-1.9 0-2.9-0.1 -1.8 0-3.7-0.1-5.5-0.2 -0.9 0-1.8-0.1-2.6-0.1 -2.2-0.1-4.5-0.2-6.7-0.3 -0.4 0-0.8 0-1.1 0 -2.5-0.1-5-0.2-7.5-0.4 -0.8 0-1.5-0.1-2.2-0.1 -1.7-0.1-3.5-0.2-5.2-0.3 -0.9-0.1-1.7-0.1-2.6-0.2 -1.6-0.1-3.1-0.2-4.7-0.4 -0.8-0.1-1.7-0.1-2.5-0.2 -1.8-0.1-3.5-0.3-5.2-0.5 -0.5-0.1-1.1-0.1-1.7-0.2 -2.2-0.2-4.4-0.4-6.6-0.7 -0.7-0.1-1.3-0.1-1.9-0.2 -1.5-0.2-3.1-0.3-4.6-0.5 -0.8-0.1-1.6-0.2-2.4-0.3 -1.3-0.2-2.7-0.3-4-0.5 -0.8-0.1-1.6-0.2-2.4-0.3 -1.4-0.2-2.8-0.4-4.2-0.6 -0.6-0.1-1.3-0.2-1.9-0.3 -1.9-0.3-3.9-0.6-5.8-0.9 -0.6-0.1-1.2-0.2-1.8-0.3 -1.3-0.2-2.7-0.5-4-0.7 -0.8-0.1-1.5-0.3-2.3-0.4 -1.1-0.2-2.3-0.4-3.4-0.6 -0.8-0.1-1.6-0.3-2.4-0.5 -1.1-0.2-2.2-0.4-3.3-0.7 -0.7-0.1-1.4-0.3-2.2-0.4 -1.6-0.3-3.3-0.7-4.9-1 -0.7-0.2-1.4-0.3-2.1-0.5 -1.1-0.3-2.2-0.5-3.3-0.8 -0.8-0.2-1.6-0.4-2.4-0.6 -0.9-0.2-1.8-0.4-2.7-0.7 -0.8-0.2-1.6-0.4-2.4-0.6 -0.9-0.2-1.8-0.4-2.6-0.7 -0.8-0.2-1.6-0.4-2.4-0.6 -0.9-0.2-1.9-0.5-2.8-0.7 -1.3-0.3-2.6-0.7-3.9-1.1 -0.8-0.2-1.6-0.4-2.5-0.7 -0.9-0.2-1.7-0.5-2.6-0.7 -0.7-0.2-1.4-0.4-2-0.6 -0.9-0.3-1.8-0.5-2.6-0.8 -0.6-0.2-1.3-0.4-1.9-0.6 -0.9-0.3-1.8-0.5-2.7-0.8 -0.5-0.1-0.9-0.3-1.4-0.4 -2.3-0.7-4.6-1.4-6.8-2.1 24.7 3.4 53.3 5.4 87.8 5.4 33 0 60.6-1.9 84.6-5 29.8 5.5 65.3 9.1 111.2 9.1 10.7 0 20.8-0.2 30.5-0.6 -1.1 0.3-2.3 0.6-3.4 0.9 -0.9 0.2-1.7 0.4-2.6 0.6 -0.7 0.2-1.4 0.3-2.1 0.5 -1.2 0.3-2.5 0.6-3.7 0.9 -0.9 0.2-1.7 0.4-2.6 0.6 -0.8 0.2-1.6 0.4-2.4 0.5 -1.2 0.3-2.4 0.5-3.5 0.8 -0.9 0.2-1.8 0.4-2.7 0.6 -1 0.2-2 0.4-2.9 0.6 -0.7 0.1-1.5 0.3-2.2 0.4 -1.5 0.3-3 0.6-4.5 0.8 -0.7 0.1-1.4 0.3-2.2 0.4 -1.3 0.2-2.6 0.4-3.9 0.7 -0.8 0.1-1.6 0.3-2.4 0.4 -1.4 0.2-2.7 0.4-4.1 0.7 -0.7 0.1-1.4 0.2-2 0.3 -1.7 0.3-3.5 0.5-5.2 0.7 -0.6 0.1-1.2 0.2-1.8 0.2 -1.5 0.2-3 0.4-4.5 0.6 -0.5 0.1-1 0.1-1.6 0.2 -1.9 0.2-3.8 0.5-5.7 0.7 -0.6 0.1-1.2 0.1-1.9 0.2 -2 0.2-4 0.4-6 0.6 -0.4 0-0.8 0.1-1.1 0.1 -1.9 0.2-3.7 0.3-5.6 0.5 -0.6 0-1.1 0.1-1.7 0.1 -2.1 0.2-4.3 0.3-6.5 0.5 -0.5 0-1.1 0.1-1.6 0.1 -2.1 0.1-4.2 0.3-6.4 0.4 -0.3 0-0.6 0-0.8 0.1 -2.3 0.1-4.7 0.3-7.1 0.4 -0.6 0-1.1 0.1-1.7 0.1 -2.4 0.1-4.9 0.2-7.3 0.3 -0.4 0-0.8 0-1.1 0 -2.3 0.1-4.6 0.1-7 0.2 -0.5 0-0.9 0-1.4 0 -2.6 0.1-5.2 0.1-7.8 0.1 -0.6 0-1.1 0-1.7 0 -2.7 0-5.5 0-8.3 0 -2.9 0-5.7 0-8.6 0C4032.3 88.8 4031.4 88.8 4030.5 88.8zM3222.2 88.8c-1.9 0-3.9-0.1-5.8-0.1 -1 0-1.9 0-2.9-0.1 -1.8 0-3.7-0.1-5.5-0.2 -0.9 0-1.8-0.1-2.6-0.1 -2.2-0.1-4.5-0.2-6.7-0.3 -0.4 0-0.8 0-1.1 0 -2.5-0.1-5-0.2-7.5-0.4 -0.8 0-1.5-0.1-2.2-0.1 -1.7-0.1-3.5-0.2-5.2-0.3 -0.9-0.1-1.7-0.1-2.6-0.2 -1.6-0.1-3.1-0.2-4.7-0.4 -0.8-0.1-1.7-0.1-2.5-0.2 -1.8-0.1-3.5-0.3-5.2-0.5 -0.5-0.1-1.1-0.1-1.7-0.2 -2.2-0.2-4.4-0.4-6.6-0.7 -0.7-0.1-1.3-0.1-1.9-0.2 -1.5-0.2-3.1-0.3-4.6-0.5 -0.8-0.1-1.6-0.2-2.4-0.3 -1.3-0.2-2.7-0.3-4-0.5 -0.8-0.1-1.6-0.2-2.4-0.3 -1.4-0.2-2.8-0.4-4.2-0.6 -0.6-0.1-1.3-0.2-1.9-0.3 -2-0.3-3.9-0.6-5.8-0.9 -0.6-0.1-1.2-0.2-1.8-0.3 -1.3-0.2-2.7-0.5-4-0.7 -0.8-0.1-1.5-0.3-2.3-0.4 -1.1-0.2-2.3-0.4-3.4-0.6 -0.8-0.1-1.6-0.3-2.4-0.5 -1.1-0.2-2.2-0.4-3.3-0.7 -0.7-0.1-1.4-0.3-2.2-0.4 -1.6-0.3-3.3-0.7-4.9-1 -0.7-0.2-1.4-0.3-2.1-0.5 -1.1-0.3-2.2-0.5-3.3-0.8 -0.8-0.2-1.6-0.4-2.4-0.6 -0.9-0.2-1.8-0.4-2.7-0.7 -0.8-0.2-1.6-0.4-2.4-0.6 -0.9-0.2-1.8-0.4-2.6-0.7 -0.8-0.2-1.6-0.4-2.4-0.6 -0.9-0.2-1.9-0.5-2.8-0.7 -1.3-0.3-2.6-0.7-3.9-1.1 -0.8-0.2-1.6-0.4-2.5-0.7 -0.9-0.2-1.7-0.5-2.6-0.7 -0.7-0.2-1.4-0.4-2-0.6 -0.9-0.3-1.8-0.5-2.6-0.8 -0.6-0.2-1.3-0.4-1.9-0.6 -0.9-0.3-1.8-0.5-2.7-0.8 -0.5-0.1-0.9-0.3-1.4-0.4 -2.3-0.7-4.6-1.4-6.8-2.1 24.7 3.4 53.3 5.4 87.8 5.4 33 0 60.6-1.9 84.6-5 29.8 5.5 65.3 9.1 111.2 9.1 10.7 0 20.8-0.2 30.5-0.6 -1.1 0.3-2.3 0.6-3.4 0.9 -0.9 0.2-1.7 0.4-2.6 0.6 -0.7 0.2-1.4 0.3-2.1 0.5 -1.2 0.3-2.5 0.6-3.7 0.9 -0.9 0.2-1.7 0.4-2.6 0.6 -0.8 0.2-1.6 0.4-2.4 0.5 -1.2 0.3-2.4 0.5-3.5 0.8 -0.9 0.2-1.8 0.4-2.7 0.6 -1 0.2-2 0.4-2.9 0.6 -0.7 0.1-1.5 0.3-2.2 0.4 -1.5 0.3-3 0.6-4.5 0.8 -0.7 0.1-1.4 0.3-2.2 0.4 -1.3 0.2-2.6 0.4-3.9 0.7 -0.8 0.1-1.6 0.3-2.4 0.4 -1.4 0.2-2.7 0.4-4.1 0.7 -0.7 0.1-1.4 0.2-2 0.3 -1.7 0.3-3.4 0.5-5.2 0.7 -0.6 0.1-1.2 0.2-1.8 0.2 -1.5 0.2-3 0.4-4.5 0.6 -0.5 0.1-1 0.1-1.6 0.2 -1.9 0.2-3.8 0.5-5.7 0.7 -0.6 0.1-1.2 0.1-1.9 0.2 -2 0.2-4 0.4-6 0.6 -0.4 0-0.8 0.1-1.1 0.1 -1.9 0.2-3.7 0.3-5.6 0.5 -0.6 0-1.1 0.1-1.7 0.1 -2.1 0.2-4.3 0.3-6.5 0.5 -0.5 0-1.1 0.1-1.6 0.1 -2.1 0.1-4.2 0.3-6.3 0.4 -0.3 0-0.6 0-0.8 0.1 -2.3 0.1-4.7 0.3-7.1 0.4 -0.6 0-1.1 0.1-1.7 0.1 -2.4 0.1-4.9 0.2-7.3 0.3 -0.4 0-0.8 0-1.2 0 -2.3 0.1-4.6 0.1-7 0.2 -0.5 0-0.9 0-1.4 0 -2.6 0.1-5.2 0.1-7.8 0.1 -0.6 0-1.1 0-1.7 0 -2.7 0-5.5 0-8.3 0 -2.9 0-5.7 0-8.6 0C3223.9 88.8 3223.1 88.8 3222.2 88.8zM4838.9 88.8c-1.9 0-3.9-0.1-5.8-0.1 -1 0-1.9 0-2.9-0.1 -1.8 0-3.7-0.1-5.5-0.2 -0.9 0-1.8-0.1-2.6-0.1 -2.2-0.1-4.5-0.2-6.7-0.3 -0.4 0-0.8 0-1.1 0 -2.5-0.1-5-0.2-7.5-0.4 -0.8 0-1.5-0.1-2.2-0.1 -1.7-0.1-3.5-0.2-5.2-0.3 -0.9-0.1-1.7-0.1-2.6-0.2 -1.6-0.1-3.1-0.2-4.7-0.4 -0.8-0.1-1.7-0.1-2.5-0.2 -1.8-0.1-3.5-0.3-5.2-0.5 -0.6-0.1-1.1-0.1-1.7-0.2 -2.2-0.2-4.4-0.4-6.6-0.7 -0.7-0.1-1.3-0.1-1.9-0.2 -1.5-0.2-3.1-0.3-4.6-0.5 -0.8-0.1-1.6-0.2-2.4-0.3 -1.3-0.2-2.7-0.3-4-0.5 -0.8-0.1-1.6-0.2-2.4-0.3 -1.4-0.2-2.8-0.4-4.2-0.6 -0.6-0.1-1.3-0.2-1.9-0.3 -2-0.3-3.9-0.6-5.8-0.9 -0.6-0.1-1.2-0.2-1.8-0.3 -1.3-0.2-2.7-0.5-4-0.7 -0.8-0.1-1.5-0.3-2.3-0.4 -1.1-0.2-2.3-0.4-3.4-0.6 -0.8-0.1-1.6-0.3-2.4-0.5 -1.1-0.2-2.2-0.4-3.3-0.7 -0.7-0.1-1.4-0.3-2.2-0.4 -1.6-0.3-3.3-0.7-4.9-1 -0.7-0.2-1.4-0.3-2.1-0.5 -1.1-0.3-2.2-0.5-3.3-0.8 -0.8-0.2-1.6-0.4-2.4-0.6 -0.9-0.2-1.8-0.4-2.7-0.7 -0.8-0.2-1.6-0.4-2.4-0.6 -0.9-0.2-1.8-0.4-2.6-0.7 -0.8-0.2-1.6-0.4-2.4-0.6 -0.9-0.2-1.9-0.5-2.8-0.7 -1.3-0.3-2.6-0.7-3.9-1.1 -0.8-0.2-1.6-0.4-2.4-0.7 -0.9-0.2-1.7-0.5-2.6-0.7 -0.7-0.2-1.4-0.4-2-0.6 -0.9-0.3-1.8-0.5-2.6-0.8 -0.6-0.2-1.3-0.4-1.9-0.6 -0.9-0.3-1.8-0.5-2.7-0.8 -0.5-0.1-0.9-0.3-1.4-0.4 -2.3-0.7-4.6-1.4-6.8-2.1 24.7 3.4 53.3 5.4 87.8 5.4 33 0 60.6-1.9 84.6-5 29.8 5.5 65.3 9.1 111.2 9.1 10.7 0 20.8-0.2 30.5-0.6 -1.1 0.3-2.3 0.6-3.4 0.9 -0.9 0.2-1.7 0.4-2.6 0.6 -0.7 0.2-1.4 0.3-2.1 0.5 -1.2 0.3-2.5 0.6-3.7 0.9 -0.9 0.2-1.7 0.4-2.6 0.6 -0.8 0.2-1.6 0.4-2.4 0.5 -1.2 0.3-2.3 0.5-3.5 0.8 -0.9 0.2-1.8 0.4-2.7 0.6 -1 0.2-2 0.4-2.9 0.6 -0.7 0.1-1.5 0.3-2.2 0.4 -1.5 0.3-3 0.6-4.5 0.8 -0.7 0.1-1.4 0.3-2.2 0.4 -1.3 0.2-2.6 0.4-3.9 0.7 -0.8 0.1-1.6 0.3-2.4 0.4 -1.4 0.2-2.7 0.4-4.1 0.7 -0.7 0.1-1.4 0.2-2 0.3 -1.7 0.3-3.4 0.5-5.2 0.7 -0.6 0.1-1.2 0.2-1.8 0.2 -1.5 0.2-3 0.4-4.5 0.6 -0.5 0.1-1 0.1-1.6 0.2 -1.9 0.2-3.8 0.5-5.7 0.7 -0.6 0.1-1.2 0.1-1.9 0.2 -2 0.2-4 0.4-6 0.6 -0.4 0-0.8 0.1-1.1 0.1 -1.9 0.2-3.7 0.3-5.6 0.5 -0.6 0-1.1 0.1-1.7 0.1 -2.1 0.2-4.3 0.3-6.5 0.5 -0.5 0-1.1 0.1-1.6 0.1 -2.1 0.1-4.2 0.3-6.4 0.4 -0.3 0-0.6 0-0.8 0.1 -2.3 0.1-4.7 0.3-7.1 0.4 -0.6 0-1.1 0.1-1.7 0.1 -2.4 0.1-4.9 0.2-7.3 0.3 -0.4 0-0.8 0-1.2 0 -2.3 0.1-4.6 0.1-7 0.2 -0.5 0-0.9 0-1.4 0 -2.6 0.1-5.2 0.1-7.8 0.1 -0.6 0-1.1 0-1.7 0 -2.7 0-5.5 0-8.3 0 -2.9 0-5.7 0-8.6 0C4840.6 88.8 4839.7 88.8 4838.9 88.8zM2413.9 88.8c-1.9 0-3.9-0.1-5.8-0.1 -1 0-1.9 0-2.9-0.1 -1.8 0-3.7-0.1-5.5-0.2 -0.9 0-1.8-0.1-2.6-0.1 -2.2-0.1-4.5-0.2-6.7-0.3 -0.4 0-0.8 0-1.1 0 -2.5-0.1-5-0.2-7.5-0.4 -0.8 0-1.5-0.1-2.2-0.1 -1.7-0.1-3.5-0.2-5.2-0.3 -0.9-0.1-1.7-0.1-2.6-0.2 -1.6-0.1-3.2-0.2-4.7-0.4 -0.8-0.1-1.7-0.1-2.5-0.2 -1.8-0.1-3.5-0.3-5.2-0.5 -0.5-0.1-1.1-0.1-1.7-0.2 -2.2-0.2-4.4-0.4-6.6-0.7 -0.7-0.1-1.3-0.1-1.9-0.2 -1.5-0.2-3.1-0.3-4.6-0.5 -0.8-0.1-1.6-0.2-2.4-0.3 -1.3-0.2-2.7-0.3-4-0.5 -0.8-0.1-1.6-0.2-2.4-0.3 -1.4-0.2-2.8-0.4-4.2-0.6 -0.6-0.1-1.3-0.2-1.9-0.3 -2-0.3-3.9-0.6-5.8-0.9 -0.6-0.1-1.2-0.2-1.8-0.3 -1.3-0.2-2.7-0.5-4-0.7 -0.8-0.1-1.5-0.3-2.3-0.4 -1.1-0.2-2.3-0.4-3.4-0.6 -0.8-0.1-1.6-0.3-2.4-0.5 -1.1-0.2-2.2-0.4-3.3-0.7 -0.7-0.1-1.4-0.3-2.2-0.4 -1.6-0.3-3.3-0.7-4.9-1 -0.7-0.2-1.4-0.3-2.1-0.5 -1.1-0.3-2.2-0.5-3.3-0.8 -0.8-0.2-1.6-0.4-2.4-0.6 -0.9-0.2-1.8-0.4-2.7-0.7 -0.8-0.2-1.6-0.4-2.4-0.6 -0.9-0.2-1.8-0.4-2.6-0.7 -0.8-0.2-1.6-0.4-2.4-0.6 -0.9-0.2-1.9-0.5-2.8-0.7 -1.3-0.3-2.6-0.7-3.9-1.1 -0.8-0.2-1.6-0.4-2.5-0.7 -0.9-0.2-1.7-0.5-2.6-0.7 -0.7-0.2-1.4-0.4-2-0.6 -0.9-0.3-1.8-0.5-2.6-0.8 -0.6-0.2-1.3-0.4-1.9-0.6 -0.9-0.3-1.8-0.5-2.7-0.8 -0.5-0.1-0.9-0.3-1.4-0.4 -2.3-0.7-4.6-1.4-6.8-2.1 24.7 3.4 53.3 5.4 87.8 5.4 33 0 60.6-1.9 84.6-5 29.8 5.5 65.3 9.1 111.2 9.1 10.7 0 20.8-0.2 30.5-0.6 -1.1 0.3-2.3 0.6-3.4 0.9 -0.9 0.2-1.7 0.4-2.6 0.6 -0.7 0.2-1.4 0.3-2.1 0.5 -1.2 0.3-2.5 0.6-3.7 0.9 -0.9 0.2-1.7 0.4-2.6 0.6 -0.8 0.2-1.6 0.4-2.4 0.5 -1.2 0.3-2.4 0.5-3.5 0.8 -0.9 0.2-1.8 0.4-2.7 0.6 -1 0.2-2 0.4-2.9 0.6 -0.7 0.1-1.5 0.3-2.2 0.4 -1.5 0.3-3 0.6-4.5 0.8 -0.7 0.1-1.4 0.3-2.2 0.4 -1.3 0.2-2.6 0.4-3.9 0.7 -0.8 0.1-1.6 0.3-2.4 0.4 -1.4 0.2-2.7 0.4-4.1 0.7 -0.7 0.1-1.4 0.2-2 0.3 -1.7 0.3-3.4 0.5-5.2 0.7 -0.6 0.1-1.2 0.2-1.8 0.2 -1.5 0.2-3 0.4-4.5 0.6 -0.5 0.1-1 0.1-1.6 0.2 -1.9 0.2-3.8 0.5-5.7 0.7 -0.6 0.1-1.2 0.1-1.9 0.2 -2 0.2-4 0.4-6 0.6 -0.4 0-0.8 0.1-1.1 0.1 -1.9 0.2-3.7 0.3-5.6 0.5 -0.6 0-1.1 0.1-1.7 0.1 -2.1 0.2-4.3 0.3-6.5 0.5 -0.5 0-1.1 0.1-1.6 0.1 -2.1 0.1-4.2 0.3-6.3 0.4 -0.3 0-0.6 0-0.8 0.1 -2.3 0.1-4.7 0.3-7.1 0.4 -0.6 0-1.1 0.1-1.7 0.1 -2.4 0.1-4.9 0.2-7.3 0.3 -0.4 0-0.8 0-1.1 0 -2.3 0.1-4.6 0.1-7 0.2 -0.5 0-0.9 0-1.4 0 -2.6 0.1-5.2 0.1-7.8 0.1 -0.6 0-1.1 0-1.7 0 -2.7 0-5.5 0-8.3 0 -2.9 0-5.7 0-8.6 0C2415.6 88.8 2414.7 88.8 2413.9 88.8z"/><path class="st1" d="M1239 9.1c24-3.1 51.6-5 84.6-5 156.2 0 191.7 41.5 293 60.3 -24 3.1-51.6 5-84.6 5 -34.5 0-63.1-2-87.8-5.4 -44.6-14.2-82.2-30.9-143.8-39.2C1281.9 18.9 1262.2 13.4 1239 9.1zM430.7 9.1c24-3.1 51.6-5 84.6-5 156.2 0 191.7 41.5 293 60.3 -24 3.1-51.6 5-84.6 5 -34.5 0-63.1-2-87.8-5.4C591.2 49.8 553.7 33.2 492 24.8 473.5 18.9 453.8 13.4 430.7 9.1zM3664 9.1c24-3.1 51.6-5 84.6-5 156.2 0 191.7 41.5 293 60.3 -24 3.1-51.6 5-84.6 5 -34.5 0-63.1-2-87.8-5.4 -44.6-14.2-82.2-30.9-143.8-39.2C3706.9 18.9 3687.2 13.4 3664 9.1zM2855.7 9.1c24-3.1 51.6-5 84.6-5 156.2 0 191.7 41.5 293 60.3 -24 3.1-51.6 5-84.6 5 -34.5 0-63.1-2-87.8-5.4 -44.6-14.2-82.1-30.9-143.8-39.2C2898.5 18.9 2878.8 13.4 2855.7 9.1zM4472.3 9.1c24-3.1 51.6-5 84.7-5 156.2 0 191.7 41.5 293 60.3 -24 3.1-51.6 5-84.6 5 -34.5 0-63.1-2-87.8-5.4 -44.6-14.2-82.2-30.9-143.8-39.2C4515.2 18.9 4495.5 13.4 4472.3 9.1zM2047.3 9.1c24-3.1 51.6-5 84.6-5 156.2 0 191.7 41.5 293 60.3 -24 3.1-51.6 5-84.6 5 -34.5 0-63.1-2-87.8-5.4 -44.6-14.2-82.1-30.9-143.8-39.2C2090.2 18.9 2070.5 13.4 2047.3 9.1z"/><path class="st0" d="M1239 9.1c23.1 4.3 42.9 9.8 61.4 15.7 -12.4-1.7-25.7-3-40.2-3.9 -0.1 0-0.2 0-0.3 0 -1.7-0.1-3.3-0.2-5-0.3 -0.4 0-0.8 0-1.1-0.1 -1.4-0.1-2.8-0.1-4.2-0.2 -0.5 0-1 0-1.6-0.1 -1.3-0.1-2.6-0.1-3.9-0.2 -0.6 0-1.2 0-1.8-0.1 -1.3 0-2.5-0.1-3.8-0.1 -0.7 0-1.3 0-2-0.1 -1.2 0-2.5-0.1-3.7-0.1 -0.7 0-1.4 0-2.1-0.1 -1.3 0-2.6 0-3.9-0.1 -0.7 0-1.4 0-2.1 0 -1.4 0-2.8 0-4.2 0 -0.6 0-1.2 0-1.8 0 -2 0-4.1 0-6.1 0h0c-2.5 0-5.1 0-7.5 0 -0.4 0-0.8 0-1.1 0 -2.3 0-4.6 0.1-6.9 0.1h0c-5.1 0.1-10 0.2-14.8 0.4C1199 15.7 1217.6 11.9 1239 9.1zM430.7 9.1c23.1 4.3 42.9 9.8 61.4 15.7 -12.4-1.7-25.7-3-40.2-3.9 -0.1 0-0.2 0-0.3 0 -1.7-0.1-3.3-0.2-5-0.3 -0.4 0-0.8 0-1.1-0.1 -1.4-0.1-2.8-0.1-4.2-0.2 -0.5 0-1 0-1.6-0.1 -1.3-0.1-2.6-0.1-3.9-0.2 -0.6 0-1.2 0-1.8-0.1 -1.3 0-2.5-0.1-3.8-0.1 -0.7 0-1.3 0-2-0.1 -1.2 0-2.5-0.1-3.7-0.1 -0.7 0-1.4 0-2.1-0.1 -1.3 0-2.6 0-3.9-0.1 -0.7 0-1.4 0-2.1 0 -1.4 0-2.8 0-4.2 0 -0.6 0-1.2 0-1.8 0 -2 0-4.1 0-6.1 0h0c-2.5 0-5.1 0-7.5 0 -0.4 0-0.8 0-1.1 0 -2.3 0-4.6 0.1-6.9 0.1h0c-5.1 0.1-10 0.2-14.8 0.4C390.7 15.7 409.2 11.9 430.7 9.1zM3664 9.1c23.1 4.3 42.9 9.8 61.4 15.7 -12.4-1.7-25.7-3-40.2-3.9 -0.1 0-0.2 0-0.3 0 -1.6-0.1-3.3-0.2-5-0.3 -0.4 0-0.8 0-1.1-0.1 -1.4-0.1-2.8-0.1-4.2-0.2 -0.5 0-1 0-1.6-0.1 -1.3-0.1-2.6-0.1-3.9-0.2 -0.6 0-1.2 0-1.8-0.1 -1.3 0-2.5-0.1-3.8-0.1 -0.7 0-1.3 0-2-0.1 -1.2 0-2.5-0.1-3.7-0.1 -0.7 0-1.4 0-2.1-0.1 -1.3 0-2.6 0-3.9-0.1 -0.7 0-1.4 0-2.1 0 -1.4 0-2.8 0-4.2 0 -0.6 0-1.2 0-1.8 0 -2 0-4.1 0-6.1 0h0c-2.5 0-5.1 0-7.5 0 -0.4 0-0.8 0-1.1 0 -2.3 0-4.6 0.1-6.9 0.1h0c-5.1 0.1-10 0.2-14.8 0.4C3624 15.7 3642.6 11.9 3664 9.1zM2855.7 9.1c23.1 4.3 42.9 9.8 61.4 15.7 -12.4-1.7-25.7-3-40.2-3.9 -0.1 0-0.2 0-0.3 0 -1.7-0.1-3.3-0.2-5-0.3 -0.4 0-0.8 0-1.1-0.1 -1.4-0.1-2.8-0.1-4.2-0.2 -0.5 0-1 0-1.6-0.1 -1.3-0.1-2.6-0.1-3.9-0.2 -0.6 0-1.2 0-1.8-0.1 -1.3 0-2.5-0.1-3.8-0.1 -0.7 0-1.3 0-2-0.1 -1.2 0-2.5-0.1-3.7-0.1 -0.7 0-1.4 0-2.1-0.1 -1.3 0-2.6 0-3.9-0.1 -0.7 0-1.4 0-2.1 0 -1.4 0-2.8 0-4.2 0 -0.6 0-1.2 0-1.8 0 -2 0-4.1 0-6.1 0h0c-2.5 0-5.1 0-7.5 0 -0.4 0-0.8 0-1.1 0 -2.3 0-4.6 0.1-6.9 0.1h0c-5.1 0.1-10 0.2-14.8 0.4C2815.7 15.7 2834.2 11.9 2855.7 9.1zM4472.3 9.1c23.1 4.3 42.9 9.8 61.4 15.7 -12.4-1.7-25.7-3-40.2-3.9 -0.1 0-0.2 0-0.3 0 -1.6-0.1-3.3-0.2-5-0.3 -0.4 0-0.8 0-1.1-0.1 -1.4-0.1-2.8-0.1-4.2-0.2 -0.5 0-1 0-1.6-0.1 -1.3-0.1-2.6-0.1-3.9-0.2 -0.6 0-1.2 0-1.8-0.1 -1.3 0-2.5-0.1-3.8-0.1 -0.7 0-1.3 0-2-0.1 -1.2 0-2.5-0.1-3.7-0.1 -0.7 0-1.4 0-2.1-0.1 -1.3 0-2.6 0-3.9-0.1 -0.7 0-1.4 0-2.1 0 -1.4 0-2.8 0-4.2 0 -0.6 0-1.2 0-1.8 0 -2 0-4.1 0-6.1 0h0c-2.5 0-5.1 0-7.5 0 -0.4 0-0.8 0-1.1 0 -2.3 0-4.6 0.1-6.9 0.1h0c-5.1 0.1-10 0.2-14.8 0.4C4432.4 15.7 4450.9 11.9 4472.3 9.1zM2047.3 9.1c23.1 4.3 42.9 9.8 61.4 15.7 -12.4-1.7-25.7-3-40.2-3.9 -0.1 0-0.2 0-0.3 0 -1.6-0.1-3.3-0.2-5-0.3 -0.4 0-0.8 0-1.1-0.1 -1.4-0.1-2.8-0.1-4.2-0.2 -0.5 0-1 0-1.6-0.1 -1.3-0.1-2.6-0.1-3.9-0.2 -0.6 0-1.2 0-1.8-0.1 -1.3 0-2.5-0.1-3.8-0.1 -0.7 0-1.3 0-2-0.1 -1.2 0-2.5-0.1-3.7-0.1 -0.7 0-1.4 0-2.1-0.1 -1.3 0-2.6 0-3.9-0.1 -0.7 0-1.4 0-2.1 0 -1.4 0-2.8 0-4.2 0 -0.6 0-1.2 0-1.8 0 -2 0-4.1 0-6.1 0h0c-2.5 0-5.1 0-7.5 0 -0.4 0-0.8 0-1.1 0 -2.3 0-4.6 0.1-6.9 0.1h0c-5.1 0.1-10 0.2-14.8 0.4C2007.4 15.7 2025.9 11.9 2047.3 9.1z"/><path class="st2" d="M2047.3 9.1c-21.4 2.8-40 6.5-56.9 10.9 -115.9 4.4-158.4 34.1-232.2 53 -9.6 0.4-19.8 0.6-30.5 0.6 -45.9 0-81.4-3.6-111.2-9.1C1739.4 48.6 1767.1 0 1936.1 0 1982.1 0 2017.5 3.6 2047.3 9.1zM1127.8 0c45.9 0 81.4 3.6 111.2 9.1 -21.4 2.8-40 6.5-56.9 10.9h0c-115.9 4.4-158.4 34.1-232.2 53 -9.6 0.4-19.8 0.6-30.5 0.6 -45.9 0-81.4-3.6-111.2-9.1C931.1 48.6 958.8 0 1127.8 0zM319.5 0c45.9 0 81.4 3.6 111.2 9.1 -21.4 2.8-40 6.5-56.9 10.9h0c-115.9 4.4-158.4 34.1-232.2 53 -9.6 0.4-19.8 0.6-30.5 0.6C65.2 73.6 29.8 70 0 64.5 122.8 48.6 150.4 0 319.5 0zM4472.3 9.1c-21.4 2.8-40 6.5-56.9 10.9 -115.9 4.4-158.4 34.1-232.2 53 -9.6 0.4-19.8 0.6-30.5 0.6 -45.9 0-81.4-3.6-111.2-9.1C4164.4 48.6 4192.1 0 4361.1 0 4407.1 0 4442.5 3.6 4472.3 9.1zM3552.8 0c45.9 0 81.4 3.6 111.2 9.1 -21.4 2.8-40 6.5-56.9 10.9h0c-115.9 4.4-158.4 34.1-232.2 53 -9.6 0.4-19.8 0.6-30.5 0.6 -45.9 0-81.4-3.6-111.2-9.1C3356.1 48.6 3383.8 0 3552.8 0zM5169.5 0c45.9 0 81.4 3.6 111.2 9.1 -21.4 2.8-40 6.5-56.9 10.9h0c-115.9 4.4-158.4 34.1-232.2 53 -9.6 0.4-19.8 0.6-30.5 0.6 -45.9 0-81.4-3.6-111.2-9.1C4972.8 48.6 5000.4 0 5169.5 0zM2744.5 0c45.9 0 81.4 3.6 111.2 9.1 -21.4 2.8-40 6.5-56.9 10.9h0c-115.9 4.4-158.4 34.1-232.2 53 -9.6 0.4-19.8 0.6-30.5 0.6 -45.9 0-81.4-3.6-111.2-9.1C2547.8 48.6 2575.4 0 2744.5 0z"/><path class="st3" d="M3233.4 88.9c202.1 0 202.1-69.4 404.2-69.4 202.1 0 202.1 69.4 404.2 69.4 202.1 0 202.1-69.4 404.2-69.4 202.1 0 202.1 69.4 404.2 69.4 202.1 0 202.1-69.4 404.2-69.4l0.7 71.6H0v-2.1c202.1 0 202.1-69.4 404.2-69.4 202.1 0 202.1 69.4 404.2 69.4s202.1-69.4 404.2-69.4c202.1 0 202.1 69.4 404.2 69.4 202.1 0 202.1-69.4 404.2-69.4 202.1 0 202.1 69.4 404.2 69.4 202.1 0 202.1-69.4 404.2-69.4C3031.3 19.6 3031.5 88.9 3233.4 88.9z"/></svg>