<?xml version="1.0" encoding="utf-8"?>
<!-- Generator: Adobe Illustrator 23.0.3, SVG Export Plug-In . SVG Version: 6.00 Build 0)  -->
<svg version="1.1" xmlns="http://www.w3.org/2000/svg" xmlns:xlink="http://www.w3.org/1999/xlink" x="0px" y="0px"
     viewBox="0 0 300 300" style="enable-background:new 0 0 300 300;" xml:space="preserve">
<style type="text/css">
	.st0{fill:#AF252A;}
</style>
  <g id="Слой_1">
	<path class="st0" d="M149.1,126.7c10.1,0,18.3,8.2,18.3,18.3c0,10.1-8.2,18.3-18.3,18.3c-10.1,0-18.3-8.2-18.3-18.3
		C130.8,134.9,139,126.7,149.1,126.7z M86.6,145c0-34.5,28-62.5,62.5-62.5c34.5,0,62.5,28,62.5,62.5c0,2.3-0.1,4.5-0.4,6.8
		c-0.5,6.1,4,10.7,10.1,10.7c10.3,0,11.4-13.2,11.4-17.5c0-46.2-37.4-83.6-83.6-83.6S65.6,98.9,65.6,145c0,46.1,37.4,83.6,83.6,83.6
		c24.5,0,46.6-10.5,61.8-27.4l17.2,14.4c-19.4,21.7-47.6,35.4-79,35.4c-58.5,0-106-47.5-106-106s47.4-106,106-106
		c58.5,0,106,47.4,106,106c0,23.5-11.2,42.6-33.7,42.6c-9.9,0-15.9-4.5-19.2-9.6c-11,17.7-30.7,29.5-53.1,29.5
		C114.6,207.6,86.6,179.6,86.6,145L86.6,145z M149.1,105C127,105,109,122.9,109,145s17.9,40.1,40.1,40.1c22.1,0,40.1-17.9,40.1-40.1
		S171.3,105,149.1,105z"/>
</g>
  <g id="Layer_2">
</g>
</svg>
