<?xml version="1.0" encoding="utf-8"?>
<!-- Generator: Adobe Illustrator 23.1.1, SVG Export Plug-In . SVG Version: 6.00 Build 0)  -->
<svg version="1.1" id="Слой_1" xmlns="http://www.w3.org/2000/svg" xmlns:xlink="http://www.w3.org/1999/xlink" x="0px" y="0px"
	 viewBox="0 0 300 300" style="enable-background:new 0 0 300 300;" xml:space="preserve">
<style type="text/css">
	.st0{fill:#C91440;}
</style>
<g>
	<path class="st0" d="M42.5,148.4c0-6.2,0-12.4,0-18.6c0-1-0.1-1.9,1.4-1.9c5.8,0.2,11.5-0.3,17.3,0.3c7.2,0.7,13.1,6.1,11.5,16.3
		c-1.1,7.2-7.7,11.3-13.9,11.1c-2.1-0.1-4.3,0.2-6.4,0c-2.3-0.2-2.6,0.7-2.5,2.7c0.2,3,0,6.1,0.1,9.1c0,1.3-0.3,1.8-1.7,1.8
		c-5.8,0.1-5.8,0.1-5.8-5.6C42.5,158.4,42.5,153.4,42.5,148.4 M50,141.6L50,141.6c0,1.8,0.1,3.6,0,5.5c-0.1,1.2,0.3,1.8,1.7,1.7
		c2.3-0.1,4.5,0,6.8-0.1c5.6-0.2,8.4-3.7,7.1-9.2c-0.5-2.1-1.4-3.9-4-4.4c-3.5-0.7-6.9-0.4-10.4-0.5c-1.1,0-1.1,0.7-1.1,1.5
		C50,138,50,139.8,50,141.6"/>
	<path class="st0" d="M152.7,163.3c0-4.9,0.3-9.7-0.1-14.6c-0.3-4.3,4.3-9.8,8.3-10.4c3.9-0.6,7.7-0.9,11.4,1.1
		c1.9,1,3.6,2.5,4.5,4.2c3.3,6.2,3.8,12.8,0.7,19.3c-2.1,4.5-6.1,6.3-10.8,6.7c-1.1,0.1-2.1,0.1-3.2,0c-3.4-0.2-3.4-0.2-3.4,3.3
		c0,2,0,4.1,0,6.1c0,1-0.3,1.3-1.3,1.4c-6.2,0.5-6.2,0.6-6.2-5.6C152.7,171,152.7,167.1,152.7,163.3 M171.9,153.2
		c-0.1-0.8-0.1-1.7-0.2-2.5c-0.1-6-4.9-7.4-9.3-6.1c-1.5,0.5-2.3,1.4-2.3,3c0,5,0,10-0.1,15c0,0.7,0.1,1.6,1,1.4
		c1.4-0.5,2.8,0,4.3-0.1c3.6-0.3,5.5-1.9,6.2-5.4C171.9,156.7,172,154.9,171.9,153.2"/>
	<path class="st0" d="M107.1,163c0-4.9,0-9.7,0-14.6c0-5.1,2.8-8.5,7.7-9.9c5.4-1.5,10.4-0.7,14.6,2.8c2.6,2.2,3.7,5.4,4.1,8.8
		c0.3,2.6,0.4,5.3,0,7.9c-1.2,8-8.2,12.8-16.8,11.4c-1.8-0.3-2.4,0-2.3,1.9c0.2,2.6,0,5.2,0.1,7.7c0,0.9-0.2,1.5-1.3,1.4
		c-0.1,0-0.1,0-0.2,0c-5.9,0.3-5.9,0.3-5.9-5.6C107.1,170.9,107.1,167,107.1,163 M126.3,154C126.3,154,126.3,154,126.3,154
		c0-1.3-0.1-2.6-0.2-3.8c-0.1-0.9-0.4-1.8-0.7-2.6c-1.4-3.5-7.3-4.7-10-2.1c-0.6,0.6-0.9,1.4-0.9,2.2c0,4.8,0,9.7,0,14.5
		c0,0.8,0.1,1.3,1,1.4c7,0.7,10.4,0.9,10.8-8.3C126.3,154.9,126.3,154.5,126.3,154"/>
	<path class="st0" d="M101.3,160.7c0,1.9,0,3.5,0,5.2c0,0.6-0.2,0.9-0.8,1.2c-4.5,2.4-14.9,3.9-19.9-0.3c-3.1-2.5-4.3-5.8-4.8-9.4
		c-0.6-4.5-0.3-8.9,1.8-13.1c2.2-4.5,6.1-6.2,10.6-6.5c8.7-0.6,14.4,4.7,14.8,13.5c0.2,5.2,0.2,5.2-4.9,5.2c-4.4,0-8.8,0-13.2,0
		c-1.3,0-2,0-1.6,1.8c0.8,3.4,2.4,4.8,6,4.9C93.4,163.4,97.3,162.5,101.3,160.7 M89.2,151.4c1.7,0,3.3,0,5,0c0.7,0,1.1-0.2,1.1-1
		c0-2.3-2.3-5.7-4.5-6.2c-4.7-1.1-7.3,1.6-7.7,6.3c-0.1,1,0.5,0.9,1.2,0.9C85.9,151.3,87.6,151.3,89.2,151.4"/>
	<path class="st0" d="M182.7,153c-0.1-1.4,0.2-3.2,0.6-4.9c1.8-7.4,7.6-10.8,15.4-10.3c8.3,0.6,11.8,4.9,13,13.1
		c0.7,5-0.1,9.8-3.2,14c-3,3.9-7.3,4.7-11.8,4.5C187.2,169.1,182.5,162.9,182.7,153 M204.4,153.6
		C204.4,153.6,204.4,153.6,204.4,153.6c-0.1-0.6-0.1-1.2-0.1-1.8c-0.2-6.1-2.7-8.3-8.7-7.7c-2.4,0.2-4.4,1.9-4.9,4.3
		c-0.7,3.4-0.8,6.9,0,10.4c0.5,2.3,1.9,3.8,4.1,4.4c5.3,1.5,9-1.1,9.5-6.6C204.4,155.6,204.4,154.6,204.4,153.6"/>
	<path class="st0" d="M233.3,145.7c-2.9-1.4-5.7-1.6-8.5-1.5c-1,0-1.9,0.3-2.8,0.8c-0.8,0.4-1.2,1.2-1,2.1c0.2,0.7,0.4,1.5,1.4,1.8
		c2.5,0.7,5.1,1.6,7.5,2.6c5.1,2.2,7.3,8.4,4.6,13.3c-1.1,2-3.1,3.3-5.2,4c-4.3,1.4-8.7,1-12.9-0.6c-1.5-0.5-2.2-1.3-2-3
		c0.2-1.4,0-2.8,0-4.5c2.3,1.2,4.4,2.2,6.7,2.5c1.4,0.2,2.7,0.3,4.1,0c1.4-0.3,2.7-0.8,3-2.4c0.2-1.6-0.9-2.5-2.3-3
		c-2.2-0.8-4.4-1.6-6.6-2.4c-3.6-1.3-5.6-3.9-5.7-7.4c-0.2-4.3,1.7-7.4,5.3-8.9c4.3-1.8,8.6-1.5,12.8,0.1c1.2,0.4,1.8,1.1,1.7,2.5
		C233.2,142.8,233.3,144.1,233.3,145.7"/>
	<path class="st0" d="M242.8,153.3c0-2.4-0.1-4.7,0-7.1c0.1-1.3-0.4-1.7-1.6-1.7c-3.6,0-3.4-0.1-3.6-3.5c-0.2-2.6,0.8-3.2,3-2.8
		c1.8,0.3,2.4-0.4,2.3-2.2c-0.2-1.9,0-3.8-0.1-5.7c0-1,0.3-1.4,1.3-1.3c0.1,0,0.3,0,0.5,0c5.7-0.1,5.7-0.1,5.7,5.5
		c0,0.4,0.1,0.8,0,1.1c-0.3,2,0.4,2.9,2.4,2.5c0.1,0,0.1,0,0.2,0c4.8,0,4.7,0,4.7,4.8c0,1.4-0.5,1.6-1.7,1.6c-1.4-0.1-2.9,0-4.3,0
		c-1,0-1.3,0.3-1.3,1.3c0,4.6,0,9.3,0,13.9c0.1,2.8,1.8,4,5.1,3.2c2-0.5,2.2,0,2.2,1.8c-0.1,4.3-0.4,4.6-4.7,4.6
		c-6.1,0.1-10-3.7-10-9.8C242.8,157.5,242.8,155.4,242.8,153.3L242.8,153.3z"/>
	<path class="st0" d="M146.7,153.8c0,4.5-0.1,8.9,0,13.4c0,1.4-0.3,1.8-1.7,1.8c-5.7,0-5.7,0.1-5.7-5.5c0-7.7,0-15.5,0-23.2
		c0-1.5,0.2-2.1,1.9-2.1c5.5,0.1,5.5,0,5.5,5.6C146.7,147.1,146.7,150.5,146.7,153.8L146.7,153.8z"/>
	<path class="st0" d="M143,127.3c3.8,0,3.8,0,3.8,3.8c0,2.9,0,2.9-3,2.9c-4.6,0-4.6,0-4.6-3.9C139.1,127.3,139.1,127.3,143,127.3"/>
</g>
</svg>
