<?xml version="1.0" encoding="utf-8"?>
<!-- Generator: Adobe Illustrator 23.1.1, SVG Export Plug-In . SVG Version: 6.00 Build 0)  -->
<svg version="1.1" id="Слой_1" xmlns="http://www.w3.org/2000/svg" xmlns:xlink="http://www.w3.org/1999/xlink" x="0px" y="0px"
	 viewBox="0 0 300 300" style="enable-background:new 0 0 300 300;" xml:space="preserve">
<style type="text/css">
	.st0{fill:#425090;}
	.st1{fill:#FFB900;}
</style>
<g>
	<path class="st0" d="M150,257.8c-59.4,0-107.8-48.4-107.8-107.8C42.2,90.6,90.6,42.2,150,42.2c14.4,0,28.3,2.8,41.5,8.3
		c3.7,1.6,5.5,5.8,3.9,9.5c-1.5,3.7-5.8,5.5-9.5,3.9c-11.4-4.7-23.4-7.1-35.8-7.1c-51.4,0-93.2,41.8-93.2,93.2
		c0,51.4,41.8,93.2,93.2,93.2s93.2-41.8,93.2-93.2c0-11-1.9-21.8-5.6-32c-1.4-3.8,0.6-8,4.3-9.4c3.8-1.4,8,0.6,9.4,4.3
		c4.3,11.9,6.5,24.3,6.5,37.1C257.8,209.4,209.4,257.8,150,257.8"/>
	<polygon class="st1" points="197.2,139 180.4,156.4 189.7,195.3 210.8,195.3 	"/>
	<polygon class="st1" points="190.3,87.4 196.1,93.2 149.9,142.1 110.5,101.5 87.9,195.3 108.9,195.3 121.4,143.2 149.9,174.3 
		210.9,107.9 216.7,113.8 222.5,80.9 	"/>
</g>
</svg>
