<?xml version="1.0" encoding="utf-8"?>
<!-- Generator: Adobe Illustrator 23.0.1, SVG Export Plug-In . SVG Version: 6.00 Build 0)  -->
<svg version="1.1" id="Слой_1" xmlns="http://www.w3.org/2000/svg" xmlns:xlink="http://www.w3.org/1999/xlink" x="0px" y="0px"
	 viewBox="0 0 300 300" style="enable-background:new 0 0 300 300;" xml:space="preserve">
<style type="text/css">
	.st0{fill:#019FC1;}
</style>
<path class="st0" d="M143,42.2c9.4,0.1,18.7-0.1,28.1,0.1c4.5,38.1,8.9,76.1,13.6,114.1c10-0.1,20.1,0,30.1-0.1
	c7.3-13.4,25.9-18.6,38.7-10c14.9,8.5,17.2,31.9,4,43c-12.2,12.5-34.8,8.2-42.8-6.9c-18.3,0-36.6,0-54.9,0
	c-2.5-19.2-5.5-38.3-8-57.5c-12,44.2-23.6,88.6-35.2,132.9c-9,0-18,0-27,0C83,230.9,76.8,204,70.3,177.2c-12.1-0.1-24.2,0-36.3-0.1
	c-0.1-8.7,0-17.3-0.1-26c19.9,0,39.8,0,59.8,0c3.2,14.2,6.6,28.4,9.9,42.6C116.9,143.3,129.7,92.7,143,42.2z"/>
</svg>
