<svg version="1.1" id="Слой_1" xmlns="http://www.w3.org/2000/svg" x="0" y="0" viewBox="0 0 300 300" xml:space="preserve">
  <defs/>
  <style>
    .st4{fill:#fc0}.st5{fill:#fff}.st6{fill:#333}
  </style>
  <linearGradient id="center-env_1_" gradientUnits="userSpaceOnUse" x1="-1766.4" y1="-923.4" x2="-1766.4" y2="-980.6" gradientTransform="rotate(-170.8 -755.3 -448.8)">
    <stop offset="0" stop-color="#d5d5d0"/>
    <stop offset=".1" stop-color="#e0e0da"/>
    <stop offset=".3" stop-color="#efefe7"/>
    <stop offset=".6" stop-color="#f8f8ef"/>
    <stop offset="1" stop-color="#fbfbf1"/>
  </linearGradient>
  <path id="center-env" fill="url(#center-env_1_)" d="M122.4 174.9l88.3 14.2-9.4 56.6-88.3-14.2z"/>
  <g id="bottom-env">
    <linearGradient id="SVGID_1_" gradientUnits="userSpaceOnUse" x1="497.1" y1="-782.4" x2="497.1" y2="-864.3" gradientTransform="scale(1 -1) rotate(-9.2 4198 1550.8)">
      <stop offset="0" stop-color="#d5d5d0"/>
      <stop offset=".1" stop-color="#e0e0da"/>
      <stop offset=".3" stop-color="#efefe7"/>
      <stop offset=".6" stop-color="#f8f8ef"/>
      <stop offset="1" stop-color="#fbfbf1"/>
    </linearGradient>
    <path d="M113 231.5s.8-3.7 4.5-5.7c4.1-2 38.3-16.7 39.9-17.1 1.2-.4 3.3-1.2 4.9-.8s3.3 1.6 4.5 2.4c1.2.8 29.3 25.6 32.2 28.9 3.3 3.3 2.4 6.9 2.4 6.9L113 231.5z" fill="url(#SVGID_1_)"/>
  </g>
  <path id="bottom-env_3_" d="M113 231.5a9.4 9.4 0 013.5-5.2c.9-.7 1.9-1.1 2.8-1.5l2.9-1.3 11.6-5.2 11.7-5.1 5.9-2.5c2-.8 3.8-1.7 6-2.4 1.2-.4 2.4-.9 3.8-.9l2.1.3 1.8.9 3.2 2.2 2.9 2.5 11.4 10.1 11.2 10.3c1.8 1.7 3.7 3.5 5.4 5.4a8.1 8.1 0 012.3 7 8 8 0 00-2.5-6.8l-5.6-5.2L182 224l-11.5-10-2.9-2.5c-.9-.8-2-1.5-3.1-2.1-1.1-.6-2.2-1.2-3.3-1.1-1.2.1-2.4.5-3.6.9l-5.8 2.3-5.9 2.5-11.7 4.9-11.7 5-2.9 1.2c-1 .4-2 .8-2.8 1.4a9 9 0 00-3.8 5z" fill="#cfcfcf"/>
  <linearGradient id="upper-env_1_" gradientUnits="userSpaceOnUse" x1="-1766.4" y1="2405.2" x2="-1766.4" y2="2323.3" gradientTransform="scale(-1 1) rotate(-9.2 -14212 -8644.6)">
    <stop offset="0" stop-color="#d5d5d0"/>
    <stop offset=".1" stop-color="#e0e0da"/>
    <stop offset=".3" stop-color="#efefe7"/>
    <stop offset=".6" stop-color="#f8f8ef"/>
    <stop offset="1" stop-color="#fbfbf1"/>
  </linearGradient>
  <path id="upper-env" d="M210.7 189.1s-.4 3.7-4.5 5.7-38.3 16.7-39.9 17.1c-1.2.4-3.3 1.2-4.9.8-1.6-.4-3.3-1.6-4.5-2.4-1.2-.8-29.3-25.6-32.2-28.9-3.3-3.3-2.4-6.9-2.4-6.9l88.4 14.6z" fill="url(#upper-env_1_)"/>
  <path id="yellow-env" class="st4" d="M206.2 188.7c-2 4.5-39.5 19.5-42.3 20.3s-4.1-.8-4.1-.8-19.5-17.9-26.5-24c-6.5-6.1-7.7-9-7.7-9l-3.7-.4-9 56.6c1.6-4.5 4.5-5.7 4.5-5.7L124 181s0-.4-.4-.4c.4.4.4.8.8.8a1186 1186 0 0032.2 28.9c1.2.8 2.8 2 4.5 2.4 1.6.4 3.7-.4 4.9-.8 1.6-.4 35.8-15.1 39.9-17.1.4-.4.8-.4.8-.8l-7.7 44.8s2.4 2.4 2.4 6.9l9-56.6-4.2-.4z"/>
  <path id="left-head" class="st4" d="M114.2 80.1c-24 0-48 .4-72 .4C46.7 93.1 56.4 107 69.9 111a47.5 47.5 0 0048.8 63.1 47.8 47.8 0 0037.4-68.8 47.8 47.8 0 00-41.9-25.2z"/>
  <circle id="left-eye" class="st5" cx="113.4" cy="127.3" r="34.2"/>
  <circle id="not-wink" class="st6" cx="119.9" cy="130.9" r="13.8"/>
  <path id="right-head" class="st4" d="M256.7 91.1h-30.5c-10.2 0-21.2-.8-30.9.4a38 38 0 007.3 75.7 38 38 0 0031.7-52.1c2.8 0 6.1-2.4 8.1-4.1 7-5.3 11.4-12.2 14.3-19.9z"/>
  <circle id="right-eye" class="st5" cx="200.9" cy="128.9" r="26.9"/>
  <path id="beak" class="st6" d="M161.4 130.5s-8.1 15.9-19.9 24c0 0 8.1 28.1 19.9 36.2 12.2-8.1 19.9-36.2 19.9-36.2-12.1-8.1-19.9-24-19.9-24z"/>
  <g>
    <path class="st6" d="M187.1 133c2-.4 7.7-1.2 14.7 1.6.4 0 .8 0 1.2-.4 0-.4 0-.8-.4-1.2a30.7 30.7 0 00-15.5-2c-.4 0-.8.4-.4.8-.4 1.2 0 1.6.4 1.2z"/>
    <path class="st6" d="M185.1 130.9c11.4-6.9 26.9-3.3 30.5-2.4.4 0 .8 0 1.2-.8 0-.4 0-1.2-.8-1.2a52 52 0 00-21.2-1.2c-.4 0-.8-.8-.4-.8a44 44 0 016.9-3.3c.4 0 .8-.8.8-1.2 0-.4-.8-.8-1.2-.8a45.3 45.3 0 00-17.1 9.8c-.4.4-.4.8 0 1.2.4 1.2.8 1.2 1.3.7z"/>
  </g>
</svg>
