<?xml version="1.0" encoding="utf-8"?>
<!-- Generator: Adobe Illustrator 22.1.0, SVG Export Plug-In . SVG Version: 6.00 Build 0)  -->
<svg version="1.1" id="Слой_1" xmlns="http://www.w3.org/2000/svg" xmlns:xlink="http://www.w3.org/1999/xlink" x="0px" y="0px"
	 viewBox="0 0 300 300" style="enable-background:new 0 0 300 300;" xml:space="preserve">
<style type="text/css">
	.st0{fill-rule:evenodd;clip-rule:evenodd;fill:#F30D0C;}
</style>
<path class="st0" d="M137.4,164.4c-1.6,3-3.1,5.7-4.9,9.1c9.5-3.6,19.8-6.4,31.4-8.7c-0.6-0.5-1.3-1-1.9-1.5
	c-6.1-5.2-11.2-11.6-15.3-18.9C143.9,151.1,141.1,157.3,137.4,164.4z M112.8,188.5c-6.9,5.6-12.8,12.8-14.8,17.1
	c4.1-2.2,9.4-8.2,15.8-18C113.4,188,113,188.3,112.8,188.5z M149.6,100.7c-0.2-0.8-0.4-1.5-0.7-2.1c-0.9-2-1.8-3.5-2.5-4.2
	c-0.1,0.3-0.2,0.7-0.2,1.1c-0.4,2.1-0.6,5-0.6,7.2c0,4.2,0.6,9.3,1.7,14.7c0.4-2,0.9-4.2,1.1-4.9c0.2-0.9,0.2-0.9,0.4-1.8
	c0.5-2,0.9-3.6,1.2-4.8C150,103.6,149.9,102.2,149.6,100.7z M206.8,169.8c-3.4-1.1-9.3-1.4-17.1-0.9c9.6,3.9,18.1,5.8,20.8,4.5
	c-0.1,0.1,0-0.1,0.2-0.7l0.1-0.1c0.2-0.4,0.3-0.7,0.5-1C210.7,171.3,209.4,170.7,206.8,169.8z M129.3,160.3
	c-3.6,7.1-7,13.3-10.2,18.8l-3.1,1.6c-0.9,0.5-2.2,1.2-3.7,2c-1.6,0.9-2.8,1.5-3.3,1.8c-11.2,6.7-18.2,14.1-19.4,19.9
	c-0.5,2.3,0.1,4.6,2,5.7l3.1,1.6c9.2,4.6,19.4-5.3,33.7-30.3c13.9-4.5,30.2-8.4,44.6-10.6c13.4,7.5,29.7,11.8,36.7,9.9
	c1.5-0.4,3.1-1.5,4-2.7c0.4-0.7,1-2.2,1.4-3.6c0.2-0.8,0.4-1.4,0.4-1.9c0-0.3,0-0.6-0.1-0.9c0.1-0.5,0.1-1.1,0.1-1.5
	c-0.2-2.1-0.9-3.7-2.2-5c-2.6-2.6-8.4-3.9-16.7-4c-5.7-0.1-12.5,0.4-19.8,1.4c-4.3-2.5-6.8-4.2-9.1-6.3c-7-6.5-12.8-15.6-16.5-25.6
	c0.3-1,0.4-1.8,0.6-2.5c0.5-2.3,1.3-8.5,1.9-14.4c0.3-2.9,0.5-5.3,0.5-6.9c0-0.9,0-1.6,0-2c0-0.1,0-0.2,0-0.5c0.2-1,0.4-2.1,0.5-3
	c0.2-1.3,0.2-2.5,0.1-3.5c-0.4-4.1-3.4-8.4-8-8.4l-1.7,0c-3.7,0-7,1.9-7.9,5c-2.2,8.2-0.7,19.6,4.6,39.5l-1.1,2.7
	c-1.9,4.6-4.1,9.4-7,15.1C132.4,154.1,132,155,129.3,160.3z M78.5,42.2h124c5.8,0,11.3,2.3,15.4,6.5l19.1,19.5
	c3.9,4,6.2,9.4,6.2,15.1v153c0,11.9-9.7,21.6-21.6,21.6H78.5c-11.9,0-21.6-9.7-21.6-21.6V63.8C56.9,51.9,66.6,42.2,78.5,42.2z"/>
</svg>
