<?xml version="1.0" encoding="utf-8"?>
<!-- Generator: Adobe Illustrator 23.1.1, SVG Export Plug-In . SVG Version: 6.00 Build 0)  -->
<svg version="1.1" id="Слой_1" xmlns="http://www.w3.org/2000/svg" xmlns:xlink="http://www.w3.org/1999/xlink" x="0px" y="0px"
	 viewBox="0 0 300 300" style="enable-background:new 0 0 300 300;" xml:space="preserve">
<style type="text/css">
	.st0{fill:#004762;}
	.st1{fill:#D4DC56;}
	.st2{fill:#CAD527;}
</style>
<g>
	<g>
		<polygon class="st0" points="60.3,173.4 93.9,107 93.9,97.3 45.4,97.3 45.4,110.5 77.7,110.5 43.7,176.8 43.7,186.5 98.4,186.5 
			88.1,173.4 		"/>
		<path class="st0" d="M125.1,95.8c-16.6,0-26.9,11.8-26.9,29.9v32.8c0,18.3,10.3,29.5,26.9,29.5c16.6,0,25.6-11.1,25.6-29.2v-4
			h-13.6v6.1c0,8.2-4.1,13.5-11.8,13.5c-7.9,0-12-5.3-12-13.5v-18.1h37.4v-17.2C150.7,107.6,141.7,95.8,125.1,95.8z M137.1,133.7
			h-23.8V123c0-8,4.1-13.5,12-13.5c7.7,0,11.8,5.5,11.8,13.5V133.7z"/>
		<path class="st0" d="M182.1,77.1l-14.8,5.1v16h-10.9v13.3h10v46.9c0,13,1.1,20.8,4.4,28h15.9c-3.7-8-4.6-16.8-4.6-28v-46.9h11.8
			V98.3h-11.8V77.1z"/>
		<path class="st0" d="M250.3,171.1v-47.3c0-16-6.6-28-25.3-28C207.9,95.8,200,107,200,121v5.1h14.6v-4.6c0-8,2-11.8,10.5-11.8
			c7.2,0,10.5,4.2,10.5,11.1v12.4c-19.5,3.2-38.7,9.5-38.7,29.7v2.1c0,14.3,8.3,23.1,21.4,23.1c8.5,0,16-4.2,21-11.1
			c0.2,8.2,5.3,11.1,11.4,11.1h4.6v-12C251.8,176,250.3,174.3,250.3,171.1z M235.6,161.4c0,8-7.2,13.5-14.6,13.5
			c-6.5,0-9.6-4.8-9.6-10.5v-2.3c0-9.9,7.7-15.6,24.2-17.7V161.4z"/>
	</g>
	<g>
		<path class="st1" d="M157.6,197.4h-114v14.1l116.9-0.1C159,203.9,157.7,197.8,157.6,197.4L157.6,197.4z"/>
		<polygon class="st1" points="224.5,197.4 209.6,211.5 256.7,211.5 256.7,197.4 		"/>
		<polygon class="st1" points="177,223.3 180.3,239 209.6,211.5 189.9,211.4 		"/>
		<path class="st1" d="M160.5,211.5c1.5,7.4,3.4,16.3,4.7,22.7l11.8-10.9l-2.5-11.8L160.5,211.5z"/>
	</g>
	<g>
		<polygon class="st2" points="205.1,197.4 189.9,211.4 209.6,211.5 224.5,197.4 		"/>
		<path class="st2" d="M157.7,197.4c0.1,0.3,1.3,6.4,2.9,14l14,0L157.7,197.4z"/>
		<path class="st2" d="M165.2,234.1c0.7,3.4,1.2,6,1.5,7.3c0.5,2.6,2.2,3.4,4,3.4c2.2,0,4.5-1.2,4.9-1.4l4.8-4.5l-3.3-15.7
			L165.2,234.1z"/>
	</g>
</g>
</svg>
