<?xml version="1.0" encoding="utf-8"?>
<!-- Generator: Adobe Illustrator 19.1.0, SVG Export Plug-In . SVG Version: 6.00 Build 0)  -->
<svg version="1.1" id="Layer_1" xmlns="http://www.w3.org/2000/svg" xmlns:xlink="http://www.w3.org/1999/xlink" x="0px" y="0px"
	 viewBox="0 0 334.1 91.5" style="enable-background:new 0 0 334.1 91.5;" xml:space="preserve">
<style type="text/css">
	.st0{fill:#F49B05;}
	.st1{fill:#E74710;}
	.st2{fill:#CC2219;}
	.st3{fill:#202D54;}
	.st4{fill:#FFFFFF;}
	.st5{fill:#232C53;}
	.st6{fill:#2D4691;}
	.st7{fill:#A96119;}
	.st8{fill:#DE8924;}
	.st9{fill:url(#SVGID_1_);}
	.st10{fill:#3874B8;}
	.st11{fill:url(#SVGID_2_);}
	.st12{fill:#FCCC81;}
	.st13{fill:#242120;}
	.st14{fill:#363033;}
	.st15{fill:#962118;}
	.st16{fill:#DB3221;}
	.st17{fill:#4D4D5B;}
	.st18{fill:#231F1D;}
	.st19{fill:#C5C2C1;}
</style>
<g>
	<g>
		<path class="st0" d="M150.6,38.9v15.3c0,7.2-4.6,10.8-10.6,10.8c-6.1,0-10.6-3.6-10.6-10.8V38.9h5.3v15c0,4.5,2.2,6.1,5.3,6.1
			c3.1,0,5.3-1.7,5.3-6.1v-15H150.6z"/>
		<path class="st0" d="M177.2,38.9v25.7h-6.1l-10.7-17.2l0,17.2h-5.3V38.9h6L172,56.2l0-17.3H177.2z"/>
		<path class="st1" d="M260.3,38.9v25.7h-6.1l-10.7-17.2l0,17.2h-5.3V38.9h6l10.7,17.3l0-17.3H260.3z"/>
		<path class="st0" d="M182.6,38.9h5.3v25.7h-5.3V38.9z"/>
		<path class="st1" d="M213,57.1c0,6-5.4,8-9.8,8c-7.5,0-10.6-4.3-11.2-8.7h5.3c0.7,2.5,2.2,3.8,5.9,3.8c3,0,4.5-1.1,4.5-2.9
			c0-1.9-1.8-2.2-6.3-3.2c-4.6-1-8.7-2.5-8.7-7.5c0-5.4,4.8-8.1,9.7-8.1c6.9,0,9.8,3.7,10.4,8h-5.3c-0.6-1.8-1.8-3.1-5-3.1
			c-3.1,0-4.4,1.3-4.4,3c0,1.5,1.3,1.9,4.7,2.6C209.5,50.4,213,51.9,213,57.1z"/>
		<path class="st1" d="M221.8,43.9v5.2H232v5h-10.2v5.5h12v5h-17.3V38.9h17.3v5H221.8z"/>
		<path class="st1" d="M288.2,51.8c0,7.3-5.7,12.9-13.1,12.9h-9.3V38.9h9.3C282.5,38.9,288.2,44.4,288.2,51.8z M282.9,51.8
			c0-4.6-3.3-7.9-7.9-7.9h-4v15.7h4C279.6,59.7,282.9,56.4,282.9,51.8z"/>
		<path class="st1" d="M296.6,43.9v5.2h10.2v5h-10.2v5.5h12v5h-17.3V38.9h17.3v5H296.6z"/>
		<path class="st1" d="M321,55.4h-2.9v9.3h-5.3V38.9h11.1c5.5,0,8.8,3.3,8.8,8.4c0,4.2-2.2,6.8-5.8,7.7l7.2,9.7h-6.5L321,55.4z
			 M318.1,50.8h5.2c2.8,0,4-1.3,4-3.4c0-2.1-1.3-3.5-4-3.5h-5.2V50.8z"/>
	</g>
	<g>
		<path class="st2" d="M75.9,9.2c-2-2.6-3.9-5.4-5.6-8.2c-0.2-0.3-0.4-0.6-0.7-1c-0.4,0.4-0.7,0.8-0.9,1.3l0,0l0,0
			c-0.2,0.5-0.4,1-0.5,1.6c-0.2,1-0.3,2-0.1,2.9c0.2,1.7,0.7,3.3,1.3,4.9c0.4,1.2,1.3,2.8,1.8,3.9c0.8,0.1,5,0.9,5,1
			c0.1,0.1,3.4,1.1,4.8,1.9c0.3,0.2,1,0.6,1.2,0.6C80.2,15.1,78.1,12.1,75.9,9.2z M76.2,14.8c0,0,0,0.1,0,0.2
			C76.2,15,76.2,14.9,76.2,14.8z"/>
		<path class="st2" d="M64.7,8.1L64.7,8.1c-0.1,0.1-0.2,0.6-0.3,0.8c-0.2,0.9-0.3,1.8-0.2,2.7c0,0.9,0.3,1.8,0.5,2.7
			c0.1,0.4,5.3-0.1,5.4-0.2c-1.8-2.2-3.3-4.6-4.7-7C65,7.4,64.8,7.7,64.7,8.1z"/>
		<path class="st3" d="M0.1,50.1c0-0.3,0.2-1.1,0.4-1.2c1-1.1,1.8-1.7,3-2.5c1.6-1.2,3-2,4.8-2.8c1.4-0.7,2.5-1.4,4-1.9
			c1.6-0.6,3.8-1.1,5.5-1.5c2-0.5,3.7-0.9,5.7-1.1c1.5-0.2,3.1-0.7,4.6-0.8c0.8-0.1,1.9-0.1,2.6-0.2c0.6,0,3.2,0,3.5,0
			c-1.1,1.4-2.1,3.1-3,4.6c-1.4,0-3.3,0.1-4.8,0.2c-2.5,0.2-5,0.5-7.5,1c-2.7,0.5-5.3,1.2-7.9,2c-2.3,0.7-4.5,1.5-6.6,2.5
			c-0.9,0.4-1.7,0.7-2.6,1.1C1.2,49.5,0.7,49.8,0.1,50.1z"/>
		<path class="st4" d="M95.3,46.4C95.3,46.4,95.3,46.4,95.3,46.4C95.3,46.5,95.3,46.4,95.3,46.4C95.3,46.4,95.3,46.4,95.3,46.4
			L95.3,46.4z"/>
		<path class="st5" d="M40,72C39.9,72,39.9,72,40,72C39.9,72,39.9,72,40,72L40,72z"/>
		<path class="st6" d="M26.2,68.4c-4.7-3.1-9.7-5.2-15.3-6.2c0.1-0.5,0.4-0.8,0.8-1.1c1.4-1,3-1.4,4.8-1.2c1.9,0.2,3.5,1.1,5,2.2
			c1.8,1.4,3.3,3.1,4.3,5.2c0.2,0.3,0.4,0.8,0.5,1.2C26.4,68.5,26.4,68.5,26.2,68.4z"/>
		<path class="st4" d="M35.8,29.3c0.1,0,0.1,0.1,0.2,0.1"/>
		<path class="st4" d="M35.8,29.3"/>
		<path class="st7" d="M65.6,61.5C65.6,61.5,65.6,61.5,65.6,61.5C65.6,61.5,65.6,61.5,65.6,61.5C65.6,61.5,65.6,61.5,65.6,61.5
			L65.6,61.5z"/>
		<path class="st8" d="M86.1,61.3C86.1,61.3,86.2,61.3,86.1,61.3C86.2,61.3,86.1,61.3,86.1,61.3L86.1,61.3z"/>
		<path class="st8" d="M88,65.6C88,65.6,88,65.6,88,65.6C88,65.6,88,65.6,88,65.6L88,65.6z"/>
		<linearGradient id="SVGID_1_" gradientUnits="userSpaceOnUse" x1="44.4654" y1="46.5852" x2="173.8912" y2="104.1868">
			<stop  offset="0" style="stop-color:#F7A639"/>
			<stop  offset="1" style="stop-color:#D87711"/>
		</linearGradient>
		<path class="st9" d="M63.5,56.9c-0.1-1.1-0.1-2.5,0.1-3.6c0.2-1.8,0.7-4,1.5-5.7c0.6-1.3,1.8-2.5,2.7-3.7c0.6-0.8,1.2-1.5,2-2.2
			c1-0.8,2.6-1.1,3.7-1.7c1.5-0.8,3.2-1.3,4.9-1.6c1.6-0.2,3.4-0.2,4.4-0.2c1,0,2.6,0.8,3.5,1.1c0.2,0.1,15.8,32.7,15.8,32.7
			s-2.3,6.4-2.3,6.4c0,1.6-1.2,3.6-1.6,5.2c-0.4,1.6-1.1,3.2-2.3,4.3c-0.5,0.5-4.3,2.9-13,1.8c0.4-0.9,0.5-1.5,1-2.7
			c-0.8,0.1-5.4,0-6.2-0.1c0.1-0.4,1.7-3,1.7-3.2c-2.9,0.5-5.6,0.4-8.5-0.6c2.1-1.2,5.1-4.5,4.9-4.4c-1.2,0.3-8.5,0.9-9.2,0.7
			c0.2-0.3,4.2-4.7,4.4-5c-0.2-0.1-3.5,3-3.7,2.9c-0.7-0.4-2.1-1.8-2.6-2.5c-1.1-1.4-2.1-2.7-2.9-4.4c-0.5-1.2-1.2-2.5-1.4-3.8
			c-0.1-1,0.1-2.2,0.4-3.2c0.2-1,0.8-2.1,1.5-2.8C62.9,60.4,63.7,58.4,63.5,56.9z"/>
		<path class="st5" d="M44.6,44.8c-0.5,1.1-1.3,3.9-1.5,5.1c-0.7-0.1-2.1-0.1-2.8-0.3c-1.9-0.4-2.9-0.8-4.7-1.4c0,0.5,3,5.5,6.5,8.8
			c-1.8-0.5-3.4-0.6-4.9-1.5c0,0.7,1.5,2.4,3,4.1c1.5,1.7,4.4,4.1,6.3,5.5c-1,0-2.3-0.2-3.2-0.5c0.5,1,2.6,3.2,5.2,5.3
			c2.2,1.8,16,8.1,18.3,7.8c-0.7,0.6-0.6,1.6-1.4,2.1c0.1,0.1,3.1,0.4,5.4,0.3c1.1,0,3.2-0.3,4.3-0.3c0.1,0-3.6,3.2-6.1,5.1
			c-1.6-0.1-8.3,0.2-9.9-0.2c-1.7-0.4-3-0.9-4.6-1.5c-0.9-0.3-2-0.7-2.9-1.1c-2.3-1-4.1-2.4-6.2-3.8c-1.2-0.8-2.5-1.5-3.5-2.4
			c-0.7-0.6-2.3-3.8-2.5-4.2c0,0-4-13.5-4.7-16.6c-0.2-0.9-0.4-1.8-0.5-2.7c-0.1-0.8-0.2-1.5-0.2-2.3c0-0.6-0.1-1.1-0.1-1.7
			c0.1-1.5,0.2-2.9,0.4-4.3c0.2-1.3,0.5-2.6,0.8-3.9c0.2-0.8,0.5-1.6,0.8-2.4c0.1-0.2,0.7-1,0.8-1.2C36.8,36.9,44.8,44.4,44.6,44.8z
			"/>
		<path class="st5" d="M24.9,56.2c0.4,2.3,1,3.8,2.1,5.9c0.7,1.3,1.6,2.5,2.5,3.7c1.1,1.5,3,2.7,4.3,4.1c0.6,0.6,1.1,1.4,1.7,2
			c1.5,1.4,2.6,2.6,4.2,3.9c1.9,1.5,4,2.4,6,3.7c1.5,1,5.1,3.5,5.2,3.6c-1.1,0.1-3.6-0.6-4.5-0.9c-4-1.3-7.8-3.1-11.5-5.2
			c-3.1-1.8-7.1-4.5-10.3-6.1c-13.3-6.9-17.9-5-18-5c0.2-0.3,0.3-0.7,0.5-1c1.8-3.2,6.4-9.2,9.4-11.1c0.3-0.2,0.5-0.3,0.9-0.3
			c2.1,0.3,4,1,5.9,1.9C23.5,55.4,24.7,56.1,24.9,56.2z M25,67.2c0,0-0.3-0.7-0.5-1c-0.8-1.7-2-3.1-3.5-4.3
			c-1.2-0.9-2.5-1.7-4.1-1.8c-2.9-0.2-4.3,1.4-4.6,1.9C16.8,62.8,21.2,64.6,25,67.2z"/>
		<path class="st10" d="M70.1,83.8c1.2,0.6,2.4,1.1,3.7,1.3c1.1,0.2,2.1,0.2,3.2,0.1c0.2,0,0.4,0,0.7-0.1c-0.1,0.7-1,2-1.9,2.2
			C49.3,98.6,24.2,70.1,23,55.1c-0.1-1.1-0.4-6.9,3.4-9c0.7-0.4,1.9-0.6,2.7-0.1c0.1,0,0.1,0,0.1-0.1c0.4-1.2,0.9-2.3,1.5-3.4
			c0.9-1.5,1.9-3,2.9-4.4c-0.3-0.1-2,0-2.6,0c-0.8,0.1-1.5,0.1-2.3,0.2c-1.5,0.2-3,0.4-4.5,0.6c-2,0.3-4.1,0.7-6,1.2
			c-1.7,0.4-3.3,0.9-4.9,1.5c-1.5,0.5-3,1.1-4.4,1.8c-1.8,0.9-3.5,1.9-5.1,3.1c-1.2,0.8-2.3,1.7-3.2,2.8c-0.2,0.2-0.3,0.3-0.4,0.6
			C-0.1,50,0,49.8,0,49.7c0-1.5,0.1-9,4.9-17.7C21.8,28.5,33,31.2,33,31.3c0.6,1.5,3.3,5,3.8,5.7c-0.1,0.2-0.7,1.2-0.8,1.4
			c-0.3,0.8-0.6,1.5-0.8,2.3c-0.3,1.2-0.6,2.5-0.7,3.8c-0.2,1.4-0.3,2.8-0.3,4.2c0,0.6,0.1,1.1,0.1,1.7c0,0.8,0.1,1.5,0.2,2.3
			c0.2,1.3,0.5,2.6,0.8,3.8c0.7,2.5,1.8,4.9,3.1,7.2c0.8,1.3,1.7,2.6,2.5,3.8c0.8,1.1,1.6,2.2,2.5,3.2c1.1,1.2,2.3,2.4,3.5,3.5
			c1.2,1,2.3,2,3.6,2.8c0.4,0.2,0.7,0.5,1.2,0.8c-0.3,0.1-0.4,0-0.6-0.1c-0.3-0.1-0.7-0.3-1-0.4c-2.1-0.6-4.1-1.6-6-2.7
			c-1.2-0.7-2.4-1.4-3.6-2.2c-0.2-0.1-0.3-0.2-0.5-0.3c0,0,0-0.1,0,0c0,0,0,0,0,0c0.2,0.4,0.5,0.7,0.8,1.1c0.7,0.7,1.3,1.3,2,1.9
			c1,0.9,2.1,1.7,3.2,2.4c2,1.3,4.1,2.5,6.3,3.5c0.8,0.4,1.7,0.7,2.5,1c1.5,0.6,3.1,1,4.7,1.4c1.6,0.3,3.1,0.6,4.7,0.7
			c1.8,0.1,3.6,0.1,5.4-0.1C69.8,83.9,70,83.9,70.1,83.8z"/>
		<path class="st3" d="M35.2,68.3c-0.1-0.3-0.3-0.5-0.5-0.7c-1.7-2.4-3.2-4.9-4.3-7.6c-1-2.6-1.6-5.3-1.8-8.1c-0.1-1.3,0-2,0.1-3.3
			c0-0.4-0.2-0.7-0.7-0.6c-4.5,2.1-1.7,10,0.4,13.2c1.4,2.3,3.1,4.3,5.2,6.1C34.1,67.6,34.6,68,35.2,68.3z"/>
		<linearGradient id="SVGID_2_" gradientUnits="userSpaceOnUse" x1="34.9093" y1="62.2058" x2="103.3133" y2="62.2058">
			<stop  offset="0" style="stop-color:#D87711"/>
			<stop  offset="1" style="stop-color:#AE5818"/>
		</linearGradient>
		<path class="st11" d="M96.3,45.8c0.2-0.1,0.5-0.3,0.8-0.5c-0.2,1.2-0.4,2.3-0.4,3.4c0.5-0.2,0.8-0.5,1.3-0.7
			c-0.1,0.5-0.2,1.9-0.3,2.5c-0.2,2.7-0.3,4.5-0.2,7.6c0,1.1,0.1,2.1,0.3,3.2c0.2,1.3,0.9,2.5,1.6,3.6c0.6,0.9,1.2,1.9,1.8,2.9
			c0.9,1.4,1.5,3,1.8,4.6c0.4,2.2,0.4,4.4-0.1,6.6c-0.3,1.4-0.7,2.7-1.2,4c-0.3,0.8-0.7,1.5-1.2,2.2c-0.1,0.2-0.3,0.4-0.5,0.6
			c0-0.4-0.1-0.7-0.1-1c-1.3,2.3-2.8,4.5-5.1,6c0.1-0.6,0.2-1.1,0.1-1.7c-2.5,1.6-5.1,2.4-8.1,2.5c0.5-0.5,0.9-0.9,1.2-1.3
			c-1.3,0.3-2.6,0.5-3.9,0.5c-1.3,0-2.7-0.1-4-0.6c1-0.7,2-1.3,2.8-2.2c-2.9,0.6-6.6-0.3-7-0.4c0.2-0.2,0.2-0.1,0.9-0.9
			c0.1-0.1,0.7-0.9,1-1.3c-0.3,0-0.5,0-0.7,0.1c-1.1,0.1-2.1,0.1-3.2-0.1c-1.3-0.2-2.5-0.7-3.7-1.3c-0.2-0.2-0.4-0.3-0.6-0.4
			c-0.4-0.3-0.9-0.5-1.3-0.9c1.6-0.4,3.2-0.9,4.5-1.8c-5.5,0.3-7.9-0.4-10.1-1.2c0.7-0.5,1.6-0.8,2.3-1.4c-2.3,0.2-4.5-0.1-6.7-0.7
			c-2.2-0.6-4.3-1.3-6.3-2.7c0.9-0.3,1.8-0.5,2.6-0.7c-2.5-1.1-4.7-2.7-6.8-4.4c-2.6-2.1-5.3-4.9-5.7-5.9c1,0.3,1.9,0.4,2.8,0.3
			c-1.8-1.3-3.5-2.7-5-4.4c-1.5-1.7-3.6-4.8-3.6-5.5c1.5,0.9,3.1,1.5,4.8,2c-3.3-3.2-5.5-7-6.1-8.5c0.1-0.1,0.2,0,0.3,0
			c1.8,0.6,3.6,1.1,5.5,1.5c0.7,0.1,1.3,0.3,2,0.4c0,0.2,40.1-17.1,41.7-16.7c2,0.5,8.1,8.1,8.8,9.4c0.2,0.4,0.4,1.3,0.5,1.2
			c0,0,0.1-0.1,0.1-0.1c0.4-0.2,1.3-0.7,2.1-0.8c-0.1,0.3-0.2,0.7-0.3,1c-0.2,0.9-0.3,1.7-0.4,2.6c0,0.1,0,0.1,0,0.2c0,0,0,0,0,0
			C95.3,46.4,95.9,46,96.3,45.8z M100.8,70.2c0,0-0.1-0.1-0.1-0.1c-0.1-0.7-0.5-1.3-0.9-1.9c-1.4-2.1-3.3-3.8-5.3-5.4
			c-1.1-0.9-2.2-1.9-3.2-2.9c-1-1-1.9-2.2-2.8-3.3c-1.6-2-2.8-4.3-3.4-6.9c-0.2-0.9-0.3-1.8-0.5-2.7c-0.1-0.9-0.3-1.9-0.2-2.9
			c0,0,0-0.1,0-0.1c0-0.5,0.1-1,0.1-1.5c0.2-1,0.4-1.9,0.8-2.8c0.1-0.3-13.5-3.5-19.6,8.8c-0.7,1.7-1.3,3.4-1.5,5.2
			c-0.1,1.1-0.1,2.1,0,3.2c0.2,1.4,0.4,2.5,1.1,3.8c0.1,0.1,0.2,0.5,0.3,0.7v0c-0.2-0.1-0.7-0.5-1.3-0.6c-0.6-0.2-1.1-0.1-1.5,0.4
			c-0.7,0.7-1.1,1.5-1.3,2.5c-0.2,1-0.3,2-0.1,3c0.2,1.3,0.6,2.5,1.2,3.6c0.7,1.6,1.7,3.1,2.8,4.5c0.5,0.6,1.4,1.3,2.1,1.7
			c0,0,0.5-0.5,0.7-0.7c0.6-0.6,0.7-0.7,0.9-1c0.1-0.1,0.1-0.1-0.1-0.3c-0.4-0.3-0.7-0.6-1.1-1c-0.4-0.5-0.8-0.9-1.2-1.4
			c-0.6-0.9-1.1-1.8-1.5-2.8c-0.2-0.6-0.3-1.3-0.4-2c-0.1-0.7-0.1-1.7,0.1-2.5c0.1,0.3,0.2,0.6,0.2,0.8c0.5,1.5,1.2,2.9,2.2,4.2
			c1.1,1.6,2.5,3,4.2,4c0.3,0.2,0.2,0.1,0.3,0.2c-0.2,0.3-0.7,0.9-0.9,1.2c-0.8,1-1.7,2-2.8,2.8c-0.2,0.2-0.4,0.3-0.7,0.6
			c6.9,0.2,9.1-0.8,9.3-0.7c-1.1,2.1-2.9,3.5-5,4.7c2.9,0.9,5.8,0.8,8.7,0.3c0.1,0.1-0.7,1.5-1.1,2.1c-0.2,0.3-0.4,0.6-0.7,1
			c0.8,0.1,1.6,0.1,2.4,0.2c0.8,0,1.6-0.1,2.4-0.2c0.8-0.1,1.5-0.4,2.4-0.6c-0.3,0.7-0.6,1.3-1,1.9c-0.4,0.6-0.8,1.1-1.3,1.7
			c2.6,0,4.9-0.4,7.2-1.5c-0.1,0.3-0.2,0.6-0.4,0.9c-0.1,0.3-0.3,0.6-0.6,0.9c0.2-0.1,8.9-2.2,8-11.2c0.4,0,0.6-0.2,0.8-0.5
			c0.6-1.2,1.2-2.4,1.9-3.6c0.4-0.6,0.6-1.3,0.9-1.9c0.3-0.6,0.2-1.2-0.2-1.8C101.1,70.4,101,70.2,100.8,70.2z"/>
		<path class="st12" d="M88,65.6c-0.1-0.2-0.4-0.4-0.6-0.6c-1.1-0.9-2-2-2.7-3.2c-0.1-0.2-0.4-1-0.5-1.2c0.4,0.1,1.1,0.4,1.4,0.6
			c0.2,0.1,0.3,0.1,0.6,0.1c0,0-0.3-0.5-0.5-0.7c-0.5-0.7-1.1-1.4-1.5-2.2c-0.4-0.8-0.7-1.6-0.8-2.5c0,0,0-0.2,0-0.2
			c0.4,0.3,0.9,0.8,1.5,1.1c-0.1-0.4-0.1-0.7-0.2-1c-0.1-0.8-0.3-1.6-0.3-2.5c-0.2-2-0.3-4.1-0.3-6.1c0-1,0.1-2,0.4-3
			c0-0.1,0.1-0.3,0.1-0.4c1.4,13.2,9,18.2,10.1,19.1c1.9,1.6,6.2,5.1,6.2,7.3c-0.5,0-0.9,0-1.4,0c-2,0.1-4,0.2-6,0.2
			c-0.3,0-0.5,0.2-1,0.1c-0.1,0,0.2,0.2,0,0.2c0-0.2-0.6-0.5-0.8-0.6c-0.9-0.6-1.8-1.1-2.6-1.7c-0.8-0.5-1.5-1.1-2.2-1.8
			c-0.3-0.4-0.6-0.8-0.9-1.3c0-0.1-0.1-0.1-0.2-0.5c0.5,0.2,1.4,0.6,1.9,0.8C87.7,65.6,87.8,65.6,88,65.6C88,65.6,88,65.6,88,65.6
			C88,65.6,88,65.6,88,65.6z"/>
		<path class="st13" d="M93.1,55.3c0,0.4,0,0.8-0.1,1.2c-0.1,0.3-0.2,0.5-0.4,0.7c-0.2,0.2-0.5,0.3-0.8,0.2c-0.6-0.2-1-0.5-1.3-1
			c-0.8-1.4-1.2-2.8-0.8-4.4c0-0.2,0.1-0.5,0.2-0.7c0.3-0.6,0.9-0.8,1.5-0.4c0.4,0.3,0.7,0.6,0.9,1C92.9,53,93.2,54.1,93.1,55.3z"/>
		<path class="st4" d="M89.9,52.7c0-0.2,0-0.4,0.1-0.6c0.2-0.4,0.6-0.4,0.9-0.1c0.2,0.3,0.2,0.6,0.2,0.9c-0.1,0.3-0.3,0.5-0.6,0.5
			c-0.3,0-0.5-0.2-0.5-0.5C89.9,52.8,89.9,52.8,89.9,52.7z"/>
		<path class="st13" d="M72.9,54.3c0.1-0.8,0.1-1.7,0.7-2.4c0.5-0.6,1.1-0.9,1.9-0.8c1.1,0.1,1.9,0.8,2.6,1.6c0.8,1,1.3,2.1,1.5,3.4
			c0.1,1,0,1.9-0.5,2.7c-0.5,0.8-1.5,1.2-2.4,0.9c-0.8-0.2-1.5-0.7-2-1.3c-0.9-1-1.5-2.2-1.7-3.6C72.9,54.7,72.9,54.5,72.9,54.3z"/>
		<path class="st4" d="M76.2,53.9c0,0.6-0.6,1.1-1.2,1.1c-0.6,0-1.3-0.7-1.3-1.3c0-0.7,0.6-1.2,1.3-1.2
			C75.7,52.5,76.3,53.1,76.2,53.9z"/>
		<path class="st7" d="M80.1,44.2c-0.6,1.9-0.7,3.7-0.8,5.6c-4.7-3.3-10.2,0-8.9,7.1c-1.5-0.4-4-5.2-3.4-6.5
			c0.5,0.3,0.9,0.9,1.5,1.1c-0.1-0.5-0.3-3.8,0.8-5.9c0.4,0.8,1.2,2.3,1.3,2.3c0.2-1,0.3-2,0.6-3c0.3-1,0.6-1.9,1.3-2.9
			c0.2,1.5,0.8,2.9,1.4,4.2c0.2-0.4,0.8-2.8,3.1-5c0,1.7,0.3,3.2,0.5,4.8C78.3,45.4,79.1,44.7,80.1,44.2z"/>
		<path class="st13" d="M51.8,61.4c1.2,0.2,3.4-0.3,3.8-0.8c0,0.7,0.2,1.4,0.4,2.1c0.8,3.2,2.2,6.1,4,8.9c0.8,1.2,1.9,2.3,3,3.2
			c1.1,0.9,2,1.6,3.2,2.3c0,0,0.4,0.2,0.5,0.3c-0.3,0.2-0.5,0.4-0.8,0.3c-2.5-0.4-4.7-1.7-6.5-3.3C58.1,73.2,57,72,56,70.6
			c-1.4-2-2.8-4.1-3.6-6.5c-0.3-0.7-0.4-1.5-0.6-2.2C51.8,61.7,51.8,61.5,51.8,61.4z"/>
		<path class="st14" d="M45.7,54.1c0.1,0,0-6.6,2.8-10.4c3.5-4.8,9.7-8.4,9.7-8.5c0.4-0.4,22.7-4.4,23.7-3.9
			c0.9,0.4,10.2,2.4,10.4,2.4c0.3,1.1,0.7,2.7,0.9,3.8c0.4,1.9,0.5,3.8,0.6,5.7c0,0.1,0,0.1,0,0.2c0,0-0.4,0.2-0.5,0.4
			c-2.9-9.1-23.2-10.1-31.7,4c-1.1,1.7-2,3.6-2.8,5.5c-0.5,1.2-0.8,2.4-1.1,3.7c-0.2,0.6-0.4,1.2-0.7,1.8c-0.5,1.2-1.7,2.1-1.8,2.1
			c-0.6,0.3-1.2,0.5-1.9,0.5c-0.5,0-2,0.4-4-1.5c-1-1-1.8-2.1-2.5-3.3C46.3,55.9,46,55,45.7,54.1z"/>
		<path class="st15" d="M82.2,18.1c-0.2,0-0.9-0.5-1.2-0.6c-1.4-0.8-4.7-1.8-4.8-1.9c0-0.2,0-0.5,0-0.7c-0.3-1.6-0.9-3-1.7-4.3
			c-0.9-1.4-2-2.7-2.9-4.1c-0.8-1.2-1.6-2.4-2.3-3.7c-0.2-0.4-0.4-0.9-0.6-1.4C69,0.8,69.2,0.4,69.6,0c0.2,0.4,0.5,0.7,0.7,1
			c1.8,2.8,3.6,5.5,5.6,8.2C78.1,12.1,80.2,15.1,82.2,18.1z"/>
		<path class="st16" d="M75.1,14.9c0-0.6-0.3-1.1-0.5-1.6c-0.3-0.7-0.8-1.4-1.2-2c-1-1.6-2-3.2-3-4.7c-0.5-0.8-1-1.6-1.5-2.4
			c-0.3-0.4-0.5-0.9-0.6-1.3c0.1-0.6,0.2-1,0.5-1.6c0.2,0.4,0.4,0.9,0.6,1.3c0.7,1.3,1.5,2.6,2.3,3.8c0.9,1.4,2,2.7,2.9,4.1
			c0.8,1.3,1.5,2.7,1.7,4.3c0,0.2,0,0.3,0,0.5C75.9,15.2,75.5,15.1,75.1,14.9z"/>
		<path class="st15" d="M70,14.1c-0.1,0.1-0.2,0.1-0.3,0.1c-0.6-0.1-1.2-0.1-1.7,0c-0.1,0-0.2,0-0.2-0.1c0-0.1-0.1-0.2-0.2-0.3
			c-1-1.3-2-2.3-2.8-3.8c-0.2-0.4-0.3-1.1-0.2-1.5c0.1-0.5,0.3-0.9,0.7-1.3C66.8,9.5,68.2,11.9,70,14.1z"/>
		<path class="st17" d="M62.2,43.1c0,0.2-0.1,0.2-0.2,0.3c-1.1,1.2-2,2.5-2.7,3.9c-0.8,1.7-1.5,3.5-2.2,5.2c-0.5,1.2-1,2.4-1.7,3.5
			c-0.4,0.5-0.8,1-1.4,1.4c-0.7,0.4-1.4,0.5-2.2,0.3c-2-0.5-2.9-3.2-2.9-3.4C48.7,54,48.7,54,49.2,54c1.5,0.1,3-0.2,4.2-1.2
			c0.7-0.5,1.2-1.2,1.8-1.9c0.8-1.1,1.4-2.2,2.1-3.3c0.7-1,1.4-2.1,2.3-3c0.7-0.7,1.5-1.2,2.4-1.5C62,43.1,62.1,43.1,62.2,43.1z"/>
		<path class="st14" d="M84.8,20.2c-1.1,1.2-5.3,4.8-5.7,4.8c-1.1,0-14.3-2.3-16-1.6c-0.9,0.4-6.4,8-6.8,8.7
			c-0.1,0.1-7.1-7.8-8.1-8.9c-0.1-0.1,0-0.2,0-0.3C49.4,19.3,66.8,3.9,84.8,20.2z"/>
		<path class="st17" d="M56.3,30.8c-0.5-0.4-5.5-5.9-5.5-6c0.4-0.4,0.8-0.9,1.1-1.3c1.5-1.8,7.5-7.8,18-7.1c0.2,0,0.3,0.1,0.3,0.2
			c0,0.1-0.1,0.1-0.2,0.1c-4.2,0.4-9.7,2.2-12.2,4.7c-1,1-1.4,2.1-1.3,2.8c0,0.4,0.1,0.8,0.4,1.1c0.3,0.4,0.7,0.7,1.1,0.9
			c-0.2,0.2-0.2,0.4-0.3,0.6c-0.4,0.9-0.9,1.8-1.1,2.7C56.3,30,56.3,30.4,56.3,30.8z"/>
		<path class="st15" d="M52.8,26.9c0.7,0.8,1.4,1.6,2.1,2.5c0.4,0.5,1.3,1.5,1.9,2c0.1,0.4-0.2,0.5-0.5,0.8
			c-1.1,0.8-2.5,1.5-3.5,2.4c-0.7,0.6-2.8,2.2-2.7,2.1c0.1-0.5,0.2-2.8,0.2-3.3c-0.1-1-0.2-1.8-0.5-2.8c-0.6-2.1-1.4-4.1-2.6-5.9
			c-0.7-1.1-1.5-2-2.3-3.1c-1-1.4-2.1-2.5-3.1-3.8c-0.6-0.7-1.2-1.6-1.8-2.3c-0.8-1-1.7-1.9-2.6-3c-0.9-1.1-1.7-2.2-2.2-3.7
			c0.3-0.6,0.5-1,0.9-1.4c0.1,0.1,4.1,5,6,7.3c2.1,2.5,4.3,5,6.5,7.4C48.7,22.3,52.2,26.2,52.8,26.9z"/>
		<path class="st2" d="M36.2,37.9c-0.5-0.7-1.1-1.4-1.5-2.1c-0.9-1.4-1.7-2.8-2.3-4.3c0-0.1-0.6-1.6-0.8-2.3
			c-0.1-0.6-0.2-1.1-0.2-1.7c0.4,0.5,1,0.8,1.5,1.3c1.2,1.3,2.5,2.4,4,3.4c0.5,0.3,1.5-0.1,1.3-0.3c-1.2-1.1-2.2-2.1-2.3-2.2
			c-1.2-1.8-2.5-4.7-3.4-6.7c-0.5-1.2-0.9-2.5-1-3.8c-0.1-0.8-0.1-1.6,0.1-2.4c0.5,0.7,1,1.1,1.6,1.7c0.7,0.8,1.5,1.7,2.2,2.5
			c0.4,0.5,0.8,1,1.2,1.5c0.4,0.5,0.8,1.1,1.2,1.6c0.3,0.4,0.7,0.6,1,0.9c0.6,0.5,1.2,1.1,1.9,1.5c0.4,0.2,0.5,0.3,0.9,0.4
			c0.2,0.1-1.4-2.4-1.4-2.4c-0.1-0.3-0.6-1.2-0.7-1.4c-0.7-1.2-1.5-2.4-2.2-3.6c-0.8-1.4-1.4-2.9-2-4.5c-0.2-0.7-0.9-2.2-0.6-5.1
			c0.9,1.6,3.6,4.3,4.7,5.7c0.8,1,1.6,2,2.4,3c1.3,1.6,2.5,3.3,3.4,5.1c0.7,1.4,1.4,3.1,1.8,4.6c0.3,1.1,0.6,2.4,0.7,3.5
			c0.1,1.1,0,2.3-0.3,3.4c-0.4,1.6-1.4,2.9-2.7,3.9c-0.9,0.7-2,0.9-3.1,0.9c-0.3,0-3.7-0.3-4.8-1.6C36.7,38.5,36.5,38.1,36.2,37.9z"
			/>
		<path class="st16" d="M35.2,8.8c0.6,1.3,1.5,2.5,2.3,3.6c0.8,1,1.7,2.1,2.5,3.1c0.6,0.7,1.2,1.4,1.8,2.1c1.1,1.3,2.2,2.5,3.2,3.9
			c0.8,1,1.6,2,2.3,3.1c1.2,1.8,2,3.8,2.7,5.9c0.3,0.9,0.4,1.9,0.6,2.9c0.1,2-0.3,3.2-0.2,3.3c-0.3,0.5-0.7,1.3-1.1,1.8
			c-1.4,1.6-2.3,3.1-3.3,5c-0.3,0.6-0.9,1.2-1.2,1.8c-0.2,0.5-0.6,0-0.8-0.1c-0.1-0.1-0.4-0.3-0.5-0.4c-1.4-1-2.7-2-4-3.2
			c-0.9-0.9-1.9-1.8-2.6-2.7c0.3,0.1,1.9,1.2,5,1.3c1.1,0,2.1-0.2,3-0.9c1.3-1,2.2-2.3,2.6-3.9c0.2-1.1,0.2-2.1,0.2-3.2
			c-0.1-1.1-0.3-2.2-0.6-3.3c-0.5-1.6-1.1-3-1.8-4.5c-0.9-1.8-2-3.6-3.3-5.2c-0.8-1-1.6-2-2.4-2.9c-1.2-1.4-2.4-2.7-3.5-4.1
			c-0.3-0.5-0.9-1.4-1-1.8C34.9,9.7,35,9.2,35.2,8.8z"/>
		<path class="st18" d="M42.7,50.3c-0.1-0.2,0-0.4,0-0.7c0.2-1.2,0.6-2.3,1.1-3.4c0.2-0.4,0.5-1.2,0.6-1.4c0.3-0.6,0.6-1.2,0.9-1.8
			c1-1.9,2.2-3.6,3.5-5.2c0.4-0.5,1.5-1.6,1.6-1.8c0.6-0.6,1.3-1.3,2-1.8c1.1-0.9,2.2-1.7,3.4-2.5c0.3-0.2,0.5-0.5,0.4-0.9
			c0-0.4,0.1-0.8,0.2-1.2c0.2-1,0.6-1.9,1.1-2.7c0.1-0.2,0.5-0.8,0.6-0.9c0.5-0.6,1-1.2,1.6-1.7c0.8-0.6,1.6-1.1,2.5-1.5
			c1.7-0.7,6.3-1.6,12.2,0.1c1.1,0.3,2.2,0.5,3.3,0.4c0.4,0,0.8,0,1.2-0.1c0.8-0.1,1.5-0.3,2.1-0.8c1.2-0.8,2.4-1.7,3.8-2.2
			c0.2,0,0.4-0.1,0.6-0.1c1.3-0.3,2.5,0,3.6,0.9c1.2,0.9,2,2.2,2.7,3.5c0.9,1.6,1.6,3.4,1.9,5.2c0.2,0.8,0.3,1.7,0.1,2.5
			c-0.2,0.8-0.5,1.5-1.1,2c-0.1,0.1-0.4,0.3-0.6,0.3c-1.4,0.6-2.9,0.7-4.3,0.5c-0.8-0.1-1.6-0.3-2.4-0.6c-0.9-0.3-1.7-0.8-2.5-1.1
			c-1.1-0.4-2.1-0.4-3.2,0c-0.8,0.3-1.3,1-1.9,1.5c-0.9,0.8-1.8,1.5-2.9,2.2c-1,0.6-2.1,0.9-3.2,1.3c-1,0.4-5.4,1.7-10.3-0.4
			c-0.8-0.3-1.4-0.8-2.1-1.3c-0.4-0.3-0.5-0.3-0.9,0.1c0,0-0.1,0.1-0.1,0.1c-0.5,0.4-0.9,0.8-1.4,1.2c-0.7,0.6-1.5,1.2-2.2,1.9
			c-0.9,0.9-1.6,1.8-2.4,2.7c-0.8,1-1.5,2-2.2,3c-0.5,0.8-1,1.7-1.5,2.5c-0.4,0.6-0.7,1.2-1,1.9c-0.6,1.3-1.3,3.2-1.8,4.5
			C45.2,54.6,43.8,54,42.7,50.3z"/>
		<path class="st19" d="M68,23.8c1.7,0,3.3,0.3,4.8,1c1.5,0.7,2.7,1.6,3.6,2.9c0.3,0.5,0.6,1,0.7,1.6c0.3,1.4-0.2,2.5-1.1,3.5
			c-0.9,1.1-2.1,1.8-3.4,2.4c-1.6,0.7-3.3,1.1-5,1.1c-2,0.1-3.9-0.4-5.4-1.7c-0.6-0.5-1.2-1.1-1.6-1.8c-1-1.6-1-3.3-0.3-5
			c0.9-1.9,2.4-2.9,4.3-3.5C65.7,24,66.9,23.8,68,23.8z"/>
		<path class="st19" d="M88.1,32.8c-1.3,0-2.7-0.4-4-1c-1.5-0.7-3.1-3-2.6-5.3c0.2-0.9,0.6-1.7,1.3-2.3c0.8-0.7,1.7-1.2,2.6-1.6
			c0.7-0.3,1.4-0.2,2,0.3c1,0.7,1.6,1.6,2.2,2.6c0.9,1.6,1.5,3.2,1.7,5c0,0.4,0.1,0.8,0,1.2c-0.1,0.4-0.4,0.7-0.8,0.8
			C90,32.6,89.2,32.7,88.1,32.8z"/>
		<path class="st4" d="M70.5,34.2c-1.7,0.7-10,0.8-8.2-7.1C62.3,27.1,69.9,33.7,70.5,34.2z"/>
		<path class="st4" d="M89.5,30.9c-1.9,0.7-6.7-0.2-6.3-5C84.1,26.6,89.2,30.7,89.5,30.9z"/>
		<path class="st15" d="M40.5,24.8c0.7,0.8,1.3,1.7,1.9,2.6c-0.2,0.1-2.1-0.3-4.7-2.9c-0.4-0.5-0.9-1-1.3-1.6
			c-0.4-0.5-0.8-1-1.2-1.4c-0.7-0.8-1.4-1.7-2.1-2.5c-0.5-0.6-1-1.2-1.5-1.9c0.2-0.5,0.4-1,0.6-1.4c0.3,0.3,1.2,1.2,1.7,1.7
			c1.9,2.2,3.8,4.3,5.7,6.5c0.1,0.2,0.5,0.5,0.7,0.7l0,0C40.4,24.6,40.4,24.7,40.5,24.8z"/>
		<path class="st15" d="M36.7,30.4c0.7,0.7,2.2,2.2,2.9,2.7c-0.6,0.1-2.3-0.3-2.8-0.6c-1.5-0.9-2.9-2.1-4.1-3.4
			c-0.5-0.5-0.9-1-1.3-1.6c0-0.7,0.1-1.3,0.4-1.9c0.4,0.4,2.5,2.4,3.6,3.4c0.1,0.1,0.4,0.3,0.4,0.4C35.9,29.5,36.4,30.1,36.7,30.4z"
			/>
		<path class="st18" d="M92.3,70.4c0,0.1,7.8-0.2,8.4-0.3c0.2,0,0.4,0.3,0.5,0.4c0.4,0.6,0.5,1.2,0.2,1.8c-0.3,0.6-0.6,1.3-0.9,1.9
			c-0.7,1.2-1.2,2.4-1.9,3.6c-0.2,0.3-0.4,0.5-0.8,0.5c-0.3,0-0.5-0.1-0.7-0.3c-2.1-1.8-4.2-3.5-6.3-5.3c-0.4-0.3-0.5-0.7-0.5-1.2
			c0-0.6,0.3-1,0.9-1.1C91.5,70.5,92.1,70.4,92.3,70.4z"/>
		<path class="st17" d="M100.7,71.5c-0.2,0.7-0.5,1.1-1.2,1.2c-1.2,0.2-3.7,0.4-4.6,0.2c-0.6-0.1-1.5-1.6-2.7-2.5
			c0.4,0,0.8-0.1,1.1-0.1c2,0,4-0.1,6-0.2c0.5,0,0.9,0,1.4,0C100.7,70.2,100.8,71.1,100.7,71.5z"/>
	</g>
</g>
</svg>
