<?xml version="1.0" encoding="utf-8"?>
<!-- Generator: Adobe Illustrator 23.1.1, SVG Export Plug-In . SVG Version: 6.00 Build 0)  -->
<svg version="1.1" id="Слой_1" xmlns="http://www.w3.org/2000/svg" xmlns:xlink="http://www.w3.org/1999/xlink" x="0px" y="0px"
	 viewBox="0 0 300 300" style="enable-background:new 0 0 300 300;" xml:space="preserve">
<style type="text/css">
	.st0{clip-path:url(#SVGID_2_);}
	.st1{clip-path:url(#SVGID_4_);}
	.st2{clip-path:url(#SVGID_6_);}
	.st3{clip-path:url(#SVGID_10_);}
	.st4{clip-path:url(#SVGID_12_);}
	.st5{clip-path:url(#SVGID_16_);}
	.st6{clip-path:url(#SVGID_18_);}
	.st7{clip-path:url(#SVGID_20_);}
	.st8{clip-path:url(#SVGID_24_);}
	.st9{clip-path:url(#SVGID_26_);}
	.st10{clip-path:url(#SVGID_28_);}
	.st11{clip-path:url(#SVGID_32_);}
	.st12{clip-path:url(#SVGID_34_);}
	.st13{clip-path:url(#SVGID_38_);}
	.st14{clip-path:url(#SVGID_40_);}
	.st15{clip-path:url(#SVGID_42_);}
	.st16{clip-path:url(#SVGID_46_);}
	.st17{clip-path:url(#SVGID_48_);}
	.st18{clip-path:url(#SVGID_50_);}
	.st19{clip-path:url(#SVGID_52_);}
	.st20{clip-path:url(#SVGID_56_);}
	.st21{clip-path:url(#SVGID_58_);}
	.st22{clip-path:url(#SVGID_60_);}
	.st23{clip-path:url(#SVGID_64_);}
	.st24{clip-path:url(#SVGID_66_);}
	.st25{clip-path:url(#SVGID_68_);}
	.st26{clip-path:url(#SVGID_70_);}
</style>
<g>
	<g>
		<defs>
			<path id="SVGID_1_" d="M78.7,187.1h4.5h4.6h4.5c0,0,1.5,0,4.5,0c0,0,2.1-24.7,2.1-37.1c0-0.6,0.1-1.3,0.1-2
				c-3.1-0.1-4.6-0.2-4.6-0.2c-1.5-0.1-3.1-0.1-4.6-0.2c-1.5-0.1-3.1-0.1-4.6-0.2c0,0-1.5-0.1-4.6-0.2c0,0.9-0.1,1.8-0.1,2.7
				C80.4,162.4,78.7,187.1,78.7,187.1"/>
		</defs>
		<clipPath id="SVGID_2_">
			<use xlink:href="#SVGID_1_"  style="overflow:visible;"/>
		</clipPath>
		<g class="st0">
			<defs>
				<path id="SVGID_3_" d="M99,149.3l0,0.6l-0.1,1c-0.3,5.1-4.7,9-9.8,8.7c-5.1-0.3-9-4.6-8.7-9.7l0-0.9L99,149.3z"/>
			</defs>
			<clipPath id="SVGID_4_">
				<use xlink:href="#SVGID_3_"  style="overflow:visible;"/>
			</clipPath>
			<g class="st1">
				<defs>
					<rect id="SVGID_5_" x="80.4" y="149.1" width="18.7" height="10.8"/>
				</defs>
				<clipPath id="SVGID_6_">
					<use xlink:href="#SVGID_5_"  style="overflow:visible;"/>
				</clipPath>
				<g class="st2">
					<g>
						<defs>
							<rect id="SVGID_7_" x="80.4" y="149.1" width="18.7" height="10.8"/>
						</defs>
						<clipPath id="SVGID_8_">
							<use xlink:href="#SVGID_7_"  style="overflow:visible;"/>
						</clipPath>
						<g style="clip-path:url(#SVGID_8_);">
							
								<image style="overflow:visible;" width="40" height="24" xlink:href="8385879437A0DE9C.jpg"  transform="matrix(0.48 0 0 0.48 80.16 148.8)">
							</image>
						</g>
					</g>
				</g>
			</g>
		</g>
	</g>
	<g>
		<defs>
			<path id="SVGID_9_" d="M80.4,150h4.6c1.5,0,3.1,0,4.6,0h4.6H99c0.1-1.3,0.1-2,0.1-2c0.4-13.3,6.2-26.2,15.8-35.4
				c9.5-9.3,22.6-14.6,35.9-14.5h0c13.6,0,27,5.5,36.7,15.2c9.7,9.6,15.2,23,15.2,36.7v0c0,13.6-5.5,27-15.2,36.7
				c-9.6,9.7-23,15.2-36.7,15.2h0c-13.3,0-26.4-5.3-35.9-14.6c-9.6-9.2-15.4-22.1-15.8-35.4c0,0,0-0.6-0.1-2h-4.6h-4.6h-4.6H80.4
				c0.1,1.8,0.1,2.7,0.1,2.7c0.5,18,8.5,35.6,21.5,48c12.9,12.5,30.8,19.8,48.8,19.7h0.1c18.4,0.1,36.8-7.5,49.8-20.6
				c13.1-13,20.7-31.3,20.6-49.8V150c0.1-18.4-7.5-36.8-20.6-49.8c-13-13.1-31.3-20.7-49.8-20.6h-0.1c-18,0-35.9,7.2-48.8,19.7
				c-13,12.4-20.9,30.1-21.5,48C80.6,147.3,80.5,148.2,80.4,150"/>
		</defs>
		<clipPath id="SVGID_10_">
			<use xlink:href="#SVGID_9_"  style="overflow:visible;"/>
		</clipPath>
		<g class="st3">
			<defs>
				<rect id="SVGID_11_" x="80.4" y="79.5" width="140.9" height="141"/>
			</defs>
			<clipPath id="SVGID_12_">
				<use xlink:href="#SVGID_11_"  style="overflow:visible;"/>
			</clipPath>
			<g class="st4">
				<g>
					<defs>
						<rect id="SVGID_13_" x="80.4" y="79.5" width="140.9" height="141"/>
					</defs>
					<clipPath id="SVGID_14_">
						<use xlink:href="#SVGID_13_"  style="overflow:visible;"/>
					</clipPath>
					<g style="clip-path:url(#SVGID_14_);">
						
							<image style="overflow:visible;" width="295" height="295" xlink:href="8385879437A0DE9D.jpg"  transform="matrix(0.48 0 0 0.48 80.16 79.2)">
						</image>
					</g>
				</g>
			</g>
		</g>
	</g>
	<g>
		<defs>
			<path id="SVGID_15_" d="M80.6,152.6c3.1-0.1,4.6-0.2,4.6-0.2c1.5-0.1,3.1-0.1,4.6-0.2c1.5-0.1,3.1-0.1,4.6-0.2
				c0,0,1.5-0.1,4.6-0.2c0-0.6-0.1-1.3-0.1-2c0-12.4-2.1-37.1-2.1-37.1h-4.6h-4.5h-4.5h-4.6c0,0,1.7,24.7,1.7,37.1
				C80.5,150.9,80.5,151.8,80.6,152.6"/>
		</defs>
		<clipPath id="SVGID_16_">
			<use xlink:href="#SVGID_15_"  style="overflow:visible;"/>
		</clipPath>
		<g class="st5">
			<defs>
				<path id="SVGID_17_" d="M80.5,150.9l0-0.9c-0.2-5.1,3.7-9.4,8.8-9.7c5.1-0.2,9.4,3.7,9.7,8.7l0.1,1l0,0.7L80.5,150.9z"/>
			</defs>
			<clipPath id="SVGID_18_">
				<use xlink:href="#SVGID_17_"  style="overflow:visible;"/>
			</clipPath>
			<g class="st6">
				<defs>
					<rect id="SVGID_19_" x="80.4" y="140" width="18.7" height="11"/>
				</defs>
				<clipPath id="SVGID_20_">
					<use xlink:href="#SVGID_19_"  style="overflow:visible;"/>
				</clipPath>
				<g class="st7">
					<g>
						<defs>
							<rect id="SVGID_21_" x="80.4" y="140" width="18.7" height="11"/>
						</defs>
						<clipPath id="SVGID_22_">
							<use xlink:href="#SVGID_21_"  style="overflow:visible;"/>
						</clipPath>
						<g style="clip-path:url(#SVGID_22_);">
							
								<image style="overflow:visible;" width="40" height="24" xlink:href="8385879437A0DE9B.jpg"  transform="matrix(0.48 0 0 0.48 80.16 139.68)">
							</image>
						</g>
					</g>
				</g>
			</g>
		</g>
	</g>
	<g>
		<defs>
			<path id="SVGID_23_" d="M115.7,187.1c2.8,0,4.3,0,4.3,0h4.3c1.4,0,2.8,0,4.3,0h4.3c0,0,2.9-24.7,2.9-37.1c0-0.1,0-0.1,0-0.2
				c0-0.4,0-0.8,0.1-1.3c-3.1-0.3-4.6-0.4-4.6-0.4c-1.5-0.1-3.1-0.3-4.6-0.4c-1.5-0.1-3.1-0.3-4.6-0.4c0,0-1.5-0.1-4.6-0.4
				c0,0.9-0.1,1.9-0.1,2.8c0,0.1,0,0.3,0,0.4C117.1,162.4,115.7,187.1,115.7,187.1"/>
		</defs>
		<clipPath id="SVGID_24_">
			<use xlink:href="#SVGID_23_"  style="overflow:visible;"/>
		</clipPath>
		<g class="st8">
			<defs>
				<path id="SVGID_25_" d="M135.7,149.4l0,0.4l0,0.7c-0.3,5.1-4.6,9.1-9.7,8.8c-5.1-0.3-9-4.6-8.8-9.7v0l0-0.9L135.7,149.4z"/>
			</defs>
			<clipPath id="SVGID_26_">
				<use xlink:href="#SVGID_25_"  style="overflow:visible;"/>
			</clipPath>
			<g class="st9">
				<defs>
					<rect id="SVGID_27_" x="116.9" y="148.5" width="19" height="11"/>
				</defs>
				<clipPath id="SVGID_28_">
					<use xlink:href="#SVGID_27_"  style="overflow:visible;"/>
				</clipPath>
				<g class="st10">
					<g>
						<defs>
							<rect id="SVGID_29_" x="116.9" y="148.5" width="19" height="11"/>
						</defs>
						<clipPath id="SVGID_30_">
							<use xlink:href="#SVGID_29_"  style="overflow:visible;"/>
						</clipPath>
						<g style="clip-path:url(#SVGID_30_);">
							
								<image style="overflow:visible;" width="41" height="24" xlink:href="8385879437A0DEA4.jpg"  transform="matrix(0.48 0 0 0.48 116.64 148.32)">
							</image>
						</g>
					</g>
				</g>
			</g>
		</g>
	</g>
	<g>
		<defs>
			<path id="SVGID_31_" d="M117.1,150h4.6c1.5,0,3.1,0,4.6,0h4.6c0,0,1.5,0,4.6,0c0-0.1,0-0.2,0-0.2c0-0.4,0-0.8,0.1-1.3
				c0.4-3.7,2.1-7.2,4.9-9.7c2.8-2.5,6.4-4,10.2-4h0c4,0,7.9,1.6,10.7,4.4c2.8,2.8,4.4,6.7,4.4,10.7v0c0,4-1.6,7.9-4.4,10.7
				c-2.8,2.8-6.7,4.4-10.7,4.4h0c-3.8,0-7.4-1.4-10.2-4c-2.8-2.5-4.5-6.1-4.9-9.8c0,0,0-0.5-0.1-1.4h-4.6h-4.6h-4.6H117.1
				c0.1,2.1,0.2,3.2,0.2,3.2c0.8,8.3,4.7,16.2,10.9,21.7c6.1,5.6,14.4,8.8,22.7,8.8h0.1c8.8,0,17.6-3.6,23.8-9.9
				c6.2-6.2,9.9-15,9.9-23.8V150c0-8.8-3.6-17.6-9.9-23.8c-6.2-6.3-15-9.9-23.8-9.9h-0.1c-8.3,0-16.6,3.2-22.7,8.8
				c-6.1,5.5-10.1,13.5-10.9,21.7c0,0.9-0.1,1.9-0.1,2.8C117.2,149.6,117.2,149.7,117.1,150"/>
		</defs>
		<clipPath id="SVGID_32_">
			<use xlink:href="#SVGID_31_"  style="overflow:visible;"/>
		</clipPath>
		<g class="st11">
			<defs>
				<rect id="SVGID_33_" x="117.1" y="116.2" width="67.5" height="67.5"/>
			</defs>
			<clipPath id="SVGID_34_">
				<use xlink:href="#SVGID_33_"  style="overflow:visible;"/>
			</clipPath>
			<g class="st12">
				<g>
					<defs>
						<rect id="SVGID_35_" x="117.1" y="116.2" width="67.5" height="67.5"/>
					</defs>
					<clipPath id="SVGID_36_">
						<use xlink:href="#SVGID_35_"  style="overflow:visible;"/>
					</clipPath>
					<g style="clip-path:url(#SVGID_36_);">
						
							<image style="overflow:visible;" width="141" height="141" xlink:href="8385879437A0DEA7.jpg"  transform="matrix(0.48 0 0 0.48 117.12 116.16)">
						</image>
					</g>
				</g>
			</g>
		</g>
	</g>
	<g>
		<defs>
			<path id="SVGID_37_" d="M117.3,153.2c3.1-0.3,4.6-0.4,4.6-0.4c1.5-0.1,3.1-0.3,4.6-0.4c1.5-0.1,3.1-0.3,4.6-0.4
				c0,0,1.5-0.1,4.6-0.4c0-0.5,0-1-0.1-1.4c0-12.4-3-37.1-3-37.1h-4.4H124h-4.4h-4.3c0,0,1.8,24.7,1.8,37.1
				C117.2,151,117.3,152.1,117.3,153.2"/>
		</defs>
		<clipPath id="SVGID_38_">
			<use xlink:href="#SVGID_37_"  style="overflow:visible;"/>
		</clipPath>
		<g class="st13">
			<defs>
				<path id="SVGID_39_" d="M117.2,151l-0.1-1.1c-0.3-5.1,3.7-9.4,8.8-9.7c5-0.3,9.3,3.5,9.7,8.5l0.1,1.2l0,0.5L117.2,151z"/>
			</defs>
			<clipPath id="SVGID_40_">
				<use xlink:href="#SVGID_39_"  style="overflow:visible;"/>
			</clipPath>
			<g class="st14">
				<defs>
					<rect id="SVGID_41_" x="116.9" y="140" width="19" height="11"/>
				</defs>
				<clipPath id="SVGID_42_">
					<use xlink:href="#SVGID_41_"  style="overflow:visible;"/>
				</clipPath>
				<g class="st15">
					<g>
						<defs>
							<rect id="SVGID_43_" x="116.9" y="140" width="19" height="11"/>
						</defs>
						<clipPath id="SVGID_44_">
							<use xlink:href="#SVGID_43_"  style="overflow:visible;"/>
						</clipPath>
						<g style="clip-path:url(#SVGID_44_);">
							
								<image style="overflow:visible;" width="41" height="24" xlink:href="8385879437A0DEA5.jpg"  transform="matrix(0.48 0 0 0.48 116.64 139.68)">
							</image>
						</g>
					</g>
				</g>
			</g>
		</g>
	</g>
	<g>
		<defs>
			<path id="SVGID_45_" d="M42,187.1h4.6h4.6h4.6h4.6c0,0,2-24.7,2-37.1c0-0.7,0.1-1.4,0.1-2.1c-3.1-0.1-4.6-0.1-4.6-0.1
				c-1.5,0-3.1-0.1-4.6-0.1c-1.5,0-3.1-0.1-4.6-0.1c0,0-1.5,0-4.6-0.1c0,0.8-0.1,1.7-0.1,2.5C43.7,162.4,42,187.1,42,187.1"/>
		</defs>
		<clipPath id="SVGID_46_">
			<use xlink:href="#SVGID_45_"  style="overflow:visible;"/>
		</clipPath>
		<g class="st16">
			<defs>
				<path id="SVGID_47_" d="M62.3,149.3l0,0.7l-0.1,0.9c-0.3,5.1-4.6,9-9.7,8.8c-5.1-0.3-9-4.6-8.8-9.7l0-0.8L62.3,149.3z"/>
			</defs>
			<clipPath id="SVGID_48_">
				<use xlink:href="#SVGID_47_"  style="overflow:visible;"/>
			</clipPath>
			<g class="st17">
				<defs>
					<rect id="SVGID_49_" x="43.9" y="-100.1" width="4826.4" height="470.5"/>
				</defs>
				<clipPath id="SVGID_50_">
					<use xlink:href="#SVGID_49_"  style="overflow:visible;"/>
				</clipPath>
				<g class="st18">
					<defs>
						<rect id="SVGID_51_" x="43.9" y="149.1" width="18.7" height="10.8"/>
					</defs>
					<clipPath id="SVGID_52_">
						<use xlink:href="#SVGID_51_"  style="overflow:visible;"/>
					</clipPath>
					<g class="st19">
						<g>
							<defs>
								<rect id="SVGID_53_" x="43.9" y="149.1" width="18.7" height="10.8"/>
							</defs>
							<clipPath id="SVGID_54_">
								<use xlink:href="#SVGID_53_"  style="overflow:visible;"/>
							</clipPath>
							<g style="clip-path:url(#SVGID_54_);">
								
									<image style="overflow:visible;" width="40" height="24" xlink:href="8385879437A0DEAB.jpg"  transform="matrix(0.48 0 0 0.48 43.68 148.8)">
								</image>
							</g>
						</g>
					</g>
				</g>
			</g>
		</g>
	</g>
	<g>
		<defs>
			<path id="SVGID_55_" d="M43.7,150h4.6H53h4.6h4.6c0.1-1.4,0.1-2.1,0.1-2.1c0.2-11.4,2.7-22.8,7.3-33.2c4.6-10.5,11.2-20,19.3-28
				c8.2-8,17.9-14.4,28.5-18.7c10.6-4.3,22-6.5,33.4-6.6h0c11.6,0,23.2,2.3,33.9,6.8c10.7,4.4,20.5,11,28.7,19.2
				c8.2,8.2,14.8,18,19.2,28.7c4.4,10.7,6.7,22.3,6.8,33.9v0c0,11.6-2.3,23.2-6.8,33.9c-4.4,10.7-11,20.5-19.2,28.7
				c-8.2,8.2-18,14.8-28.7,19.2c-10.7,4.4-22.3,6.7-33.9,6.7h0c-11.4,0-22.8-2.3-33.4-6.6c-10.6-4.3-20.3-10.7-28.5-18.7
				c-8.2-8-14.8-17.5-19.3-28c-4.6-10.5-7-21.8-7.3-33.2c0-0.7-0.1-1.4-0.1-2.1h-4.6H53h-4.6H43.7c0,0.8,0.1,1.7,0.1,2.5
				c0.3,13.8,3.3,27.5,8.8,40.2c5.5,12.7,13.5,24.2,23.4,33.9c9.9,9.6,21.6,17.4,34.4,22.6c12.8,5.2,26.6,7.9,40.4,8h0.1
				c14,0,28-2.8,41-8.2c13-5.4,24.8-13.3,34.7-23.2c9.9-9.9,17.8-21.8,23.2-34.7c5.4-12.9,8.1-27,8.2-41V150c0-14-2.8-28-8.2-41
				c-5.4-13-13.3-24.8-23.2-34.7c-9.9-9.9-21.8-17.8-34.7-23.2c-13-5.4-27-8.2-41-8.2h-0.1c-13.8,0-27.6,2.7-40.4,7.9
				C97.7,56,85.9,63.8,76.1,73.4c-9.9,9.6-17.9,21.2-23.4,33.9c-5.5,12.7-8.5,26.4-8.8,40.2C43.9,147.5,43.8,148.3,43.7,150"/>
		</defs>
		<clipPath id="SVGID_56_">
			<use xlink:href="#SVGID_55_"  style="overflow:visible;"/>
		</clipPath>
		<g class="st20">
			<defs>
				<rect id="SVGID_57_" x="43.9" y="-100.1" width="4826.4" height="470.5"/>
			</defs>
			<clipPath id="SVGID_58_">
				<use xlink:href="#SVGID_57_"  style="overflow:visible;"/>
			</clipPath>
			<g class="st21">
				<defs>
					<rect id="SVGID_59_" x="43.9" y="42.7" width="214.3" height="214.5"/>
				</defs>
				<clipPath id="SVGID_60_">
					<use xlink:href="#SVGID_59_"  style="overflow:visible;"/>
				</clipPath>
				<g class="st22">
					<g>
						<defs>
							<rect id="SVGID_61_" x="43.9" y="42.7" width="214.3" height="214.5"/>
						</defs>
						<clipPath id="SVGID_62_">
							<use xlink:href="#SVGID_61_"  style="overflow:visible;"/>
						</clipPath>
						<g style="clip-path:url(#SVGID_62_);">
							
								<image style="overflow:visible;" width="447" height="448" xlink:href="8385879437A0DEAC.jpg"  transform="matrix(0.48 0 0 0.48 43.68 42.24)">
							</image>
						</g>
					</g>
				</g>
			</g>
		</g>
	</g>
	<g>
		<defs>
			<path id="SVGID_63_" d="M43.9,152.5c3.1-0.1,4.6-0.1,4.6-0.1c1.5,0,3.1-0.1,4.6-0.1c1.5,0,3.1-0.1,4.6-0.1c0,0,1.5,0,4.6-0.1
				c0-0.7-0.1-1.4-0.1-2.1c0-12.4-2.1-37.1-2.1-37.1h-4.6h-4.6h-4.5H42c0,0,1.7,24.7,1.7,37.1C43.8,150.8,43.8,151.7,43.9,152.5"/>
		</defs>
		<clipPath id="SVGID_64_">
			<use xlink:href="#SVGID_63_"  style="overflow:visible;"/>
		</clipPath>
		<g class="st23">
			<defs>
				<path id="SVGID_65_" d="M43.8,150.8l0-0.8c-0.2-5.1,3.7-9.5,8.8-9.7c5.1-0.2,9.4,3.7,9.7,8.7l0.1,1l0,0.7L43.8,150.8z"/>
			</defs>
			<clipPath id="SVGID_66_">
				<use xlink:href="#SVGID_65_"  style="overflow:visible;"/>
			</clipPath>
			<g class="st24">
				<defs>
					<rect id="SVGID_67_" x="43.9" y="-100.1" width="4826.4" height="470.5"/>
				</defs>
				<clipPath id="SVGID_68_">
					<use xlink:href="#SVGID_67_"  style="overflow:visible;"/>
				</clipPath>
				<g class="st25">
					<defs>
						<rect id="SVGID_69_" x="43.9" y="140" width="18.7" height="11"/>
					</defs>
					<clipPath id="SVGID_70_">
						<use xlink:href="#SVGID_69_"  style="overflow:visible;"/>
					</clipPath>
					<g class="st26">
						<g>
							<defs>
								<rect id="SVGID_71_" x="43.9" y="140" width="18.7" height="11"/>
							</defs>
							<clipPath id="SVGID_72_">
								<use xlink:href="#SVGID_71_"  style="overflow:visible;"/>
							</clipPath>
							<g style="clip-path:url(#SVGID_72_);">
								
									<image style="overflow:visible;" width="40" height="24" xlink:href="8385879437A0DEAF.jpg"  transform="matrix(0.48 0 0 0.48 43.68 139.68)">
								</image>
							</g>
						</g>
					</g>
				</g>
			</g>
		</g>
	</g>
</g>
</svg>
