<?xml version="1.0" encoding="utf-8"?>
<!-- Generator: Adobe Illustrator 24.0.1, SVG Export Plug-In . SVG Version: 6.00 Build 0)  -->
<svg version="1.1" id="Слой_1" xmlns="http://www.w3.org/2000/svg" xmlns:xlink="http://www.w3.org/1999/xlink" x="0px" y="0px"
	 viewBox="0 0 300 300" style="enable-background:new 0 0 300 300;" xml:space="preserve">
<style type="text/css">
	.st0{fill-rule:evenodd;clip-rule:evenodd;fill:#F3A211;}
	.st1{fill-rule:evenodd;clip-rule:evenodd;fill:#E07118;}
	.st2{fill-rule:evenodd;clip-rule:evenodd;fill:#D54334;}
	.st3{fill-rule:evenodd;clip-rule:evenodd;fill:#4C4C4C;}
</style>
<g>
	<path class="st0" d="M99.2,234.4c-21.2-6.6-46.7-52.7-42.5-79.8l75-32.5c6.4-2.9,14.3,0,17.1,7.1l44.6,102.1
		c-2.3,9.4-29.7,18.2-38.9,18.2L99.2,234.4z"/>
	<path class="st1" d="M107,239.9c-21.2-6.6-49.3-32.1-55-55l63.6-27.1c6.4-2.9,14.3,0,17.1,7.1l37.1,87.1
		c-8.6,2.1-17.9,3.6-27.1,3.6L107,239.9z"/>
	<path class="st2" d="M104.1,191c6.4-2.9,14.3,0,17.1,7.1l19.3,45c-15.7-1.4-30-7.1-42.1-15c-10-6.4-17.9-14.3-25-23.6L104.1,191z"
		/>
	<path class="st3" d="M257,129.6h3.6c2.1,0,4.3,1.4,5,3.6c0.7,2.1,0.7,4.3-0.7,5.7L252.7,156l-2.1,2.1c-2.1,0.7-5,0-6.4-2.1
		L232,138.9c-1.4-2.1-1.4-5,0-7.1c1.4-1.4,2.9-2.1,4.3-2.1H257L257,129.6z"/>
	<path class="st3" d="M255.5,131c-4.3-24.3-17.1-45.7-35.7-62.1c-19.3-17.1-44.3-26.4-70-26.4h-0.7C89.8,43.2,42,91,42,149.6
		s48.6,107.1,107.8,107.1c50,0,92.1-33.6,104.3-80.7c1.4-6.4-1.4-10-5-10.7c-5.7-1.4-9.3,2.9-10,7.1c-10,40-46.4,69.3-89.3,69.3
		c-25,0-47.8-10-65-27.1s-26.4-40.7-26.4-65c0-50,40.7-91.4,91.4-91.4h0.7c43.6,0.7,80.7,31.4,89.3,74.3c0,0,2.1,9.3,9.3,9.3
		C257.7,141,255.5,131,255.5,131z"/>
</g>
</svg>
