<svg xmlns="http://www.w3.org/2000/svg" xmlns:xlink="http://www.w3.org/1999/xlink" viewBox="0 0 48 48" version="1.1">
    <g id="surface1">
        <path style=" fill:#FFC107;" d="M 6 42 C 10 40 12.609375 34.847656 13.871094 30.664063 C 15.316406 25.867188 16.808594 20.910156 24.257813 20.507813 C 24.4375 20.5 24.617188 20.550781 24.765625 20.65625 L 31.199219 25.195313 C 31.414063 25.34375 31.539063 25.589844 31.539063 25.851563 C 31.539063 39.582031 22.757813 42 6 42 Z "></path>
        <path style=" fill:#E91E63;" d="M 23.097656 20.507813 C 23.066406 20.574219 23.023438 20.640625 23.011719 20.714844 C 22.804688 21.816406 23.210938 23.019531 24.175781 24.1875 C 25.757813 26.089844 28.457031 27.285156 30.480469 27.285156 C 30.710938 27.285156 30.929688 27.265625 31.136719 27.226563 C 31.347656 27.1875 31.523438 27.058594 31.644531 26.878906 L 42 6 L 32.011719 6 Z "></path>
    </g>
</svg>