<svg xmlns="http://www.w3.org/2000/svg" xmlns:xlink="http://www.w3.org/1999/xlink" viewBox="0 0 32 32" version="1.1">
	<g id="surface1">
		<path style=" " d="M 16 4 C 9.382813 4 4 9.382813 4 16 C 4 22.617188 9.382813 28 16 28 C 22.617188 28 28 22.617188 28 16 C 28 9.382813 22.617188 4 16 4 Z M 16 6 C 21.535156 6 26 10.464844 26 16 C 26 21.535156 21.535156 26 16 26 C 10.464844 26 6 21.535156 6 16 C 6 10.464844 10.464844 6 16 6 Z M 16 10 C 13.03125 10 10.574219 12.167969 10.09375 15 L 12.15625 15 C 12.601563 13.277344 14.140625 12 16 12 C 17.105469 12 18.09375 12.457031 18.8125 13.1875 L 17 15 L 22 15 L 22 10 L 20.21875 11.78125 C 19.132813 10.695313 17.652344 10 16 10 Z M 10 17 L 10 22 L 11.78125 20.21875 C 12.867188 21.304688 14.347656 22 16 22 C 18.96875 22 21.425781 19.832031 21.90625 17 L 19.84375 17 C 19.398438 18.722656 17.859375 20 16 20 C 14.894531 20 13.90625 19.542969 13.1875 18.8125 L 15 17 Z "></path>
	</g>
</svg>