<?xml version="1.0" encoding="utf-8"?>
<!-- Generator: Adobe Illustrator 21.0.0, SVG Export Plug-In . SVG Version: 6.00 Build 0)  -->
<svg version="1.1" id="Слой_1" xmlns:sketch="http://www.bohemiancoding.com/sketch/ns"
	 xmlns="http://www.w3.org/2000/svg" xmlns:xlink="http://www.w3.org/1999/xlink" x="0px" y="0px" viewBox="0 0 43 43"
	 style="enable-background:new 0 0 43 43;" xml:space="preserve">
<style type="text/css">
	.st0{fill:#CCCCCC;}
</style>
<title>Group</title>
<desc>Created with Sketch.</desc>
<path class="st0" d="M42.5,8h-21C21.2,8,21,8.2,21,8.5v1c0,0.3,0.2,0.5,0.5,0.5h21c0.3,0,0.5-0.2,0.5-0.5v-1C43,8.2,42.8,8,42.5,8z
	 M42.5,4h-21C21.2,4,21,4.2,21,4.5v1C21,5.8,21.2,6,21.5,6h21C42.8,6,43,5.8,43,5.5v-1C43,4.2,42.8,4,42.5,4z M37.5,12h-16
	c-0.3,0-0.5,0.2-0.5,0.5v1c0,0.3,0.2,0.5,0.5,0.5h16c0.3,0,0.5-0.2,0.5-0.5v-1C38,12.2,37.8,12,37.5,12z M42.5,0h-21
	C21.2,0,21,0.2,21,0.5v1C21,1.8,21.2,2,21.5,2h21C42.8,2,43,1.8,43,1.5v-1C43,0.2,42.8,0,42.5,0z"/>
<path class="st0" d="M42.5,25h-42C0.2,25,0,25.2,0,25.5v1C0,26.8,0.2,27,0.5,27h42c0.3,0,0.5-0.2,0.5-0.5v-1
	C43,25.2,42.8,25,42.5,25z M42.5,21h-42C0.2,21,0,21.2,0,21.5v1C0,22.8,0.2,23,0.5,23h42c0.3,0,0.5-0.2,0.5-0.5v-1
	C43,21.2,42.8,21,42.5,21z M37.5,29h-37C0.2,29,0,29.2,0,29.5v1C0,30.8,0.2,31,0.5,31h37c0.3,0,0.5-0.2,0.5-0.5v-1
	C38,29.2,37.8,29,37.5,29z M42.5,17h-42C0.2,17,0,17.2,0,17.5v1C0,18.8,0.2,19,0.5,19h42c0.3,0,0.5-0.2,0.5-0.5v-1
	C43,17.2,42.8,17,42.5,17z"/>
<path class="st0" d="M17,0H1C0.4,0,0,0.4,0,1v12c0,0.6,0.4,1,1,1h16c0.6,0,1-0.4,1-1V1C18,0.4,17.6,0,17,0z M12.2,3.5
	c0.7,0,1.2,0.6,1.2,1.2S12.9,6,12.2,6S11,5.4,11,4.8S11.6,3.5,12.2,3.5z M3,11l3.3-7.6l3.8,6.1l3.2-1.6L15,11H3z"/>
<path class="st0" d="M42.5,41h-42C0.2,41,0,41.2,0,41.5v1C0,42.8,0.2,43,0.5,43h42c0.3,0,0.5-0.2,0.5-0.5v-1
	C43,41.2,42.8,41,42.5,41z M42.5,37h-42C0.2,37,0,37.2,0,37.5v1C0,38.8,0.2,39,0.5,39h42c0.3,0,0.5-0.2,0.5-0.5v-1
	C43,37.2,42.8,37,42.5,37z M42.5,33h-42C0.2,33,0,33.2,0,33.5v1C0,34.8,0.2,35,0.5,35h42c0.3,0,0.5-0.2,0.5-0.5v-1
	C43,33.2,42.8,33,42.5,33z"/>
</svg>
