<?xml version="1.0" encoding="utf-8"?>
<!-- Generator: Adobe Illustrator 22.1.0, SVG Export Plug-In . SVG Version: 6.00 Build 0)  -->
<svg version="1.1" id="Слой_1" xmlns="http://www.w3.org/2000/svg" xmlns:xlink="http://www.w3.org/1999/xlink" x="0px" y="0px"
	 viewBox="0 0 300 300" style="enable-background:new 0 0 300 300;" xml:space="preserve">
<style type="text/css">
	.st0{fill:#009CD8;}
	.st1{fill:#FFFFFF;}
</style>
<g>
	<g>
		<g>
			<path class="st0" d="M96.4,187.4L55.8,203c9,15,21.5,27.5,35.9,37.1l42.5-25.7C118.6,210.1,105.4,200.6,96.4,187.4z"/>
			<path class="st0" d="M150.3,42c-44.3,0-82,26.3-98.7,64.6l86.2-19.1l0,0c4.8-1.2,9.6-1.8,14.4-1.8c32.9,0,59.8,23.9,64.6,55.6
				l-6,2.4l-2.4,0.6l-11.4,4.2l-54.4,20.9l0,0c-1.8,0.6-3,1.2-4.8,1.2c-5.4,0-10.2-4.8-10.2-10.2c0-4.8,3-8.4,7.2-9.6l55.6-21.5
				c-7.8-13.8-22.1-22.7-39.5-22.7c-25.1,0-44.9,20.3-44.9,44.9c0,25.1,20.3,44.9,44.9,44.9c19.7,0,36.5-12.6,42.5-29.9
				c0.6-4.8,4.8-8.4,10.2-8.4s10.2,4.8,10.2,10.2c0,1.2-0.6,3-0.6,4.2c-5.4,15.6-16.2,28.7-30.5,36.5l-69.4,42.5
				c11.4,4.2,23.9,6.6,36.5,6.6c59.2,0,107.7-48.5,107.7-107.7S209.5,42,150.3,42z"/>
			<path class="st0" d="M44.4,128.8c-1.2,6.6-1.8,13.8-1.8,20.9c0,12,1.8,23.3,5.4,34.1l40.1-15.6c-1.2-5.4-2.4-11.4-2.4-17.4
				c0-12.6,3.6-23.9,9-33.5L44.4,128.8z"/>
		</g>
	</g>
	<path class="st1" d="M213.7,172.4c0.6-1.2,0.6-2.4,0.6-4.2c0-5.4-4.8-10.2-10.2-10.2c-4.8,0-9.6,3.6-10.2,8.4
		c-6,17.4-22.7,29.9-42.5,29.9c-25.1,0-44.9-20.3-44.9-44.9c0-25.1,20.3-44.9,44.9-44.9c16.8,0,31.7,9,39.5,22.7l-55.6,21.5
		c-4.2,1.2-7.2,5.4-7.2,9.6c0,5.4,4.8,10.2,10.2,10.2c1.2,0,3,0,4.2-0.6l0,0l54.4-20.9l11.4-4.2l2.4-0.6l6-2.4
		c-5.4-32.3-32.3-56.2-65.2-56.2c-4.8,0-9.6,0.6-14.4,1.8l0,0l-85.6,19.1c-3,7.2-5.4,15-7.2,22.7l51-11.2c-6,9.6-9,21.5-9,33.5
		c0,6,0.6,11.4,2.4,17.4l-40.1,15.6C51,191,53.4,197.6,57,203l40-15.6c8.4,13.2,21.5,22.7,37.1,27.5L91.7,240
		c6.6,4.2,14.4,7.8,22.1,10.8l69.4-42.5C197.6,201.2,208.3,188,213.7,172.4z"/>
</g>
</svg>
