<?xml version="1.0" encoding="utf-8"?>
<!-- Generator: Adobe Illustrator 23.1.1, SVG Export Plug-In . SVG Version: 6.00 Build 0)  -->
<svg version="1.1" id="Слой_1" xmlns="http://www.w3.org/2000/svg" xmlns:xlink="http://www.w3.org/1999/xlink" x="0px" y="0px"
	 viewBox="0 0 300 300" style="enable-background:new 0 0 300 300;" xml:space="preserve">
<style type="text/css">
	.st0{fill:#13173D;}
</style>
<g transform="translate(0)">
	<path class="st0" d="M44.7,167.5c-1.8-2.3-2.7-5.2-2.6-8.2c-0.1-4.4,1.1-8.6,3.5-12.3c2.1-3.4,5.8-5.4,9.8-5.4c3.9,0,6.7,2,7.5,4.9
		l2.4-4.3h9l-3.3,18.7c-0.1,0.3-0.1,0.6-0.1,0.9c0,0.8,0.3,1.2,1.1,1.2c0.5,0,1-0.1,1.5-0.3l-1.1,6.6c-1.7,0.8-3.5,1.2-5.3,1.1
		c-4.1,0-6.9-2.3-6.9-5.7v-0.4c-1.3,3.7-4.8,6.2-8.7,6.3C48.9,170.7,46.4,169.6,44.7,167.5z M56.6,162.2c2.1,0,3.6-1.8,4.2-5.2
		c0.3-1.4,0.5-2.8,0.5-4.2c0-2.1-1-3.3-3-3.3c-1.5,0-2.8,0.9-3.8,2.7c-0.9,1.9-1.3,3.9-1.2,5.9C53.4,160.7,54.6,162.2,56.6,162.2
		L56.6,162.2z"/>
	<path class="st0" d="M91.4,141.6c7.1,0,11.3,4.1,11.3,10.8l-9.5,1.2c0.2-2.6-0.7-4.1-2.4-4.1c-1.5,0-2.4,0.8-3.5,2.7
		c-0.8,2-1.2,4-1.3,6.1c0,2.8,1,4.3,3,4.3c1.7,0,2.8-1.4,3.4-3.8l9,3c-2,5.8-6.4,8.8-13.1,8.8c-3.4,0.2-6.8-1-9.4-3.3
		c-2.4-2.3-3.7-5.5-3.6-8.8c-0.1-3.6,0.9-7.2,2.8-10.3C81.2,143.9,86.1,141.4,91.4,141.6z"/>
	<path class="st0" d="M118.9,141.6c3.5-0.2,6.9,1,9.5,3.3c2.4,2.3,3.7,5.5,3.6,8.8c0.1,3.6-0.9,7.2-2.9,10.3
		c-2.9,4.3-7.4,6.6-13.1,6.6c-3.4,0.2-6.8-1-9.4-3.3c-2.4-2.3-3.7-5.5-3.6-8.8c-0.1-3.6,0.9-7.2,2.8-10.3
		C108.7,143.9,113.7,141.4,118.9,141.6z M116.6,162.7c1.5,0,2.4-0.8,3.5-2.7c0.8-2,1.2-4,1.3-6.1c0-2.8-1-4.3-2.9-4.3
		c-1.5,0-2.4,0.8-3.5,2.7c-0.8,2-1.2,4-1.3,6.1C113.6,161.2,114.6,162.7,116.6,162.7L116.6,162.7z"/>
	<path class="st0" d="M136.8,142.3h11l-2.7,15.7c-0.1,0.5-0.2,1-0.2,1.5c0,1.7,0.7,2.5,2.2,2.5c2,0,3.3-1.7,3.9-4.8l2.6-14.9h11
		l-3.3,18.7c-0.1,0.3-0.1,0.6-0.1,0.9c0,0.8,0.3,1.2,1.1,1.2c0.5,0,1-0.1,1.5-0.3l-1.1,6.6c-1.7,0.8-3.5,1.2-5.3,1.1
		c-4.1,0-6.9-2.3-6.9-5.7v-0.4c-1.4,3.8-5,6.3-9.1,6.3c-4.8,0-8-3.2-8-8.2c0-0.9,0.1-1.7,0.2-2.6L136.8,142.3z"/>
	<path class="st0" d="M168.3,168.3c-2.3-1.3-3.7-3.7-4-6.3l9.7-1.3c0.2,1.8,1.8,3.1,3.6,3c1.5,0,2.4-0.7,2.4-2c0-0.9-0.6-1.3-4-2.2
		c-2.1-0.4-4.1-1.1-5.9-2.2c-1.8-1.2-2.9-3.3-2.8-5.4c-0.1-2.9,1.3-5.7,3.6-7.5c2.6-2,5.9-3,9.2-2.9c7.8,0,12.3,3.4,12.3,9.1
		l-9.2,0.5c0-1.5-1.1-2.7-2.6-2.8c-0.1,0-0.3,0-0.4,0c-1.5,0-2.4,0.7-2.4,1.8c0,0.9,0.6,1.4,4.2,2.3c3.5,0.9,5.8,2,7,3.1
		c1.2,1.1,1.9,2.7,1.8,4.4c0.1,3-1.3,5.9-3.8,7.7c-2.9,2-6.3,3-9.8,2.9C174.2,170.8,171.1,170,168.3,168.3z"/>
	<path class="st0" d="M212.1,160.5l0.1,7.5c-2.4,1.8-5.4,2.8-8.4,2.7c-5.8,0-9.1-2.8-9.1-7.7c0-0.7,0.1-1.5,0.2-2.3l1.8-10.3h-3.3
		l1.4-8h3.4l1-5.9l11.1-1.2l-1.3,7.1h6.4l-1.4,8h-6.4L206,159c-0.1,0.5-0.1,0.7-0.1,0.9c0,1.3,0.8,2,2.1,2
		C209.5,161.9,210.9,161.4,212.1,160.5z"/>
	<path class="st0" d="M218.5,142.3h11l-3.3,18.7c-0.1,0.3-0.1,0.6-0.1,0.9c0,0.8,0.4,1.2,1.1,1.2c0.5,0,1-0.1,1.5-0.3l-1.2,6.6
		c-1.7,0.8-3.6,1.2-5.4,1.1c-4.6,0-7.2-2.4-7.2-6.7c0-0.7,0.1-1.3,0.2-2L218.5,142.3z M225.4,129.3c3.5,0,6,2.1,6,5.4
		s-2.7,5.5-6.2,5.5c-3.5,0-6-2.1-6-5.4S222,129.3,225.4,129.3L225.4,129.3z"/>
	<path class="st0" d="M246.6,141.6c7.1,0,11.3,4.1,11.3,10.8l-9.5,1.2c0.2-2.6-0.7-4.1-2.4-4.1c-1.5,0-2.4,0.8-3.5,2.7
		c-0.8,2-1.2,4-1.3,6.1c0,2.8,1,4.3,3,4.3c1.7,0,2.8-1.4,3.4-3.8l9,3c-2,5.8-6.4,8.8-13.1,8.8c-3.4,0.2-6.8-1-9.4-3.3
		c-2.4-2.3-3.7-5.5-3.6-8.8c-0.1-3.6,0.9-7.2,2.8-10.3C236.3,143.9,241.3,141.4,246.6,141.6z"/>
</g>
</svg>
