<?xml version="1.0" encoding="utf-8"?>
<!-- Generator: Adobe Illustrator 21.1.0, SVG Export Plug-In . SVG Version: 6.00 Build 0)  -->
<svg version="1.1" id="Layer_1" xmlns="http://www.w3.org/2000/svg" xmlns:xlink="http://www.w3.org/1999/xlink" x="0px" y="0px"
	 viewBox="0 0 597 79.3" style="enable-background:new 0 0 597 79.3;" xml:space="preserve">
<style type="text/css">
	.st0{fill:#424243;}
	.st1{fill:#00AEEF;}
	.st2{fill:#FFFFFF;}
</style>
<g>
	<g>
		<path class="st0" d="M580,25c11,0,17,8,17,18.2c0,1.1-0.2,3.5-0.2,3.5h-26.5c0.8,6.8,5.7,10.3,11.5,10.3c6.2,0,10.8-4.3,10.8-4.3
			l4,6.6c0,0-5.9,5.8-15.4,5.8c-12.7,0-20.6-9.2-20.6-20.1C560.5,33.2,568.5,25,580,25z M587.3,40.1c-0.2-4.6-3.3-7.7-7.2-7.7
			c-4.9,0-8.3,2.9-9.4,7.7H587.3z"/>
		<path class="st0" d="M219.3,25c11,0,17,8,17,18.2c0,1.1-0.2,3.5-0.2,3.5h-26.5c0.7,6.8,5.7,10.3,11.5,10.3
			c6.2,0,10.8-4.3,10.8-4.3l4,6.6c0,0-5.9,5.8-15.4,5.8c-12.7,0-20.6-9.2-20.6-20.1C199.8,33.2,207.8,25,219.3,25z M226.5,40.1
			c-0.2-4.6-3.3-7.7-7.2-7.7c-4.9,0-8.3,2.9-9.4,7.7H226.5z"/>
		<path class="st0" d="M329.7,25c11,0,17,8,17,18.2c0,1.1-0.2,3.5-0.2,3.5H320c0.7,6.8,5.7,10.3,11.5,10.3c6.2,0,10.8-4.3,10.8-4.3
			l4,6.6c0,0-5.9,5.8-15.4,5.8c-12.7,0-20.6-9.2-20.6-20.1C310.2,33.2,318.2,25,329.7,25z M337,40.1c-0.2-4.6-3.3-7.7-7.2-7.7
			c-4.9,0-8.4,2.9-9.4,7.7H337z"/>
		<path class="st0" d="M482.3,35.7c0-1.1-0.6-1.7-1.6-1.7h-3v-8.1h8.8c3.4,0,5,1.6,5,4.3v1.1c0,0.8-0.1,1.7-0.1,1.7h0.1
			c1.7-3.2,5.8-8,13.5-8c8.5,0,13.4,4.4,13.4,14.6v15c0,1.1,0.6,1.7,1.6,1.7h3v8h-9.1c-3.6,0-5.1-1.5-5.1-5.1V41.5
			c0-4.7-1.2-7.8-6-7.8c-5.1,0-8.9,3.2-10.3,7.8c-0.5,1.6-0.8,3.3-0.8,5.1v17.6h-9.5V35.7z"/>
		<path class="st0" d="M454.1,25c11.7,0,21.1,8.3,21.1,20.1c0,11.8-9.3,20.1-21.1,20.1c-11.7,0-21-8.3-21-20.1
			C433.1,33.3,442.5,25,454.1,25z M454.1,57c6.2,0,11.4-4.8,11.4-12c0-7.1-5.2-12-11.4-12c-6.2,0-11.4,4.9-11.4,12
			C442.8,52.2,447.9,57,454.1,57z"/>
		<path class="st0" d="M428.6,45.1c0,11.9-6.6,20.1-17,20.1c-8.3,0-11.5-5.4-11.5-5.4H400c0,0,0.1,1.4,0.1,3.3v16.2h-9.6V35.7
			c0-1.1-0.6-1.7-1.7-1.7h-3v-8.1h8.4c3.5,0,4.9,1.4,4.9,3.4c0,0.8,0,1.4,0,1.4h0.1c0,0,3.2-5.6,11.9-5.6
			C421.4,25,428.6,32.9,428.6,45.1z M409.5,57.1c5.6,0,9.6-4.7,9.6-12c0-7.6-4.4-11.9-9.6-11.9c-6.4,0-9.6,5.9-9.6,11.8
			C399.8,53.5,404.5,57.1,409.5,57.1z"/>
		<path class="st0" d="M356.2,52.1c0,0,4.9,5.6,11.4,5.6c2.9,0,5.2-1.2,5.2-3.8c0-5.4-20.2-5.3-20.2-17.8c0-7.7,6.9-11.2,14.9-11.2
			c5.2,0,13.5,1.7,13.5,8v4h-8.4v-1.9c0-1.8-2.7-2.7-4.8-2.7c-3.4,0-5.7,1.2-5.7,3.5c0,6,20.4,4.8,20.4,17.6
			c0,7.2-6.4,11.7-14.8,11.7c-10.5,0-15.9-6.8-15.9-6.8L356.2,52.1z"/>
		<path class="st0" d="M530.9,52.1c0,0,4.9,5.6,11.4,5.6c2.9,0,5.2-1.2,5.2-3.8c0-5.4-20.2-5.3-20.2-17.8c0-7.7,6.9-11.2,14.9-11.2
			c5.2,0,13.5,1.7,13.5,8v4h-8.4v-1.9c0-1.8-2.7-2.7-4.8-2.7c-3.4,0-5.7,1.2-5.7,3.5c0,6,20.4,4.8,20.4,17.6
			c0,7.2-6.4,11.7-14.7,11.7c-10.5,0-15.9-6.8-15.9-6.8L530.9,52.1z"/>
		<path class="st0" d="M261.4,56.2c-2.6,0-7.6-0.9-7.6-7.2V33.5h8.7v-3.5c0-2.8-1.3-4.1-4.1-4.1h-2.3h-2.3V15.4h-9.3v10.5h-5.2v7.6
			h5v16.7c0,12.9,10.6,14.4,15.9,14.4c1.7,0,2.9-0.2,2.9-0.2V56C263.1,56,262.5,56.2,261.4,56.2z"/>
		<path class="st0" d="M171.6,9.9c13.1,0,19.5,6.8,19.5,6.8l-5.6,7.1c0,0-5.6-4.7-13.7-4.7c-9.3,0-17.2,7.3-17.2,18.1
			c0,11.7,8,18.8,17.5,18.8c8.5,0,13.5-5.6,13.5-5.6v-4c0-1.1-0.6-1.7-1.7-1.7h-3.2v-8.4h8.7c3.6,0,5.1,1.5,5.1,5v22.8h-8.4v-2.6
			c0-1.1,0.1-2.3,0.1-2.3h-0.2c0,0-5.7,5.7-15.7,5.7c-14,0-26-10.7-26-27.9C144.5,21.8,156.1,9.9,171.6,9.9z"/>
		<path class="st0" d="M268.5,10.8h19c9.8,0,16.6,6,16.6,16.1c0,9.6-6.6,13.6-8.9,14.1v0.1c0,0,1.7,0.8,2.6,2.7l5.2,10.3
			c0.8,1.6,2.1,1.7,3.8,1.7h1v8.4h-5.2c-4,0-5.7-0.6-7.5-4l-6.8-13.5c-1.1-2.1-2.3-2.5-5-2.5h-5v19.9h-9.9V10.8z M286.2,35.8
			c5,0,7.9-3.1,7.9-8.4c0-5.3-2.9-8.3-7.8-8.3h-8v16.7H286.2z"/>
	</g>
	<g>
		<g>
			<path class="st1" d="M117.8,69.6c0,2.8-2.2,5-5,5H5.9c-2.8,0-5-2.2-5-5V5.3c0-2.8,2.2-5,5-5h106.9c2.8,0,5,2.2,5,5V69.6z"/>
		</g>
		<path class="st2" d="M116.7,2.1c-13.8,21.5-35.3,41.2-57.5,40.7c-8.2-0.2-17.4-2.6-25.3-9c-5.9-4.8-11.8-12.3-14-23
			c-1,0-1.6,0-2.5,0c-3.6,0-5.7,3.2-5.3,6.1c0.1,0.7,0.2,1.4,0.3,2.2c1.7,10.4,7.9,22.2,18.2,29.7c8,5.9,17.9,9.8,28.7,9.8
			c19.5-0.1,40.3-12.4,58.5-44.3V5.3C117.8,4.1,117.4,3,116.7,2.1z"/>
	</g>
</g>
</svg>
