<?xml version="1.0" encoding="utf-8"?>
<!-- Generator: Adobe Illustrator 22.1.0, SVG Export Plug-In . SVG Version: 6.00 Build 0)  -->
<svg version="1.1" id="Слой_1" xmlns="http://www.w3.org/2000/svg" xmlns:xlink="http://www.w3.org/1999/xlink" x="0px" y="0px"
	 viewBox="0 0 300 300" style="enable-background:new 0 0 300 300;" xml:space="preserve">
<style type="text/css">
	.st0{fill:#684C46;}
	.st1{fill:#F5DCBA;}
	.st2{fill:#0788BF;}
	.st3{fill:#46B8E3;}
	.st4{fill:#FFD14F;}
	.st5{fill:#122030;}
	.st6{fill:#FFFFFF;}
	.st7{fill:#EABE8D;}
	.st8{fill:#9C7356;}
</style>
<g id="Freddie-logo-RGB">
	<path id="Brown" class="st0" d="M250,196.4c-0.2,0.6-16.1,61.7-78.5,61.6c-54,0-79.6-47-79.6-47c-3.9,0.2-7.7-0.4-11.2-1.7
		c-15.8-5.8-23.4-23.9-18-39.2l-8.7-6.7c-33.7-25.7,61.8-143.3,95.6-116.7c0.2,0.1,8.1,6.5,8.1,6.5c12-7.2,24-11.2,33.8-11.2
		c6.9,0,12.7,2,16.6,6.2c8.8,9.5,5.6,27.6-6.4,46c2.6,2.4,4.7,5.8,6.2,9.1c3.8,2.9,6.3,7.4,7.5,13.6c1.4,6.9,1.6,16.6,2.5,20.8
		c3.2,1.5,1.9,0.8,5.3,2.5c3.6,1.8,8,4,12.8,8.6c8.6,2.2,11.9,11.3,6.8,17.5c-0.1,0.2-0.7,0.9-1.4,1.6c0.2,0.4,1.8,3.1,3,8.5
		c3.6,0.8,6.4,3,7.9,6.2C255,188.9,250,196.4,250,196.4L250,196.4z M225.2,242.5v2.6h1v-2.6h1v-0.8h-3v0.8H225.2z M227.5,241.7v3.4
		h0.9v-2.4l0.7,2.4h0.8l0.7-2.4v2.4h0.9v-3.4h-1.4l-0.6,1.9l-0.6-1.9H227.5L227.5,241.7z"/>
	<path id="Light-Tan" class="st1" d="M104.6,173.4c1.4-3.5,2-6.3,2-6.3c1.6,4.8,2.4,9.8,2,14.8c1.3-1.7,2.7-5,2.7-5
		c2.4,14.1-7.9,27.1-21.5,27.1c-12,0-21.8-10.3-21.8-23s9.8-23,21.9-23c3.1,0,6.1,0.7,8.8,1.9C98.6,159.9,103.3,162.3,104.6,173.4
		L104.6,173.4z M223.5,223.2c16.9-13.3,19.9-29.3,20.2-29.9c4.2-5,3-9.9-2.5-9.9c-1.8,0-3.1,0.5-3.1,0.5s0-7.3-3.4-13
		c-2.6,2.9-9.8,8.7-19.3,13.2c-8.9,4.2-20.7,7.9-35.4,8.4l0,0c-4.1,0.2-6.7-0.5-8.1,4.3c-0.5,1.7-0.3,4.2,0.1,4.9
		c1.2,4,4.2,5.7,8.2,6.7c3,0.7,6.2,0.8,6.2,0.8c29.8,0.8,53.7-22.4,54-22.6c0.3-0.2,0.5-0.5,0.5-0.5s-0.3,0.6-0.3,0.7
		c-4.3,9.7-29.2,27.2-54,26.7h-0.1c-5.8,0-12.7-1.5-16.4-6c-5.7-7.1-2.8-19,6.4-19.3c0,0,2.1,0,3.1-0.1c22.7-0.7,43-9,57.6-26.4
		c2-2.5-0.2-5.9-4.6-6h-0.1c-5.2-5.5-9.7-7.5-13.7-9.5c-8.4-4.3-7.6-0.6-9.6-21.5c-0.5-5.6-1.6-13.3-6.5-16.2
		c-1.3-0.8-2.7-1.1-4.2-1.1s-2.2,0.3-2.4,0.4c-2.7,0.6-4.2,2.1-6.2,3.9c-9.1,8.4-16.4,6.1-27.3,6c-10.2-0.1-19.2,7-20.9,18l0,0
		c-0.8,5.7-0.3,11.5,0.6,14.2c0,0-2.8-1.8-4.1-3.5c1.6,10,10.7,16.5,10.7,16.5c-1.4,0.3-3.5,0.2-3.5,0.2s5.2,4.1,9.7,5.5
		c-1.2,0.7-7.1,6.6-10.2,14.7c-2.9,7.6-1.7,16.6-1.7,16.6l2.5-3.7c0,0-1.6,8.3,1.5,16.3c1-2.4,3.3-6.6,3.3-6.6s-0.4,8.9,3.9,16.2
		c0.1-1.7,0.8-6,0.8-6s2.5,7.6,8.1,12.9C174,238.3,202.1,240,223.5,223.2L223.5,223.2z"/>
	<path id="Blue" class="st2" d="M65.9,163.7c-0.1,0-8.2-6-9.4-8c-6.8-11.6,5.1-35.3,13.5-48.8c20.9-33.3,55.8-59.7,71.7-55.9
		l16.3,8.4c-6.3,3.7-12.4,8.3-16.1,11.3l-3.5,2.9c0,0-10.1,6.8-15.1,11.1c-20.1,17.2-40,43.8-47.3,69.5
		C75.9,154.3,69.9,157.3,65.9,163.7L65.9,163.7z"/>
	<path id="Light-Blue" class="st3" d="M141.7,51.1C125.9,47.3,91,73.6,70,107l0,0h0.1l16.7,13.1c18.3-29.1,41.4-44.1,42-44.5
		l-2.6-17.8l5-2.4l10,3.2l-0.8-3.3L141.7,51.1L141.7,51.1z"/>
	<path id="Gold" class="st4" d="M158,59.5l-16.1,11.3l-1.1,0.9L126.5,60l-0.3-2.2l5-2.4l10,3.2l0.2-6.2l0.5-1.4l4.4-1.7
		C146.1,49.4,157.9,59.5,158,59.5L158,59.5z"/>
	<g id="Navy">
		<path class="st5" d="M189.7,48.4c-10.6,0-22.6,5.6-31.7,11.1c-1.3,0.8-2.6,1.5-3.8,2.4l-4.8-4l1.7,6c-0.7,0.5-1.3,0.9-1.9,1.4
			l-9.9-3l6.6,5.5c-1.5,1.1-2.8,2.2-3.9,3.1l-15.7-13l0.8,5.8l11.4,10.1c0,0-10.1,6.8-15.1,11.1c-20.1,17.2-40,43.8-47.3,69.5
			l0.4-0.2l0.2-0.1c0.2-0.1,0.4-0.2,0.6-0.3l0.4-0.2c0.2-0.1,0.4-0.2,0.6-0.3l0.4-0.2c0.2-0.1,0.5-0.2,0.7-0.3l0.3-0.1
			c0.3-0.1,0.7-0.2,1-0.3c5-1.5,11.8-2.5,19.8,0.9c4-10.1,8.8-20.4,16.3-30.2c6.1-8,12-15.1,19-19.1c13.3-12.5,49.3-25.8,60.8-14.3
			c2.7-4.5,5.1-8.7,7-14C208.3,62.9,208.4,48.4,189.7,48.4L189.7,48.4z M144.1,59.6l-2.4-8.5l-1.4,4.3l0.8,3.3L144.1,59.6z"/>
	</g>
	<path id="White" class="st6" d="M238.1,183.8c0,0,0-7.3-3.4-13c-2.6,2.9-9.8,8.7-19.3,13.2c-8.9,4.2-20.7,7.9-35.4,8.4l0,0
		c-4.1,0.2-6.7-0.5-8.1,4.3c-0.1,0.4-0.2,0.9-0.2,1.4l0,0l0,0c0,0.2,0,0.3,0,0.5c0,0.4,0,0.8,0,1.2l0,0v0.1c0,0.2,0,0.4,0.1,0.6l0,0
		l0,0c0.1,0.8,0.2,1.1,0.3,1.2l0,0v0.1c1.2,3.9,4.2,5.7,8.2,6.6c3,0.7,6.2,0.8,6.2,0.8c24.3,0.7,44.7-14.7,51.6-20.4
		C238.1,187.1,238.2,185.9,238.1,183.8L238.1,183.8z M168.3,54c5.8-2.7,12-4.8,18-5.4c-5.9,1.3-13.2,4.4-21.7,9.6
		c-0.2,0.1-20.3,13.7-32.5,25.8c-6.7,6.6-33.5,38.8-33.5,38.7c4.9-9.3,8.1-13.8,15.9-23.6c4.4-5.5,9.1-10.9,13.9-15.8
		c1.6-1.7,3.2-3.3,4.9-4.8C133.8,77.9,147.8,63.6,168.3,54z"/>
	<path id="Medium-Tan" class="st7" d="M223.5,223.2c-2.9,2.3-5.9,4.2-9,5.9c-7.2-2.7-11.6-8.5-11.6-8.5s6.1-1.5,14.3-5.6
		c10-5.1,19.3-12.4,26.4-21.6C243.4,193.9,240.4,209.9,223.5,223.2L223.5,223.2z M204,145.9c-3.5-2.5-9.2-0.5-10.5,3.6
		c2,0.1,4.1,1.6,4,3.6c1.4-1.4,3.4-2.1,5.4-2.1C202,149.4,202.5,146.8,204,145.9L204,145.9z M167.7,195.7c1.1-4.1,4.2-7.3,8.9-7.4
		c0,0,2.1,0,3.1-0.1c22.7-0.7,43-9,57.6-26.4c2-2.5-0.2-5.9-4.6-6h-0.1c-0.7,0.8-0.9,2.2-2.1,4.3c-4.4,7.7-10.6,11.2-18.7,15.3
		c-25.1,12.5-38.1,6.7-43.3,14.3C167,191.9,167,194.4,167.7,195.7L167.7,195.7z M213.1,143.3c-2.4-1.7-2.5-4.7-3.8-18.6
		c-0.4-4.4-1.2-10.1-3.9-13.8c-0.6-0.5-1.3-1.1-2.5-1.1c-1.7-0.1-3.6,1.7-4.7,2.9c-3.1,4.5-6.1,7.4-11.3,9.9
		c-5.3,2.4-10.4,3.3-15.6,3.1c-3.8-0.1-7.2-0.8-10.5-0.8c-6.1-0.1-11.4,1.9-15.3,6.8c-2.6,3.3-3.7,6.9-4.1,11.1c0,0.5,0,1,0.1,1.4
		c0,0.7,0.1,1.3,0.2,1.9c0.3,2.1,0.7,3.2,0.7,3.2l0,0l0.1,0.3c0,0-2.8-1.8-4.1-3.5c1.3,8.3,7.9,14.3,10,16l0.4,0.3l0,0l0.3,0.2
		c-1.4,0.3-3.5,0.2-3.5,0.2s5.2,4.1,9.7,5.5c6-5.1,12.8-7,18.3-7.6c3.4-2.1,7-4.2,10.9-6.1c-1.2-7.3,5.3-14.7,13.5-15.5
		c6.2-0.5,9.2,2.3,11.4,5.3c1.2-0.4,2.5-0.8,4-1.2C213.2,143.4,213.1,143.4,213.1,143.3L213.1,143.3z M216,192.8c-0.1,0-0.1,0-0.2,0
		c-2.5,0.6-27.9,10.4-44.1,5.4c-0.1,0.9,0,2.7,0.3,3.5l0,0c2.4,0.5,5.5,0.8,9.1,0.8C202.3,202.5,217.6,192.9,216,192.8L216,192.8z
		 M97.4,190.8L97.4,190.8c1.3-1.4,1.9-3.3,1.5-5.2c-0.5-2.7-3.5-3.2-5.5-5.3l-0.1-0.1l-0.1-0.1l0,0c-0.9-1-1.2-2.2-1.1-3.3
		c0.2-2.7,2.6-3.5,3.8-3c0,0,1.5,0.4,2.7,2l0,0c-0.2-0.5-0.1-1.4-1-2.7c-1.5-2.1-4.9-4.2-9.7-3.2l0,0c-0.9,0.2-0.4,0.1-1.3,0.3
		c-0.1,0-0.3,0.1-0.4,0.1c-0.3,0.1-0.5,0.2-0.8,0.3c-0.1,0.1-0.9,0.4-1.7,1.1C78.3,178.8,87.5,191.5,97.4,190.8L97.4,190.8z"/>
	<path id="Medium-Brown" class="st8" d="M177.6,147.6c0.5,0.7,0.6,1.2,0.4,1.4c-0.4,0.4-1.7-0.2-3.6-0.9c-5-1.9-8.7-2.1-15.2,0.3
		c-1.6,0.6-2.8,1.1-3.4,1c-0.9-0.1,0-1.8,2-3.4c4-3.2,9.5-4.2,14.2-2.4C174.1,144.3,176.4,145.8,177.6,147.6L177.6,147.6z
		 M176.6,152.7c-1.4-1-3.9-1.7-6.5-1.3c-0.5,0.1-1.1,0.3-1.6,0.4c-0.2,0-0.4,0.1-0.5,0.2c-1.1,0.5-2,0.9-2.9,1.8c-1,1-1.3,1.9-1,2.2
		c0.3,0.2,1-0.1,2.1-0.6c3.7-1.6,6.4-1.6,8.9-1.4c1.2,0.1,2,0.2,2.2-0.2C177.4,153.6,177.2,153.2,176.6,152.7L176.6,152.7z
		 M96.2,171.9L96.2,171.9L96.2,171.9c0.6,0.5,1.1,1,1.4,1.5c1.1,1.6,0.8,2.6,1.3,3c0.2,0.2,0.4,0.2,0.7,0.1c0.7-0.3,1-1.3,1-2l0,0
		c0.2-1.7-0.8-3.7-2-5.1l0,0c-0.7-0.9-1.7-1.7-2.9-2.3c-1.2-0.7-2.5-1.1-4-1.4c-2.6-0.4-5.1,0.1-5.8,0.3l0,0
		c-0.4,0.1-0.8,0.2-1.2,0.4c-4.2,1.6-7,4.6-8.2,8.6l0,0l0,0c-0.5,1.5-0.6,3-0.6,4.3c0,1.2,0.1,2.3,0.3,3.2l0,0l0,0l0,0
		c0.4,1.6,1.1,3.5,2.2,4.7l0,0c1.4,1.5,3,1.2,2.3-0.2c-0.2-0.4-1-2-1.1-4.9c-0.1-1.9,0.2-3.9,0.9-5.7c0.4-1,0.9-1.9,1.6-2.8
		c1.4-1.7,3.2-2.5,3.4-2.6c0.2-0.1,0.5-0.2,0.8-0.3c0.1,0,0.2-0.1,0.4-0.1c0.9-0.2,0.4-0.1,1.3-0.3l0,0
		C91.2,169.4,94.1,170.2,96.2,171.9L96.2,171.9z M95.4,178.4c-0.5-0.4-0.7-0.7-0.8-1.2c-0.2-0.9-0.1-1.4,0.7-1.9
		c0.6-0.4,1-0.6,1-0.8c0-0.5-1.9-1-3.3,0.4c-1.1,1.2-1.5,3.7,0.3,5.6c2,2.2,5.1,2.7,5.6,5.4c0.1,0.4,0.1,0.8,0.1,1.2
		c0,0.5-0.2,1.2-0.2,1.2c-0.6,2.6-3.1,5.1-7.2,4.5c-0.8-0.1-1.2-0.2-1.4,0c-0.3,0.4,1.4,2.4,4.7,2.4c3.1-0.1,6.3-2.4,7.3-6
		c0,0,0.3-1,0.3-1.9c0.1-0.7,0-1.4-0.1-2.1C101.6,180.6,97.1,179.7,95.4,178.4L95.4,178.4z M205.1,145.9c-1.2-0.2-2.5,1-2.7,2.7
		c-0.3,1.7,0.5,3.2,1.8,3.4c1.2,0.2,2.5-1,2.7-2.7C207.1,147.6,206.3,146.1,205.1,145.9z M191.4,150.9c-0.7,1.2,0.1,3,1.9,4
		c1.7,0.9,3.7,0.7,4.3-0.6c0.7-1.2-0.1-3-1.9-4S192.1,149.6,191.4,150.9L191.4,150.9z M141.4,100.4c23.5-15.2,47-17,55.1-10.8l0,0
		c0,0-0.1-0.4-0.2-0.5c-2-4.3-6.8-7.4-11.1-8.6c0.7,0.8,1.8,2.2,2.3,3c-3.2-2.2-7.5-4.1-11.9-5.1c0,0,0.5,0.4,0.6,0.5
		c0.9,0.8,2.1,2.1,2.5,3.3c-4.3-1.7-9.6-2.7-14.2-1.8c-0.1,0-0.6,0.1-0.6,0.1s0.6,0.1,0.7,0.2c1.5,0.5,3.7,1.4,4.7,2.7
		c-7.6-1.3-16,0.1-20.6,2.7c0.6,0,0.6,0,1.1,0c1.7,0,5,0.3,6.4,1.2c-4.8,1-11.8,3.1-15.5,6.4c0.7-0.1,4.4-0.6,6-0.3
		C126,105.1,116.6,123,116.6,123C122.7,115.1,130.6,107.4,141.4,100.4L141.4,100.4z"/>
	<path id="Brown-Eye" class="st0" d="M196.9,133.8c0-1.6,0.2-4.3,1.8-4.8l0,0c2.6-0.9,6.1,5.8,6.2,11.7c-2.1-1-4.5-1.5-7-1.3
		C197.3,137.5,197,135.7,196.9,133.8L196.9,133.8z"/>
</g>
</svg>
