<?xml version="1.0" encoding="utf-8"?>
<!-- Generator: Adobe Illustrator 22.1.0, SVG Export Plug-In . SVG Version: 6.00 Build 0)  -->
<svg version="1.1" id="Слой_1" xmlns="http://www.w3.org/2000/svg" xmlns:xlink="http://www.w3.org/1999/xlink" x="0px" y="0px"
	 viewBox="0 0 300 300" style="enable-background:new 0 0 300 300;" xml:space="preserve">
<style type="text/css">
	.st0{fill:#CC2219;}
	.st1{fill:#202D54;}
	.st2{fill:#FFFFFF;}
	.st3{fill:#232C53;}
	.st4{fill:#2D4691;}
	.st5{fill:#A96119;}
	.st6{fill:#DE8924;}
	.st7{fill:url(#SVGID_1_);}
	.st8{fill:#3874B8;}
	.st9{fill:url(#SVGID_2_);}
	.st10{fill:#FCCC81;}
	.st11{fill:#242120;}
	.st12{fill:#363033;}
	.st13{fill:#962118;}
	.st14{fill:#DB3221;}
	.st15{fill:#4D4D5B;}
	.st16{fill:#231F1D;}
	.st17{fill:#C5C2C1;}
</style>
<g>
	<path class="st0" d="M178.7,62.5c-4.2-5.4-8.2-11.3-11.7-17.1c-0.4-0.6-0.8-1.3-1.5-2.1c-0.8,0.8-1.5,1.7-1.9,2.7l0,0l0,0
		c-0.4,1-0.8,2.1-1,3.3c-0.4,2.1-0.6,4.2-0.2,6.1c0.4,3.6,1.5,6.9,2.7,10.2c0.8,2.5,2.7,5.9,3.8,8.2c1.7,0.2,10.5,1.9,10.5,2.1
		c0.2,0.2,7.1,2.3,10,4c0.6,0.4,2.1,1.3,2.5,1.3C187.7,74.8,183.3,68.5,178.7,62.5z M179.4,74.2c0,0,0,0.2,0,0.4
		C179.4,74.6,179.4,74.4,179.4,74.2z"/>
	<path class="st0" d="M155.3,60.2L155.3,60.2c-0.2,0.2-0.4,1.3-0.6,1.7c-0.4,1.9-0.6,3.8-0.4,5.6c0,1.9,0.6,3.8,1,5.6
		c0.2,0.8,11.1-0.2,11.3-0.4c-3.8-4.6-6.9-9.6-9.8-14.6C155.9,58.7,155.5,59.3,155.3,60.2z"/>
	<path class="st1" d="M20.2,148c0-0.6,0.4-2.3,0.8-2.5c2.1-2.3,3.8-3.6,6.3-5.2c3.3-2.5,6.3-4.2,10-5.9c2.9-1.5,5.2-2.9,8.4-4
		c3.3-1.3,7.9-2.3,11.5-3.1c4.2-1,7.7-1.9,11.9-2.3c3.1-0.4,6.5-1.5,9.6-1.7c1.7-0.2,4-0.2,5.4-0.4c1.3,0,6.7,0,7.3,0
		c-2.3,2.9-4.4,6.5-6.3,9.6c-2.9,0-6.9,0.2-10,0.4c-5.2,0.4-10.5,1-15.7,2.1c-5.6,1-11.1,2.5-16.5,4.2c-4.8,1.5-9.4,3.1-13.8,5.2
		c-1.9,0.8-3.6,1.5-5.4,2.3C22.5,146.7,21.5,147.4,20.2,148z"/>
	<path class="st2" d="M219.3,140.3L219.3,140.3C219.3,140.5,219.3,140.3,219.3,140.3L219.3,140.3L219.3,140.3z"/>
	<path class="st3" d="M103.7,193.8C103.5,193.8,103.5,193.8,103.7,193.8C103.5,193.8,103.5,193.8,103.7,193.8L103.7,193.8z"/>
	<path class="st4" d="M74.8,186.3c-9.8-6.5-20.3-10.9-32-13c0.2-1,0.8-1.7,1.7-2.3c2.9-2.1,6.3-2.9,10-2.5c4,0.4,7.3,2.3,10.5,4.6
		c3.8,2.9,6.9,6.5,9,10.9c0.4,0.6,0.8,1.7,1,2.5C75.2,186.5,75.2,186.5,74.8,186.3z"/>
	<path class="st2" d="M94.9,104.5c0.2,0,0.2,0.2,0.4,0.2"/>
	<path class="st2" d="M94.9,104.5"/>
	<path class="st5" d="M157.2,171.8L157.2,171.8L157.2,171.8L157.2,171.8L157.2,171.8z"/>
	<path class="st6" d="M200.1,171.4C200.1,171.4,200.3,171.4,200.1,171.4C200.3,171.4,200.1,171.4,200.1,171.4L200.1,171.4z"/>
	<path class="st6" d="M204,180.4L204,180.4L204,180.4L204,180.4z"/>
	
		<linearGradient id="SVGID_1_" gradientUnits="userSpaceOnUse" x1="112.8809" y1="161.0763" x2="383.498" y2="40.6369" gradientTransform="matrix(1 0 0 -1 0 302)">
		<stop  offset="0" style="stop-color:#F7A639"/>
		<stop  offset="1" style="stop-color:#D87711"/>
	</linearGradient>
	<path class="st7" d="M152.8,162.2c-0.2-2.3-0.2-5.2,0.2-7.5c0.4-3.8,1.5-8.4,3.1-11.9c1.3-2.7,3.8-5.2,5.6-7.7
		c1.3-1.7,2.5-3.1,4.2-4.6c2.1-1.7,5.4-2.3,7.7-3.6c3.1-1.7,6.7-2.7,10.2-3.3c3.3-0.4,7.1-0.4,9.2-0.4c2.1,0,5.4,1.7,7.3,2.3
		c0.4,0.2,33,68.4,33,68.4l-4.8,13.4c0,3.3-2.5,7.5-3.3,10.9c-0.8,3.3-2.3,6.7-4.8,9c-1,1-9,6.1-27.2,3.8c0.8-1.9,1-3.1,2.1-5.6
		c-1.7,0.2-11.3,0-13-0.2c0.2-0.8,3.6-6.3,3.6-6.7c-6.1,1-11.7,0.8-17.8-1.3c4.4-2.5,10.7-9.4,10.2-9.2c-2.5,0.6-17.8,1.9-19.2,1.5
		c0.4-0.6,8.8-9.8,9.2-10.5c-0.4-0.2-7.3,6.3-7.7,6.1c-1.5-0.8-4.4-3.8-5.4-5.2c-2.3-2.9-4.4-5.6-6.1-9.2c-1-2.5-2.5-5.2-2.9-7.9
		c-0.2-2.1,0.2-4.6,0.8-6.7c0.4-2.1,1.7-4.4,3.1-5.9C151.6,169.5,153.2,165.3,152.8,162.2z"/>
	<path class="st3" d="M113.3,136.9c-1,2.3-2.7,8.2-3.1,10.7c-1.5-0.2-4.4-0.2-5.9-0.6c-4-0.8-6.1-1.7-9.8-2.9
		c0,1,6.3,11.5,13.6,18.4c-3.8-1-7.1-1.3-10.2-3.1c0,1.5,3.1,5,6.3,8.6c3.1,3.6,9.2,8.6,13.2,11.5c-2.1,0-4.8-0.4-6.7-1
		c1,2.1,5.4,6.7,10.9,11.1c4.6,3.8,33.5,16.9,38.3,16.3c-1.5,1.3-1.3,3.3-2.9,4.4c0.2,0.2,6.5,0.8,11.3,0.6c2.3,0,6.7-0.6,9-0.6
		c0.2,0-7.5,6.7-12.8,10.7c-3.3-0.2-17.4,0.4-20.7-0.4c-3.6-0.8-6.3-1.9-9.6-3.1c-1.9-0.6-4.2-1.5-6.1-2.3c-4.8-2.1-8.6-5-13-7.9
		c-2.5-1.7-5.2-3.1-7.3-5c-1.5-1.3-4.8-7.9-5.2-8.8c0,0-8.4-28.2-9.8-34.7c-0.4-1.9-0.8-3.8-1-5.6c-0.2-1.7-0.4-3.1-0.4-4.8
		c0-1.3-0.2-2.3-0.2-3.6c0.2-3.1,0.4-6.1,0.8-9c0.4-2.7,1-5.4,1.7-8.2c0.4-1.7,1-3.3,1.7-5c0.2-0.4,1.5-2.1,1.7-2.5
		C97,120.4,113.7,136.1,113.3,136.9z"/>
	<path class="st3" d="M72.1,160.7c0.8,4.8,2.1,7.9,4.4,12.3c1.5,2.7,3.3,5.2,5.2,7.7c2.3,3.1,6.3,5.6,9,8.6c1.3,1.3,2.3,2.9,3.6,4.2
		c3.1,2.9,5.4,5.4,8.8,8.2c4,3.1,8.4,5,12.5,7.7c3.1,2.1,10.7,7.3,10.9,7.5c-2.3,0.2-7.5-1.3-9.4-1.9c-8.4-2.7-16.3-6.5-24-10.9
		c-6.5-3.8-14.8-9.4-21.5-12.8C43.7,177.1,34,181,33.8,181c0.4-0.6,0.6-1.5,1-2.1c3.8-6.7,13.4-19.2,19.7-23.2
		c0.6-0.4,1-0.6,1.9-0.6c4.4,0.6,8.4,2.1,12.3,4C69.2,159.1,71.7,160.5,72.1,160.7z M72.3,183.7c0,0-0.6-1.5-1-2.1
		c-1.7-3.6-4.2-6.5-7.3-9c-2.5-1.9-5.2-3.6-8.6-3.8c-6.1-0.4-9,2.9-9.6,4C55.2,174.5,64.4,178.3,72.3,183.7z"/>
	<path class="st8" d="M166.6,218.5c2.5,1.3,5,2.3,7.7,2.7c2.3,0.4,4.4,0.4,6.7,0.2c0.4,0,0.8,0,1.5-0.2c-0.2,1.5-2.1,4.2-4,4.6
		c-55.4,23.6-107.9-36-110.4-67.3c-0.2-2.3-0.8-14.4,7.1-18.8c1.5-0.8,4-1.3,5.6-0.2c0.2,0,0.2,0,0.2-0.2c0.8-2.5,1.9-4.8,3.1-7.1
		c1.9-3.1,4-6.3,6.1-9.2c-0.6-0.2-4.2,0-5.4,0c-1.7,0.2-3.1,0.2-4.8,0.4c-3.1,0.4-6.3,0.8-9.4,1.3c-4.2,0.6-8.6,1.5-12.5,2.5
		c-3.6,0.8-6.9,1.9-10.2,3.1c-3.1,1-6.3,2.3-9.2,3.8c-3.8,1.9-7.3,4-10.7,6.5c-2.5,1.7-4.8,3.6-6.7,5.9c-0.4,0.4-0.6,0.6-0.8,1.3
		c-0.6,0.2-0.4-0.2-0.4-0.4c0-3.1,0.2-18.8,10.2-37c35.3-7.3,58.8-1.7,58.8-1.5c1.3,3.1,6.9,10.5,7.9,11.9c-0.2,0.4-1.5,2.5-1.7,2.9
		c-0.6,1.7-1.3,3.1-1.7,4.8c-0.6,2.5-1.3,5.2-1.5,7.9c-0.4,2.9-0.6,5.9-0.6,8.8c0,1.3,0.2,2.3,0.2,3.6c0,1.7,0.2,3.1,0.4,4.8
		c0.4,2.7,1,5.4,1.7,7.9c1.5,5.2,3.8,10.2,6.5,15.1c1.7,2.7,3.6,5.4,5.2,7.9c1.7,2.3,3.3,4.6,5.2,6.7c2.3,2.5,4.8,5,7.3,7.3
		c2.5,2.1,4.8,4.2,7.5,5.9c0.8,0.4,1.5,1,2.5,1.7c-0.6,0.2-0.8,0-1.3-0.2c-0.6-0.2-1.5-0.6-2.1-0.8c-4.4-1.3-8.6-3.3-12.5-5.6
		c-2.5-1.5-5-2.9-7.5-4.6c-0.4-0.2-0.6-0.4-1-0.6c0,0,0-0.2,0,0l0,0c0.4,0.8,1,1.5,1.7,2.3c1.5,1.5,2.7,2.7,4.2,4
		c2.1,1.9,4.4,3.6,6.7,5c4.2,2.7,8.6,5.2,13.2,7.3c1.7,0.8,3.6,1.5,5.2,2.1c3.1,1.3,6.5,2.1,9.8,2.9c3.3,0.6,6.5,1.3,9.8,1.5
		c3.8,0.2,7.5,0.2,11.3-0.2C166,218.7,166.4,218.7,166.6,218.5z"/>
	<path class="st1" d="M93.6,186c-0.2-0.6-0.6-1-1-1.5c-3.6-5-6.7-10.2-9-15.9c-2.1-5.4-3.3-11.1-3.8-16.9c-0.2-2.7,0-4.2,0.2-6.9
		c0-0.8-0.4-1.5-1.5-1.3c-9.4,4.4-3.6,20.9,0.8,27.6c2.9,4.8,6.5,9,10.9,12.8C91.3,184.6,92.4,185.4,93.6,186z"/>
	
		<linearGradient id="SVGID_2_" gradientUnits="userSpaceOnUse" x1="93.0255" y1="128.5083" x2="236.0517" y2="128.5083" gradientTransform="matrix(1 0 0 -1 0 302)">
		<stop  offset="0" style="stop-color:#D87711"/>
		<stop  offset="1" style="stop-color:#AE5818"/>
	</linearGradient>
	<path class="st9" d="M221.4,139c0.4-0.2,1-0.6,1.7-1c-0.4,2.5-0.8,4.8-0.8,7.1c1-0.4,1.7-1,2.7-1.5c-0.2,1-0.4,4-0.6,5.2
		c-0.4,5.6-0.6,9.4-0.4,15.9c0,2.3,0.2,4.4,0.6,6.7c0.4,2.7,1.9,5.2,3.3,7.5c1.3,1.9,2.5,4,3.8,6.1c1.9,2.9,3.1,6.3,3.8,9.6
		c0.8,4.6,0.8,9.2-0.2,13.8c-0.6,2.9-1.5,5.6-2.5,8.4c-0.6,1.7-1.5,3.1-2.5,4.6c-0.2,0.4-0.6,0.8-1,1.3c0-0.8-0.2-1.5-0.2-2.1
		c-2.7,4.8-5.9,9.4-10.7,12.5c0.2-1.3,0.4-2.3,0.2-3.6c-5.2,3.3-10.7,5-16.9,5.2c1-1,1.9-1.9,2.5-2.7c-2.7,0.6-5.4,1-8.2,1
		c-2.7,0-5.6-0.2-8.4-1.3c2.1-1.5,4.2-2.7,5.9-4.6c-6.1,1.3-13.8-0.6-14.6-0.8c0.4-0.4,0.4-0.2,1.9-1.9c0.2-0.2,1.5-1.9,2.1-2.7
		c-0.6,0-1,0-1.5,0.2c-2.3,0.2-4.4,0.2-6.7-0.2c-2.7-0.4-5.2-1.5-7.7-2.7c-0.4-0.4-0.8-0.6-1.3-0.8c-0.8-0.6-1.9-1-2.7-1.9
		c3.3-0.8,6.7-1.9,9.4-3.8c-11.5,0.6-16.5-0.8-21.1-2.5c1.5-1,3.3-1.7,4.8-2.9c-4.8,0.4-9.4-0.2-14-1.5s-9-2.7-13.2-5.6
		c1.9-0.6,3.8-1,5.4-1.5c-5.2-2.3-9.8-5.6-14.2-9.2c-5.4-4.4-11.1-10.2-11.9-12.3c2.1,0.6,4,0.8,5.9,0.6c-3.8-2.7-7.3-5.6-10.5-9.2
		c-3.1-3.6-7.5-10-7.5-11.5c3.1,1.9,6.5,3.1,10,4.2c-6.9-6.7-11.5-14.6-12.8-17.8c0.2-0.2,0.4,0,0.6,0c3.8,1.3,7.5,2.3,11.5,3.1
		c1.5,0.2,2.7,0.6,4.2,0.8c0,0.4,83.8-35.8,87.2-34.9c4.2,1,16.9,16.9,18.4,19.7c0.4,0.8,0.8,2.7,1,2.5l0.2-0.2
		c0.8-0.4,2.7-1.5,4.4-1.7c-0.2,0.6-0.4,1.5-0.6,2.1c-0.4,1.9-0.6,3.6-0.8,5.4c0,0.2,0,0.2,0,0.4l0,0
		C219.3,140.3,220.6,139.4,221.4,139z M230.8,190l-0.2-0.2c-0.2-1.5-1-2.7-1.9-4c-2.9-4.4-6.9-7.9-11.1-11.3c-2.3-1.9-4.6-4-6.7-6.1
		c-2.1-2.1-4-4.6-5.9-6.9c-3.3-4.2-5.9-9-7.1-14.4c-0.4-1.9-0.6-3.8-1-5.6c-0.2-1.9-0.6-4-0.4-6.1v-0.2c0-1,0.2-2.1,0.2-3.1
		c0.4-2.1,0.8-4,1.7-5.9c0.2-0.6-28.2-7.3-41,18.4c-1.5,3.6-2.7,7.1-3.1,10.9c-0.2,2.3-0.2,4.4,0,6.7c0.4,2.9,0.8,5.2,2.3,7.9
		c0.2,0.2,0.4,1,0.6,1.5l0,0c-0.4-0.2-1.5-1-2.7-1.3c-1.3-0.4-2.3-0.2-3.1,0.8c-1.5,1.5-2.3,3.1-2.7,5.2c-0.4,2.1-0.6,4.2-0.2,6.3
		c0.4,2.7,1.3,5.2,2.5,7.5c1.5,3.3,3.6,6.5,5.9,9.4c1,1.3,2.9,2.7,4.4,3.6c0,0,1-1,1.5-1.5c1.3-1.3,1.5-1.5,1.9-2.1
		c0.2-0.2,0.2-0.2-0.2-0.6c-0.8-0.6-1.5-1.3-2.3-2.1c-0.8-1-1.7-1.9-2.5-2.9c-1.3-1.9-2.3-3.8-3.1-5.9c-0.4-1.3-0.6-2.7-0.8-4.2
		s-0.2-3.6,0.2-5.2c0.2,0.6,0.4,1.3,0.4,1.7c1,3.1,2.5,6.1,4.6,8.8c2.3,3.3,5.2,6.3,8.8,8.4c0.6,0.4,0.4,0.2,0.6,0.4
		c-0.4,0.6-1.5,1.9-1.9,2.5c-1.7,2.1-3.6,4.2-5.9,5.9c-0.4,0.4-0.8,0.6-1.5,1.3c14.4,0.4,19-1.7,19.4-1.5c-2.3,4.4-6.1,7.3-10.5,9.8
		c6.1,1.9,12.1,1.7,18.2,0.6c0.2,0.2-1.5,3.1-2.3,4.4c-0.4,0.6-0.8,1.3-1.5,2.1c1.7,0.2,3.3,0.2,5,0.4c1.7,0,3.3-0.2,5-0.4
		s3.1-0.8,5-1.3c-0.6,1.5-1.3,2.7-2.1,4s-1.7,2.3-2.7,3.6c5.4,0,10.2-0.8,15.1-3.1c-0.2,0.6-0.4,1.3-0.8,1.9
		c-0.2,0.6-0.6,1.3-1.3,1.9c0.4-0.2,18.6-4.6,16.7-23.4c0.8,0,1.3-0.4,1.7-1c1.3-2.5,2.5-5,4-7.5c0.8-1.3,1.3-2.7,1.9-4
		c0.6-1.3,0.4-2.5-0.4-3.8C231.4,190.4,231.2,190,230.8,190z"/>
	<path class="st10" d="M204,180.4c-0.2-0.4-0.8-0.8-1.3-1.3c-2.3-1.9-4.2-4.2-5.6-6.7c-0.2-0.4-0.8-2.1-1-2.5
		c0.8,0.2,2.3,0.8,2.9,1.3c0.4,0.2,0.6,0.2,1.3,0.2c0,0-0.6-1-1-1.5c-1-1.5-2.3-2.9-3.1-4.6c-0.8-1.7-1.5-3.3-1.7-5.2v-0.4
		c0.8,0.6,1.9,1.7,3.1,2.3c-0.2-0.8-0.2-1.5-0.4-2.1c-0.2-1.7-0.6-3.3-0.6-5.2c-0.4-4.2-0.6-8.6-0.6-12.8c0-2.1,0.2-4.2,0.8-6.3
		c0-0.2,0.2-0.6,0.2-0.8c2.9,27.6,18.8,38.1,21.1,39.9c4,3.3,13,10.7,13,15.3c-1,0-1.9,0-2.9,0c-4.2,0.2-8.4,0.4-12.5,0.4
		c-0.6,0-1,0.4-2.1,0.2c-0.2,0,0.4,0.4,0,0.4c0-0.4-1.3-1-1.7-1.3c-1.9-1.3-3.8-2.3-5.4-3.6c-1.7-1-3.1-2.3-4.6-3.8
		c-0.6-0.8-1.3-1.7-1.9-2.7c0-0.2-0.2-0.2-0.4-1c1,0.4,2.9,1.3,4,1.7C203.4,180.4,203.6,180.4,204,180.4L204,180.4L204,180.4z"/>
	<path class="st11" d="M214.7,158.9c0,0.8,0,1.7-0.2,2.5c-0.2,0.6-0.4,1-0.8,1.5c-0.4,0.4-1,0.6-1.7,0.4c-1.3-0.4-2.1-1-2.7-2.1
		c-1.7-2.9-2.5-5.9-1.7-9.2c0-0.4,0.2-1,0.4-1.5c0.6-1.3,1.9-1.7,3.1-0.8c0.8,0.6,1.5,1.3,1.9,2.1
		C214.3,154.1,214.9,156.4,214.7,158.9z"/>
	<path class="st2" d="M208,153.4c0-0.4,0-0.8,0.2-1.3c0.4-0.8,1.3-0.8,1.9-0.2c0.4,0.6,0.4,1.3,0.4,1.9c-0.2,0.6-0.6,1-1.3,1
		s-1-0.4-1-1C208,153.6,208,153.6,208,153.4z"/>
	<path class="st11" d="M172.5,156.8c0.2-1.7,0.2-3.6,1.5-5c1-1.3,2.3-1.9,4-1.7c2.3,0.2,4,1.7,5.4,3.3c1.7,2.1,2.7,4.4,3.1,7.1
		c0.2,2.1,0,4-1,5.6c-1,1.7-3.1,2.5-5,1.9c-1.7-0.4-3.1-1.5-4.2-2.7c-1.9-2.1-3.1-4.6-3.6-7.5C172.5,157.6,172.5,157.2,172.5,156.8z
		"/>
	<path class="st2" d="M179.4,155.9c0,1.3-1.3,2.3-2.5,2.3c-1.3,0-2.7-1.5-2.7-2.7c0-1.5,1.3-2.5,2.7-2.5
		C178.3,153,179.6,154.3,179.4,155.9z"/>
	<path class="st5" d="M187.5,135.7c-1.3,4-1.5,7.7-1.7,11.7c-9.8-6.9-21.3,0-18.6,14.8c-3.1-0.8-8.4-10.9-7.1-13.6
		c1,0.6,1.9,1.9,3.1,2.3c-0.2-1-0.6-7.9,1.7-12.3c0.8,1.7,2.5,4.8,2.7,4.8c0.4-2.1,0.6-4.2,1.3-6.3c0.6-2.1,1.3-4,2.7-6.1
		c0.4,3.1,1.7,6.1,2.9,8.8c0.4-0.8,1.7-5.9,6.5-10.5c0,3.6,0.6,6.7,1,10C183.8,138.2,185.4,136.7,187.5,135.7z"/>
	<path class="st11" d="M128.3,171.6c2.5,0.4,7.1-0.6,7.9-1.7c0,1.5,0.4,2.9,0.8,4.4c1.7,6.7,4.6,12.8,8.4,18.6
		c1.7,2.5,4,4.8,6.3,6.7s4.2,3.3,6.7,4.8c0,0,0.8,0.4,1,0.6c-0.6,0.4-1,0.8-1.7,0.6c-5.2-0.8-9.8-3.6-13.6-6.9c-2.7-2.5-5-5-7.1-7.9
		c-2.9-4.2-5.9-8.6-7.5-13.6c-0.6-1.5-0.8-3.1-1.3-4.6C128.3,172.2,128.3,171.8,128.3,171.6z"/>
	<path class="st12" d="M115.6,156.4c0.2,0,0-13.8,5.9-21.7c7.3-10,20.3-17.6,20.3-17.8c0.8-0.8,47.5-9.2,49.6-8.2
		c1.9,0.8,21.3,5,21.7,5c0.6,2.3,1.5,5.6,1.9,7.9c0.8,4,1,7.9,1.3,11.9c0,0.2,0,0.2,0,0.4c0,0-0.8,0.4-1,0.8
		c-6.1-19-48.5-21.1-66.3,8.4c-2.3,3.6-4.2,7.5-5.9,11.5c-1,2.5-1.7,5-2.3,7.7c-0.4,1.3-0.8,2.5-1.5,3.8c-1,2.5-3.6,4.4-3.8,4.4
		c-1.3,0.6-2.5,1-4,1c-1,0-4.2,0.8-8.4-3.1c-2.1-2.1-3.8-4.4-5.2-6.9C116.8,160.1,116.2,158.2,115.6,156.4z"/>
	<path class="st13" d="M191.9,81.1c-0.4,0-1.9-1-2.5-1.3c-2.9-1.7-9.8-3.8-10-4c0-0.4,0-1,0-1.5c-0.6-3.3-1.9-6.3-3.6-9
		c-1.9-2.9-4.2-5.6-6.1-8.6c-1.7-2.5-3.3-5-4.8-7.7c-0.4-0.8-0.8-1.9-1.3-2.9c0.6-1.3,1-2.1,1.9-2.9c0.4,0.8,1,1.5,1.5,2.1
		c3.8,5.9,7.5,11.5,11.7,17.1C183.3,68.5,187.7,74.8,191.9,81.1z"/>
	<path class="st14" d="M177.1,74.4c0-1.3-0.6-2.3-1-3.3c-0.6-1.5-1.7-2.9-2.5-4.2c-2.1-3.3-4.2-6.7-6.3-9.8c-1-1.7-2.1-3.3-3.1-5
		c-0.6-0.8-1-1.9-1.3-2.7c0.2-1.3,0.4-2.1,1-3.3c0.4,0.8,0.8,1.9,1.3,2.7c1.5,2.7,3.1,5.4,4.8,7.9c1.9,2.9,4.2,5.6,6.1,8.6
		c1.7,2.7,3.1,5.6,3.6,9c0,0.4,0,0.6,0,1C178.7,75,177.9,74.8,177.1,74.4z"/>
	<path class="st13" d="M166.4,72.7c-0.2,0.2-0.4,0.2-0.6,0.2c-1.3-0.2-2.5-0.2-3.6,0c-0.2,0-0.4,0-0.4-0.2s-0.2-0.4-0.4-0.6
		c-2.1-2.7-4.2-4.8-5.9-7.9c-0.4-0.8-0.6-2.3-0.4-3.1c0.2-1,0.6-1.9,1.5-2.7C159.7,63.1,162.6,68.1,166.4,72.7z"/>
	<path class="st15" d="M150.1,133.4c0,0.4-0.2,0.4-0.4,0.6c-2.3,2.5-4.2,5.2-5.6,8.2c-1.7,3.6-3.1,7.3-4.6,10.9
		c-1,2.5-2.1,5-3.6,7.3c-0.8,1-1.7,2.1-2.9,2.9c-1.5,0.8-2.9,1-4.6,0.6c-4.2-1-6.1-6.7-6.1-7.1c-0.4-0.6-0.4-0.6,0.6-0.6
		c3.1,0.2,6.3-0.4,8.8-2.5c1.5-1,2.5-2.5,3.8-4c1.7-2.3,2.9-4.6,4.4-6.9c1.5-2.1,2.9-4.4,4.8-6.3c1.5-1.5,3.1-2.5,5-3.1
		C149.7,133.4,149.9,133.4,150.1,133.4z"/>
	<path class="st12" d="M197.3,85.5c-2.3,2.5-11.1,10-11.9,10c-2.3,0-29.9-4.8-33.5-3.3c-1.9,0.8-13.4,16.7-14.2,18.2
		c-0.2,0.2-14.8-16.3-16.9-18.6c-0.2-0.2,0-0.4,0-0.6C123.3,83.6,159.7,51.4,197.3,85.5z"/>
	<path class="st15" d="M137.8,107.6c-1-0.8-11.5-12.3-11.5-12.5c0.8-0.8,1.7-1.9,2.3-2.7c3.1-3.8,15.7-16.3,37.6-14.8
		c0.4,0,0.6,0.2,0.6,0.4s-0.2,0.2-0.4,0.2c-8.8,0.8-20.3,4.6-25.5,9.8c-2.1,2.1-2.9,4.4-2.7,5.9c0,0.8,0.2,1.7,0.8,2.3
		c0.6,0.8,1.5,1.5,2.3,1.9c-0.4,0.4-0.4,0.8-0.6,1.3c-0.8,1.9-1.9,3.8-2.3,5.6C137.8,106,137.8,106.8,137.8,107.6z"/>
	<path class="st13" d="M130.4,99.5c1.5,1.7,2.9,3.3,4.4,5.2c0.8,1,2.7,3.1,4,4.2c0.2,0.8-0.4,1-1,1.7c-2.3,1.7-5.2,3.1-7.3,5
		c-1.5,1.3-5.9,4.6-5.6,4.4c0.2-1,0.4-5.9,0.4-6.9c-0.2-2.1-0.4-3.8-1-5.9c-1.3-4.4-2.9-8.6-5.4-12.3c-1.5-2.3-3.1-4.2-4.8-6.5
		c-2.1-2.9-4.4-5.2-6.5-7.9c-1.3-1.5-2.5-3.3-3.8-4.8c-1.7-2.1-3.6-4-5.4-6.3c-1.9-2.3-3.6-4.6-4.6-7.7c0.6-1.3,1-2.1,1.9-2.9
		c0.2,0.2,8.6,10.5,12.5,15.3c4.4,5.2,9,10.5,13.6,15.5C121.9,89.9,129.2,98,130.4,99.5z"/>
	<path class="st0" d="M95.7,122.5c-1-1.5-2.3-2.9-3.1-4.4c-1.9-2.9-3.6-5.9-4.8-9c0-0.2-1.3-3.3-1.7-4.8c-0.2-1.3-0.4-2.3-0.4-3.6
		c0.8,1,2.1,1.7,3.1,2.7c2.5,2.7,5.2,5,8.4,7.1c1,0.6,3.1-0.2,2.7-0.6c-2.5-2.3-4.6-4.4-4.8-4.6c-2.5-3.8-5.2-9.8-7.1-14
		c-1-2.5-1.9-5.2-2.1-7.9c-0.2-1.7-0.2-3.3,0.2-5c1,1.5,2.1,2.3,3.3,3.6c1.5,1.7,3.1,3.6,4.6,5.2c0.8,1,1.7,2.1,2.5,3.1
		s1.7,2.3,2.5,3.3c0.6,0.8,1.5,1.3,2.1,1.9c1.3,1,2.5,2.3,4,3.1c0.8,0.4,1,0.6,1.9,0.8c0.4,0.2-2.9-5-2.9-5
		c-0.2-0.6-1.3-2.5-1.5-2.9c-1.5-2.5-3.1-5-4.6-7.5c-1.7-2.9-2.9-6.1-4.2-9.4c-0.4-1.5-1.9-4.6-1.3-10.7c1.9,3.3,7.5,9,9.8,11.9
		c1.7,2.1,3.3,4.2,5,6.3c2.7,3.3,5.2,6.9,7.1,10.7c1.5,2.9,2.9,6.5,3.8,9.6c0.6,2.3,1.3,5,1.5,7.3s0,4.8-0.6,7.1
		c-0.8,3.3-2.9,6.1-5.6,8.2c-1.9,1.5-4.2,1.9-6.5,1.9c-0.6,0-7.7-0.6-10-3.3C96.8,123.7,96.4,122.9,95.7,122.5z"/>
	<path class="st14" d="M93.6,61.6c1.3,2.7,3.1,5.2,4.8,7.5c1.7,2.1,3.6,4.4,5.2,6.5c1.3,1.5,2.5,2.9,3.8,4.4
		c2.3,2.7,4.6,5.2,6.7,8.2c1.7,2.1,3.3,4.2,4.8,6.5c2.5,3.8,4.2,7.9,5.6,12.3c0.6,1.9,0.8,4,1.3,6.1c0.2,4.2-0.6,6.7-0.4,6.9
		c-0.6,1-1.5,2.7-2.3,3.8c-2.9,3.3-4.8,6.5-6.9,10.5c-0.6,1.3-1.9,2.5-2.5,3.8c-0.4,1-1.3,0-1.7-0.2c-0.2-0.2-0.8-0.6-1-0.8
		c-2.9-2.1-5.6-4.2-8.4-6.7c-1.9-1.9-4-3.8-5.4-5.6c0.6,0.2,4,2.5,10.5,2.7c2.3,0,4.4-0.4,6.3-1.9c2.7-2.1,4.6-4.8,5.4-8.2
		c0.4-2.3,0.4-4.4,0.4-6.7c-0.2-2.3-0.6-4.6-1.3-6.9c-1-3.3-2.3-6.3-3.8-9.4c-1.9-3.8-4.2-7.5-6.9-10.9c-1.7-2.1-3.3-4.2-5-6.1
		c-2.5-2.9-5-5.6-7.3-8.6c-0.6-1-1.9-2.9-2.1-3.8C93,63.5,93.2,62.5,93.6,61.6z"/>
	<path class="st16" d="M109.3,148.4c-0.2-0.4,0-0.8,0-1.5c0.4-2.5,1.3-4.8,2.3-7.1c0.4-0.8,1-2.5,1.3-2.9c0.6-1.3,1.3-2.5,1.9-3.8
		c2.1-4,4.6-7.5,7.3-10.9c0.8-1,3.1-3.3,3.3-3.8c1.3-1.3,2.7-2.7,4.2-3.8c2.3-1.9,4.6-3.6,7.1-5.2c0.6-0.4,1-1,0.8-1.9
		c0-0.8,0.2-1.7,0.4-2.5c0.4-2.1,1.3-4,2.3-5.6c0.2-0.4,1-1.7,1.3-1.9c1-1.3,2.1-2.5,3.3-3.6c1.7-1.3,3.3-2.3,5.2-3.1
		c3.6-1.5,13.2-3.3,25.5,0.2c2.3,0.6,4.6,1,6.9,0.8c0.8,0,1.7,0,2.5-0.2c1.7-0.2,3.1-0.6,4.4-1.7c2.5-1.7,5-3.6,7.9-4.6
		c0.4,0,0.8-0.2,1.3-0.2c2.7-0.6,5.2,0,7.5,1.9c2.5,1.9,4.2,4.6,5.6,7.3c1.9,3.3,3.3,7.1,4,10.9c0.4,1.7,0.6,3.6,0.2,5.2
		s-1,3.1-2.3,4.2c-0.2,0.2-0.8,0.6-1.3,0.6c-2.9,1.3-6.1,1.5-9,1c-1.7-0.2-3.3-0.6-5-1.3c-1.9-0.6-3.6-1.7-5.2-2.3
		c-2.3-0.8-4.4-0.8-6.7,0c-1.7,0.6-2.7,2.1-4,3.1c-1.9,1.7-3.8,3.1-6.1,4.6c-2.1,1.3-4.4,1.9-6.7,2.7c-2.1,0.8-11.3,3.6-21.5-0.8
		c-1.7-0.6-2.9-1.7-4.4-2.7c-0.8-0.6-1-0.6-1.9,0.2l-0.2,0.2c-1,0.8-1.9,1.7-2.9,2.5c-1.5,1.3-3.1,2.5-4.6,4c-1.9,1.9-3.3,3.8-5,5.6
		c-1.7,2.1-3.1,4.2-4.6,6.3c-1,1.7-2.1,3.6-3.1,5.2c-0.8,1.3-1.5,2.5-2.1,4c-1.3,2.7-2.7,6.7-3.8,9.4
		C114.5,157.4,111.6,156.1,109.3,148.4z"/>
	<path class="st17" d="M162.2,93c3.6,0,6.9,0.6,10,2.1s5.6,3.3,7.5,6.1c0.6,1,1.3,2.1,1.5,3.3c0.6,2.9-0.4,5.2-2.3,7.3
		c-1.9,2.3-4.4,3.8-7.1,5c-3.3,1.5-6.9,2.3-10.5,2.3c-4.2,0.2-8.2-0.8-11.3-3.6c-1.3-1-2.5-2.3-3.3-3.8c-2.1-3.3-2.1-6.9-0.6-10.5
		c1.9-4,5-6.1,9-7.3C157.4,93.4,159.9,93,162.2,93z"/>
	<path class="st17" d="M204.2,111.8c-2.7,0-5.6-0.8-8.4-2.1c-3.1-1.5-6.5-6.3-5.4-11.1c0.4-1.9,1.3-3.6,2.7-4.8
		c1.7-1.5,3.6-2.5,5.4-3.3c1.5-0.6,2.9-0.4,4.2,0.6c2.1,1.5,3.3,3.3,4.6,5.4c1.9,3.3,3.1,6.7,3.6,10.5c0,0.8,0.2,1.7,0,2.5
		s-0.8,1.5-1.7,1.7C208.2,111.4,206.5,111.6,204.2,111.8z"/>
	<path class="st2" d="M167.4,114.7c-3.6,1.5-20.9,1.7-17.1-14.8C150.3,99.9,166.2,113.7,167.4,114.7z"/>
	<path class="st2" d="M207.2,107.8c-4,1.5-14-0.4-13.2-10.5C195.9,98.9,206.5,107.4,207.2,107.8z"/>
	<path class="st13" d="M104.7,95.1c1.5,1.7,2.7,3.6,4,5.4c-0.4,0.2-4.4-0.6-9.8-6.1c-0.8-1-1.9-2.1-2.7-3.3c-0.8-1-1.7-2.1-2.5-2.9
		c-1.5-1.7-2.9-3.6-4.4-5.2c-1-1.3-2.1-2.5-3.1-4c0.4-1,0.8-2.1,1.3-2.9c0.6,0.6,2.5,2.5,3.6,3.6c4,4.6,7.9,9,11.9,13.6
		c0.2,0.4,1,1,1.5,1.5l0,0C104.5,94.7,104.5,94.9,104.7,95.1z"/>
	<path class="st13" d="M96.8,106.8c1.5,1.5,4.6,4.6,6.1,5.6c-1.3,0.2-4.8-0.6-5.9-1.3c-3.1-1.9-6.1-4.4-8.6-7.1
		c-1-1-1.9-2.1-2.7-3.3c0-1.5,0.2-2.7,0.8-4c0.8,0.8,5.2,5,7.5,7.1c0.2,0.2,0.8,0.6,0.8,0.8C95.1,104.9,96.1,106.2,96.8,106.8z"/>
	<path class="st16" d="M213,190.4c0,0.2,16.3-0.4,17.6-0.6c0.4,0,0.8,0.6,1,0.8c0.8,1.3,1,2.5,0.4,3.8s-1.3,2.7-1.9,4
		c-1.5,2.5-2.5,5-4,7.5c-0.4,0.6-0.8,1-1.7,1c-0.6,0-1-0.2-1.5-0.6c-4.4-3.8-8.8-7.3-13.2-11.1c-0.8-0.6-1-1.5-1-2.5
		c0-1.3,0.6-2.1,1.9-2.3C211.4,190.6,212.6,190.4,213,190.4z"/>
	<path class="st15" d="M230.6,192.7c-0.4,1.5-1,2.3-2.5,2.5c-2.5,0.4-7.7,0.8-9.6,0.4c-1.3-0.2-3.1-3.3-5.6-5.2
		c0.8,0,1.7-0.2,2.3-0.2c4.2,0,8.4-0.2,12.5-0.4c1,0,1.9,0,2.9,0C230.6,190,230.8,191.9,230.6,192.7z"/>
</g>
</svg>
