<svg xmlns="http://www.w3.org/2000/svg" xmlns:xlink="http://www.w3.org/1999/xlink" viewBox="0 0 48 48" version="1.1">
	<g id="surface1">
		<path style=" fill:#FFC107;" d="M 24.640625 4 C 16.039063 4 6.210938 8.953125 6.210938 22.945313 C 6.210938 33.109375 13.84375 44 25.519531 44 C 25.523438 44 25.6875 44 25.695313 44 C 30.078125 43.921875 34.800781 41.082031 34.800781 35.039063 C 34.800781 33.882813 34.367188 32.882813 33.988281 32 C 33.886719 31.765625 33.789063 31.535156 33.703125 31.304688 C 32.839844 29.128906 33.789063 28.335938 36.03125 26.738281 C 38.566406 24.933594 42.042969 22.460938 42 15.921875 C 42 12.03125 37.757813 4 24.640625 4 Z M 25.199219 39.199219 C 22.957031 39.199219 21.199219 37.441406 21.199219 35.199219 C 21.199219 32.960938 22.957031 31.199219 25.199219 31.199219 C 27.4375 31.199219 29.195313 32.960938 29.195313 35.199219 C 29.195313 37.441406 27.4375 39.199219 25.199219 39.199219 Z "></path>
		<path style=" fill:#9C27B0;" d="M 38 16.5 C 38 18.433594 36.433594 20 34.5 20 C 32.566406 20 31 18.433594 31 16.5 C 31 14.566406 32.566406 13 34.5 13 C 36.433594 13 38 14.566406 38 16.5 Z "></path>
		<path style=" fill:#2196F3;" d="M 29 10.5 C 29 12.433594 27.433594 14 25.5 14 C 23.566406 14 22 12.433594 22 10.5 C 22 8.566406 23.566406 7 25.5 7 C 27.433594 7 29 8.566406 29 10.5 Z "></path>
		<path style=" fill:#4CAF50;" d="M 19 15.5 C 19 17.433594 17.433594 19 15.5 19 C 13.566406 19 12 17.433594 12 15.5 C 12 13.566406 13.566406 12 15.5 12 C 17.433594 12 19 13.566406 19 15.5 Z "></path>
		<path style=" fill:#FF3D00;" d="M 18 26.5 C 18 28.433594 16.433594 30 14.5 30 C 12.566406 30 11 28.433594 11 26.5 C 11 24.566406 12.566406 23 14.5 23 C 16.433594 23 18 24.566406 18 26.5 Z "></path>
	</g>
</svg>