<svg xmlns="http://www.w3.org/2000/svg" xmlns:xlink="http://www.w3.org/1999/xlink" viewBox="0 0 32 32" version="1.1">
	<g id="surface1">
		<path style=" " d="M 15 6 L 8 26 L 10 26 L 12.097656 20 L 17.089844 20 C 16.402344 21.179688 16 22.542969 16 24 C 16 28.398438 19.601563 32 24 32 C 28.398438 32 32 28.398438 32 24 C 32 19.601563 28.398438 16 24 16 C 22.839844 16 21.742188 16.253906 20.746094 16.703125 L 17 6 Z M 16 8.859375 L 19.09375 17.699219 C 18.972656 17.796875 18.851563 17.894531 18.734375 18 L 12.800781 18 Z M 24 18 C 27.300781 18 30 20.699219 30 24 C 30 27.300781 27.300781 30 24 30 C 20.699219 30 18 27.300781 18 24 C 18 20.699219 20.699219 18 24 18 Z M 23 20 L 23 23 L 20 23 L 20 25 L 23 25 L 23 28 L 25 28 L 25 25 L 28 25 L 28 23 L 25 23 L 25 20 Z "></path>
	</g>
</svg>