<?xml version="1.0" encoding="utf-8"?>
<!-- Generator: Adobe Illustrator 24.1.0, SVG Export Plug-In . SVG Version: 6.00 Build 0)  -->
<svg version="1.1" id="Слой_1" xmlns="http://www.w3.org/2000/svg" xmlns:xlink="http://www.w3.org/1999/xlink" x="0px" y="0px"
	 viewBox="0 0 300 300" style="enable-background:new 0 0 300 300;" xml:space="preserve">
<style type="text/css">
	.st0{fill:#1D202D;}
</style>
<g>
	<path class="st0" d="M174.7,215.4l-30.1,30.7c-3.1,3.1-3.1,6.8,0,9.8c1.2,1.2,3.1,1.8,4.3,1.8c1.2,0,3.7-0.6,4.3-1.8l30.7-30.7
		c3.1-3.1,3.1-6.8,0-9.8C181.4,213,177.8,213,174.7,215.4z"/>
	<path class="st0" d="M80.7,178.6c0-0.6,1.2-3.1,4.3-8c4.9-7.4,12.9-16.6,23.3-26.4l4.9-4.9c2.5-2.5,5.5-3.1,8.6-1.8l-0.6-0.6
		c-1.8-1.8-1.8-3.7,0-5.5l1.8-1.8c3.1-3.1,3.1-6.8,0-9.8s-6.8-3.1-9.8,0L98.5,135c-10.4,11.1-19,21.5-25.2,30.1
		c-4.3,6.1-4.9,9.8-5.5,11.1c-0.6,3.7,1.8,7.4,4.9,8h1.8C77.7,183.5,80.1,182.3,80.7,178.6z"/>
	<path class="st0" d="M220.7,44.1l-95.2,95.2c3.7,3.7,3.7,8.6,0,11.1l-2.5,2.5l-15.4,15.4c-27.6,27.6-30.7,39.9-31.3,42.4
		c-0.6,3.7,1.8,7.4,5.5,8h1.2c3.7,0,5.5-2.5,6.8-4.9c0-0.6,1.2-3.1,4.3-8.6c3.7-5.5,10.4-14.7,23.3-27.6l4.9-4.9
		c2.5-2.5,5.5-3.1,8.6-1.8l-0.6-0.6c-1.8-1.8-1.8-3.7,0-5.5l1.8-1.8c3.1-3.1,3.1-6.8,0-9.8l-1.2-1.2l98.9-98.2
		c3.1-3.1,3.1-6.8,0-9.8C227.5,41.7,223.2,41.7,220.7,44.1z"/>
	<path class="st0" d="M205.4,101.2l-70.6,71.2c3.7,3.7,3.7,8.6,0,11.1l-2.5,2.5l-14.7,14.7c-11.7,11.7-20.9,23.9-25.8,35
		c-3.7,8.6-3.7,13.5-3.7,14.7c0,3.7,3.1,6.8,6.8,6.8c3.7,0,6.8-3.1,6.8-6.8c0,0,0-3.7,3.1-9.8c5.5-11.7,15.4-23.3,23.3-31.3l4.9-4.9
		c2.5-2.5,5.5-3.1,8.6-1.8l-0.6-0.6c-1.8-1.8-1.8-3.7,0-5.5l1.8-1.8c3.1-3.1,3.1-6.8,0-9.8l-1.2-1.2l74.3-73.7
		c3.1-3.1,3.1-6.8,0-9.8C212.1,98.8,208.5,98.8,205.4,101.2z"/>
	<path class="st0" d="M190,158.9l-46.7,46.7c3.7,3.7,3.7,8.6,0,11.1l-6.8,6.8c3.1,1.8,6.1,1.8,8.6-1.2l54-54c3.1-3.1,3.1-6.8,0-9.8
		C196.8,155.9,193.1,155.9,190,158.9z"/>
</g>
</svg>
