<svg xmlns="http://www.w3.org/2000/svg" xmlns:xlink="http://www.w3.org/1999/xlink" viewBox="0 0 32 32" version="1.1">
	<g id="surface1">
		<path style=" " d="M 6 6 L 6 10 L 10 10 L 10 6 Z M 10 10 L 10 14 L 14 14 L 14 10 Z M 14 10 L 18 10 L 18 6 L 14 6 Z M 18 10 L 18 14 L 22 14 L 22 10 Z M 22 10 L 26 10 L 26 6 L 22 6 Z M 22 14 L 22 18 L 26 18 L 26 14 Z M 22 18 L 18 18 L 18 22 L 22 22 Z M 22 22 L 22 26 L 26 26 L 26 22 Z M 18 22 L 14 22 L 14 26 L 18 26 Z M 14 22 L 14 18 L 10 18 L 10 22 Z M 10 22 L 6 22 L 6 26 L 10 26 Z M 10 18 L 10 14 L 6 14 L 6 18 Z M 14 18 L 18 18 L 18 14 L 14 14 Z "></path>
	</g>
</svg>