<svg xmlns="http://www.w3.org/2000/svg" xmlns:xlink="http://www.w3.org/1999/xlink" viewBox="0 0 32 32" version="1.1">
	<g id="surface1">
		<path style=" " d="M 7 6 L 7 10 L 9 10 L 9 6 Z M 15 6 L 15 10 L 17 10 L 17 6 Z M 23 6 L 23 10 L 25 10 L 25 6 Z M 2 7 L 2 9 L 6 9 L 6 7 Z M 10 7 L 10 9 L 14 9 L 14 7 Z M 18 7 L 18 9 L 22 9 L 22 7 Z M 26 7 L 26 9 L 30 9 L 30 7 Z M 3 10 L 3 14 L 5 14 L 5 10 Z M 11 10 L 11 14 L 13 14 L 13 10 Z M 19 10 L 19 14 L 21 14 L 21 10 Z M 27 10 L 27 14 L 29 14 L 29 10 Z M 6 11 L 6 13 L 10 13 L 10 11 Z M 14 11 L 14 13 L 18 13 L 18 11 Z M 22 11 L 22 13 L 26 13 L 26 11 Z M 7 14 L 7 18 L 9 18 L 9 14 Z M 15 14 L 15 18 L 17 18 L 17 14 Z M 23 14 L 23 18 L 25 18 L 25 14 Z M 2 15 L 2 17 L 6 17 L 6 15 Z M 10 15 L 10 17 L 14 17 L 14 15 Z M 18 15 L 18 17 L 22 17 L 22 15 Z M 26 15 L 26 17 L 30 17 L 30 15 Z M 3 18 L 3 22 L 5 22 L 5 18 Z M 11 18 L 11 22 L 13 22 L 13 18 Z M 19 18 L 19 22 L 21 22 L 21 18 Z M 27 18 L 27 22 L 29 22 L 29 18 Z M 6 19 L 6 21 L 10 21 L 10 19 Z M 14 19 L 14 21 L 18 21 L 18 19 Z M 22 19 L 22 21 L 26 21 L 26 19 Z M 7 22 L 7 26 L 9 26 L 9 22 Z M 15 22 L 15 26 L 17 26 L 17 22 Z M 23 22 L 23 26 L 25 26 L 25 22 Z M 2 23 L 2 25 L 6 25 L 6 23 Z M 10 23 L 10 25 L 14 25 L 14 23 Z M 18 23 L 18 25 L 22 25 L 22 23 Z M 26 23 L 26 25 L 30 25 L 30 23 Z "></path>
	</g>
</svg>