<svg xmlns="http://www.w3.org/2000/svg" viewBox="0 0 4850 91"><style type="text/css">  
	.st0{fill-rule:evenodd;clip-rule:evenodd;fill:#F3F3F3;}
	.st1{fill-rule:evenodd;clip-rule:evenodd;fill:#EBEBEB;}
	.st2{opacity:0.4;fill-rule:evenodd;clip-rule:evenodd;fill:#F3F3F3;}
	.st3{fill-rule:evenodd;clip-rule:evenodd;fill:#F7F7F7;}
</style><path class="st0" d="M3344.5 73.7c202.1 0 202.1-69.4 404.2-69.4 202.1 0 202.1 69.4 404.2 69.4 202.1 0 202.1-69.4 404.2-69.4 202.1 0 202.1 69.4 404.2 69.4s202.1-69.4 404.2-69.4l0.7 86.6H111.1V73.7c202.1 0 202.1-69.4 404.2-69.4 202.1 0 202.1 69.4 404.2 69.4 202.1 0 202.1-69.4 404.2-69.4 202.1 0 202.1 69.4 404.2 69.4 202.1 0 202.1-69.4 404.2-69.4 202.1 0 202.1 69.4 404.2 69.4s202.1-69.4 404.2-69.4C3142.4 4.4 3142.6 73.7 3344.5 73.7z"/><path class="st0" d="M2413.9 88.9c-1.9 0-3.9-0.1-5.8-0.1 -1 0-1.9 0-2.9-0.1 -1.8 0-3.7-0.1-5.5-0.2 -0.9 0-1.8-0.1-2.6-0.1 -2.2-0.1-4.5-0.2-6.7-0.3 -0.4 0-0.8 0-1.1 0 -2.5-0.1-5-0.2-7.5-0.4 -0.8 0-1.5-0.1-2.2-0.1 -1.7-0.1-3.5-0.2-5.2-0.3 -0.9-0.1-1.7-0.1-2.6-0.2 -1.6-0.1-3.1-0.2-4.7-0.4 -0.8-0.1-1.7-0.1-2.5-0.2 -1.8-0.1-3.5-0.3-5.2-0.5 -0.5-0.1-1.1-0.1-1.7-0.2 -2.2-0.2-4.4-0.4-6.6-0.7 -0.7-0.1-1.3-0.1-1.9-0.2 -1.5-0.2-3.1-0.3-4.6-0.5 -0.8-0.1-1.6-0.2-2.4-0.3 -1.3-0.2-2.7-0.3-4-0.5 -0.8-0.1-1.6-0.2-2.4-0.3 -1.4-0.2-2.8-0.4-4.2-0.6 -0.6-0.1-1.3-0.2-1.9-0.3 -2-0.3-3.9-0.6-5.8-0.9 -0.6-0.1-1.2-0.2-1.8-0.3 -1.3-0.2-2.7-0.5-4-0.7 -0.8-0.1-1.5-0.3-2.3-0.4 -1.1-0.2-2.3-0.4-3.4-0.6 -0.8-0.1-1.6-0.3-2.4-0.5 -1.1-0.2-2.2-0.4-3.3-0.7 -0.7-0.1-1.4-0.3-2.2-0.4 -1.6-0.3-3.3-0.7-4.9-1 -0.7-0.2-1.4-0.3-2.1-0.5 -1.1-0.3-2.2-0.5-3.3-0.8 -0.8-0.2-1.6-0.4-2.4-0.6 -0.9-0.2-1.8-0.4-2.7-0.7 -0.8-0.2-1.6-0.4-2.4-0.6 -0.9-0.2-1.8-0.4-2.6-0.7 -0.8-0.2-1.6-0.4-2.4-0.6 -0.9-0.2-1.9-0.5-2.8-0.7 -1.3-0.3-2.6-0.7-3.9-1.1 -0.8-0.2-1.6-0.5-2.5-0.7 -0.9-0.2-1.7-0.5-2.6-0.7 -0.7-0.2-1.4-0.4-2-0.6 -0.9-0.3-1.8-0.5-2.6-0.8 -0.6-0.2-1.3-0.4-1.9-0.6 -0.9-0.3-1.8-0.5-2.7-0.8 -0.5-0.1-0.9-0.3-1.4-0.4 -2.3-0.7-4.6-1.4-6.8-2.1 24.7 3.4 53.3 5.4 87.8 5.4 33 0 60.6-1.9 84.6-5 29.8 5.5 65.3 9.1 111.2 9.1 10.7 0 20.8-0.2 30.5-0.6 -1.1 0.3-2.3 0.6-3.4 0.9 -0.9 0.2-1.7 0.4-2.6 0.6 -0.7 0.2-1.4 0.3-2.1 0.5 -1.2 0.3-2.5 0.6-3.7 0.9 -0.9 0.2-1.7 0.4-2.6 0.6 -0.8 0.2-1.6 0.4-2.4 0.5 -1.2 0.3-2.4 0.5-3.5 0.8 -0.9 0.2-1.8 0.4-2.7 0.6 -1 0.2-2 0.4-2.9 0.6 -0.7 0.1-1.5 0.3-2.2 0.4 -1.5 0.3-3 0.6-4.5 0.8 -0.7 0.1-1.4 0.3-2.2 0.4 -1.3 0.2-2.6 0.4-3.9 0.7 -0.8 0.1-1.6 0.3-2.4 0.4 -1.4 0.2-2.7 0.4-4.1 0.7 -0.7 0.1-1.4 0.2-2 0.3 -1.7 0.3-3.5 0.5-5.2 0.7 -0.6 0.1-1.2 0.2-1.8 0.2 -1.5 0.2-3 0.4-4.5 0.6 -0.5 0.1-1 0.1-1.6 0.2 -1.9 0.2-3.8 0.5-5.7 0.7 -0.6 0.1-1.2 0.1-1.9 0.2 -2 0.2-4 0.4-6 0.6 -0.4 0-0.8 0.1-1.1 0.1 -1.9 0.2-3.7 0.3-5.6 0.5 -0.6 0-1.1 0.1-1.7 0.1 -2.1 0.2-4.3 0.3-6.5 0.5 -0.5 0-1.1 0.1-1.6 0.1 -2.1 0.1-4.2 0.3-6.3 0.4 -0.3 0-0.6 0-0.8 0.1 -2.3 0.1-4.7 0.3-7.1 0.4 -0.6 0-1.1 0.1-1.7 0.1 -2.4 0.1-4.9 0.2-7.3 0.3 -0.4 0-0.8 0-1.2 0 -2.3 0.1-4.6 0.1-7 0.2 -0.5 0-0.9 0-1.4 0 -2.6 0.1-5.2 0.1-7.8 0.1 -0.6 0-1.1 0-1.7 0 -2.7 0-5.5 0-8.3 0 -2.9 0-5.7 0-8.6 0C2415.6 89 2414.7 88.9 2413.9 88.9zM4838.9 88.9c-1.9 0-3.9-0.1-5.8-0.1 -1 0-1.9 0-2.9-0.1 -1.8 0-3.7-0.1-5.5-0.2 -0.9 0-1.8-0.1-2.6-0.1 -2.2-0.1-4.5-0.2-6.7-0.3 -0.4 0-0.8 0-1.1 0 -2.5-0.1-5-0.2-7.5-0.4 -0.8 0-1.5-0.1-2.2-0.1 -1.7-0.1-3.5-0.2-5.2-0.3 -0.9-0.1-1.7-0.1-2.6-0.2 -1.6-0.1-3.1-0.2-4.7-0.4 -0.8-0.1-1.7-0.1-2.5-0.2 -1.8-0.1-3.5-0.3-5.2-0.5 -0.5-0.1-1.1-0.1-1.7-0.2 -2.2-0.2-4.4-0.4-6.6-0.7 -0.7-0.1-1.3-0.1-1.9-0.2 -1.5-0.2-3.1-0.3-4.6-0.5 -0.8-0.1-1.6-0.2-2.4-0.3 -1.3-0.2-2.7-0.3-4-0.5 -0.8-0.1-1.6-0.2-2.4-0.3 -1.4-0.2-2.8-0.4-4.2-0.6 -0.6-0.1-1.3-0.2-1.9-0.3 -1.9-0.3-3.9-0.6-5.8-0.9 -0.6-0.1-1.2-0.2-1.8-0.3 -1.3-0.2-2.7-0.5-4-0.7 -0.8-0.1-1.5-0.3-2.3-0.4 -1.1-0.2-2.3-0.4-3.4-0.6 -0.8-0.1-1.6-0.3-2.4-0.5 -1.1-0.2-2.2-0.4-3.3-0.7 -0.7-0.1-1.4-0.3-2.2-0.4 -1.6-0.3-3.3-0.7-4.9-1 -0.7-0.2-1.4-0.3-2.1-0.5 -1.1-0.3-2.2-0.5-3.3-0.8 -0.8-0.2-1.6-0.4-2.4-0.6 -0.9-0.2-1.8-0.4-2.7-0.7 -0.8-0.2-1.6-0.4-2.4-0.6 -0.9-0.2-1.8-0.4-2.6-0.7 -0.8-0.2-1.6-0.4-2.4-0.6 -0.9-0.2-1.9-0.5-2.8-0.7 -1.3-0.3-2.6-0.7-3.9-1.1 -0.8-0.2-1.6-0.5-2.5-0.7 -0.9-0.2-1.7-0.5-2.6-0.7 -0.7-0.2-1.4-0.4-2-0.6 -0.9-0.3-1.8-0.5-2.6-0.8 -0.6-0.2-1.3-0.4-1.9-0.6 -0.9-0.3-1.8-0.5-2.7-0.8 -0.5-0.1-0.9-0.3-1.4-0.4 -2.3-0.7-4.6-1.4-6.8-2.1 24.7 3.4 53.3 5.4 87.8 5.4 33 0 60.6-1.9 84.6-5 29.8 5.5 65.3 9.1 111.2 9.1 10.7 0 20.8-0.2 30.5-0.6 -1.1 0.3-2.3 0.6-3.4 0.9 -0.9 0.2-1.7 0.4-2.6 0.6 -0.7 0.2-1.4 0.3-2.1 0.5 -1.2 0.3-2.5 0.6-3.7 0.9 -0.9 0.2-1.7 0.4-2.6 0.6 -0.8 0.2-1.6 0.4-2.4 0.5 -1.2 0.3-2.4 0.5-3.5 0.8 -0.9 0.2-1.8 0.4-2.7 0.6 -1 0.2-2 0.4-2.9 0.6 -0.7 0.1-1.5 0.3-2.2 0.4 -1.5 0.3-3 0.6-4.5 0.8 -0.7 0.1-1.4 0.3-2.2 0.4 -1.3 0.2-2.6 0.4-3.9 0.7 -0.8 0.1-1.6 0.3-2.4 0.4 -1.4 0.2-2.7 0.4-4.1 0.7 -0.7 0.1-1.4 0.2-2 0.3 -1.7 0.3-3.5 0.5-5.2 0.7 -0.6 0.1-1.2 0.2-1.8 0.2 -1.5 0.2-3 0.4-4.5 0.6 -0.5 0.1-1 0.1-1.6 0.2 -1.9 0.2-3.8 0.5-5.7 0.7 -0.6 0.1-1.2 0.1-1.9 0.2 -2 0.2-4 0.4-6 0.6 -0.4 0-0.8 0.1-1.1 0.1 -1.9 0.2-3.7 0.3-5.6 0.5 -0.6 0-1.1 0.1-1.7 0.1 -2.1 0.2-4.3 0.3-6.5 0.5 -0.5 0-1.1 0.1-1.6 0.1 -2.1 0.1-4.2 0.3-6.4 0.4 -0.3 0-0.6 0-0.8 0.1 -2.3 0.1-4.7 0.3-7.1 0.4 -0.6 0-1.1 0.1-1.7 0.1 -2.4 0.1-4.9 0.2-7.3 0.3 -0.4 0-0.8 0-1.1 0 -2.3 0.1-4.6 0.1-7 0.2 -0.5 0-0.9 0-1.4 0 -2.6 0.1-5.2 0.1-7.8 0.1 -0.6 0-1.1 0-1.7 0 -2.7 0-5.5 0-8.3 0 -2.9 0-5.7 0-8.6 0C4840.6 89 4839.7 88.9 4838.9 88.9zM3222.2 88.9c-1.9 0-3.9-0.1-5.8-0.1 -1 0-1.9 0-2.9-0.1 -1.8 0-3.7-0.1-5.5-0.2 -0.9 0-1.8-0.1-2.6-0.1 -2.2-0.1-4.5-0.2-6.7-0.3 -0.4 0-0.8 0-1.1 0 -2.5-0.1-5-0.2-7.5-0.4 -0.8 0-1.5-0.1-2.2-0.1 -1.7-0.1-3.5-0.2-5.2-0.3 -0.9-0.1-1.7-0.1-2.6-0.2 -1.6-0.1-3.2-0.2-4.7-0.4 -0.8-0.1-1.7-0.1-2.5-0.2 -1.8-0.1-3.5-0.3-5.2-0.5 -0.5-0.1-1.1-0.1-1.7-0.2 -2.2-0.2-4.4-0.4-6.6-0.7 -0.7-0.1-1.3-0.1-1.9-0.2 -1.5-0.2-3.1-0.3-4.6-0.5 -0.8-0.1-1.6-0.2-2.4-0.3 -1.3-0.2-2.7-0.3-4-0.5 -0.8-0.1-1.6-0.2-2.4-0.3 -1.4-0.2-2.8-0.4-4.2-0.6 -0.6-0.1-1.3-0.2-1.9-0.3 -2-0.3-3.9-0.6-5.8-0.9 -0.6-0.1-1.2-0.2-1.8-0.3 -1.3-0.2-2.7-0.5-4-0.7 -0.8-0.1-1.5-0.3-2.3-0.4 -1.1-0.2-2.3-0.4-3.4-0.6 -0.8-0.1-1.6-0.3-2.4-0.5 -1.1-0.2-2.2-0.4-3.3-0.7 -0.7-0.1-1.4-0.3-2.2-0.4 -1.6-0.3-3.3-0.7-4.9-1 -0.7-0.2-1.4-0.3-2.1-0.5 -1.1-0.3-2.2-0.5-3.3-0.8 -0.8-0.2-1.6-0.4-2.4-0.6 -0.9-0.2-1.8-0.4-2.7-0.7 -0.8-0.2-1.6-0.4-2.4-0.6 -0.9-0.2-1.8-0.4-2.6-0.7 -0.8-0.2-1.6-0.4-2.4-0.6 -0.9-0.2-1.9-0.5-2.8-0.7 -1.3-0.3-2.6-0.7-3.9-1.1 -0.8-0.2-1.6-0.5-2.5-0.7 -0.9-0.2-1.7-0.5-2.6-0.7 -0.7-0.2-1.4-0.4-2-0.6 -0.9-0.3-1.8-0.5-2.6-0.8 -0.6-0.2-1.3-0.4-1.9-0.6 -0.9-0.3-1.8-0.5-2.7-0.8 -0.5-0.1-0.9-0.3-1.4-0.4 -2.3-0.7-4.6-1.4-6.8-2.1 24.7 3.4 53.3 5.4 87.8 5.4 33 0 60.6-1.9 84.6-5 29.8 5.5 65.3 9.1 111.2 9.1 10.7 0 20.8-0.2 30.5-0.6 -1.1 0.3-2.3 0.6-3.4 0.9 -0.9 0.2-1.7 0.4-2.6 0.6 -0.7 0.2-1.4 0.3-2.1 0.5 -1.2 0.3-2.5 0.6-3.7 0.9 -0.9 0.2-1.7 0.4-2.6 0.6 -0.8 0.2-1.6 0.4-2.4 0.5 -1.2 0.3-2.3 0.5-3.5 0.8 -0.9 0.2-1.8 0.4-2.7 0.6 -1 0.2-2 0.4-2.9 0.6 -0.7 0.1-1.5 0.3-2.2 0.4 -1.5 0.3-3 0.6-4.5 0.8 -0.7 0.1-1.4 0.3-2.2 0.4 -1.3 0.2-2.6 0.4-3.9 0.7 -0.8 0.1-1.6 0.3-2.4 0.4 -1.4 0.2-2.7 0.4-4.1 0.7 -0.7 0.1-1.4 0.2-2 0.3 -1.7 0.3-3.5 0.5-5.2 0.7 -0.6 0.1-1.2 0.2-1.8 0.2 -1.5 0.2-3 0.4-4.5 0.6 -0.5 0.1-1 0.1-1.6 0.2 -1.9 0.2-3.8 0.5-5.7 0.7 -0.6 0.1-1.2 0.1-1.9 0.2 -2 0.2-4 0.4-6 0.6 -0.4 0-0.8 0.1-1.1 0.1 -1.9 0.2-3.7 0.3-5.6 0.5 -0.6 0-1.1 0.1-1.7 0.1 -2.1 0.2-4.3 0.3-6.5 0.5 -0.5 0-1.1 0.1-1.6 0.1 -2.1 0.1-4.2 0.3-6.3 0.4 -0.3 0-0.6 0-0.8 0.1 -2.3 0.1-4.7 0.3-7.1 0.4 -0.6 0-1.1 0.1-1.7 0.1 -2.4 0.1-4.9 0.2-7.3 0.3 -0.4 0-0.8 0-1.2 0 -2.3 0.1-4.6 0.1-7 0.2 -0.5 0-0.9 0-1.4 0 -2.6 0.1-5.2 0.1-7.8 0.1 -0.6 0-1.1 0-1.7 0 -2.7 0-5.5 0-8.3 0 -2.9 0-5.7 0-8.6 0C3223.9 89 3223.1 88.9 3222.2 88.9zM4030.5 88.9c-1.9 0-3.9-0.1-5.8-0.1 -1 0-1.9 0-2.9-0.1 -1.8 0-3.7-0.1-5.5-0.2 -0.9 0-1.8-0.1-2.6-0.1 -2.2-0.1-4.5-0.2-6.7-0.3 -0.4 0-0.8 0-1.1 0 -2.5-0.1-5-0.2-7.5-0.4 -0.8 0-1.5-0.1-2.2-0.1 -1.7-0.1-3.5-0.2-5.2-0.3 -0.9-0.1-1.7-0.1-2.6-0.2 -1.6-0.1-3.1-0.2-4.7-0.4 -0.8-0.1-1.7-0.1-2.5-0.2 -1.8-0.1-3.5-0.3-5.2-0.5 -0.5-0.1-1.1-0.1-1.7-0.2 -2.2-0.2-4.4-0.4-6.6-0.7 -0.7-0.1-1.3-0.1-1.9-0.2 -1.5-0.2-3.1-0.3-4.6-0.5 -0.8-0.1-1.6-0.2-2.4-0.3 -1.3-0.2-2.7-0.3-4-0.5 -0.8-0.1-1.6-0.2-2.4-0.3 -1.4-0.2-2.8-0.4-4.2-0.6 -0.6-0.1-1.3-0.2-1.9-0.3 -2-0.3-3.9-0.6-5.8-0.9 -0.6-0.1-1.2-0.2-1.8-0.3 -1.3-0.2-2.7-0.5-4-0.7 -0.8-0.1-1.5-0.3-2.3-0.4 -1.1-0.2-2.3-0.4-3.4-0.6 -0.8-0.1-1.6-0.3-2.4-0.5 -1.1-0.2-2.2-0.4-3.3-0.7 -0.7-0.1-1.4-0.3-2.2-0.4 -1.6-0.3-3.3-0.7-4.9-1 -0.7-0.2-1.4-0.3-2.1-0.5 -1.1-0.3-2.2-0.5-3.3-0.8 -0.8-0.2-1.6-0.4-2.4-0.6 -0.9-0.2-1.8-0.4-2.7-0.7 -0.8-0.2-1.6-0.4-2.4-0.6 -0.9-0.2-1.8-0.4-2.6-0.7 -0.8-0.2-1.6-0.4-2.4-0.6 -0.9-0.2-1.9-0.5-2.8-0.7 -1.3-0.3-2.6-0.7-3.9-1.1 -0.8-0.2-1.6-0.5-2.5-0.7 -0.9-0.2-1.7-0.5-2.6-0.7 -0.7-0.2-1.4-0.4-2-0.6 -0.9-0.3-1.8-0.5-2.6-0.8 -0.6-0.2-1.3-0.4-1.9-0.6 -0.9-0.3-1.8-0.5-2.7-0.8 -0.5-0.1-0.9-0.3-1.4-0.4 -2.3-0.7-4.6-1.4-6.8-2.1 24.7 3.4 53.3 5.4 87.8 5.4 33 0 60.6-1.9 84.6-5 29.8 5.5 65.3 9.1 111.2 9.1 10.7 0 20.8-0.2 30.5-0.6 -1.1 0.3-2.3 0.6-3.4 0.9 -0.9 0.2-1.7 0.4-2.6 0.6 -0.7 0.2-1.4 0.3-2.1 0.5 -1.2 0.3-2.5 0.6-3.7 0.9 -0.9 0.2-1.7 0.4-2.6 0.6 -0.8 0.2-1.6 0.4-2.4 0.5 -1.2 0.3-2.4 0.5-3.5 0.8 -0.9 0.2-1.8 0.4-2.7 0.6 -1 0.2-2 0.4-2.9 0.6 -0.7 0.1-1.5 0.3-2.2 0.4 -1.5 0.3-3 0.6-4.5 0.8 -0.7 0.1-1.4 0.3-2.2 0.4 -1.3 0.2-2.6 0.4-3.9 0.7 -0.8 0.1-1.6 0.3-2.4 0.4 -1.4 0.2-2.7 0.4-4.1 0.7 -0.7 0.1-1.4 0.2-2 0.3 -1.7 0.3-3.5 0.5-5.2 0.7 -0.6 0.1-1.2 0.2-1.8 0.2 -1.5 0.2-3 0.4-4.5 0.6 -0.5 0.1-1 0.1-1.6 0.2 -1.9 0.2-3.8 0.5-5.7 0.7 -0.6 0.1-1.2 0.1-1.9 0.2 -2 0.2-4 0.4-6 0.6 -0.4 0-0.8 0.1-1.1 0.1 -1.9 0.2-3.7 0.3-5.6 0.5 -0.6 0-1.1 0.1-1.7 0.1 -2.1 0.2-4.3 0.3-6.5 0.5 -0.5 0-1.1 0.1-1.6 0.1 -2.1 0.1-4.2 0.3-6.3 0.4 -0.3 0-0.6 0-0.8 0.1 -2.3 0.1-4.7 0.3-7.1 0.4 -0.6 0-1.1 0.1-1.7 0.1 -2.4 0.1-4.9 0.2-7.3 0.3 -0.4 0-0.8 0-1.2 0 -2.3 0.1-4.6 0.1-7 0.2 -0.5 0-0.9 0-1.4 0 -2.6 0.1-5.2 0.1-7.8 0.1 -0.6 0-1.1 0-1.7 0 -2.7 0-5.5 0-8.3 0 -2.9 0-5.7 0-8.6 0C4032.3 89 4031.4 88.9 4030.5 88.9zM-11.1 88.9c-1.9 0-3.9-0.1-5.8-0.1 -1 0-1.9 0-2.9-0.1 -1.8 0-3.7-0.1-5.5-0.2 -0.9 0-1.8-0.1-2.6-0.1 -2.2-0.1-4.5-0.2-6.7-0.3 -0.4 0-0.8 0-1.1 0 -2.5-0.1-5-0.2-7.5-0.4 -0.8 0-1.5-0.1-2.2-0.1 -1.7-0.1-3.5-0.2-5.2-0.3 -0.9-0.1-1.7-0.1-2.6-0.2 -1.6-0.1-3.1-0.2-4.7-0.4 -0.8-0.1-1.7-0.1-2.5-0.2 -1.8-0.1-3.5-0.3-5.2-0.5 -0.5-0.1-1.1-0.1-1.7-0.2 -2.2-0.2-4.4-0.4-6.6-0.7 -0.7-0.1-1.3-0.1-1.9-0.2 -1.5-0.2-3.1-0.3-4.6-0.5 -0.8-0.1-1.6-0.2-2.4-0.3 -1.3-0.2-2.7-0.3-4-0.5 -0.8-0.1-1.6-0.2-2.4-0.3 -1.4-0.2-2.8-0.4-4.2-0.6 -0.6-0.1-1.3-0.2-1.9-0.3 -2-0.3-3.9-0.6-5.8-0.9 -0.6-0.1-1.2-0.2-1.8-0.3 -1.3-0.2-2.7-0.5-4-0.7 -0.8-0.1-1.5-0.3-2.3-0.4 -1.1-0.2-2.3-0.4-3.4-0.6 -0.8-0.1-1.6-0.3-2.4-0.5 -1.1-0.2-2.2-0.4-3.3-0.7 -0.7-0.1-1.4-0.3-2.2-0.4 -1.6-0.3-3.3-0.7-4.9-1 -0.7-0.2-1.4-0.3-2.1-0.5 -1.1-0.3-2.2-0.5-3.3-0.8 -0.8-0.2-1.6-0.4-2.4-0.6 -0.9-0.2-1.8-0.4-2.7-0.7 -0.8-0.2-1.6-0.4-2.4-0.6 -0.9-0.2-1.8-0.4-2.6-0.7 -0.8-0.2-1.6-0.4-2.4-0.6 -0.9-0.2-1.9-0.5-2.8-0.7 -1.3-0.3-2.6-0.7-3.9-1.1 -0.8-0.2-1.6-0.5-2.5-0.7 -0.9-0.2-1.7-0.5-2.6-0.7 -0.7-0.2-1.4-0.4-2-0.6 -0.9-0.3-1.8-0.5-2.6-0.8 -0.6-0.2-1.3-0.4-1.9-0.6 -0.9-0.3-1.8-0.5-2.7-0.8 -0.5-0.1-0.9-0.3-1.4-0.4 -2.3-0.7-4.6-1.4-6.8-2.1 24.7 3.4 53.3 5.4 87.8 5.4 33 0 60.6-1.9 84.6-5 29.8 5.5 65.3 9.1 111.2 9.1 10.7 0 20.8-0.2 30.5-0.6 -1.1 0.3-2.3 0.6-3.4 0.9 -0.9 0.2-1.7 0.4-2.6 0.6 -0.7 0.2-1.4 0.3-2.1 0.5 -1.2 0.3-2.5 0.6-3.7 0.9 -0.9 0.2-1.7 0.4-2.6 0.6 -0.8 0.2-1.6 0.4-2.4 0.5 -1.2 0.3-2.3 0.5-3.5 0.8 -0.9 0.2-1.8 0.4-2.7 0.6 -1 0.2-2 0.4-2.9 0.6 -0.7 0.1-1.5 0.3-2.2 0.4 -1.5 0.3-3 0.6-4.5 0.8 -0.7 0.1-1.4 0.3-2.2 0.4 -1.3 0.2-2.6 0.4-3.9 0.7 -0.8 0.1-1.6 0.3-2.4 0.4 -1.4 0.2-2.7 0.4-4.1 0.7 -0.7 0.1-1.4 0.2-2 0.3 -1.7 0.3-3.4 0.5-5.2 0.7 -0.6 0.1-1.2 0.2-1.8 0.2 -1.5 0.2-3 0.4-4.5 0.6 -0.5 0.1-1 0.1-1.6 0.2 -1.9 0.2-3.8 0.5-5.7 0.7 -0.6 0.1-1.2 0.1-1.9 0.2 -2 0.2-4 0.4-6 0.6 -0.4 0-0.8 0.1-1.1 0.1 -1.9 0.2-3.7 0.3-5.6 0.5 -0.6 0-1.1 0.1-1.7 0.1 -2.1 0.2-4.3 0.3-6.5 0.5 -0.5 0-1.1 0.1-1.6 0.1 -2.1 0.1-4.2 0.3-6.3 0.4 -0.3 0-0.6 0-0.8 0.1 -2.3 0.1-4.7 0.3-7.1 0.4 -0.6 0-1.1 0.1-1.7 0.1 -2.4 0.1-4.9 0.2-7.3 0.3 -0.4 0-0.8 0-1.1 0 -2.3 0.1-4.6 0.1-7 0.2 -0.5 0-0.9 0-1.4 0 -2.6 0.1-5.2 0.1-7.8 0.1 -0.6 0-1.1 0-1.7 0 -2.7 0-5.5 0-8.3 0 -2.9 0-5.7 0-8.6 0C-9.4 89-10.3 88.9-11.1 88.9zM797.2 88.9c-1.9 0-3.9-0.1-5.8-0.1 -1 0-1.9 0-2.9-0.1 -1.8 0-3.7-0.1-5.5-0.2 -0.9 0-1.8-0.1-2.6-0.1 -2.2-0.1-4.5-0.2-6.7-0.3 -0.4 0-0.8 0-1.1 0 -2.5-0.1-5-0.2-7.5-0.4 -0.8 0-1.5-0.1-2.2-0.1 -1.7-0.1-3.5-0.2-5.2-0.3 -0.9-0.1-1.7-0.1-2.6-0.2 -1.6-0.1-3.1-0.2-4.7-0.4 -0.8-0.1-1.7-0.1-2.5-0.2 -1.8-0.1-3.5-0.3-5.2-0.5 -0.5-0.1-1.1-0.1-1.7-0.2 -2.2-0.2-4.4-0.4-6.6-0.7 -0.7-0.1-1.3-0.1-1.9-0.2 -1.5-0.2-3.1-0.3-4.6-0.5 -0.8-0.1-1.6-0.2-2.4-0.3 -1.3-0.2-2.7-0.3-4-0.5 -0.8-0.1-1.6-0.2-2.4-0.3 -1.4-0.2-2.8-0.4-4.2-0.6 -0.6-0.1-1.3-0.2-1.9-0.3 -2-0.3-3.9-0.6-5.8-0.9 -0.6-0.1-1.2-0.2-1.8-0.3 -1.3-0.2-2.7-0.5-4-0.7 -0.8-0.1-1.5-0.3-2.3-0.4 -1.1-0.2-2.3-0.4-3.4-0.6 -0.8-0.1-1.6-0.3-2.4-0.5 -1.1-0.2-2.2-0.4-3.3-0.7 -0.7-0.1-1.4-0.3-2.2-0.4 -1.6-0.3-3.3-0.7-4.9-1 -0.7-0.2-1.4-0.3-2.1-0.5 -1.1-0.3-2.2-0.5-3.3-0.8 -0.8-0.2-1.6-0.4-2.4-0.6 -0.9-0.2-1.8-0.4-2.7-0.7 -0.8-0.2-1.6-0.4-2.4-0.6 -0.9-0.2-1.8-0.4-2.6-0.7 -0.8-0.2-1.6-0.4-2.4-0.6 -0.9-0.2-1.9-0.5-2.8-0.7 -1.3-0.3-2.6-0.7-3.9-1.1 -0.8-0.2-1.6-0.5-2.5-0.7 -0.9-0.2-1.7-0.5-2.6-0.7 -0.7-0.2-1.4-0.4-2-0.6 -0.9-0.3-1.8-0.5-2.6-0.8 -0.6-0.2-1.3-0.4-1.9-0.6 -0.9-0.3-1.8-0.5-2.7-0.8 -0.5-0.1-0.9-0.3-1.4-0.4 -2.3-0.7-4.6-1.4-6.8-2.1 24.7 3.4 53.3 5.4 87.8 5.4 33 0 60.6-1.9 84.6-5 29.8 5.5 65.3 9.1 111.2 9.1 10.7 0 20.8-0.2 30.5-0.6 -1.1 0.3-2.3 0.6-3.4 0.9 -0.9 0.2-1.7 0.4-2.6 0.6 -0.7 0.2-1.4 0.3-2.1 0.5 -1.2 0.3-2.5 0.6-3.7 0.9 -0.9 0.2-1.7 0.4-2.6 0.6 -0.8 0.2-1.6 0.4-2.4 0.5 -1.2 0.3-2.3 0.5-3.5 0.8 -0.9 0.2-1.8 0.4-2.7 0.6 -1 0.2-2 0.4-2.9 0.6 -0.7 0.1-1.5 0.3-2.2 0.4 -1.5 0.3-3 0.6-4.5 0.8 -0.7 0.1-1.4 0.3-2.2 0.4 -1.3 0.2-2.6 0.4-3.9 0.7 -0.8 0.1-1.6 0.3-2.4 0.4 -1.4 0.2-2.7 0.4-4.1 0.7 -0.7 0.1-1.4 0.2-2 0.3 -1.7 0.3-3.5 0.5-5.2 0.7 -0.6 0.1-1.2 0.2-1.8 0.2 -1.5 0.2-3 0.4-4.5 0.6 -0.5 0.1-1 0.1-1.6 0.2 -1.9 0.2-3.8 0.5-5.7 0.7 -0.6 0.1-1.2 0.1-1.9 0.2 -2 0.2-4 0.4-6 0.6 -0.4 0-0.8 0.1-1.1 0.1 -1.9 0.2-3.7 0.3-5.6 0.5 -0.6 0-1.1 0.1-1.7 0.1 -2.1 0.2-4.3 0.3-6.5 0.5 -0.5 0-1.1 0.1-1.6 0.1 -2.1 0.1-4.2 0.3-6.3 0.4 -0.3 0-0.6 0-0.8 0.1 -2.3 0.1-4.7 0.3-7.1 0.4 -0.6 0-1.1 0.1-1.7 0.1 -2.4 0.1-4.9 0.2-7.3 0.3 -0.4 0-0.8 0-1.1 0 -2.3 0.1-4.6 0.1-7 0.2 -0.5 0-0.9 0-1.4 0 -2.6 0.1-5.2 0.1-7.8 0.1 -0.6 0-1.1 0-1.7 0 -2.7 0-5.5 0-8.3 0 -2.9 0-5.7 0-8.6 0C798.9 89 798.1 88.9 797.2 88.9zM1605.5 88.9c-1.9 0-3.9-0.1-5.8-0.1 -1 0-1.9 0-2.9-0.1 -1.8 0-3.7-0.1-5.5-0.2 -0.9 0-1.8-0.1-2.6-0.1 -2.2-0.1-4.5-0.2-6.7-0.3 -0.4 0-0.8 0-1.1 0 -2.5-0.1-5-0.2-7.5-0.4 -0.8 0-1.5-0.1-2.2-0.1 -1.7-0.1-3.5-0.2-5.2-0.3 -0.9-0.1-1.7-0.1-2.6-0.2 -1.6-0.1-3.1-0.2-4.7-0.4 -0.8-0.1-1.7-0.1-2.5-0.2 -1.8-0.1-3.5-0.3-5.2-0.5 -0.6-0.1-1.1-0.1-1.7-0.2 -2.2-0.2-4.4-0.4-6.6-0.7 -0.7-0.1-1.3-0.1-1.9-0.2 -1.5-0.2-3.1-0.3-4.6-0.5 -0.8-0.1-1.6-0.2-2.4-0.3 -1.3-0.2-2.7-0.3-4-0.5 -0.8-0.1-1.6-0.2-2.4-0.3 -1.4-0.2-2.8-0.4-4.2-0.6 -0.6-0.1-1.3-0.2-1.9-0.3 -1.9-0.3-3.9-0.6-5.8-0.9 -0.6-0.1-1.2-0.2-1.8-0.3 -1.3-0.2-2.7-0.5-4-0.7 -0.8-0.1-1.5-0.3-2.3-0.4 -1.1-0.2-2.3-0.4-3.4-0.6 -0.8-0.1-1.6-0.3-2.4-0.5 -1.1-0.2-2.2-0.4-3.3-0.7 -0.7-0.1-1.4-0.3-2.2-0.4 -1.6-0.3-3.3-0.7-4.9-1 -0.7-0.2-1.4-0.3-2.1-0.5 -1.1-0.3-2.2-0.5-3.3-0.8 -0.8-0.2-1.6-0.4-2.4-0.6 -0.9-0.2-1.8-0.4-2.7-0.7 -0.8-0.2-1.6-0.4-2.4-0.6 -0.9-0.2-1.8-0.4-2.6-0.7 -0.8-0.2-1.6-0.4-2.4-0.6 -0.9-0.2-1.9-0.5-2.8-0.7 -1.3-0.3-2.6-0.7-3.9-1.1 -0.8-0.2-1.6-0.5-2.5-0.7 -0.9-0.2-1.7-0.5-2.6-0.7 -0.7-0.2-1.4-0.4-2-0.6 -0.9-0.3-1.8-0.5-2.6-0.8 -0.6-0.2-1.3-0.4-1.9-0.6 -0.9-0.3-1.8-0.5-2.7-0.8 -0.5-0.1-0.9-0.3-1.4-0.4 -2.3-0.7-4.6-1.4-6.8-2.1 24.7 3.4 53.3 5.4 87.8 5.4 33 0 60.6-1.9 84.6-5 29.8 5.5 65.3 9.1 111.2 9.1 10.7 0 20.8-0.2 30.5-0.6 -1.1 0.3-2.3 0.6-3.4 0.9 -0.9 0.2-1.7 0.4-2.6 0.6 -0.7 0.2-1.4 0.3-2.1 0.5 -1.2 0.3-2.5 0.6-3.7 0.9 -0.9 0.2-1.7 0.4-2.6 0.6 -0.8 0.2-1.6 0.4-2.4 0.5 -1.2 0.3-2.3 0.5-3.5 0.8 -0.9 0.2-1.8 0.4-2.7 0.6 -1 0.2-2 0.4-2.9 0.6 -0.7 0.1-1.5 0.3-2.2 0.4 -1.5 0.3-3 0.6-4.5 0.8 -0.7 0.1-1.4 0.3-2.2 0.4 -1.3 0.2-2.6 0.4-3.9 0.7 -0.8 0.1-1.6 0.3-2.4 0.4 -1.4 0.2-2.7 0.4-4.1 0.7 -0.7 0.1-1.4 0.2-2 0.3 -1.7 0.3-3.4 0.5-5.2 0.7 -0.6 0.1-1.2 0.2-1.8 0.2 -1.5 0.2-3 0.4-4.5 0.6 -0.5 0.1-1 0.1-1.6 0.2 -1.9 0.2-3.8 0.5-5.7 0.7 -0.6 0.1-1.2 0.1-1.9 0.2 -2 0.2-4 0.4-6 0.6 -0.4 0-0.8 0.1-1.1 0.1 -1.9 0.2-3.7 0.3-5.6 0.5 -0.6 0-1.1 0.1-1.7 0.1 -2.1 0.2-4.3 0.3-6.5 0.5 -0.5 0-1.1 0.1-1.6 0.1 -2.1 0.1-4.2 0.3-6.3 0.4 -0.3 0-0.6 0-0.8 0.1 -2.3 0.1-4.7 0.3-7.1 0.4 -0.6 0-1.1 0.1-1.7 0.1 -2.4 0.1-4.9 0.2-7.3 0.3 -0.4 0-0.8 0-1.1 0 -2.3 0.1-4.6 0.1-7 0.2 -0.5 0-0.9 0-1.4 0 -2.6 0.1-5.2 0.1-7.8 0.1 -0.6 0-1.1 0-1.7 0 -2.7 0-5.5 0-8.3 0 -2.9 0-5.7 0-8.6 0C1607.3 89 1606.4 88.9 1605.5 88.9z"/><path class="st1" d="M2047.3 9.3c24-3.1 51.6-5 84.6-5 156.2 0 191.7 41.5 293 60.3 -24 3.1-51.6 5-84.6 5 -34.5 0-63.1-2-87.8-5.4 -44.6-14.2-82.1-30.9-143.8-39.2C2090.2 19 2070.5 13.6 2047.3 9.3zM4472.3 9.3c24-3.1 51.6-5 84.7-5 156.2 0 191.7 41.5 293 60.3 -24 3.1-51.6 5-84.6 5 -34.5 0-63.1-2-87.8-5.4 -44.6-14.2-82.1-30.9-143.8-39.2C4515.2 19 4495.5 13.6 4472.3 9.3zM2855.7 9.3c24-3.1 51.6-5 84.6-5 156.2 0 191.7 41.5 293 60.3 -24 3.1-51.6 5-84.6 5 -34.5 0-63.1-2-87.8-5.4 -44.6-14.2-82.1-30.9-143.8-39.2C2898.5 19 2878.8 13.6 2855.7 9.3zM3664 9.3c24-3.1 51.6-5 84.6-5 156.2 0 191.7 41.5 293 60.3 -24 3.1-51.6 5-84.6 5 -34.5 0-63.1-2-87.8-5.4 -44.6-14.2-82.1-30.9-143.8-39.2C3706.9 19 3687.2 13.6 3664 9.3zM430.7 9.3c24-3.1 51.6-5 84.6-5 156.2 0 191.7 41.5 293 60.3 -24 3.1-51.6 5-84.6 5 -34.5 0-63.1-2-87.8-5.4C591.2 50 553.7 33.3 492 24.9 473.5 19 453.8 13.6 430.7 9.3zM1239 9.3c24-3.1 51.6-5 84.6-5 156.2 0 191.7 41.5 293 60.3 -24 3.1-51.6 5-84.6 5 -34.5 0-63.1-2-87.8-5.4 -44.6-14.2-82.2-30.9-143.8-39.2C1281.9 19 1262.2 13.6 1239 9.3z"/><path class="st0" d="M2047.3 9.3c23.1 4.3 42.9 9.8 61.4 15.7 -12.4-1.7-25.7-3-40.2-3.9 -0.1 0-0.2 0-0.3 0 -1.6-0.1-3.3-0.2-5-0.3 -0.4 0-0.8 0-1.1-0.1 -1.4-0.1-2.8-0.1-4.2-0.2 -0.5 0-1 0-1.6-0.1 -1.3-0.1-2.6-0.1-3.9-0.2 -0.6 0-1.2 0-1.8-0.1 -1.3 0-2.5-0.1-3.8-0.1 -0.7 0-1.3 0-2-0.1 -1.2 0-2.5-0.1-3.7-0.1 -0.7 0-1.4 0-2.1-0.1 -1.3 0-2.6-0.1-3.9-0.1 -0.7 0-1.4 0-2.1 0 -1.4 0-2.8 0-4.2 0 -0.6 0-1.2 0-1.8 0 -2 0-4.1 0-6.1 0h0c-2.5 0-5.1 0-7.5 0 -0.4 0-0.8 0-1.1 0 -2.3 0-4.6 0.1-6.9 0.1h0c-5.1 0.1-10 0.2-14.8 0.4C2007.4 15.8 2025.9 12 2047.3 9.3zM4472.3 9.3c23.1 4.3 42.9 9.8 61.4 15.7 -12.4-1.7-25.7-3-40.2-3.9 -0.1 0-0.2 0-0.3 0 -1.6-0.1-3.3-0.2-5-0.3 -0.4 0-0.8 0-1.1-0.1 -1.4-0.1-2.8-0.1-4.2-0.2 -0.5 0-1 0-1.6-0.1 -1.3-0.1-2.6-0.1-3.9-0.2 -0.6 0-1.2 0-1.8-0.1 -1.3 0-2.5-0.1-3.8-0.1 -0.7 0-1.3 0-2-0.1 -1.2 0-2.5-0.1-3.7-0.1 -0.7 0-1.4 0-2.1-0.1 -1.3 0-2.6-0.1-3.9-0.1 -0.7 0-1.4 0-2.1 0 -1.4 0-2.8 0-4.2 0 -0.6 0-1.2 0-1.8 0 -2 0-4.1 0-6.1 0h0c-2.5 0-5.1 0-7.5 0 -0.4 0-0.8 0-1.1 0 -2.3 0-4.6 0.1-6.9 0.1h0c-5.1 0.1-10 0.2-14.8 0.4C4432.4 15.8 4450.9 12 4472.3 9.3zM2855.7 9.3c23.1 4.3 42.9 9.8 61.4 15.7 -12.4-1.7-25.7-3-40.2-3.9 -0.1 0-0.2 0-0.3 0 -1.6-0.1-3.3-0.2-5-0.3 -0.4 0-0.8 0-1.1-0.1 -1.4-0.1-2.8-0.1-4.2-0.2 -0.5 0-1 0-1.6-0.1 -1.3-0.1-2.6-0.1-3.9-0.2 -0.6 0-1.2 0-1.8-0.1 -1.3 0-2.5-0.1-3.8-0.1 -0.7 0-1.3 0-2-0.1 -1.2 0-2.5-0.1-3.7-0.1 -0.7 0-1.4 0-2.1-0.1 -1.3 0-2.6-0.1-3.9-0.1 -0.7 0-1.4 0-2.1 0 -1.4 0-2.8 0-4.2 0 -0.6 0-1.2 0-1.8 0 -2 0-4.1 0-6.1 0h0c-2.5 0-5.1 0-7.5 0 -0.4 0-0.8 0-1.1 0 -2.3 0-4.6 0.1-6.9 0.1h0c-5.1 0.1-10 0.2-14.8 0.4C2815.7 15.8 2834.2 12 2855.7 9.3zM3664 9.3c23.1 4.3 42.9 9.8 61.4 15.7 -12.4-1.7-25.7-3-40.2-3.9 -0.1 0-0.2 0-0.3 0 -1.6-0.1-3.3-0.2-5-0.3 -0.4 0-0.8 0-1.1-0.1 -1.4-0.1-2.8-0.1-4.2-0.2 -0.5 0-1 0-1.6-0.1 -1.3-0.1-2.6-0.1-3.9-0.2 -0.6 0-1.2 0-1.8-0.1 -1.3 0-2.5-0.1-3.8-0.1 -0.7 0-1.3 0-2-0.1 -1.2 0-2.5-0.1-3.7-0.1 -0.7 0-1.4 0-2.1-0.1 -1.3 0-2.6-0.1-3.9-0.1 -0.7 0-1.4 0-2.1 0 -1.4 0-2.8 0-4.2 0 -0.6 0-1.2 0-1.8 0 -2 0-4.1 0-6.1 0h0c-2.5 0-5.1 0-7.5 0 -0.4 0-0.8 0-1.1 0 -2.3 0-4.6 0.1-6.9 0.1h0c-5.1 0.1-10 0.2-14.8 0.4C3624 15.8 3642.6 12 3664 9.3zM430.7 9.3c23.1 4.3 42.9 9.8 61.4 15.7 -12.4-1.7-25.7-3-40.2-3.9 -0.1 0-0.2 0-0.3 0 -1.6-0.1-3.3-0.2-5-0.3 -0.4 0-0.8 0-1.1-0.1 -1.4-0.1-2.8-0.1-4.2-0.2 -0.5 0-1 0-1.6-0.1 -1.3-0.1-2.6-0.1-3.9-0.2 -0.6 0-1.2 0-1.8-0.1 -1.3 0-2.5-0.1-3.8-0.1 -0.7 0-1.3 0-2-0.1 -1.2 0-2.5-0.1-3.7-0.1 -0.7 0-1.4 0-2.1-0.1 -1.3 0-2.6-0.1-3.9-0.1 -0.7 0-1.4 0-2.1 0 -1.4 0-2.8 0-4.2 0 -0.6 0-1.2 0-1.8 0 -2 0-4.1 0-6.1 0h0c-2.5 0-5.1 0-7.5 0 -0.4 0-0.8 0-1.1 0 -2.3 0-4.6 0.1-6.9 0.1h0c-5.1 0.1-10 0.2-14.8 0.4C390.7 15.8 409.2 12 430.7 9.3zM1239 9.3c23.1 4.3 42.9 9.8 61.4 15.7 -12.4-1.7-25.7-3-40.2-3.9 -0.1 0-0.2 0-0.3 0 -1.7-0.1-3.3-0.2-5-0.3 -0.4 0-0.8 0-1.1-0.1 -1.4-0.1-2.8-0.1-4.2-0.2 -0.5 0-1 0-1.6-0.1 -1.3-0.1-2.6-0.1-3.9-0.2 -0.6 0-1.2 0-1.8-0.1 -1.3 0-2.5-0.1-3.8-0.1 -0.7 0-1.3 0-2-0.1 -1.2 0-2.5-0.1-3.7-0.1 -0.7 0-1.4 0-2.1-0.1 -1.3 0-2.6-0.1-3.9-0.1 -0.7 0-1.4 0-2.1 0 -1.4 0-2.8 0-4.2 0 -0.6 0-1.2 0-1.8 0 -2 0-4.1 0-6.1 0h0c-2.5 0-5.1 0-7.5 0 -0.4 0-0.8 0-1.1 0 -2.3 0-4.6 0.1-6.9 0.1h0c-5.1 0.1-10 0.2-14.8 0.4C1199 15.8 1217.6 12 1239 9.3z"/><path class="st2" d="M2744.5 0.1c45.9 0 81.4 3.6 111.2 9.1 -21.4 2.8-40 6.5-56.9 10.9h0c-115.9 4.4-158.4 34.1-232.2 53 -9.6 0.4-19.8 0.6-30.5 0.6 -45.9 0-81.4-3.6-111.2-9.1C2547.8 48.7 2575.4 0.1 2744.5 0.1zM5169.5 0.1c45.9 0 81.4 3.6 111.2 9.1 -21.4 2.8-40 6.5-56.9 10.9h0c-115.9 4.4-158.4 34.1-232.2 53 -9.6 0.4-19.8 0.6-30.5 0.6 -45.9 0-81.4-3.6-111.2-9.1C4972.8 48.7 5000.4 0.1 5169.5 0.1zM3552.8 0.1c45.9 0 81.4 3.6 111.2 9.1 -21.4 2.8-40 6.5-56.9 10.9h0c-115.9 4.4-158.4 34.1-232.2 53 -9.6 0.4-19.8 0.6-30.5 0.6 -45.9 0-81.4-3.6-111.2-9.1C3356.1 48.7 3383.8 0.1 3552.8 0.1zM4472.3 9.3c-21.4 2.8-40 6.5-56.9 10.9 -115.9 4.4-158.4 34.1-232.2 53 -9.6 0.4-19.8 0.6-30.5 0.6 -45.9 0-81.4-3.6-111.2-9.1 122.8-15.9 150.5-64.5 319.5-64.5C4407.1 0.1 4442.6 3.7 4472.3 9.3zM319.5 0.1c45.9 0 81.4 3.6 111.2 9.1 -21.4 2.8-40 6.5-56.9 10.9h0c-115.9 4.4-158.4 34.1-232.2 53 -9.6 0.4-19.8 0.6-30.5 0.6 -45.9 0-81.4-3.6-111.2-9.1C122.8 48.7 150.4 0.1 319.5 0.1zM1127.8 0.1c45.9 0 81.4 3.6 111.2 9.1 -21.4 2.8-40 6.5-56.9 10.9h0c-115.9 4.4-158.4 34.1-232.2 53 -9.6 0.4-19.8 0.6-30.5 0.6 -45.9 0-81.4-3.6-111.2-9.1C931.1 48.7 958.8 0.1 1127.8 0.1zM2047.3 9.3c-21.4 2.8-40 6.5-56.9 10.9 -115.9 4.4-158.4 34.1-232.2 53 -9.6 0.4-19.8 0.6-30.5 0.6 -45.9 0-81.4-3.6-111.2-9.1 122.8-15.9 150.5-64.5 319.5-64.5C1982.1 0.1 2017.6 3.7 2047.3 9.3z"/><path class="st3" d="M3233.4 89c202.1 0 202.1-69.4 404.2-69.4 202.1 0 202.1 69.4 404.2 69.4 202.1 0 202.1-69.4 404.2-69.4C4648 19.6 4648 89 4850 89c202.1 0 202.1-69.4 404.2-69.4l0.7 71.6H0V89c202.1 0 202.1-69.4 404.2-69.4C606.3 19.6 606.3 89 808.4 89c202.1 0 202.1-69.4 404.2-69.4 202.1 0 202.1 69.4 404.2 69.4 202.1 0 202.1-69.4 404.2-69.4C2223 19.6 2223 89 2425 89s202.1-69.4 404.2-69.4C3031.3 19.7 3031.5 89 3233.4 89z"/></svg>