<?xml version="1.0" encoding="utf-8"?>
<!-- Generator: Adobe Illustrator 21.1.0, SVG Export Plug-In . SVG Version: 6.00 Build 0)  -->
<svg version="1.1" id="Слой_1" xmlns="http://www.w3.org/2000/svg" xmlns:xlink="http://www.w3.org/1999/xlink" x="0px" y="0px"
	 viewBox="0 0 233 43" style="enable-background:new 0 0 233 43;" xml:space="preserve">
<style type="text/css">
	.st0{fill:#009CD8;}
	.st1{fill-rule:evenodd;clip-rule:evenodd;fill:#009CD8;}
	.st2{fill-rule:evenodd;clip-rule:evenodd;fill:#FFFFFF;}
</style>
<g>
	<g>
		<path class="st0" d="M62.9,27.1l0.4,1.7c-1.2,0.4-2.9,0.9-5.2,1.4c-2.3,0.5-4,0.8-5.1,0.8c-1.1,0-2.1-0.4-3-1.1
			c-0.8-0.8-1.5-1.7-1.9-2.9c-0.4-1.2-0.7-2.3-0.9-3.5c-0.2-1.1-0.3-2.3-0.3-3.4c0-6.6,3-9.9,9-9.9c1.4,0,2.7,0.5,3.8,1.4
			c1.1,0.9,1.6,2.1,1.6,3.5c0,0.8-0.2,1.5-0.7,2.1c-0.4,0.6-1,1.1-1.6,1.4c-0.6,0.4-1.4,0.7-2.4,1c-1,0.3-1.8,0.5-2.6,0.6
			c-0.7,0.1-1.6,0.3-2.7,0.4c-1,0.2-1.7,0.3-2.1,0.4c0,0.8,0.1,1.4,0.1,2c0.1,0.6,0.2,1.2,0.4,1.9c0.2,0.7,0.5,1.2,0.8,1.7
			c0.3,0.4,0.8,0.8,1.4,1.1c0.6,0.3,1.3,0.4,2.1,0.4c1,0,2.1-0.1,3.5-0.3c1.4-0.2,2.6-0.3,3.7-0.5C62.2,27.2,62.8,27.1,62.9,27.1z
			 M49.4,18.6c3.6-1,6.5-2.1,8.8-3.2c-0.2-0.9-0.4-1.5-0.8-1.9c-0.3-0.4-0.8-0.6-1.4-0.6c-1.6,0-3.1,0.6-4.4,1.7
			C50.4,15.6,49.6,17,49.4,18.6z"/>
		<path class="st0" d="M64.3,28.7l0.6-2.2c2.3,1.2,4.6,1.9,6.8,1.9c1.6,0,2.9-0.3,4.1-1c1.1-0.6,1.7-1.7,1.7-3.2
			c0-1.3-0.5-2.5-1.4-3.6c-1-1.1-2.1-2-3.4-2.8c-1.3-0.8-2.7-1.7-4-2.5c-1.3-0.9-2.5-1.9-3.4-3.2c-1-1.3-1.4-2.6-1.4-4.2
			c0-1.9,0.7-3.6,2-5.1c1.3-1.5,3-2.3,4.9-2.3c1.5,0,3.1,0.3,4.9,0.9c1.8,0.6,3.3,1.2,4.5,1.7l-0.5,1.6c-3-1-5.5-1.5-7.6-1.5
			c-1.3,0-2.4,0.4-3.2,1.2c-0.9,0.8-1.3,1.9-1.3,3.2c0,1,0.3,1.9,0.8,2.7c0.5,0.8,1.2,1.5,2,2.1c0.8,0.6,1.7,1.1,2.7,1.7
			s2,1.1,3,1.8c1,0.6,1.9,1.3,2.7,2.1c0.8,0.7,1.5,1.7,2,2.8c0.5,1.1,0.8,2.4,0.8,3.8c0,2-0.6,3.6-1.9,4.9c-1.3,1.3-2.9,1.9-5,1.9
			c-1.7,0-3.6-0.2-5.6-0.7C66.5,29.9,65.1,29.3,64.3,28.7z"/>
		<path class="st0" d="M83.4,10.1l2.2,0.4c0,0.6,0,1,0,1.2c1.5-0.9,2.9-1.4,4.4-1.4c2.4,0,4.3,1,5.6,3.1c1.3,2.1,2,4.4,2,7
			c0,1.3-0.1,2.6-0.3,3.8c-0.2,1.2-0.5,2.4-1.1,3.7c-0.5,1.3-1.3,2.3-2.3,3c-1,0.8-2.3,1.1-3.8,1.1c-1.4,0-2.7-0.4-4-1.1
			c0.1,4.6,0.2,8.1,0.3,10.3c-0.2,0.8-0.7,1.2-1.4,1.2c-0.5,0-0.9-0.2-1.4-0.6c-0.4-0.4-0.7-0.9-0.8-1.4L83.4,10.1z M86,14.3
			l0.1,12.8c0.3,0.6,0.8,1.1,1.5,1.5c0.7,0.4,1.4,0.6,2.2,0.6c1,0,1.9-0.3,2.6-1c0.7-0.7,1.2-1.5,1.5-2.6c0.3-1.1,0.5-2.1,0.6-3.1
			c0.1-0.9,0.2-2,0.2-3c0-4.5-1.5-6.7-4.6-6.7c-1,0-1.9,0.1-2.7,0.4C86.6,13.5,86.1,13.9,86,14.3z"/>
		<path class="st0" d="M112.7,11l1.9,0.4v0.4c0,1.8,0.1,4.8,0.3,9.1c0.2,4.3,0.4,7.6,0.6,9.9c-0.5,0.2-1,0.3-1.5,0.3
			c-0.4,0-0.9-0.1-1.4-0.2l-0.3-1c-1.7,1-3.3,1.4-4.8,1.4c-1.1,0-2.1-0.3-3-0.8c-0.8-0.5-1.5-1.2-1.9-2c-0.4-0.8-0.8-1.7-1.1-2.9
			c-0.3-1.1-0.4-2.2-0.5-3.1c-0.1-0.9-0.1-2-0.1-3.2c0-3.4,0.2-6.5,0.6-9.3l1.8,0.4c0.2,0.9,0.3,1.8,0.3,2.9c0,0.6,0,1.6-0.1,3
			c-0.1,1.4-0.1,2.5-0.1,3.2c0,1.3,0.1,2.4,0.2,3.3c0.1,0.9,0.3,1.8,0.7,2.7c0.3,0.9,0.8,1.6,1.5,2c0.7,0.5,1.5,0.7,2.6,0.7
			c1.2,0,2.4-0.3,3.8-0.8c0.1-1,0.1-3.5,0.2-7.5C112.4,16.1,112.5,13.1,112.7,11z"/>
		<path class="st0" d="M129.6,11.8l0.4,1.8c-0.7,0.1-1.8,0.2-3.3,0.4c-1.5,0.2-2.6,0.4-3.3,0.4c0.1,0.9,0.2,2.1,0.2,3.6
			c0,1.5,0.1,2.8,0.1,3.9c0,1.1,0.2,2.2,0.4,3.3c0.2,1.1,0.6,1.9,1.2,2.5c0.6,0.6,1.5,0.9,2.5,0.9c0.8,0,1.8-0.2,3-0.6
			c0.5,1,0.9,1.7,1.1,2.1c-2.1,0.7-4.2,1.1-6.3,1.1c-0.8,0-1.5-0.2-2.1-0.7c-0.6-0.5-1-1.1-1.3-1.8c-0.3-0.7-0.6-1.6-0.8-2.7
			c-0.2-1.1-0.3-2.1-0.4-3.1c-0.1-1-0.1-2.1-0.1-3.4c0-0.7,0-1.6,0-2.9c0-1.2,0-2,0-2.5c-0.3,0-0.9,0-1.9,0.1c-1,0-1.5,0-1.7,0
			c-0.2-1.8-0.3-2.7-0.3-2.7c0.2,0.1,0.5,0.1,0.9,0.1c0.2,0,0.6,0,1.1-0.1c0.5,0,0.9-0.1,1.2-0.1c0.1,0,0.2,0,0.4,0
			c0.2,0,0.3,0,0.3,0c0.1-2.9,0.2-5.3,0.4-7.1l1.8,0.4c0,0.6,0,1.3,0.1,2c0,0.7,0,1.5,0,2.4c0,0.9,0,1.6,0,2
			c0.7,0.1,1.7,0.1,3.1,0.2C127.9,11.6,128.9,11.7,129.6,11.8z"/>
		<path class="st0" d="M136.2,15l0.2,15.7c-0.4,0.2-0.9,0.3-1.4,0.3c-0.4,0-0.9-0.1-1.4-0.2c0.1-1.7,0.1-4.9,0.2-9.8
			c0-4.9,0.1-8.5,0.3-10.9l1.8,0.4l0.1,2.2c1.4-1.5,3-2.2,4.8-2.2c0.9,0,1.7,0.1,2.2,0.2c0.6,0.1,1.1,0.5,1.6,1
			c0.5,0.5,0.9,1.2,1.2,2c0.3,0.8,0.5,2.1,0.7,3.6c0.2,1.6,0.4,3.4,0.5,5.5c0.1,2.1,0.2,4.7,0.2,7.9c-0.2,0.1-0.5,0.1-0.9,0.1
			c-1,0-1.7-0.1-2.2-0.4c-0.1-0.4-0.2-1.1-0.2-2.1c0-0.5,0-1.4,0.1-2.8c0-1.4,0.1-2.5,0.1-3.2c0-1.3,0-2.4-0.1-3.3
			c-0.1-1-0.3-1.9-0.5-2.8c-0.3-0.9-0.6-1.6-1.1-2.1c-0.5-0.5-1.2-0.8-1.9-0.8c-0.9,0-1.6,0.1-2,0.2c-0.5,0.1-0.8,0.3-1,0.5
			C136.9,14.2,136.6,14.6,136.2,15z"/>
		<path class="st0" d="M151.7,3.5c0.7,0,1.3,0.3,1.8,0.9c0.5,0.6,0.7,1.3,0.7,2.1c0,0.6-0.1,1.1-0.4,1.4c-0.3,0.4-0.7,0.5-1.1,0.5
			c-0.7,0-1.3-0.3-1.7-0.9c-0.4-0.6-0.6-1.3-0.6-2.1c0-0.6,0.1-1.1,0.4-1.4C150.9,3.7,151.2,3.5,151.7,3.5z M151.1,10.6L153,11
			c0.2,2.2,0.4,5.6,0.6,10.2c0.2,4.6,0.3,7.5,0.3,8.6c-0.2,0.8-0.7,1.2-1.4,1.2c-0.5,0-0.9-0.2-1.4-0.6c-0.4-0.4-0.7-0.9-0.8-1.4
			c0.1-1.1,0.2-3.9,0.3-8.5S150.9,12.7,151.1,10.6z"/>
		<path class="st0" d="M171.9,30.9l-3.7-0.1c-1-1-2.3-2.6-4-4.7c-1.7-2.2-2.8-3.5-3.2-4v8.2c-0.2,0.8-0.7,1.2-1.4,1.2
			c-0.5,0-0.9-0.2-1.4-0.6c-0.4-0.4-0.7-0.9-0.8-1.4c0.1-2.7,0.1-7.2,0.1-13.6c0-6.3,0.1-10.8,0.2-13.6l2.4,0.5
			c0,1.1,0.1,3.2,0.1,6.5c0.1,3.3,0.1,5.7,0.2,7.3l9.7-7.1l0.7,1.8c-2.5,1.8-5.5,4.4-8.9,7.7c0.7,0.8,2.3,2.6,4.8,5.6
			C169.1,27.7,170.8,29.8,171.9,30.9z"/>
		<path class="st0" d="M174.1,26c0.7,0,1.3,0.3,1.8,0.9c0.5,0.6,0.7,1.3,0.7,2.1c0,0.6-0.1,1.1-0.4,1.4c-0.3,0.4-0.7,0.5-1.1,0.5
			c-0.7,0-1.3-0.3-1.8-0.9c-0.4-0.6-0.7-1.3-0.7-2.1c0-0.6,0.1-1.1,0.4-1.4C173.3,26.2,173.6,26,174.1,26z"/>
		<path class="st0" d="M192.4,11.3l-0.2,1.7c-1.1-0.2-2.1-0.2-2.9-0.2c-1.8,0-3.3,0.5-4.5,1.6c-1.2,1.1-2,2.4-2.4,3.9
			c-0.4,1.5-0.7,3.2-0.7,5c0,0.8,0.1,1.6,0.2,2.3c0.1,0.7,0.3,1.3,0.6,1.9c0.3,0.6,0.7,1.1,1.3,1.5c0.6,0.4,1.3,0.5,2.2,0.5
			c1.2,0,2.6-0.2,4.4-0.7c0.6-0.2,1-0.3,1.3-0.3c0.6,0,1,0.7,1.1,2.2c-2.3,0.7-4.5,1.1-6.5,1.1c-2.9,0-4.8-0.7-5.8-2.1
			c-1-1.4-1.5-3.7-1.5-6.9c0-1.8,0.1-3.5,0.4-4.9c0.3-1.4,0.7-2.7,1.3-3.9c0.6-1.2,1.6-2.1,2.8-2.8c1.2-0.6,2.7-1,4.4-1
			C189.9,10.4,191.4,10.7,192.4,11.3z"/>
		<path class="st0" d="M194.9,22.5c0-1.1,0.1-2.2,0.3-3.5c0.2-1.3,0.6-2.7,1-4.1c0.4-1.4,1.1-2.6,2-3.6c0.9-1,1.9-1.4,3.1-1.4
			c2.5,0,4.6,1.1,6.1,3.4c1.5,2.3,2.3,4.8,2.3,7.6c0,1.2-0.1,2.4-0.4,3.5c-0.3,1.2-0.6,2.3-1.2,3.5c-0.5,1.1-1.3,2.1-2.3,2.8
			c-1,0.8-2.1,1.2-3.5,1.3c-2.4-0.3-4.3-1.4-5.6-3.1C195.5,27.2,194.9,25.1,194.9,22.5z M201.6,12c-0.9,0.1-1.7,1-2.3,2.5
			s-1,3.1-1.2,4.6c-0.2,1.5-0.3,2.8-0.3,3.9c0,1.5,0.5,2.8,1.4,4.1c0.9,1.3,1.9,1.9,3.1,1.9c0.8,0,1.6-0.3,2.2-1
			c0.7-0.6,1.2-1.4,1.6-2.4c0.4-0.9,0.7-1.9,0.9-2.8c0.2-1,0.3-1.8,0.3-2.5c0-2.2-0.5-4.1-1.5-5.7C204.7,13.1,203.4,12.2,201.6,12z"
			/>
		<path class="st0" d="M223.8,15.2c0.1,1.5,0.2,3.2,0.2,5.3c0.1,2,0.1,4.1,0.1,6.1c0,2.1,0.1,3.5,0.1,4.2c-0.6,0.2-1.1,0.2-1.6,0.2
			c-0.4,0-0.8-0.1-1.1-0.2c-0.1-1-0.1-2.2-0.2-3.5c0-1.3,0-2.5,0-3.5c0-1,0-2.1-0.1-3.2c0-1.1-0.1-2.1-0.2-2.9
			c-0.1-0.8-0.3-1.5-0.5-2.2c-0.2-0.7-0.5-1.2-0.9-1.6c-0.4-0.4-0.9-0.6-1.4-0.6c-0.6,0-1,0.1-1.3,0.4c-0.3,0.2-0.7,0.7-1.1,1.3
			v15.7c-0.4,0.2-0.9,0.3-1.4,0.3c-0.4,0-0.9-0.1-1.4-0.2c0.1-1.7,0.1-4.9,0.2-9.8c0-4.9,0.1-8.5,0.3-10.9l1.8,0.4l0.1,2
			c0.8-1.2,1.8-1.9,3-1.9c1.8,0,3.3,0.8,4.5,2.4c0.8-1.6,2-2.4,3.7-2.4c0.7,0,1.3,0.1,1.8,0.2c2.9,0.8,4.3,4.5,4.3,11.1
			c0,1,0,2.2-0.1,3.8c-0.1,1.6-0.1,2.7-0.1,3.2c0,0.7,0,1.3,0.1,1.8c-1.4,0.4-2.2,0.6-2.5,0.6c-0.3,0-0.4,0-0.6-0.1
			c-0.1-0.3-0.2-1-0.2-1.9c0-0.6,0-1.8,0.1-3.6c0.1-1.8,0.1-3.2,0.1-4.3c0-5.5-1.1-8.3-3.3-8.3c-0.5,0-0.9,0.2-1.3,0.5
			C224.7,14.1,224.3,14.6,223.8,15.2z"/>
	</g>
	<g>
		<g>
			<g>
				<path class="st1" d="M9.8,25.8l-6.8,2.6C4.5,30.9,6.6,33,9,34.6l7.1-4.3C13.5,29.6,11.3,28,9.8,25.8z"/>
				<path class="st1" d="M18.8,1.5c-7.4,0-13.7,4.4-16.5,10.8l14.4-3.2l0,0c0.8-0.2,1.6-0.3,2.4-0.3c5.5,0,10,4,10.8,9.3l-1,0.4
					l-0.4,0.1l-1.9,0.7l-9.1,3.5l0,0C17.2,22.9,17,23,16.7,23c-0.9,0-1.7-0.8-1.7-1.7c0-0.8,0.5-1.4,1.2-1.6l9.3-3.6
					c-1.3-2.3-3.7-3.8-6.6-3.8c-4.2,0-7.5,3.4-7.5,7.5c0,4.2,3.4,7.5,7.5,7.5c3.3,0,6.1-2.1,7.1-5c0.1-0.8,0.8-1.4,1.7-1.4
					c0.9,0,1.7,0.8,1.7,1.7c0,0.2-0.1,0.5-0.1,0.7c-0.9,2.6-2.7,4.8-5.1,6.1l-11.6,7.1c1.9,0.7,4,1.1,6.1,1.1c9.9,0,18-8.1,18-18
					S28.7,1.5,18.8,1.5z"/>
				<path class="st1" d="M1.1,16c-0.2,1.1-0.3,2.3-0.3,3.5c0,2,0.3,3.9,0.9,5.7l6.7-2.6c-0.2-0.9-0.4-1.9-0.4-2.9
					c0-2.1,0.6-4,1.5-5.6L1.1,16z"/>
			</g>
		</g>
		<path class="st2" d="M29.4,23.3c0.1-0.2,0.1-0.4,0.1-0.7c0-0.9-0.8-1.7-1.7-1.7c-0.8,0-1.6,0.6-1.7,1.4c-1,2.9-3.8,5-7.1,5
			c-4.2,0-7.5-3.4-7.5-7.5c0-4.2,3.4-7.5,7.5-7.5c2.8,0,5.3,1.5,6.6,3.8l-9.3,3.6c-0.7,0.2-1.2,0.9-1.2,1.6c0,0.9,0.8,1.7,1.7,1.7
			c0.2,0,0.5,0,0.7-0.1l0,0l9.1-3.5l1.9-0.7l0.4-0.1l1-0.4C29,12.8,24.5,8.8,19,8.8c-0.8,0-1.6,0.1-2.4,0.3l0,0L2.3,12.3
			c-0.5,1.2-0.9,2.5-1.2,3.8l8.5-1.9c-1,1.6-1.5,3.6-1.5,5.6c0,1,0.1,1.9,0.4,2.9l-6.7,2.6c0.4,1.1,0.8,2.2,1.4,3.1l6.7-2.6
			c1.4,2.2,3.6,3.8,6.2,4.6L9,34.6c1.1,0.7,2.4,1.3,3.7,1.8l11.6-7.1C26.7,28.1,28.5,25.9,29.4,23.3z"/>
	</g>
</g>
</svg>
