<svg xmlns="http://www.w3.org/2000/svg" xmlns:xlink="http://www.w3.org/1999/xlink" viewBox="0 0 32 32" version="1.1">
	<g id="surface1">
		<path style=" " d="M 16 4.59375 L 15.28125 5.28125 L 10.28125 10.28125 L 11.71875 11.71875 L 15 8.4375 L 15 19 C 15 21.773438 12.773438 24 10 24 L 5 24 L 5 26 L 10 26 C 13.855469 26 17 22.855469 17 19 L 17 8.4375 L 20.28125 11.71875 L 21.71875 10.28125 L 16.71875 5.28125 Z M 17.96875 21.9375 C 17.714844 22.625 17.382813 23.253906 16.96875 23.84375 C 18.242188 25.164063 20.023438 26 22 26 L 27 26 L 27 24 L 22 24 C 20.339844 24 18.878906 23.183594 17.96875 21.9375 Z "></path>
	</g>
</svg>