<?xml version="1.0" standalone="no"?>
<!DOCTYPE svg PUBLIC "-//W3C//DTD SVG 1.1//EN" "http://www.w3.org/Graphics/SVG/1.1/DTD/svg11.dtd">
<svg xmlns="http://www.w3.org/2000/svg">
<metadata>Copyright (C) 2023 by original authors @ fontello.com</metadata>
<defs>
<font id="es-icon-stripe" horiz-adv-x="1000" >
<font-face font-family="es-icon-stripe" font-weight="400" font-stretch="normal" units-per-em="1000" ascent="850" descent="-150" />
<missing-glyph horiz-adv-x="1000" />
<glyph glyph-name="text" unicode="&#xe90f;" d="M775 300h-550c-14 0-25-11-25-25v-50c0-14 11-25 25-25h550c14 0 25 11 25 25v50c0 14-11 25-25 25z m0 200h-550c-14 0-25-11-25-25v-50c0-14 11-25 25-25h550c14 0 25 11 25 25v50c0 14-11 25-25 25z m-250-400h-300c-14 0-25-11-25-25v-50c0-14 11-25 25-25h300c14 0 25 11 25 25v50c0 14-11 25-25 25z m250 600h-550c-14 0-25-11-25-25v-50c0-14 11-25 25-25h550c14 0 25 11 25 25v50c0 14-11 25-25 25z" horiz-adv-x="1000" />

<glyph glyph-name="image" unicode="&#xe914;" d="M900 700h-800c-28 0-50-22-50-50v-600c0-28 22-50 50-50h800c28 0 50 22 50 50v600c0 28-22 50-50 50z m-237-175c34 0 62-28 62-62s-28-63-62-63-63 28-63 63 28 62 63 62z m-463-375l166 381 188-305 162 80 84-156h-600z" horiz-adv-x="1000" />

<glyph glyph-name="plus" unicode="&#xe915;" d="M800 350c0-28-2-50-30-50h-220v-220c0-28-22-30-50-30-28 0-50 2-50 30v220h-220c-27 0-30 22-30 50 0 28 3 50 30 50h220v220c0 28 22 30 50 30 28 0 50-2 50-30v-220h220c28 0 30-22 30-50z" horiz-adv-x="1000" />

<glyph glyph-name="minus" unicode="&#xe916;" d="M800 350c0-28-2-50-30-50h-540c-27 0-30 22-30 50 0 28 3 50 30 50h540c28 0 30-22 30-50z" horiz-adv-x="1000" />

<glyph glyph-name="download" unicode="&#xe918;" d="M1000 285c0-130-105-235-240-235h-580c-100 0-180 80-180 175 0 100 80 175 180 175 5 0 15 0 20 0 0 15 0 25 0 40 0 145 120 260 265 260 120 0 220-80 255-185 15 0 25 5 40 5 135 0 240-105 240-235z m-520-180c10-10 25-10 35 0l155 155c10 10 5 25-10 25h-90c-15 0-25 10-25 25v150c0 15-10 25-25 25h-50c-10 5-20-10-20-20v-150c0-15-10-25-25-25h-90c-15 0-20-15-10-25l155-160z" horiz-adv-x="1000" />

<glyph glyph-name="upload" unicode="&#xe919;" d="M1000 285c0-130-105-235-240-235h-580c-100 0-180 80-180 175 0 100 80 175 180 175 5 0 15 0 20 0 0 15 0 25 0 40 0 145 120 260 265 260 120 0 220-80 255-185 15 0 25 5 40 5 135 0 240-105 240-235z m-480 195c-10 10-25 10-35 0l-155-155c-15-10-5-25 5-25h90c15 0 25-15 25-25v-150c0-15 10-25 25-25h50c15 0 25 10 25 25v150c0 15 10 25 25 25h90c15 0 20 15 10 25l-155 155z" horiz-adv-x="1000" />

<glyph glyph-name="trash" unicode="&#xe91a;" d="M825 410l-50-460c-5-25-115-100-275-100-160 0-270 75-275 100l-50 460c80-40 205-60 325-60 120 0 245 20 325 60z m-120 305c0 0 0 5 0 5l-20 45c-30 55-85 85-140 85h-95c-55 0-105-30-130-85l-25-45c0 0 0-5 0-5-105-30-175-80-175-115v-10c0-75 170-140 380-140 210 0 380 65 380 140v10c0 35-70 90-175 115z m-155-65h-100c-30 0-50 20-50 50s20 50 50 50h100c30 0 50-20 50-50s-20-50-50-50z" horiz-adv-x="1000" />

<glyph glyph-name="restore" unicode="&#xe91b;" d="M230 645c-25-25-45-50-65-75-5-10 0-20 5-25l65-30c5-5 15 0 20 5 10 15 20 30 35 40 5 5 5 15 0 20l-40 60c-5 5-15 10-20 5z m-120-205c-5-30-10-65-10-100 0-10 10-15 20-15l70 15c5 0 10 10 10 15 0 20 0 35 5 55 0 5 0 15-10 15l-65 25c-5 5-15 0-20-10z m670 225c-10-10-25-10-35 0-65 50-150 85-245 85-50 0-100-10-145-30-15-5-20-25-15-35l30-45c5-10 20-10 30-10 30 15 65 20 100 20 65 0 125-20 175-55 10-10 15-25 0-35l-60-60c-10-10-5-25 10-25h220c15 0 25 10 25 25v215c0 15-15 20-25 10l-65-60z m-10-610c25 25 45 50 65 75 5 10 0 20-5 20l-65 30c-5 5-15 0-20-5-10-15-20-30-35-40-5-5-5-15 0-20l40-60c5 0 15-5 20 0z m120 205c10 35 10 65 10 100 0 10-10 15-20 15l-70-15c-5 0-10-5-10-15 0-20 0-35-5-55 0-5 0-15 10-15l65-30c5 0 15 5 20 15z m-670-225c10 10 25 10 35 0 70-55 155-90 250-90 50 0 100 10 145 30 15 5 20 25 10 35l-30 45c-5 10-20 15-30 10-30-10-65-20-100-20-65 0-125 20-175 55-10 10-15 25 0 35l60 60c10 10 5 25-10 25h-220c-15 0-25-10-25-25v-220c0-15 15-20 25-10l65 70z" horiz-adv-x="1000" />

<glyph glyph-name="edit" unicode="&#xe91c;" d="M735 717c-95 69-163 67-188 63-7-1-13-5-18-11l-231-319-113-156c-14-19-22-41-23-65l-15-281c-1-21 19-35 38-28l263 101c22 8 41 23 55 42l93 127 251 348c5 6 7 13 5 21-4 26-24 90-117 158z m-286-640l-102-40c-4-1-9 0-11 3-13 17-29 34-54 52-25 18-46 28-66 35-4 2-6 6-6 10l6 109 28 38c0 0 61 8 141-50 80-58 91-119 91-119l-27-38z" horiz-adv-x="1000" />

<glyph glyph-name="code" unicode="&#xe91d;" d="M286 113c-12 0-24 4-33 12l-253 225 267 237c20 19 52 17 70-4 19-20 17-52-4-70l-183-163 169-150c21-18 23-50 4-71-10-11-23-16-37-16z m447 0l267 237-253 225c-20 18-52 16-70-4-19-21-17-52 4-71l169-150-183-163c-21-18-23-49-4-70 10-11 23-17 37-17 12 0 24 4 33 13z m-234-71l100 600c5 27-13 53-41 57-27 5-53-13-57-41l-100-600c-5-27 14-53 41-57 3-1 5-1 8-1 24 0 45 17 49 42z" horiz-adv-x="1000" />

<glyph glyph-name="success" unicode="&#xe91e;" d="M500 770c-230 0-420-190-420-420s190-420 420-420c230 0 420 190 420 420s-185 420-420 420z m220-325l-250-250c-10-10-20-15-35-15s-25 5-35 15l-125 125c-20 20-20 50 0 70s50 20 70 0l90-90 215 220c20 20 50 20 70 0s20-55 0-75z" horiz-adv-x="1000" />

<glyph glyph-name="cog" unicode="&#xe922;" d="M839 350c0 52 33 94 81 122-9 29-20 57-35 84-54-14-98 7-135 44-37 37-48 81-34 135-27 15-55 26-84 35-28-48-80-81-132-81-52 0-104 33-132 81-29-9-57-20-84-34 15-55 3-99-34-136-37-37-81-58-135-44-15-27-26-55-35-84 49-28 81-70 81-122 0-52-32-104-81-132 9-29 20-57 35-84 54 15 98 3 135-34 37-37 49-81 34-135 27-15 55-26 84-35 28 49 80 81 132 81 52 0 104-33 132-81 29 9 57 20 84 35-14 54-3 98 34 135 37 37 81 58 136 44 14 27 25 55 34 84-49 28-81 70-81 122z m-339-183c-101 0-183 82-183 183 0 101 82 183 183 183 101 0 183-82 183-183 0-101-82-183-183-183z" horiz-adv-x="1000" />

<glyph glyph-name="copy" unicode="&#xe923;" d="M550 850h-400c-28 0-50-22-50-50v-600c0-28 22-50 50-50h250v-100h100v100h-100v100h100v100h-100v-100h-200v500h300v-200h100v250c0 28-22 50-50 50z m-150-350v-50h100v100h-50c-28 0-50-22-50-50z m200-650h100v100h-100v-100z m0 600h100v100h-100v-100z m-200-550c0-28 22-50 50-50h50v100h-100v-50z m450 650h-50v-100h100v50c0 28-22 50-50 50z m-50-700h50c28 0 50 22 50 50v50h-100v-100z m0 400h100v100h-100v-100z m0-200h100v100h-100v-100z" horiz-adv-x="1000" />

<glyph glyph-name="users" unicode="&#xe926;" d="M800-107c0 113-110 170-216 216-107 46-140 84-140 167 0 49 32 33 46 124 6 37 35 0 40 86 0 34-15 43-15 43s8 50 11 89c3 41-20 128-115 155-17 17-28 44 23 71-112 6-138-53-198-96-50-38-64-98-62-130 4-39 11-89 11-89s-15-9-15-43c5-86 34-49 40-86 14-91 47-75 47-124 0-83-11-111-117-157-107-45-140-119-139-226 0-31-1-43-1-43h800c0 0 0 12 0 43z m126 289c-56 23-80 50-80 103 0 32 21 22 30 80 4 24 23 1 26 56 0 22-10 28-10 28s5 32 7 58c3 31-18 112-113 112-95 0-116-81-114-112 2-26 8-58 8-58s-11-6-11-28c4-55 23-32 26-56 10-58 30-48 30-80 0-53-21-78-90-108-3-1-6-3-9-5 82-35 211-97 242-222h132c0 0 0 95 0 116 0 50-14 92-74 116z" horiz-adv-x="1000" />

<glyph glyph-name="sidebar" unicode="&#xe927;" d="M900 750h-800c-55 0-100-45-100-100v-600c0-55 45-100 100-100h800c55 0 100 45 100 100v600c0 55-45 100-100 100z m0-700h-500v450h500v-450z m0 550h-800v50h800l0-50z" horiz-adv-x="1000" />

<glyph glyph-name="mail-preview" unicode="&#xe928;" d="M850 600h-250c-55 0-100-45-100-100v-550c0-55 45-100 100-100h250c55 0 100 45 100 100v550c0 55-45 100-100 100z m-125-700c-34 0-62 22-62 50 0 28 28 50 62 50 35 0 63-22 63-50 0-28-28-50-63-50z m125 150h-250v450h250v-450z m-450 0h-250v700h600v-50h100v50c0 55-45 100-100 100h-600c-55 0-100-45-100-100v-800c0-55 45-100 100-100h278c-17 29-28 63-28 100v100z" horiz-adv-x="1000" />

<glyph glyph-name="in-new-tab" unicode="&#xe929;" d="M750 100h-650v450h130c0 0 25 30 75 75 10 5 5 25-10 25h-245c-30 0-50-20-50-50v-550c0-30 20-50 50-50h750c30 0 50 20 50 50v155c0 15-15 20-25 10l-75-60v-55z m-80 345v-145c0-15 15-20 25-10l280 220c15 10 15 30 0 40l-280 210c-10 5-25 0-25-10v-125c-405 0-405-400-405-400 115 185 185 220 405 220z" horiz-adv-x="1000" />

<glyph glyph-name="erase" unicode="&#xe92a;" d="M900 700h-480c-20 0-50-10-70-25l-340-300c-15-15-15-40 0-55l340-295c20-15 50-25 70-25h480c55 0 100 45 100 100v500c0 55-45 100-100 100z m-85-460c20-20 20-50 0-70-10-10-25-15-35-15s-25 5-35 15l-110 110-110-110c-10-10-25-15-35-15s-30 5-40 10c-20 20-20 50 0 70l110 110-110 115c-20 20-20 50 0 70s50 20 70 0l110-110 110 110c20 20 50 20 70 0s20-50 0-70l-105-110 110-110z" horiz-adv-x="1000" />

<glyph glyph-name="log-out" unicode="&#xe92b;" d="M225 700h350c15 0 25 10 25 25v50c0 15-10 25-25 25h-375c-55 0-100-45-100-100v-700c0-55 45-100 100-100h375c15 0 25 10 25 25v50c0 15-10 25-25 25h-350c-15 0-25 10-25 25v650c0 15 10 25 25 25z m505-525c-10-10-25-5-25 10v90c0 15-10 25-25 25h-300c-15 0-30 10-30 25v50c0 15 15 25 25 25h300c15 0 25 10 25 25v90c0 15 15 20 25 10l155-155c10-10 10-25 0-35l-150-160z" horiz-adv-x="1000" />

<glyph glyph-name="check" unicode="&#xe92c;" d="M415 0c-22 0-43 10-56 28l-178 236c-24 30-18 74 13 97 31 24 74 18 98-13l117-155 296 474c20 33 63 43 96 23 32-21 43-64 22-96l-349-561c-12-19-33-32-56-33-1 0-2 0-3 0z" horiz-adv-x="1000" />

<glyph glyph-name="eye-hide" unicode="&#xe92d;" d="M926 776c-19 20-51 20-71 0l-781-781c-20-20-20-52 0-71 20-20 51-20 71 0l781 781c20 20 20 52 0 71z m-771-601l128 128c-3 15-5 31-5 47 0 119 99 215 222 215 14 0 28-1 42-4l60 60c-32 6-66 9-102 9-328 0-500-242-500-280 0-21 53-104 155-175z m690 350l-128-128c3-15 5-31 5-47 0-119-99-215-222-215-14 0-28 1-41 4l-61-60c33-6 66-9 102-9 328 0 500 242 500 280 0 21-53 105-155 175z" horiz-adv-x="1000" />

<glyph glyph-name="eye-show" unicode="&#xe92e;" d="M500 630c-328 0-500-242-500-280 0-38 172-280 500-280 328 0 500 242 500 280 0 38-172 280-500 280z m0-495c-123 0-222 96-222 215 0 119 99 215 222 215 123 0 222-96 222-215 0-119-99-215-222-215z m0 215c-20 22 33 108 0 108-61 0-111-49-111-108 0-59 50-108 111-108 61 0 111 49 111 108 0 27-94-19-111 0z" horiz-adv-x="1000" />

<glyph glyph-name="user-account" unicode="&#xe92f;" d="M500 830c-265 0-480-215-480-480 0-265 215-480 480-480s480 215 480 480c0 265-215 480-480 480z m170-860c30 15 60 30 85 50-25 15-50 25-75 35-85 35-110 65-110 130 0 40 25 25 35 95 5 30 25 0 30 65 0 25-10 35-10 35s5 40 10 70c5 30-15 100-90 120-15 15-20 35 20 55-85 10-105-35-155-70-40-30-50-75-50-100 0-30 10-70 10-70s-10-10-10-35c5-65 25-40 30-65 10-70 35-60 35-95 0-65-25-95-110-130-25-10-50-25-75-35 25-20 55-35 85-50-145 65-245 210-245 380 0 230 185 420 420 420 230 0 420-185 420-420 0-175-105-320-250-385z m-130-35c5 0 10 0 15 0-5 0-10 0-15 0z m35 5c5 0 10 0 15 5 0-5-5-5-15-5z m40 10c5 0 15 5 20 5-10-5-15-5-20-5z m30 10c10 5 15 5 20 10-5-5-10-10-20-10z m-185-25c-5 0-10 0-15 0 5 0 10 0 15 0z m-35 5c-5 0-10 0-15 5 0-5 5-5 15-5z m-40 10c-5 0-15 5-20 5 10-5 15-5 20-5z m-30 10c-10 5-15 5-20 10 5-5 10-10 20-10z" horiz-adv-x="1000" />

<glyph glyph-name="back" unicode="&#xe930;" d="M595 403q21 0 36-16t15-37-15-37-36-15l-395 0 119-119q15-15 15-37t-15-37-36-15q-23 0-38 15l-245 245 245 245q15 15 37 15t37-15 15-37-15-37l-119-118 395 0z" horiz-adv-x="646" />

<glyph glyph-name="forward" unicode="&#xe931;" d="M600 255v-185c0-15 15-20 25-10l305 290c10 10 10 25 0 35l-305 285c-10 10-25 0-25-10v-160c-440 0-550-485-550-485 125 220 310 240 550 240z" horiz-adv-x="1000" />

<glyph glyph-name="reply" unicode="&#xe932;" d="M950 15c0 0-110 485-550 485v165c0 15-15 20-25 10l-305-285c-10-10-10-25 0-35l305-290c10-10 25 0 25 10v185c240-5 425-25 550-245z" horiz-adv-x="1000" />

<glyph glyph-name="facebook" unicode="&#xe933;" d="M975 345c0 265-215 480-475 480s-475-215-475-480c0-240 175-435 400-470v335h-120v140h120v100c0 120 70 185 180 185 50 0 105-10 105-10v-120h-60c-60 0-75-35-75-75v-90h130l-20-140h-110v-335c225 45 400 245 400 480" horiz-adv-x="1000" />

<glyph glyph-name="google" unicode="&#xe934;" d="M940 340c0-135-50-250-135-330-75-70-175-110-300-110-175 0-330 100-400 250-30 60-50 130-50 200 0 75 15 140 50 200 75 145 225 250 400 250 120 0 225-45 300-115l-130-130c-45 45-105 65-170 65-115 0-215-80-250-185-5-25-10-55-10-85 0-30 5-60 15-85 35-105 135-185 250-185 60 0 110 15 150 45 50 30 80 80 90 135h-240v170h425c5-30 5-60 5-90z" horiz-adv-x="1000" />

<glyph glyph-name="sidebar-right" unicode="&#xe936;" d="M0 650l0-600c0-55 45-100 100-100h800c55 0 100 45 100 100v600c0 55-45 100-100 100h-800c-55 0-100-45-100-100z m100-150h500v-450h-500v450z m0 150h800v-50h-800v50z" horiz-adv-x="1000" />

<glyph glyph-name="bottom" unicode="&#xe937;" d="M550 230l110 115c10 10 20 15 35 15 15 0 25-5 35-15 10-10 15-20 15-35 0-15-5-25-15-35l-230-235-235 235c-10 10-15 20-15 35 0 15 5 25 15 35 10 10 20 15 35 15 15 0 25-5 35-15l115-115v380c0 15 5 25 15 35 10 5 20 10 35 10 15 0 25-5 35-15 10-5 15-20 15-30v-380z" horiz-adv-x="1000" />

<glyph glyph-name="top" unicode="&#xe938;" d="M550 90c0-15-5-25-15-35-10-10-20-15-35-15-15 0-25 5-35 15-10 10-15 20-15 35v375l-115-110c-10-10-20-15-35-15-15 0-25 5-35 15-10 10-15 20-15 35 0 15 5 25 15 35l235 230 235-235c10-10 15-20 15-35 0-15-5-25-15-35-10-10-20-15-35-15-15 0-25 5-35 15l-115 115v-375z" horiz-adv-x="1000" />

<glyph glyph-name="grid" unicode="&#xe939;" d="M400 650h-150c-28 0-50-22-50-50v-150c0-28 22-50 50-50h150c28 0 50 22 50 50v150c0 28-22 50-50 50z m350 0h-150c-28 0-50-22-50-50v-150c0-28 22-50 50-50h150c28 0 50 22 50 50v150c0 28-22 50-50 50z m-350-350h-150c-28 0-50-22-50-50v-150c0-28 22-50 50-50h150c28 0 50 22 50 50v150c0 28-22 50-50 50z m350 0h-150c-28 0-50-22-50-50v-150c0-28 22-50 50-50h150c28 0 50 22 50 50v150c0 28-22 50-50 50z" horiz-adv-x="1000" />

<glyph glyph-name="grid-by-type" unicode="&#xe955;" d="M400 550h-150c-30 0-50-20-50-50v-150c0-30 20-50 50-50h150c30 0 50 20 50 50v150c0 30-20 50-50 50z m350 0h-150c-30 0-50-20-50-50v-150c0-30 20-50 50-50h150c30 0 50 20 50 50v150c0 30-20 50-50 50z m-350-350h-150c-30 0-50-20-50-50v-150c0-30 20-50 50-50h150c30 0 50 20 50 50v150c0 30-20 50-50 50z m350 0h-150c-30 0-50-20-50-50v-150c0-30 20-50 50-50h150c30 0 50 20 50 50v150c0 30-20 50-50 50z m50 500c0-30 0-50-30-50h-540c-30 0-30 20-30 50 0 30 0 50 30 50h540c30 0 30-20 30-50z" horiz-adv-x="1000" />

<glyph glyph-name="youtube" unicode="&#xe956;" d="M500 735c-491 0-500-44-500-385s9-385 500-385 500 44 500 385-9 385-500 385z m160-402l-224-104c-20-10-36 1-36 22v198c0 21 16 32 36 23l224-105c20-9 20-24 0-34z" horiz-adv-x="1000" />

<glyph glyph-name="time-machine" unicode="&#xe957;" d="M500 600v-250c0-5 0-15 5-20 5-5 5-10 10-15l160-160c15 10 30 20 40 30l-115 115v300h-100z m-160-495l-35-35c-10-10-5-30 5-40 155-120 380-105 525 35 175 175 150 470-65 615-130 90-305 90-435 5-115-70-170-175-185-290 0-15-10-25-25-25l-90 0c-15 0-20-15-10-25l155-155c10-10 25-10 35 0l155 160c10 10 5 25-10 25h-75c-20 0-30 15-30 25 10 60 35 115 80 160 130 130 355 115 460-55 65-90 65-220 5-315-90-155-295-185-430-90-10 10-20 10-30 5z" horiz-adv-x="1000" />

<glyph glyph-name="more" unicode="&#xe958;" d="M500 460c-61 0-110-49-110-110s49-110 110-110c61 0 110 49 110 110s-49 110-110 110z m-350 0c-61 0-110-49-110-110s49-110 110-110c61 0 110 49 110 110s-49 110-110 110z m700 0c-61 0-110-49-110-110s49-110 110-110c61 0 110 49 110 110s-49 110-110 110z" horiz-adv-x="1000" />

<glyph glyph-name="billing" unicode="&#xe959;" d="M900 700h-800c-55 0-100-45-100-100v-500c0-55 45-100 100-100h800c55 0 100 45 100 100v500c0 55-45 100-100 100z m0-600h-800v300h800v-300z m0 450h-800v50h800v-50z m-700-255v-30h30v30h-30z m180-60v-30h60v30h30v30h30v30h-60v-30h-30v-30h-30z m120-30v30h-30v-30h30z m-150 0v30h-60v-30h60z m30 60h30v30h-60v-60h30v30z m-120-30h30v30h30v30h-60v-30h-30v-30h-30v-30h60v30z" horiz-adv-x="1000" />

<glyph glyph-name="project" unicode="&#xe960;" d="M920 660c-5 20-30 40-60 40h-340c-30 0-65 15-85 35l-30 30c-20 20-60 35-90 35h-160c-30 0-55-20-55-50l-15-150h845l-10 60z m50-160h-940c-20 0-30-15-30-30l45-485c5-20 20-35 40-35h830c20 0 35 15 40 35l45 485c0 15-10 30-30 30z" horiz-adv-x="1000" />

<glyph glyph-name="deny" unicode="&#xe961;" d="M500 770c-230 0-420-190-420-420s190-420 420-420 420 190 420 420-190 420-420 420z m205-555c20-20 20-50 0-70-10-10-25-15-35-15s-25 5-35 15l-135 135-135-135c-10-10-25-15-35-15s-25 5-35 15c-20 20-20 50 0 70l135 135-135 135c-20 20-20 50 0 70s50 20 70 0l135-135 135 135c20 20 50 20 70 0s20-50 0-70l-135-135 135-135z" horiz-adv-x="1000" />

<glyph glyph-name="mail" unicode="&#xe962;" d="M79 586c24-13 362-195 375-202 12-6 29-10 45-10 16 0 33 4 45 10s351 189 375 202c25 13 48 64 3 64h-846c-45 0-22-51 3-64z m852-110c-28-15-370-193-387-202s-29-10-45-10-28 1-45 10-357 187-385 202c-19 10-19-2-19-11s0-365 0-365c0-21 28-50 50-50h800c22 0 50 29 50 50 0 0 0 355 0 365s0 21-19 11z" horiz-adv-x="1000" />

<glyph glyph-name="linkedin" unicode="&#xe963;" d="M250 700c0-55-35-100-100-100-60 0-100 45-100 95 0 55 40 105 100 105s100-45 100-100z m-200-800h200v650h-200v-650z m680 640c-105 0-165-60-190-100h-5l-10 85h-180c0-55 5-120 5-195v-430h200v355c0 20 0 35 5 50 15 35 40 80 95 80 70 0 100-60 100-140v-345h200v370c0 185-95 270-220 270z" horiz-adv-x="1000" />

<glyph glyph-name="twitter" unicode="&#xe964;" d="M595 425l360 425h-85l-315-370-255 370h-290l380-555-380-445h85l335 390 270-390h290l-395 575 0 0z m-120-135l-40 55-305 440h135l250-355 35-55 325-460h-135l-265 375 0 0z" horiz-adv-x="1000" />

<glyph glyph-name="instagram" unicode="&#xe966;" d="M997 556a367 367 0 0 1-23 122 245 245 0 0 1-58 88 245 245 0 0 1-88 58 367 367 0 0 1-122 23c-53 2-70 3-206 3s-153-1-206-3a367 367 0 0 1-121-23 245 245 0 0 1-89-58 245 245 0 0 1-58-88 367 367 0 0 1-23-122c-2-53-3-70-3-206s1-153 3-206a367 367 0 0 1 23-121 245 245 0 0 1 58-89 245 245 0 0 1 89-58 367 367 0 0 1 121-23c53-2 70-3 206-3s153 1 206 3a367 367 0 0 1 122 23 256 256 0 0 1 146 147 367 367 0 0 1 23 121c2 53 3 70 3 206s-1 153-3 206z m-90-408a277 277 0 0 0-17-93 166 166 0 0 0-95-95 277 277 0 0 0-93-17c-53-2-68-3-202-3s-149 1-202 3a277 277 0 0 0-93 17 155 155 0 0 0-57 38 155 155 0 0 0-38 57 277 277 0 0 0-17 93c-2 53-3 69-3 202s1 149 3 202a277 277 0 0 0 17 93 155 155 0 0 0 38 57 155 155 0 0 0 57 38 277 277 0 0 0 93 17c53 2 69 3 202 3s149-1 202-3a277 277 0 0 0 93-17 155 155 0 0 0 57-38 155 155 0 0 0 38-57 277 277 0 0 0 17-93c2-53 3-68 3-202s-1-149-3-202z m-407 459a257 257 0 1 1 257-257 257 257 0 0 1-257 257z m0-424a167 167 0 1 0 167 167 167 167 0 0 0-167-167z m327 434a60 60 0 1 0-60 60 60 60 0 0 0 60-60z" horiz-adv-x="1000" />

<glyph glyph-name="help" unicode="&#xe967;" d="M500 830c-265 0-480-215-480-480s215-480 480-480c265 0 480 215 480 480 0 265-215 480-480 480z m-8-760h-2c-39 1-67 30-66 69 2 38 30 65 68 65l2 0c40-1 67-30 66-69-1-38-29-65-68-65z m165 327c-9-13-29-30-55-50l-28-19c-15-12-25-23-28-34-3-9-4-11-4-29v-5h-108l1 10c1 37 2 59 17 77 25 28 78 63 80 64 8 6 14 13 19 20 11 15 16 27 16 39 0 17-4 32-14 46-10 13-27 20-53 20-26 0-43-8-54-25-11-17-16-35-16-53v-5h-111l1 5c2 68 27 116 71 145 28 18 64 27 104 27 54 0 99-13 134-39 37-26 55-64 55-115 0-28-9-55-27-79z" horiz-adv-x="1000" />

<glyph glyph-name="qr-code" unicode="&#xe968;" d="M810 469c0-28-24-48-48-48h-95c-29 0-48 20-48 48l0 0c0 29 19 48 48 48h95c24 0 48-19 48-48l0 0z m190-571c0-29-24-48-48-48h-95c-28 0-47 19-47 48l0 0c0 28 19 47 47 47h95c24 0 48-19 48-47l0 0z m-190 857c0-24-24-48-48-48l0 0c-29 0-48 24-48 48l0 0c0 24 19 47 48 47l0 0c24 0 48-23 48-47l0 0z m-143-48c28 0 47-24 47-47l0 0c0-29-19-48-47-48l0 0c-29 0-48 19-48 48l0 0c0 23 19 47 48 47l0 0z m47-714c0 24 24 48 48 48l0 0c24 0 48-24 48-48l0 0c0-24-24-48-48-48l0 0c-24 0-48 24-48 48l0 0z m191 762c0 24 24 47 47 47l0 0c24 0 48-23 48-47v-667c0-24-24-47-48-47l0 0c-23 0-47 23-47 47v95c0 29-24 48-48 48l0 0c-24 0-47 19-47 48v95c0 28 23 47 47 47h48c24 0 47 20 47 48l0 0c0 29-23 48-47 48h-48c-24 0-47 19-47 47v48c0 24 23 48 47 48l0 0c24 0 48 23 48 47v48z m-810 47c-24 0-47-23-47-47v-381c0-29 23-48 47-48h381c29 0 48 19 48 48v381c0 24-19 47-48 47h-381z m334-333c0-28-19-48-48-48h-190c-24 0-48 20-48 48v191c0 23 24 47 48 47h190c29 0 48-24 48-47v-191z m-96 95c0-28-19-47-47-47l0 0c-29 0-48 19-48 47l0 0c0 29 19 48 48 48l0 0c28 0 47-19 47-48l0 0z m238-476c0 29 20 48 48 48h95c24 0 48 19 48 47l0 0c0 29-24 48-48 48h-47c-29 0-67 0-96 0l0 0c-28 0-114 0-142 0l0 0c-29 0-48-19-48-48l0 0c0-28 19-47 48-47l0 0c28 0 47-19 47-48l0 0c0-24-19-47-47-47l0 0c-29 0-48 23-48 47l0 0c0 29-19 48-48 48l0 0c-28 0-47 19-47 47l0 0c0 29-19 48-48 48l0 0c-28 0-19 0-47 0l0 0c-24 0-72 0-96 0l0 0c-24 0-47-19-47-48v-285c0-24 23-48 47-48h96c28 0 47 24 47 48l0 0c0 23-19 47-47 47l0 0c-24 0-48 24-48 48l0 0c0 24 24 48 48 48l0 0c28 0 66 0 95 0l0 0c28 0 47-24 47-48l0 0c0-24 19-48 48-48l0 0c29 0 48-24 48-47l0 0c0-24 19-48 47-48l0 0c29 0 48 24 48 48l0 0c0 23 19 47 47 47l0 0c29 0 20 0 48 0l0 0c29 0 48 24 48 48l0 0c0 24-19 48-48 48l0 0c-28 0-48 23-48 47l0 0z" horiz-adv-x="1000" />

<glyph glyph-name="paypal" unicode="&#xe969;" d="M396 316h83c180 0 282 81 315 248 1 6 2 11 3 16 1 12 2 22 3 32 0 6 0 10 0 14 0 19-4 36-11 52-6 15-16 29-30 46-43 48-117 76-206 76h-283c-20 0-37-14-40-34l-51-329-63-409c-2-15 9-28 24-28l138 0 43 252c6 37 37 64 75 64z m455 230c-40-189-168-289-372-289h-83c-8 0-15-6-17-14l-55-343h145c18 0 33 13 35 30l2 7 28 176 1 10c3 17 18 30 35 30h22c143 0 254 58 287 225 13 69 7 127-28 168z" horiz-adv-x="1000" />

<glyph glyph-name="pending" unicode="&#xe970;" d="M500 830c-265 0-480-215-480-480 0-265 215-480 480-480 265 0 480 215 480 480 0 265-215 480-480 480z m0-860c-210 0-380 170-380 380 0 210 170 380 380 380h0v-380l340 170c25-51 40-109 40-170 0-210-170-380-380-380z" horiz-adv-x="1000" />

<glyph glyph-name="file" unicode="&#xe972;" d="M610 800c25 0 50-10 70-30l140-140c20-20 30-45 30-70v-610c0-30-20-50-50-50h-600c-30 0-50 20-50 50v800c0 30 20 50 50 50h410z m90-650h-400v-100h400v100z m-100 200h-300v-100h300v100z m50 200h-350v-100h350v100z" horiz-adv-x="1000" />

<glyph glyph-name="zip" unicode="&#xe973;" d="M750-100h-500c-55 0-100 45-100 100v700c0 55 45 100 100 100h500c55 0 100-45 100-100v-700c0-55-45-100-100-100z m-150 700h-200v-50h200v50z m0-100h-200v-50h200v50z m0 200h-200v-50h200v50z m-25-300h-150c0-100-75-150-75-265 0-75 65-135 150-135s150 60 150 135c0 115-75 165-75 265z m-25-300h-100v100h100v-100z" horiz-adv-x="1000" />

<glyph glyph-name="replace" unicode="&#xe999;" d="M920 660c-5 20-30 40-60 40h-340c-30 0-65 15-85 35l-30 30c-20 20-60 35-90 35h-160c-30 0-55-20-55-50l-15-150h845l-10 60z m50-160h-940c-20 0-30-15-30-30l45-485c5-20 20-35 40-35h830c20 0 35 15 40 35l45 485c0 15-10 30-30 30z m-435-450c-10-10-25-5-25 10v90c0 15-10 25-25 25h-150c-15 0-25 10-25 25v50c0 15 10 25 25 25h150c15 0 25 10 25 25v90c0 15 15 20 25 10l155-155c10-10 10-25 0-35l-155-160z" horiz-adv-x="1000" />

<glyph glyph-name="rename" unicode="&#xe99a;" d="M550 150h-500v400h500v-100h-400v-200h400v-100z m200 0v-50c0-55 45-100 100-100 30 0 50-20 50-50s-20-50-50-50c-60 0-115 25-150 70-35-40-90-70-150-70-30 0-50 20-50 50s20 50 50 50c55 0 100 45 100 100v50 100 200 100 50c0 55-45 100-100 100-30 0-50 20-50 50s20 50 50 50c60 0 115-25 150-70 35 45 90 70 150 70 30 0 50-20 50-50s-20-50-50-50c-55 0-100-45-100-100v-50h200v-400h-200z m0 100h100v200h-100v-200z" horiz-adv-x="1000" />

<glyph glyph-name="new-folder" unicode="&#xe99b;" d="M920 660c-5 20-30 40-60 40h-340c-30 0-65 15-85 35l-30 30c-20 20-60 35-90 35h-160c-30 0-55-20-55-50l-15-150h845l-10 60z m50-160h-940c-20 0-30-15-30-30l45-485c5-20 20-35 40-35h830c20 0 35 15 40 35l45 485c0 15-10 30-30 30z m-270-275c0-30 0-50-30-50h-120v-120c0-30-20-30-50-30s-50 0-50 30v120h-120c-30 0-30 20-30 50s0 50 30 50h120v120c0 30 20 30 50 30s50 0 50-30v-120h120c30 0 30-20 30-50z" horiz-adv-x="1000" />

<glyph glyph-name="home" unicode="&#xe99c;" d="M934 300h-84v-300c0-22-10-50-50-50h-200v300h-200v-300h-200c-40 0-50 28-50 50v300h-84c-29 0-23 16-3 37l402 402c9 10 22 15 35 16 13-1 26-6 35-16l402-402c20-21 27-37-3-37z" horiz-adv-x="1000" />

<glyph glyph-name="plugin" unicode="&#xe99d;" d="M0 150v-75c0-14 11-25 25-25h50c14 0 25 11 25 25v75c0 48 40 114 100 139v105c-116-27-200-142-200-244z m603 465l-126-95c-18-13-39-20-60-20h-117c-27 0-50-22-50-50v-200c0-27 23-50 50-50h117c21 0 42-7 60-20l126-95c31-23 68-35 105-35h92v600h-92c-37 0-74-12-105-35z m247-65v-100h150v100h-150z m0-400h150v100h-150v-100z" horiz-adv-x="1000" />

<glyph glyph-name="lamp" unicode="&#xe99e;" d="M500 625c-70 0-140-25-195-80-105-110-55-280 50-390 10-10 15-25 15-40 125-50 220 0 270 40 0 0 0 0 0 0 105 105 155 280 50 390-50 55-120 80-190 80z m90-415c-5-5-5-5-10-10-10-5-35-30-80-30-45 0-75 25-85 35 0 0-5 5-5 5-80 80-125 210-50 285 35 35 85 55 140 55s105-20 140-60c75-70 35-200-50-280z m-455 170h-100c-20 0-35-15-35-30s15-30 30-30h100c15 0 30 15 30 30s-10 30-25 30z m830 0h-100c-15 0-30-15-30-30s15-30 30-30h100c15 0 30 15 30 30s-10 30-30 30z m-465 310c15 0 30 15 30 30v100c0 15-15 30-30 30s-30-15-30-30v-100c0-20 15-30 30-30z m375 35c-10 10-30 10-45 0l-70-70c-10-10-10-30 0-45 5-5 15-10 20-10s15 5 20 10l70 70c15 10 15 30 5 45z m-635-70l-70 70c-5 5-15 10-20 10s-20-5-25-10c-10-10-10-30 0-45l70-70c10-10 30-10 45 0 10 10 10 30 0 45z m135-595c0-15 0-30 5-50 105-40 190-10 245 30 0 15 0 30 0 45-40-20-90-40-150-40-30-5-65 5-100 15z m20-105c15-30 45-50 105-50 75 0 105 35 115 75-40-20-85-35-140-35-25-5-55 0-80 10z" horiz-adv-x="1000" />

<glyph glyph-name="send" unicode="&#xea00;" d="M930 720c-15-5-850-300-865-305-25-10-20-30-5-35 20-10 180-70 180-70l0 0 80-30c20-10 40-5 60 5 105 75 465 330 470 335 5 5 15-5 10-10-5-5-345-375-345-375v0c0 0-15-15-15-25 0-10 20-15 20-15l0 0c0 0 215-120 235-125 30-15 50 0 60 30 5 20 135 590 140 605 5 10-5 20-25 15z m-575-710c0-15 15-20 25-10 35 30 90 80 115 100 10 5 5 20-5 25l-120 60c-10 5-20 0-20-15l5-160z" horiz-adv-x="1000" />

<glyph glyph-name="medium" unicode="&#xea02;" d="M155 165c0-20 0-25-10-40l-95-115v-15h265v15l-95 115c-10 15-15 20-15 40v345l240-510h25l205 515v-410c0-10 0-15-10-20l-70-65v-20h355v15l-70 65c-10 10-10 10-10 20v500c0 10 0 15 10 20l70 70v15h-250l-175-440-200 440h-265v-15l80-100c10-10 10-15 10-30v-395l5 0z" horiz-adv-x="1000" />

<glyph glyph-name="pinterest" unicode="&#xea03;" d="M431 189c-26-138-58-270-153-339-30 208 43 364 76 530-57 97 7 291 128 243 149-59-129-359 57-396 195-39 274 337 154 460-174 177-508 4-467-249 10-62 74-81 26-166-112 24-145 112-141 230 7 192 173 326 339 345 210 23 407-77 434-275 31-223-94-465-319-447-61 5-86 35-134 64z" horiz-adv-x="1000" />

<glyph glyph-name="refresh" unicode="&#xea06;" d="M800 300c-25-165-190-285-365-240-110 25-200 115-220 225-50 195 100 365 285 365 65 0 120-20 170-55 10-10 15-25 0-40l-55-55c-10-10-5-25 10-25h225c15 0 25 10 25 25v220c0 15-15 20-25 10l-65-65c-10-10-25-10-35 0-90 70-205 105-335 75-155-30-275-155-305-310-50-255 145-480 390-480 200 0 370 150 395 345 0 15-10 30-25 30l-50 0c-10-5-20-10-20-25z" horiz-adv-x="1000" />

<glyph glyph-name="disable-img" unicode="&#xea07;" d="M900 700h-425l5-5-120-115 45-45c30-30 40-75 20-110l125-205 160 80 90-150h-600l70 165c-20 5-45 15-60 30l-40 45-115-120-5 5v-225c0-30 20-50 50-50h800c30 0 50 20 50 50v600c0 30-20 50-50 50z m-240-300c-30 0-60 30-60 60s30 60 60 60 60-30 60-60-25-60-60-60z m-660 65l120 115-120 115 55 55 115-120 115 120 55-55-125-115 120-115-50-50-115 120-115-120-55 50z" horiz-adv-x="1000" />

<glyph glyph-name="grid-by-columns" unicode="&#xea08;" d="M450 100c0-30-20-50-50-50h-150c-30 0-50 20-50 50v500c0 30 20 50 50 50h150c30 0 50-20 50-50v-500z m350 500c0 30-20 50-50 50h-150c-30 0-50-20-50-50v-400c0-30 20-50 50-50h150c30 0 50 20 50 50v400z" horiz-adv-x="1000" />

<glyph glyph-name="testing" unicode="&#xea09;" d="M690 705l-30-120 0 0h-320l-30 120h35c20 0 35 10 45 30l20 45c10 15 25 30 45 30h90c20 0 35-10 45-30l20-45c10-15 25-30 45-30h35z m215-100v-600c0-55-45-100-100-100h-600c-55 0-100 45-100 100v600c0 55 45 100 100 100h0l35-145c10-45 50-75 95-75h320c45 0 85 30 95 75l35 145h10c65 0 110-45 110-100z m-225-265c-20 20-50 20-70 0l-145-145-60 60c-20 20-50 20-70 0s-20-50 0-70l95-95c10-10 25-15 35-15s25 5 35 15l180 180c20 20 20 50 0 70z" horiz-adv-x="1000" />

<glyph glyph-name="bank" unicode="&#xea0c;" d="M105 495l330 255c35 30 85 30 125 0l330-255c20-15 10-45-15-45h-755c-20 0-35 30-15 45z m770-445h-25v25c0 15-10 25-25 25h-35l-40 275c0 15-10 25-25 25s-25-10-30-25l-35-275h-90l-40 275c-5 15-20 25-30 25-15 0-30-10-30-25l-40-275h-90l-35 275c-5 15-15 25-30 25s-25-10-30-25l-35-275h-35c-15 0-25-10-25-25v-25h-25c-15 0-25-10-25-25v-50c0-15 10-25 25-25h750c15 0 25 10 25 25v50c0 15-10 25-25 25z m-375 600c-30 0-50-20-50-50s20-50 50-50 50 20 50 50-20 50-50 50z" horiz-adv-x="1000" />

<glyph glyph-name="amp" unicode="&#xea0d;" d="M445-100h-60l55 335-170 0h0c-15 0-30 15-30 30 0 5 5 20 5 20l310 515 55 0-55-340 175 0h5c15 0 30-15 30-30 0-5 0-10-5-15l-315-515z" horiz-adv-x="1000" />

<glyph glyph-name="warning" unicode="&#xea0e;" d="M976-49l-446 832c-6 10-17 17-30 17-12 0-24-7-30-17l-445-832c-7-11-6-24 0-34 6-11 17-17 30-17h890c13 0 24 6 30 17 7 10 7 23 1 34z m-426 49h-100v100h100v-100z m0 175h-100v325h100v-325z" horiz-adv-x="1000" />

<glyph glyph-name="condition" unicode="&#xea1f;" d="M900 109v116c0 97-78 175-175 175h-100c-41 0-75 34-75 75v116c41 19 70 61 70 109 0 66-54 120-120 120s-120-54-120-120c0-48 29-90 70-109v-116c0-41-34-75-75-75h-100c-97 0-175-78-175-175v-116c-41-19-70-61-70-109 0-66 54-120 120-120s120 54 120 120c0 48-29 90-70 109v116c0 41 34 75 75 75h100c27 0 52 7 75 18v-209c-41-19-70-61-70-109 0-66 54-120 120-120s120 54 120 120c0 48-29 90-70 109v209c23-11 48-18 75-18h100c41 0 75-34 75-75v-116c-41-19-70-61-70-109 0-66 54-120 120-120s120 54 120 120c0 48-29 90-70 109z m-400 660c38 0 69-31 69-69 0-38-31-69-69-69-38 0-69 31-69 69 0 38 31 69 69 69z m-350-838c-38 0-69 31-69 69 0 38 31 69 69 69 38 0 69-31 69-69 0-38-31-69-69-69z m350 0c-38 0-69 31-69 69 0 38 31 69 69 69 38 0 69-31 69-69 0-38-31-69-69-69z m350 0c-38 0-69 31-69 69 0 38 31 69 69 69 38 0 69-31 69-69 0-38-31-69-69-69z" horiz-adv-x="1000" />

<glyph glyph-name="macos" unicode="&#xeacf;" d="M878 157c-20-46-30-66-57-107-37-56-89-127-154-127-58-1-73 37-151 37-78-1-94-38-152-38-65 1-115 65-152 121-104 158-114 344-50 442 45 70 117 111 184 111 69 0 112-37 169-37 55 0 89 38 168 38 61 0 124-33 170-90-149-81-125-293 25-350z m-255 503c29 37 51 89 43 143-47-4-102-34-135-73-29-35-53-88-44-139 52-2 105 29 136 69z" horiz-adv-x="1000" />

<glyph glyph-name="windows" unicode="&#xeadf;" d="M475 688v-313h425v375l-425-62z m-375-313h325v306l-325-48v-258z m375-363l425-62v375h-425v-313z m-375 55l325-48v306h-325v-258z" horiz-adv-x="1000" />

<glyph glyph-name="premium" unicode="&#xeaef;" d="M965 385l-50 50c-20 20-30 60-30 85l15 75c0 25-20 55-45 60l-70 10c-25 5-60 30-75 55l-35 65c-15 25-45 35-70 20l-65-30c-25-10-65-10-90 0l-60 30c-25 10-55 0-70-20l-30-65c-15-25-45-50-75-55l-70-10c-25-5-45-35-45-60l10-70c5-25-10-65-30-85l-50-50c-20-20-20-50 0-70l50-50c20-20 30-60 30-85l-10-80c0-25 20-55 45-60l70-10c25-5 60-30 75-55l35-65c15-25 45-35 70-20l65 30c25 10 65 10 90 0l65-30c25-10 55 0 70 20l35 65c15 25 45 50 75 55l70 10c25 5 45 30 40 60l-10 70c-5 25 10 65 30 85l50 50c10 25 10 55-10 75z m-270-100c-10-55-55-95-110-95h-165c-55 0-105 40-110 95l-35 195c0 10 5 25 15 25 10 5 25 0 30-5l80-115 80 115c10 15 30 15 40 0l80-115 80 115c5 10 20 15 30 10 10-5 15-15 15-25l-30-200z" horiz-adv-x="1000" />

<glyph glyph-name="copy-to" unicode="&#xebef;" d="M500 850h-400c-30 0-50-20-50-50v-600c0-30 20-50 50-50h250v-100h100v100h-100v100h100v100h-100v-100h-200v500h300v-200h100v250c0 30-20 50-50 50z m-150-350v-50h100v100h-50c-30 0-50-20-50-50z m200-650h100v100h-100v-100z m0 600h100v100h-100v-100z m-200-550c0-30 20-50 50-50h50v100h-100v-50z m450 650h-50v-100h100v50c0 30-20 50-50 50z m-50-700h50c30 0 50 20 50 50v50h-100v-100z m35 175c-10-10-25-5-25 10v90c0 15-10 25-25 25h-150c-15 0-25 10-25 25v50c0 15 10 25 25 25h150c15 0 25 10 25 25v90c0 15 15 20 25 10l155-155c10-10 10-25 0-35l-155-160z" horiz-adv-x="1000" />

<glyph glyph-name="globe" unicode="&#xebff;" d="M500 830c-265 0-480-215-480-480 0-265 215-480 480-480 265 0 480 215 480 480 0 265-215 480-480 480z m409-480c0-94-31-180-84-249-15 12-31 43-16 76 15 33 19 110 15 139-3 30-18 102-60 102-42 1-71 15-96 64-52 104 97 124 45 181-14 16-89-66-100 43 0 8 7 20 17 32 162-54 279-208 279-388z m-465 405c-10-19-36-26-52-41-34-31-48-26-67-56-18-30-78-73-78-94s30-47 45-42c15 5 55 5 78-4 24-8 196-16 141-162-17-46-93-38-114-115-3-11-13-59-14-75-1-24 17-116-6-116-24 0-87 82-87 97 0 15-17 67-17 112 0 44-75 43-75 103 0 53 41 80 32 105-10 26-82 27-112 30 53 136 176 238 326 258z m-73-794c25 13 27 30 50 31 25 1 46 10 75 17 25 5 71 31 111 34 34 3 101-1 119-34-65-43-143-68-226-68-45 0-88 7-129 20z" horiz-adv-x="1000" />

<glyph glyph-name="notify" unicode="&#xecaf;" d="M733 424c-114 246-174 339-360 335-66-1-50 48-101 29-51-18-7-46-59-88-145-119-132-230-64-492 28-111-69-116-30-224 28-78 234-111 451-30 217 81 354 241 326 319-38 107-115 48-163 151z m-187-404c-194-72-353-30-360-11-12 33 63 141 284 224 222 82 346 51 359 15 8-21-89-156-283-228z m-62 175c-102-38-172-81-218-119 32-30 93-37 152-15 77 29 124 94 105 146 0 0 0 1-1 1-12-4-25-8-38-13z" horiz-adv-x="1000" />

<glyph glyph-name="recommend" unicode="&#xecbf;" d="M682 482c-6 18 177 182 70 315-25 31-110-149-230-231-67-45-222-140-222-193v-342c0-64 246-131 432-131 69 0 168 429 168 497 0 68-211 67-218 85z m-432-5c-33 0-150-20-150-156v-242c0-137 117-152 150-152 33 0-50 29-50 114v318c0 89 83 118 50 118z" horiz-adv-x="1000" />

<glyph glyph-name="rocket" unicode="&#xeccf;" d="M597 197c0 0 353 254 313 546 0 6-2 10-5 13-3 3-7 5-13 6-285 40-534-321-534-321-216 26-200-17-299-254-19-45 12-61 46-48 33 13 107 41 107 41l129-133c0 0-27-76-39-110-13-34 3-65 47-46 231 101 273 85 248 306z m50 295c-30 31-30 81 0 111 30 31 79 31 108 0 30-30 30-80 0-111-29-30-78-30-108 0z" horiz-adv-x="1000" />

<glyph glyph-name="aweber" unicode="&#xecdf;" d="M275 800h-5c-120 0-220-100-220-220v-460c0-120 100-220 220-220h15c-55 150-85 305-85 465 0 150 25 295 75 435z m455 0h-295c-55-135-85-280-85-435 0-165 35-320 100-465h280c120 0 220 100 220 220v460c0 120-100 220-220 220z m-140-840c-15-10-40-10-55 5l0 0 0 0c-85 110-130 240-130 380 0 140 45 270 130 380l0 0 0 0c15 15 40 20 55 5 15-15 20-40 5-55l0 0 0 0c-70-90-110-210-110-335s45-240 110-330l0 0c0 0 0 0 5-5 10-10 10-35-10-45z m140 105c-10-10-30-5-35 5l0 0 0 0c-60 75-95 170-95 270 0 100 35 195 95 270l0 0c0 0 0 0 0 5 10 10 25 10 35 5 10-10 10-25 5-35 0 0 0 0-5-5-50-65-85-150-85-240s30-170 85-240l0 0c0 0 0 0 5-5 10 0 5-20-5-30z" horiz-adv-x="1000" />

<glyph glyph-name="expertsender" unicode="&#xecef;" d="M950 660c0-5 0-10-5-15 0 0 0-5 0-5l-125-215-290-505c-5-5-10-10-15-15-15-10-40 0-45 15l-80 135c-5 5-5 10-5 15 0 5 0 10 5 20l195 340 0 0c5 5 5 10 5 15 0 20-15 35-30 35h-400c-10 10-20 15-25 25l-80 135 0 5c-5 5-5 10-5 15 0 20 15 35 35 35h835c15 0 30-15 30-35z m-685-275c-55 0-105-45-105-105 0-55 45-105 105-105s105 45 105 105c-5 60-50 105-105 105z" horiz-adv-x="1000" />

<glyph glyph-name="switch" unicode="&#xecff;" d="M650 700h-300c-193 0-350-157-350-350 0-193 157-350 350-350h300c193 0 350 157 350 350 0 193-157 350-350 350z m0-600c-138 0-250 112-250 250s112 250 250 250 250-112 250-250-112-250-250-250z" horiz-adv-x="1000" />

<glyph glyph-name="refund" unicode="&#xedff;" d="M630 260c0 15-5 30-15 40-10 10-20 15-40 15l-55 10c-40 5-65 20-85 35-20 20-30 50-30 90 0 70 45 120 120 135v55h65v-65c45-5 80-20 110-50l-55-55c-30 25-60 30-90 30-45 0-70-25-70-55 0-10 5-25 15-30 10-5 25-15 40-15l50-10c40-5 65-15 85-35 25-25 35-55 35-95 0-75-50-120-120-130v-75h-65v70c-55 5-100 20-135 60l55 55c30-30 65-40 105-40 50 5 80 25 80 60z m-80 540c-230 0-420-175-445-400h-125c-10 0-15-15-10-20l170-170c5-5 15-5 15 0l170 170c10 5 5 20-5 20h-115c25 170 170 300 345 300 195 0 350-155 350-350s-155-350-350-350c-65 0-125 15-180 50 0 0 0 0-5 0l-55-85c0 0 5-5 5-5 75-35 150-60 235-60 250 0 450 200 450 450s-200 450-450 450z" horiz-adv-x="1000" />

<glyph glyph-name="refund-part" unicode="&#xeeff;" d="M590 130v-75h-65v70c-55 5-100 20-135 60l55 55c30-30 65-40 105-40 50 0 80 20 80 55 0 15-5 30-15 40-10 10-20 15-40 15l-55 10c-40 5-65 20-85 35-20 20-30 50-30 90 0 70 45 120 120 135v60h65v-65c45-5 80-20 110-50l-50-50c-30 25-60 30-90 30-45 0-70-25-70-55 0-10 5-25 15-30 5-10 20-20 40-20l50-10c40-5 65-15 85-35 25-25 35-55 35-95 0-70-55-115-125-130z m-270 270h-115c25 170 170 300 345 300 160 0 290-105 335-250 10-25 15-45 15-70l100-10c0 40-10 80-20 115-60 185-230 315-430 315-230 0-420-175-445-400h-125c-10 0-15-15-10-20l170-170c5-5 15-5 15 0l170 170c15 5 5 20-5 20z m450-320l50-90c30 25 60 50 85 85l-85 55c-15-20-30-35-50-50z m-150-75l0-100c40 5 80 15 115 35l-50 90c-20-10-45-20-65-25z m-245 45c0 0-5 0 0 0l-60-80c0 0 5-5 5-5 60-35 125-55 195-60l0 100c-50 0-100 15-140 45z m500 165l85-55c15 35 30 75 35 115l-100 10c-5-30-15-50-20-70z" horiz-adv-x="1000" />
</font>
</defs>
</svg>
