<?xml version="1.0" encoding="utf-8"?>
<!-- Generator: Adobe Illustrator 24.1.0, SVG Export Plug-In . SVG Version: 6.00 Build 0)  -->
<svg version="1.1" id="Слой_1" xmlns="http://www.w3.org/2000/svg" xmlns:xlink="http://www.w3.org/1999/xlink" x="0px" y="0px"
	 viewBox="0 0 300 300" style="enable-background:new 0 0 300 300;" xml:space="preserve">
<style type="text/css">
	.st0{fill-rule:evenodd;clip-rule:evenodd;fill:#FCD98D;}
	.st1{fill-rule:evenodd;clip-rule:evenodd;fill:#809EBA;}
	.st2{fill-rule:evenodd;clip-rule:evenodd;fill:#2B5E8C;}
	.st3{fill-rule:evenodd;clip-rule:evenodd;fill:#F9B31B;}
</style>
<g>
	<path class="st0" d="M145.1,151.8c12.5-3.2,25.3-5.5,38.2-6.8c2.5-9.7,5.5-19.2,9-28.5l-1.2,0.2c-12.2,2.3-24.3,5.5-36.1,9.5
		C151.3,134.5,148,143.1,145.1,151.8 M113.7,138.9c3.9-7.9,8.1-15.7,12.7-23.2c-7.1,4.1-14,8.4-20.7,13c-5.2,7.6-10,15.4-14.4,23.4
		C98.5,147.4,106,143,113.7,138.9"/>
	<path class="st1" d="M139.9,153.2c2.7-8.5,5.8-16.8,9.3-25c-11,4-21.7,8.7-32.1,14.1c-3.5,7.3-6.7,14.8-9.5,22.4
		C118.1,160.1,128.9,156.3,139.9,153.2"/>
	<path class="st2" d="M190.4,112.1c1.3-0.2,2.6-0.5,3.8-0.7c3.9-9.7,8.3-19.3,13.3-28.5c-12,2.9-23.9,6.6-35.4,11
		c-5.3,8.6-10.1,17.4-14.4,26.5C168.4,117,179.3,114.2,190.4,112.1 M71.3,184.8c2.3-6.1,4.9-12.3,7.7-18.4c-4.8,3.6-9.5,7.3-14,11.2
		c-4.1,6.6-7.8,13.5-11.3,20.4C59.3,193.3,65.2,188.9,71.3,184.8"/>
	<path class="st3" d="M101.8,167.4c2.6-7.3,5.4-14.4,8.6-21.5c-8.1,4.5-16,9.5-23.6,14.8c-3.2,6.5-6.2,13.1-8.9,19.8
		C85.6,175.7,93.6,171.3,101.8,167.4"/>
	<path class="st1" d="M188.1,144.5c14.4-1.2,28.9-1.3,42.3-0.2c3.2-11.4,6.6-22.1,10.3-32.2c-0.6,0-1.2,0-1.9,0
		c-13.5,0-27.4,1.2-41.4,3.5C193.8,125,190.7,134.6,188.1,144.5"/>
	<path class="st3" d="M238.9,107.4c1.3,0,2.5,0,3.6,0c4.2-10.9,9.2-21.5,15-31.7c-10.1,0.4-25.5,1.7-44.1,5.8
		c-5.2,9.4-9.8,19.1-13.9,29C212.5,108.5,225.7,107.5,238.9,107.4 M137.1,182.9c5.2-0.9,10.5-1.6,15.8-2.2
		c8.1-0.9,16.1-1.4,24.2-1.5c1-9.5,2.7-19.5,5.1-29.5c-13.1,1.4-26,3.9-38.7,7.3C140.9,165.5,138.7,174.2,137.1,182.9"/>
	<path class="st0" d="M63.6,209.5c1.4-5.7,3.1-11.5,5.1-17.3c-6.9,5-13.6,10.4-19.9,16.1c-2.3,5.2-4.4,10.6-6.3,16
		C49.2,218.8,56.2,213.9,63.6,209.5"/>
	<path class="st2" d="M132.3,183.8c1.5-8.6,3.6-17,6-25.4c-11.3,3.3-22.2,7.4-32.9,12.4c-2.5,7.3-4.6,14.6-6.4,22.1
		C109.8,189,121,186,132.3,183.8"/>
</g>
</svg>
