<?xml version="1.0" encoding="utf-8"?>
<!-- Generator: Adobe Illustrator 23.0.4, SVG Export Plug-In . SVG Version: 6.00 Build 0)  -->
<svg version="1.1" id="Слой_1" xmlns="http://www.w3.org/2000/svg" xmlns:xlink="http://www.w3.org/1999/xlink" x="0px" y="0px"
	 viewBox="0 0 300 300" style="enable-background:new 0 0 300 300;" xml:space="preserve">
<style type="text/css">
	.st0{fill-rule:evenodd;clip-rule:evenodd;fill:url(#SVGID_1_);}
	.st1{fill:url(#SVGID_2_);}
	.st2{fill:#FFFFFF;}
</style>
<g>
	
		<radialGradient id="SVGID_1_" cx="335.4" cy="-22.9656" r="103.995" gradientTransform="matrix(1 0 0 -1 -193.4 128.0344)" gradientUnits="userSpaceOnUse">
		<stop  offset="0" style="stop-color:#FCB813"/>
		<stop  offset="0.26" style="stop-color:#FCB813"/>
		<stop  offset="1" style="stop-color:#F48120"/>
	</radialGradient>
	<path class="st0" d="M257.3,115.7l-0.2-0.9c2.8-7.9,3-16.9,0.9-26.7l-5.7-25.6l-17.7,19.4c-6.1,6.6-7.2,7.3-12,9.9
		c-1.2,0.6-11.3,6.6-13.8,8.1l-0.2,0.1c-8.3,4.7-23.4,11.7-22.5-0.6v-0.1c0-1.9,0.3-3.7,0.8-5.5c2.9-10.9-0.5-12.4-7.7-3.2
		s-13.5,7.4-14.1-3.9c-0.6-11.3-4.3-11.6-8.3-0.7s-10.5,11.2-14.6,0.6c-4.1-10.6-7.7-9.7-8.1,1.9s-6.6,13.9-13.7,5.1
		c-7.1-8.8-10.3-6.9-7.1,4.3c3.2,11.2-1.9,15.2-11.4,9.1c-9.5-6.2-12-3.4-5.4,6.3c1,1.4,1.8,3,2.5,4.6c9.2,14.9-29.6,7.6-29.6,7.6
		l-1.4-0.1c-1.4-0.2-2.7-0.3-3.8-0.4l-0.7-0.1c-5.5-0.5-6.8-0.6-15-4.3l-23.9-10.7l5,25.8c1.9,9.8,5.7,17.9,11.4,24.1l0.2,0.9
		c1.5,8.9,6.3,16.9,13.3,22.6l0.1,0.3c4.8,20.4,23.9,29.6,39.6,29.5c1.7,0,3.3-0.1,5-0.3l0.9-0.1c-4.1,7.5-1,9,7.7,3.1
		c9.6-6.5,15.1-2.9,12.1,8.1c-3,10.9,0.5,12.4,7.6,3.2c7.1-9.2,13.5-7.4,14.1,3.9s4.3,11.6,8.3,0.7c3.9-10.9,10.5-11.2,14.6-0.6
		c4.1,10.6,7.7,9.7,8.1-1.9c0.4-11.6,6.6-13.9,13.7-5.1c7.1,8.8,10.3,6.9,7.1-4.3c-3.2-11.2,1.9-15.2,11.4-9.1s12,3.4,5.4-6.3
		c-6.5-9.6-2.9-15.1,8.1-12.1c9.7,2.6,12,0.2,5.9-5.4l0.8-0.2c17.4-5,33.1-23.1,29.3-44.5l-0.1-0.3
		C258.3,133.7,259.5,124.5,257.3,115.7z"/>
	
		<radialGradient id="SVGID_2_" cx="818.1885" cy="-73.2782" r="85.4599" gradientTransform="matrix(0.9799 -0.1994 -0.1994 -0.9799 -664.663 239.8521)" gradientUnits="userSpaceOnUse">
		<stop  offset="0" style="stop-color:#F05A22"/>
		<stop  offset="0.21" style="stop-color:#F05A22"/>
		<stop  offset="1" style="stop-color:#C3161C"/>
	</radialGradient>
	<path class="st1" d="M252.7,91.8l-3-13.5l-9.5,10c-6.8,7.2-8.6,8.1-13.8,10.9c-1.1,0.6-2.4,1.3-3.9,2.1l-1.2,0.6
		c-7.5,4.1-19.2,10.6-26.9,21.2l-1-5.1l-92.2,18.8l1.1,5.2c-11.3-6.8-24.5-8.1-33.1-8.9l-1.3-0.1c-1.6-0.2-3.1-0.3-4.3-0.4
		c-5.9-0.5-7.8-0.7-17-4.6L34,122.3l2.6,13.6c2,10.4,6.4,17.2,10.8,21.6l0.5,2.6c1.3,8,5.8,15.1,12.5,19.6L61,182
		c4,17.3,22.2,25.7,37.3,23.8l16.6-2.1l0.5,2.6l92.2-18.8l-0.5-2.7l16.2-4.6c14.8-4.2,28.1-19,25.1-36.4l-0.4-2.3
		c4.4-6.8,5.8-15.1,3.9-22.9l-0.6-2.6C253.7,110.1,255,102.1,252.7,91.8z"/>
	<path class="st2" d="M198.7,178.1l-28.7-19l19.1-28.8L198.7,178.1L198.7,178.1L198.7,178.1z M125,197.8l19.1-28.8l1.2,0.8
		c6.7,4.3,15.6,2.5,20.1-4.1l0.8-1.2l28.9,19.1L125,197.8z M110,146.3l28.7,19.1l-19.1,28.8L110,146.3z M183.5,126.6L160,162
		c-2.6,3.7-7.6,4.6-11.4,2.2l-35.1-23.3L183.5,126.6z M234.5,124.6c0,0,16.2-8,11.1-31.2c-9.2,9.7-10.8,9.6-19.4,14.4
		c-8.1,4.5-23.4,12.4-29.4,26.2l8.9,43.7l15.6-4.4c11.1-3.1,22.2-14.5,19.9-28.2c-10.1,6.6-16.9,6-16.9,6s25.4-9,20.5-30.9
		C238.7,124.7,234.5,124.6,234.5,124.6L234.5,124.6z M104.6,152.7c-11-10.4-28.1-11.6-37.3-12.5c-9.8-1-11.3-0.3-23.5-5.6
		c4.4,23.3,22.4,24.4,22.4,24.4s-3.8,1.8-11.1-0.1c4.1,22.1,31,20.4,31,20.4s-6.1,3.2-17.9,1.2c3.2,13.5,17.9,19.6,29.3,18.1
		l16.1-2.1L104.6,152.7z"/>
</g>
</svg>
