<svg xmlns="http://www.w3.org/2000/svg" xml:space="preserve" viewBox="0 0 300 300">
  <path d="M74.2 148.2c.5-.1.9-.1 1.3 0 .2-.6.3-1.5.1-2.6-.3-1.5-.8-2.5-1.7-2.3-.9.1-.9 1.3-.6 2.8.2.9.5 1.7.9 2.1zm-7.7 1.2c.6.3 1 .5 1.2.3.1-.1.1-.3-.1-.5-.3-.5-1-1-1.7-1.3-1.4-.6-3.1-.4-4.4.5-.4.3-.8.8-.8 1 0 .1.1.2.2.2.4 0 1.6-.6 3-.7 1.1-.1 1.9.3 2.6.5zm-1.4.8c-.8.1-1.3.4-1.6.7-.3.2-.4.5-.4.6 0 .1 0 .1.1.2l.1.1c.2 0 .6-.2.6-.2 1.2-.4 1.9-.4 2.7-.3.4 0 .6.1.7-.1 0 0 .1-.1 0-.3-.1-.3-1-.9-2.2-.7zm6.5 2.7c.6.3 1.2.2 1.4-.2s-.1-1-.7-1.3c-.6-.3-1.2-.2-1.4.2-.2.5.1 1 .7 1.3zm2.8-2.1c0 .6.4 1.2.8 1.2s.9-.5.9-1.1c0-.6-.4-1.2-.8-1.2-.5 0-.9.5-.9 1.1zm-30.8 10.3c-.1 0-.3.1-.4.1-.3 0-.6-.2-.8-.4-.2-.3-.2-.8 0-1.4 0-.1.1-.2.1-.2.4-.8 1-2.2.3-3.6-.5-1-1.4-1.6-2.4-1.8-1-.1-2 .2-2.7 1-1 1.1-1.2 2.7-1 3.2.1.2.2.3.3.3.2 0 .4-.1.6-.5v-.1c.1-.2.2-.7.4-1a2 2 0 0 1 1.2-.8c.5-.1 1 0 1.4.3.7.5 1 1.4.7 2.2-.2.4-.4 1.3-.4 2 .1 1.4 1 1.9 1.7 2 .7 0 1.3-.4 1.4-.7.1-.2 0-.3 0-.3-.1-.4-.2-.3-.4-.3z"/>
  <path d="M87 158.6c0-.1-.2-.8-.5-1.6s-.5-1.4-.5-1.4c1-1.5 1-2.9.9-3.7-.1-1-.5-1.8-1.3-2.6s-2.4-1.7-4.7-2.4c-.3-.1-1.1-.3-1.2-.3 0 0-.1-2.8-.1-4.1 0-.9-.1-2.2-.5-3.6-.5-1.8-1.4-3.4-2.5-4.4 3-3.1 4.9-6.6 4.9-9.5 0-5.7-7-7.4-15.6-3.8l-1.8.8s-3.3-3.2-3.3-3.3c-9.8-8.5-40.4 25.5-30.6 33.7l2.1 1.8c-.6 1.4-.8 3.1-.6 4.9a9.1 9.1 0 0 0 3.3 6.1c1.8 1.6 4.2 2.6 6.5 2.6 3.8 8.8 12.5 14.2 22.7 14.5 10.9.3 20.1-4.8 24-14 .3-.6 1.3-3.6 1.3-6.1-.1-2.5-1.6-3.6-2.5-3.6zm-44.8 7c-.3.1-.7.1-1 .1-3.3-.1-6.9-3.1-7.2-6.6-.4-3.9 1.6-6.9 5.1-7.6.4-.1.9-.1 1.5-.1 2 .1 4.9 1.6 5.6 5.9.5 3.8-.4 7.6-4 8.3zm-3.7-16.5a8.4 8.4 0 0 0-5.3 3.4c-.7-.6-2-1.7-2.3-2.2-1.9-3.6 2.1-10.6 4.8-14.5 6.8-9.7 17.5-17.1 22.5-15.8.8.2 3.5 3.3 3.5 3.3s-4.9 2.7-9.5 6.6c-6.2 4.8-10.9 11.7-13.7 19.2zm12.6-13.3c2.4-2.8 5.4-5.2 8.1-6.6.1 0 .2.1.1.1-.2.4-.6 1.2-.8 1.8 0 .1.1.2.2.1 1.7-1.1 4.6-2.4 7.1-2.5.1 0 .2.1.1.2-.4.3-.8.7-1.1 1.1-.1.1 0 .2.1.2 1.8 0 4.3.6 5.9 1.6.1.1 0 .3-.1.2-2.5-.6-6.5-1-10.8 0-3.8.9-6.6 2.3-8.7 3.9 0 .1-.2 0-.1-.1zm36 27.4c-.5 2.9-1.7 5.2-3.8 7.4-1.3 1.3-2.8 2.5-4.5 3.4-.9.5-1.9.9-2.9 1.2-7.8 2.5-15.7-.3-18.2-6.2-.2-.5-.4-.9-.5-1.4-1.1-3.9-.2-8.7 2.7-11.6.2-.2.4-.4.4-.7 0-.2-.1-.5-.3-.7-1-1.5-4.5-4-3.8-8.8.5-3.5 3.5-5.9 6.4-5.8h.7l3.3.3c1.7.1 3.2-.2 5-1.7.6-.5 1.1-.9 1.9-1.1.1 0 .3-.1.7-.1.4 0 .9.1 1.2.4 1.4 1 1.7 3.3 1.7 5 0 1 .2 3.3.2 4 .1 1.5.5 1.8 1.3 2 .5.2.9.3 1.5.4 1.9.5 3 1.1 3.8 1.8.4.4.6.9.7 1.3.2 1.6-1.3 3.7-5.3 5.5-4.4 2-9.6 2.5-13.3 2.1-.3 0-1.3-.1-1.3-.1-2.9-.4-4.6 3.4-2.8 6 1.1 1.7 4.2 2.7 7.3 2.7 7.1 0 12.5-3 14.5-5.6l.2-.2c.1-.1 0-.2-.1-.1-1.6 1.1-9 5.6-16.8 4.3 0 0-.9-.2-1.8-.5-.7-.3-2.1-.9-2.3-2.4 6.3 2 10.3.1 10.3.1.1 0 .1-.1.1-.2s-.1-.2-.2-.2c0 0-5.2.8-10.1-1 .5-1.7 1.9-1.1 4.1-.9 3.9.2 7.3-.3 9.9-1.1 2.2-.6 5.1-1.9 7.4-3.7.8 1.7 1 3.5 1 3.5s.6-.1 1.1.2c.5.3.8.9.6 2.5zm37.4-9.7c-5.1 0-5.2 5.6-6.5 5.6-.3 0-.5-.2-.5-.5 0-.4.1-.8.1-1.4 0-2-1.4-3.7-4.4-3.7-2.5 0-4.4 1.3-5.5 3.6-.6 1.2-.5 2-1.1 2-.2 0-.4-.2-.4-.5 0-.9.8-1.6.8-3.5 0-.5 0-.9-.1-1.2H102v19h6.6v-10.3c0-2 .9-3.3 2.4-3.3 1 0 1.9.9 1.9 2.4v11.2h6.6v-10.3c0-2.3 1.1-3.3 2.4-3.3 1.1 0 1.9 1 1.9 2.4v11.2h6.6v-11.7c0-5-2-7.7-5.9-7.7zm38.9-4.9h6.6v24.3h-6.6zm14.5 14.8c0-2.2 1.8-3.4 4.5-3.4 2.4 0 4.7 1 6.3 2.1v-6.6c-1.4-1-3.8-1.9-6.9-1.9-5.8 0-9.6 3.6-9.6 9.7 0 6.5 4.2 10.2 9.6 10.2 3.1 0 5.5-1.2 6.9-2.4v-6.3c-1.5 1-3.8 2.2-6.2 2.2-3-.1-4.6-1.4-4.6-3.6zm25.3-9.8c-2.7 0-4.2 1.2-5.4 3.5-.5 1-.5 2-1.1 2-.2 0-.4-.2-.4-.5 0-1.1 1.3-2.6 1.3-7.3 0-1.2-.1-2.1-.3-2.7h-5.7v24.3h6.6v-10.2c0-1.9 1-3.4 2.5-3.4 1.1 0 1.9.9 1.9 2.4v11.2h6.6V161c.1-4.9-2.1-7.4-6-7.4zm60.9-.1c-2.9 0-4.4 1.7-5.3 3.2-.7 1.2-.8 2.4-1.3 2.4-.3 0-.4-.2-.4-.5 0-.6.8-1.6.8-3.2 0-.7-.1-1.2-.2-1.5h-5v23.8h6.7v-7.5c.8 1.8 2.6 3 5.1 3 4.4 0 7.4-3.6 7.4-9.9 0-5.7-2.8-9.8-7.8-9.8zm-1.7 15.4c-1.3 0-2.8-1.4-2.8-4.9 0-3.1 1.2-4.9 2.8-4.9 1.9 0 2.9 1.8 2.9 4.9-.1 3.5-1.2 4.9-2.9 4.9zm-120.1-15.4c-3.4 0-6.6.9-8.8 1.9v5.5c2.5-1.4 5.1-2.4 7.4-2.4 2.4 0 3.5 1.3 3.3 3-1-.1-2.1-.1-3.4-.1-5.2 0-8.5 2-8.5 6.4 0 3.6 2.8 5.5 5.9 5.5 3.1 0 5.1-1.4 6.3-3.6.7-1.2.6-2 1.1-2 .2 0 .4.2.4.4 0 .8-.2 1.3-.2 2.3 0 1 .1 1.9.3 2.5h4.8v-10.2c0-5.7-2.6-9.2-8.6-9.2zm-2.3 15.2c-1.2 0-1.9-.5-1.9-1.5 0-1.2 1.2-2.2 4.1-2.2.7 0 1.3 0 1.8.1a4.1 4.1 0 0 1-4 3.6zm25.9-32.6v-10.7h-4.6v10.1c0 2.5-1.7 4.2-3.9 4.2s-3.9-1.7-3.9-4.2v-10.1h-4.6v10.7c0 4.6 3.7 8 8.4 8 4.9 0 8.6-3.4 8.6-8zm17.7 7.6h4.6v-14h5.4v-4.3h-15.4v4.3h5.4zm-13-18.3h4.6v18.3h-4.6zm-34.5 18.3h4.5v-14h5.5v-4.3h-15.5v4.3h5.5zm-29.4-9.1v-9.2h-4.6v18.3h4.6zm9.2-1c0-2.5 1.7-4.2 3.9-4.2s3.9 1.7 3.9 4.2v10.1h4.6V133c0-4.6-3.7-8-8.4-8s-8.4 3.4-8.4 8v10.7h4.6v-10.1zm128.2 19.9c-5.1 0-5.2 5.6-6.5 5.6-.3 0-.5-.2-.5-.5 0-.4.1-.8.1-1.4 0-2-1.4-3.7-4.4-3.7-2.5 0-4.4 1.3-5.5 3.6-.6 1.2-.5 2-1.1 2-.2 0-.4-.2-.4-.5 0-.9.8-1.6.8-3.5 0-.5 0-.9-.1-1.2h-4.9v19h6.6v-10.3c0-2 .9-3.3 2.4-3.3 1 0 1.9.9 1.9 2.4v11.2h6.6v-10.3c0-2.3 1.1-3.3 2.4-3.3 1.1 0 1.9 1 1.9 2.4v11.2h6.6v-11.7c0-5-2-7.7-5.9-7.7zm-32 1.2V173h6.6v-18.3c-.9.4-1.9.6-3.3.6s-2.5-.2-3.3-.6zm3.3-6.2c-2.7 0-4.1 1.2-4.1 2.6 0 1.5 1.7 2.6 4.1 2.6s4.1-1.1 4.1-2.6c0-1.4-1.4-2.6-4.1-2.6zm-61.5 6.2V173h6.6v-18.3c-.9.4-1.9.6-3.3.6s-2.5-.2-3.3-.6zm3.3-6.2c-2.7 0-4.1 1.2-4.1 2.6 0 1.5 1.7 2.6 4.1 2.6s4.1-1.1 4.1-2.6c0-1.4-1.4-2.6-4.1-2.6z"/>
</svg>
