<?xml version="1.0" encoding="utf-8"?>
<!-- Generator: Adobe Illustrator 22.1.0, SVG Export Plug-In . SVG Version: 6.00 Build 0)  -->
<svg version="1.1" id="Слой_1" xmlns="http://www.w3.org/2000/svg" xmlns:xlink="http://www.w3.org/1999/xlink" x="0px" y="0px"
	 viewBox="0 0 300 300" style="enable-background:new 0 0 300 300;" xml:space="preserve">
<style type="text/css">
	.st0{fill:#0072C6;}
</style>
<g>
	<path class="st0" d="M193.6,139.9l63.8-43c0-5.1-4.7-8.7-7.4-8.7h-72.8v42.4l14.8,9.3C192.4,140.1,193.2,140.1,193.6,139.9z"/>
	<path class="st0" d="M194.9,155.7c0,0-2.3,1.4-4.2,0l-13.5-9.3h0v57.7h68.7c6.1,0,11.5-3.6,11.5-12v-78
		C257.4,114.1,192.6,157.1,194.9,155.7z"/>
	<path class="st0" d="M106.8,174c4.5,0,8.1-2,10.8-6.1c2.7-4.1,4-9.8,4-17c0-7.6-1.3-13.5-3.9-17.7c-2.6-4.2-6.1-6.3-10.6-6.3
		c-4.6,0-8.3,2.2-11,6.5c-2.7,4.3-4.1,10.1-4.1,17.2c0,7.2,1.4,13,4.1,17.2C98.8,171.9,102.4,174,106.8,174z"/>
	<path class="st0" d="M42.9,232.6l126.3,26.5V42.2L42.9,66.6V232.6z M86.2,123.4c5.4-7.1,12.4-10.7,21.3-10.7
		c8.3,0,15.1,3.4,20.2,10.2c5.1,6.8,7.7,15.8,7.7,27c0,11.5-2.7,20.7-8,27.8c-5.3,7-12.3,10.5-20.9,10.5c-8.4,0-15.2-3.4-20.4-10.2
		c-5.3-6.8-7.9-15.7-7.9-26.6C78.2,139.9,80.8,130.5,86.2,123.4z"/>
</g>
</svg>
