<?xml version="1.0" encoding="utf-8"?>
<!-- Generator: Adobe Illustrator 23.1.1, SVG Export Plug-In . SVG Version: 6.00 Build 0)  -->
<svg version="1.1" id="Слой_1" xmlns="http://www.w3.org/2000/svg" xmlns:xlink="http://www.w3.org/1999/xlink" x="0px" y="0px"
	 viewBox="0 0 300 300" style="enable-background:new 0 0 300 300;" xml:space="preserve">
<style type="text/css">
	.st0{fill:#0D2959;}
	.st1{fill:#205794;}
</style>
<g>
	<path class="st0" d="M43.3,172.1c0.7-10.3,0.7-20.8,0.7-31.2v-5.8c0-2.1,1.6-3.2,3.5-2.4l82.6,33.4c1.9,0.8,4.8,0.3,6.3-1.2
		L248,61.2c5.7,28.2,8.8,57.4,8.8,87.3c0,30.6-3.2,60.4-9.1,89.2L43.3,172.1z"/>
	<g>
		<path class="st1" d="M249.6,77.1c-0.5-2.8-113,101.8-113,101.8c-1.5,1.4-4.4,2-6.3,1.2l-82.6-32.4c-1.9-0.8-3.5-0.4-3.5,0.8
			c0,10.5-0.9,27.3-0.9,27.3c-0.1,2.1,1.4,4.3,3.4,5L244,244.2c2,0.6,3.9-0.5,4.2-2.6c0,0,8.6-54.9,8.6-85.5
			C256.7,129.1,254.3,102.7,249.6,77.1z"/>
		<path class="st1" d="M53.7,118.7l74.2,28.4c2,0.7,4.8,0.2,6.4-1.2l98.4-88c1.6-1.4,2.6-2.5,2.3-2.4c-0.3,0.1-2.1,0.7-4.1,1.4
			L56.1,115.4c-2,0.7-4.1,1.4-4.8,1.6C50.6,117.2,51.7,118,53.7,118.7z"/>
	</g>
</g>
</svg>
