<?xml version="1.0" encoding="utf-8"?>
<!-- Generator: Adobe Illustrator 23.0.1, SVG Export Plug-In . SVG Version: 6.00 Build 0)  -->
<svg version="1.1" id="Слой_1" xmlns="http://www.w3.org/2000/svg" xmlns:xlink="http://www.w3.org/1999/xlink" x="0px" y="0px"
	 viewBox="0 0 300 300" style="enable-background:new 0 0 300 300;" xml:space="preserve">
<path d="M196.8,142.4c1.6-0.2,3.2-0.2,4.6,0c0.8-1.9,1-5.1,0.2-8.6c-1.1-5.2-2.6-8.4-5.6-7.9c-3.1,0.5-3.2,4.3-2.1,9.5
	C194.4,138.3,195.5,140.8,196.8,142.4 M170.4,146.5c2.2,1,3.5,1.6,4.1,1c0.3-0.3,0.2-1-0.3-1.9c-1.1-1.8-3.3-3.5-5.7-4.5
	c-4.8-2.1-10.6-1.4-15,1.8c-1.5,1.1-2.9,2.5-2.7,3.4c0.1,0.3,0.3,0.5,0.8,0.6c1.2,0.1,5.4-2,10.3-2.3
	C165.4,144.5,168.2,145.5,170.4,146.5 M166,149c-2.9,0.4-4.4,1.4-5.4,2.3c-0.9,0.7-1.4,1.6-1.4,2.2l0.2,0.5l0.5,0.2
	c0.6,0,2.1-0.6,2.1-0.6c4-1.4,6.6-1.2,9.2-0.9c1.4,0.2,2.1,0.2,2.4-0.2c0.1-0.1,0.2-0.4-0.1-0.9C172.8,150.4,169.9,148.5,166,149
	 M187.9,158.2c1.9,0.9,4.1,0.6,4.8-0.8c0.7-1.4-0.3-3.3-2.3-4.3c-1.9-0.9-4.1-0.6-4.8,0.8C184.9,155.3,185.9,157.2,187.9,158.2
	 M200.3,147.4c-1.6,0-2.9,1.7-2.9,3.8c0,2.1,1.2,3.9,2.8,3.9c1.6,0,2.9-1.7,2.9-3.8C203.2,149.1,201.9,147.4,200.3,147.4
	 M92.8,185.8c-0.4,0.1-0.9,0.2-1.5,0.2c-1.2,0-2.1-0.5-2.7-1.4c-0.7-1.1-0.7-2.7,0.1-4.6l0.4-0.8c1.3-2.8,3.4-7.5,1-12
	c-1.8-3.4-4.7-5.5-8.2-5.9c-3.4-0.4-6.8,0.8-9,3.2c-3.5,3.8-4,9-3.4,10.8c0.2,0.7,0.6,0.9,0.9,0.9c0.6,0.1,1.5-0.4,2-1.8l0.2-0.5
	c0.2-0.8,0.7-2.2,1.4-3.4c0.9-1.4,2.3-2.4,4-2.7c1.7-0.4,3.4,0,4.8,0.9c2.4,1.6,3.4,4.6,2.3,7.4c-0.5,1.5-1.4,4.3-1.2,6.6
	c0.4,4.7,3.3,6.5,5.9,6.7c2.5,0.1,4.3-1.3,4.7-2.3c0.3-0.6,0-1-0.1-1.1C94.1,185.5,93.4,185.7,92.8,185.8 M159.4,191.9L159.4,191.9
	L159.4,191.9L159.4,191.9 M240.5,192.8c-1.6,9.7-5.8,17.6-12.7,24.8c-4.2,4.5-9.4,8.5-15.3,11.3c-3.1,1.6-6.5,3-10,4.2
	c-26.3,8.5-53.2-0.8-61.9-21c-0.7-1.5-1.3-3.1-1.7-4.8c-3.7-13.3-0.6-29.2,9.3-39.2v0c0.6-0.6,1.2-1.4,1.2-2.3
	c0-0.8-0.5-1.6-0.9-2.2c-3.4-4.9-15.3-13.4-12.9-29.7c1.7-11.7,12-20,21.7-19.5l2.4,0.1c4.2,0.2,7.8,0.8,11.2,0.9
	c5.7,0.2,10.9-0.6,17-5.6c2.1-1.7,3.7-3.2,6.5-3.7c0.3-0.1,1-0.3,2.5-0.2c1.5,0.1,2.9,0.5,4.2,1.3c4.9,3.2,5.6,11.1,5.9,16.8
	c0.1,3.3,0.5,11.2,0.7,13.5c0.3,5.2,1.7,5.9,4.5,6.8c1.6,0.5,3,0.9,5.2,1.5c6.5,1.8,10.3,3.6,12.8,6c1.4,1.5,2.1,3,2.3,4.5
	c0.8,5.5-4.3,12.4-17.8,18.6c-14.8,6.8-32.7,8.5-45.1,7.2l-4.3-0.5c-9.9-1.3-15.6,11.4-9.6,20.1c3.8,5.6,14.3,9.3,24.7,9.3
	c23.9,0,42.3-10.1,49.2-18.9l0.5-0.8c0.3-0.5,0.1-0.8-0.4-0.5c-5.6,3.8-30.4,18.9-57,14.3c0,0-3.2-0.5-6.2-1.7
	c-2.3-0.9-7.2-3.1-7.8-8.1c21.4,6.6,34.9,0.4,34.9,0.4c0.2-0.1,0.4-0.4,0.4-0.7c0-0.3-0.3-0.6-0.7-0.5c0,0-17.6,2.6-34.2-3.4
	c1.8-5.8,6.6-3.7,13.9-3.1c13.1,0.8,24.8-1.1,33.5-3.6c7.5-2.1,17.4-6.4,25.1-12.4c2.6,5.6,3.5,11.8,3.5,11.8s2-0.4,3.7,0.7
	C240.1,185.6,241.3,187.6,240.5,192.8 M118.4,100.4c8.2-9.4,18.4-17.6,27.4-22.2c0.3-0.2,0.6,0.2,0.5,0.5c-0.7,1.3-2.1,4.1-2.5,6.2
	c-0.1,0.3,0.3,0.6,0.6,0.4c5.6-3.8,15.5-7.9,24.1-8.4c0.4,0,0.6,0.4,0.3,0.7c-1.3,1-2.7,2.4-3.8,3.8c-0.2,0.2,0,0.6,0.3,0.6
	c6.1,0,14.6,2.1,20.1,5.2c0.4,0.2,0.1,0.9-0.3,0.8c-8.4-1.9-22.2-3.4-36.5,0.1c-12.8,3.1-22.5,7.9-29.6,13
	C118.6,101.2,118.1,100.8,118.4,100.4 M75.7,145.3c-7.5,1.4-14,5.6-18,11.4c-2.4-2-6.9-5.8-7.7-7.3c-6.4-12.1,7-35.6,16.4-48.8
	c23.2-32.8,59.4-57.6,76.2-53.1c2.7,0.8,11.8,11.2,11.8,11.2s-16.8,9.2-32.4,22.1C101,96.8,85.1,120.1,75.7,145.3 M88.2,200.8
	c-1.1,0.2-2.3,0.3-3.4,0.2c-11.2-0.3-23.3-10.3-24.5-22.2c-1.3-13.1,5.4-23.2,17.4-25.6c1.4-0.3,3.2-0.5,5-0.4
	c6.7,0.4,16.6,5.5,18.9,20C103.5,185.6,100.3,198.7,88.2,200.8 M240.1,177.5c-0.1-0.3-0.7-2.6-1.6-5.3c-0.9-2.7-1.8-4.7-1.8-4.7
	c3.5-5.1,3.5-9.7,3.1-12.3c-0.5-3.2-1.8-6-4.6-8.8c-2.7-2.8-8.3-5.7-16.1-7.9l-4.1-1.1c0-0.2-0.2-9.6-0.4-13.6
	c-0.1-2.9-0.4-7.5-1.8-12c-1.7-6.1-4.7-11.4-8.4-14.8c10.2-10.5,16.6-22.1,16.6-32c0-19.1-23.7-24.9-52.8-12.9l-6.2,2.6
	c0,0-11.2-10.9-11.3-11C117.5,14.8,13.7,129.4,46.9,157.2l7.3,6.1c-1.9,4.8-2.6,10.4-2,16.3c0.8,7.7,4.8,15,11.2,20.7
	c6.1,5.4,14.2,8.8,22,8.8c12.9,29.5,42.4,47.7,77.1,48.7c37.1,1.1,68.3-16.2,81.4-47.2c0.9-2.2,4.5-12,4.5-20.7
	C248.2,181.1,243.3,177.5,240.1,177.5"/>
</svg>
