<?xml version="1.0" encoding="utf-8"?>
<!-- Generator: Adobe Illustrator 22.1.0, SVG Export Plug-In . SVG Version: 6.00 Build 0)  -->
<svg version="1.1" id="Слой_1" xmlns="http://www.w3.org/2000/svg" xmlns:xlink="http://www.w3.org/1999/xlink" x="0px" y="0px"
	 viewBox="0 0 300 300" style="enable-background:new 0 0 300 300;" xml:space="preserve">
<style type="text/css">
	.st0{fill-rule:evenodd;clip-rule:evenodd;fill:#4281C3;}
</style>
<path class="st0" d="M29.4,198.8v-7h46.4v7H29.4z M83,198.8v-7h69.1c-2.9,3.3-10.1,7-19.3,7H83z M163.6,198.9v-7h32.9l0.1,7
	L163.6,198.9z M237.8,198.9l0-7.1l32.8,0l-0.1,7L237.8,198.9z M216.8,198.8l-2.4-7h5.5l-1.9,7H216.8z M29.4,185.8v-7.1h46.4v7.1
	H29.4z M83,185.8l-0.1-7.3l75.6,0c-0.1,1.6-1.4,5.9-2.5,7.1L83,185.8z M163.6,185.7l0-7.1l33,0l0,7.2L163.6,185.7z M212.6,185.7
	l-2.7-7l14.6,0l-2.3,7L212.6,185.7z M237.8,185.8v-7.1h32.7v7.1H237.8z M42.9,172.7l0-7h19.8v7L42.9,172.7z M96.5,165.7l19.9,0v7.1
	l-19.9,0L96.5,165.7z M159.2,172.7h-22.8v-7H157C158.5,167.4,159.2,172.7,159.2,172.7z M176.9,172.7v-7h19.7v7H176.9z M208.2,172.6
	l-2.6-6.9h23.7l-2.5,6.9H208.2z M237.9,172.7l-0.1-6.9h19.3v6.9L237.9,172.7z M42.9,159.6l0-7h19.8v7.1L42.9,159.6z M154.4,159.6
	c-1.4-2.3-2.9-4.9-8-7H96.5v7H154.4z M176.9,159.7l-0.1-7.1h19.6v7.1H176.9z M231.4,159.7l-27.6,0l-2.9-7.1h32.7L231.4,159.7z
	 M237.8,152.5l19.3,0.1v7.1h-19.2L237.8,152.5z M62.7,146.7l-19.8-0.1v-7h19.8V146.7z M96.5,139.7h57.9c0,0-1.6,2.3-1.9,2.5
	c-1.5,1.8-4.2,3.7-6.1,4.5H96.5V139.7z M176.9,146.7v-7H215l2.2,6.2l2.2-6.2h37.7v7l-19.3,0v-5.7l-2.1,5.7h-36.9l-2.5-5.7v5.7
	L176.9,146.7z M62.7,126.9v6.9H42.9v-6.9H62.7z M116.5,133.8v-6.9H96.5v6.9H116.5z M136.4,133.8v-6.9l22.2,0.1c0,2-1,5-1.8,6.9
	H136.4z M176.9,133.8v-6.8h33.4l2.6,6.9L176.9,133.8z M221.7,133.9l2.4-7h33v7H221.7z M29.4,121l0-7.2h46.4l0,7.2H29.4z M83.1,121
	l0-7.2c23.7,0,47.4,0,71,0c1.2,1.4,2.8,4.9,3.2,7.2H83.1z M163.5,121l0.1-7.2h42.3l2.4,7.2H163.5z M228.4,113.8h42.1l0,7.2h-44.6
	L228.4,113.8z M29.5,108l0.1-6.8h46.3l0,6.8H29.5z M83.1,108l0-6.8c16.1,0,32.3,0,48.3,0c6.3,0.5,13.1,2.6,17.4,6.8c0,0-0.7-0.3,0,0
	L83.1,108z M163.4,108v-6.8h38.2l2.3,6.8H163.4z M230.6,108l2.5-6.8h37.4v6.8H230.6"/>
</svg>
