<?xml version="1.0" encoding="utf-8"?>
<!-- Generator: Adobe Illustrator 23.1.0, SVG Export Plug-In . SVG Version: 6.00 Build 0)  -->
<svg version="1.1" id="Слой_1" xmlns="http://www.w3.org/2000/svg" xmlns:xlink="http://www.w3.org/1999/xlink" x="0px" y="0px"
	 viewBox="0 0 300 300" style="enable-background:new 0 0 300 300;" xml:space="preserve">
<style type="text/css">
	.st0{fill:#038BCB;}
	.st1{fill:#0DABE1;}
	.st2{fill:none;stroke:#038BCB;stroke-width:3;stroke-miterlimit:10;}
	.st3{fill:#3F4648;}
</style>
<g>
	<path class="st0" d="M240.3,224.6H44.5c-1.1,0-2-0.9-2-2V98.9c0-1.1,0.9-2,2-2h182.9v9.4c0,2.9-2.4,5.3-5.3,5.3h-165v98.3h183.2
		c1.1,0,2,0.9,2,2v10.6C242.3,223.7,241.4,224.6,240.3,224.6z"/>
	<path class="st1" d="M221.4,76c-3.1,0-5.5,2.6-5.2,5.7c0.3,2.7,2.7,4.7,5.4,4.7h17.1l-88.9,76.9l-41.3-41.3c-0.8-0.8-2-0.8-2.8,0
		l-45.2,45.2c-1.9,1.9-2.2,5.1-0.5,7.2c2,2.4,5.6,2.5,7.7,0.4l39.4-39.4l40.9,40.9c0.7,0.7,1.9,0.8,2.7,0.1l96.8-83.8v19.7
		c0,2.7,2,5.2,4.7,5.4c3.1,0.3,5.7-2.1,5.7-5.2V78c0-1.1-0.9-2-2-2H221.4z"/>
	<path class="st2" d="M226.2,104.2"/>
	<path class="st2" d="M242.3,107.2"/>
	<path class="st2" d="M226.2,104.2"/>
	<polygon class="st3" points="255.3,197.8 244.6,186.7 255.1,182.7 223.2,169.1 235.7,201.5 240.1,191.1 250.8,202.1 	"/>
</g>
</svg>
