<?xml version="1.0" encoding="utf-8"?>
<!-- Generator: Adobe Illustrator 23.1.1, SVG Export Plug-In . SVG Version: 6.00 Build 0)  -->
<svg version="1.1" id="Слой_1" xmlns="http://www.w3.org/2000/svg" xmlns:xlink="http://www.w3.org/1999/xlink" x="0px" y="0px"
	 viewBox="0 0 300 300" style="enable-background:new 0 0 300 300;" xml:space="preserve">
<style type="text/css">
	.st0{fill:#E6E6E5;}
	.st1{fill:#DADBDB;}
	.st2{fill:#BABCBE;}
	.st3{fill:#F7A343;}
	.st4{fill:#C77D2A;}
	.st5{fill:#43B9E4;}
	.st6{fill:#038CC0;}
	.st7{fill:#D21F38;}
	.st8{fill:#A11D2E;}
</style>
<g>
	<rect x="69" y="78.3" class="st0" width="162" height="143.4"/>
	<polygon class="st1" points="231,78.3 69,78.3 150,196.7 	"/>
	<polygon class="st2" points="132.9,221.7 167.1,221.7 150,196.7 	"/>
	<polygon points="150,153.5 115.5,102.8 115.5,146.3 135.2,175.3 150,153.6 	"/>
	<polygon class="st3" points="150,153.5 164.9,175.4 184.5,146.7 184.5,102.8 	"/>
	<polygon class="st4" points="150,153.6 135.2,175.3 150,197.1 164.9,175.4 150,153.5 	"/>
	<polygon class="st5" points="90.9,197.2 115.5,197.2 115.5,146.3 90.9,110.3 	"/>
	<polygon class="st6" points="90.9,102.8 90.9,110.3 115.5,146.3 115.5,102.8 	"/>
	<polygon class="st7" points="184.5,146.7 184.5,197.2 209,197.2 209,110.8 	"/>
	<polygon class="st8" points="209,102.8 184.5,102.8 184.5,146.7 209,110.8 	"/>
</g>
</svg>
