<?xml version="1.0" encoding="utf-8"?>
<!-- Generator: Adobe Illustrator 24.0.1, SVG Export Plug-In . SVG Version: 6.00 Build 0)  -->
<svg version="1.1" id="Слой_1" xmlns="http://www.w3.org/2000/svg" xmlns:xlink="http://www.w3.org/1999/xlink" x="0px" y="0px"
	 viewBox="0 0 300 300" style="enable-background:new 0 0 300 300;" xml:space="preserve">
<style type="text/css">
	.st0{fill:#FFFFFF;}
	.st1{fill:#394257;}
	.st2{fill:#E16053;}
</style>
<g>
	<g>
		<g>
			<path class="st0" d="M220.1,187.5c0,12.2-9.9,22.1-22.1,22.1h-94.1c-12.2,0-22.1-9.9-22.1-22.1V95.7c0-12.2,9.9-22.1,22.1-22.1
				h94.1c12.2,0,22.1,9.9,22.1,22.1L220.1,187.5L220.1,187.5z"/>
		</g>
	</g>
	<g>
		<g>
			<path class="st1" d="M106.1,70.2c0,0,9.3-30.2,20.8,0.3C106.7,70.2,106.1,70.2,106.1,70.2z"/>
		</g>
	</g>
	<g>
		<g>
			<path class="st1" d="M174.5,70.2c0,0,9.3-30.2,20.8,0.3C175,70.2,174.5,70.2,174.5,70.2z"/>
		</g>
	</g>
	<g>
		<g>
			<g>
				<path class="st0" d="M192.8,236.2c0.6,1.9-0.4,3.8-2.3,4.4L126.7,261c-1.9,0.6-3.8-0.4-4.4-2.3l-13.4-42
					c-0.6-1.9,0.4-3.8,2.3-4.4l63.9-20.3c1.9-0.6,3.8,0.4,4.4,2.3L192.8,236.2z"/>
			</g>
			<g>
				<path class="st1" d="M126,265c-2.9,0-5.5-1.9-6.4-4.7l-13.4-42c-1.1-3.5,0.8-7.3,4.3-8.4l63.9-20.3c3.4-1.1,7.3,0.9,8.4,4.3
					l13.4,42c1.1,3.5-0.8,7.3-4.3,8.4L128,264.7C127.3,264.9,126.6,265,126,265z M176.5,195.6l-64,20.3c-0.2,0.1-0.3,0.3-0.2,0.5
					l13.4,42c0.1,0.3,0.3,0.3,0.5,0.2l63.9-20.3c0.2-0.1,0.3-0.3,0.2-0.5l-13.4-42C176.8,195.7,176.6,195.6,176.5,195.6z"/>
			</g>
		</g>
		<g>
			<g>
				<path class="st0" d="M111.1,213.1c-1.6,0.7-2.4,2.5-1.9,4.2l13.4,42c0.2,0.7,0.6,1.2,1.1,1.7l17.4-33.8L111.1,213.1z"/>
			</g>
			<g>
				<path class="st1" d="M125.6,264.2l-3.9-0.7c-1-0.8-1.8-1.9-2.1-3.1l-13.4-42c-1-3.2,0.5-6.6,3.5-8l1.3-0.6l34.3,16.2
					L125.6,264.2z M112.5,217.3l11.5,36.2l12.7-24.8L112.5,217.3z"/>
			</g>
		</g>
		<g>
			<g>
				<path class="st0" d="M193.1,239.2c0.3-0.7,0.3-1.5,0.1-2.3l-13.3-41.8c-0.6-1.9-2.5-2.6-4.4-2.1l-0.4,0.1l-16.9,28.4
					L193.1,239.2z"/>
			</g>
			<g>
				<path class="st1" d="M193,242.7l-39.2-19.8l19.2-32.3l1.5-0.5c3.6-1.1,7.3,0.7,8.3,4.1l13.3,41.8c0.5,1.4,0.4,3-0.1,4.4
					L193,242.7z M162.7,220.3l26.1,13.2L177,196.3L162.7,220.3z"/>
			</g>
		</g>
		<g>
			<g>
				<path class="st0" d="M177.9,192.8c-0.8-0.3-1.7-0.4-2.5-0.2l-63.9,20.3c-1,0.3-1.7,1-2.1,1.9l44,22.2L177.9,192.8z"/>
			</g>
			<g>
				<path class="st1" d="M154.7,241.2l-48.4-24.4l0.2-3.3c0.8-1.7,2.3-3,4-3.6l63.9-20.3c1.6-0.5,3.3-0.4,4.8,0.3l3.1,1.4
					L154.7,241.2z M116.2,214.8l35.9,18.1l19.8-35.7L116.2,214.8z"/>
			</g>
		</g>
	</g>
	<g>
		<g>
			<path class="st1" d="M150.4,153.8c-32.2,0-59.7,8.4-73.5,21.6c0.1,17.1,13.5,35.1,30.6,35.1h86c17.1,0,30.2-18.4,30.3-35.4
				C209.8,161.9,182.6,153.8,150.4,153.8z"/>
		</g>
	</g>
	<g>
		<g>
			<path class="st1" d="M209.9,73.2l52.3,30.3c0,0-23.3,18.6-42,5.3c-1-0.7,0.6-22-0.5-22.9L209.9,73.2z"/>
		</g>
	</g>
	<g>
		<g>
			<path class="st1" d="M90.1,73.2l-52.3,30.3c0,0,23.3,18.6,42,5.3c1-0.7-0.6-22,0.5-22.9L90.1,73.2z"/>
		</g>
	</g>
	<g>
		<g>
			<path class="st2" d="M150.4,160.1c-32.2,0-58.8,8.8-72.6,21.1c0.1,15.9,12.6,29.3,29.6,29.3h86c17.1,0,29.8-12.7,29.8-28.7
				C209.4,169.5,182.6,160.1,150.4,160.1z"/>
		</g>
	</g>
	<g>
		<g>
			<path class="st1" d="M144.5,129c-0.9,3.6-3.5,6.1-5.7,5.5c-2.3-0.6-3.3-4-2.4-7.6c0.9-3.6,3.5-6.1,5.7-5.5
				C144.3,122,145.4,125.4,144.5,129z"/>
		</g>
	</g>
	<g>
		<g>
			<path class="st1" d="M165.5,126.8c1,3.6,0.1,7-2.2,7.7c-2.2,0.6-4.9-1.8-5.9-5.3c-1-3.6,0-7,2.2-7.7
				C161.9,120.9,164.5,123.2,165.5,126.8z"/>
		</g>
	</g>
	<g>
		<g>
			<path class="st1" d="M127.3,186.6c3,5.2,2.9,10.9-0.3,12.8c-3.2,1.9-8.3-0.8-11.3-6c-3-5.2-2.9-10.9,0.3-12.8
				C119.2,178.8,124.3,181.4,127.3,186.6z"/>
		</g>
	</g>
	<g>
		<g>
			<path class="st1" d="M177,186.9c-3,5.2-2.9,10.9,0.3,12.8c3.2,1.9,8.3-0.8,11.3-6c3-5.2,2.9-10.9-0.3-12.8
				C185.1,179,180.1,181.7,177,186.9z"/>
		</g>
	</g>
	<g>
		<g>
			<g>
				<path class="st1" d="M223.6,98.8c0-17.1-13.9-31-31-31h-85.2c-17.1,0-31.1,13.6-31.1,30.7v86c0,17.1,14,31.6,31.1,31.6h86
					c17.1,0,31-14.2,31-31.3L223.6,98.8z M218.1,186.5c0,12.8-10.4,23.1-23.1,23.1h-89.1c-12.8,0-23.1-10.3-23.1-23.1V97.4
					c0-12.8,10.3-23.1,23.1-23.1H195c12.8,0,23.1,10.3,23.1,23.1V186.5z"/>
			</g>
		</g>
	</g>
</g>
</svg>
