<?xml version="1.0" encoding="utf-8"?>
<!-- Generator: Adobe Illustrator 24.0.1, SVG Export Plug-In . SVG Version: 6.00 Build 0)  -->
<svg version="1.1" id="Слой_1" xmlns="http://www.w3.org/2000/svg" xmlns:xlink="http://www.w3.org/1999/xlink" x="0px" y="0px"
	 viewBox="0 0 300 300" style="enable-background:new 0 0 300 300;" xml:space="preserve">
<style type="text/css">
	.st0{fill:#8DBE23;}
	.st1{fill:#7CA830;}
	.st2{fill:#008437;}
	.st3{fill:#DEDDDD;}
	.st4{fill:#709634;}
	.st5{fill:#167838;}
	.st6{fill:#008538;}
	.st7{fill:#1D7938;}
	.st8{clip-path:url(#SVGID_2_);fill:url(#SVGID_3_);}
	.st9{fill:#C5C1C1;}
	.st10{fill:#EBF1E9;}
	.st11{fill:#80B727;}
	.st12{fill:#CFD3CC;}
	.st13{fill:#74A32F;}
	.st14{fill:#008438;}
	.st15{fill:#E5E4E4;}
	.st16{fill:#FDFDFD;}
	.st17{fill:#97C23A;}
	.st18{fill:#8AAE3F;}
	.st19{fill:#308B43;}
	.st20{fill:#E0DEDE;}
	.st21{fill:#3A7F42;}
	.st22{fill:#668C2C;}
	.st23{fill:#358B43;}
	.st24{fill:#3A8044;}
	.st25{fill:#8AAE41;}
	.st26{fill:#7D9C42;}
	.st27{fill:#3A7F43;}
	.st28{fill:#EBEFE8;}
	.st29{fill:#8EBB3C;}
	.st30{fill:#E5E4E6;}
</style>
<g>
	<path class="st0" d="M78.3,171.7c-0.9,1.2-2.9-2.3-2.9-2.3c-3.8-7.1-4.7-16.9-6.1-24.8c-2.1-12.4-3.5-24.9-4-37.5l-0.2,1.4
		c0.1-0.5,0.2-1,0.2-1.4c-5.7,14.8-7.3,46.1-7.3,46.1c0,0.1,0.4,20.4,6.1,22.4c0.3,0.1,0.5,0.1,0.7,0c0.1,0,0.3,0,0.4,0
		C69.7,174.7,73.9,172.4,78.3,171.7L78.3,171.7z"/>
	<path class="st1" d="M65.1,108.5c-1.1,3.7-2.1,7.6-2.8,11.8c0.7-3.9,1.6-7.6,2.7-10.8c0.5,11.3,1.8,23.1,3.9,35.2
		c0.2,1.4,0.5,2.8,0.7,4.4c0.8,5.1,1.6,10.6,3.3,15.6c0.1-0.2,0.2-0.4,0.3-0.7c-2-6.2-2.8-13.3-3.8-19.4c-2-11.9-3.4-24-3.9-36
		L65.1,108.5z"/>
	<path class="st2" d="M67.4,174.9c-1.3-1.1-2.1-2.8-2.7-4.4c-0.8-2.1-1.5-4.2-2-6.4c-1.1-4.3-1.9-8.7-2.3-13.1
		c-0.4-4.8-0.5-9.8-0.2-14.6c0.1-1.4,0.2-2.9,0.3-4.3c0.8-8.6,2.3-16.9,4.9-25.1c-5.7,14.8-7.6,30.3-7.7,46.1l0,0.4
		c0.3,4.2,1.1,18.2,5.4,22.1C64.3,176.9,65.4,175.8,67.4,174.9 M65.3,107.1c0,0.4-0.1,0.9-0.1,1.4L65.3,107.1z"/>
	<path class="st3" d="M65.1,107c-5.2,13.4-7.7,28.5-7.7,46.2l0.2,0c0-15.5,1.9-30.5,7.3-45.1c0.1-0.4,0.3-0.7,0.4-1.1c0,0,0,0,0,0
		c0,0,0,0,0,0c0,0,0,0,0,0c0,0,0,0,0,0c0,0,0,0,0-0.1l0,0.1c0,0.5,0,0.9,0,1.3l0,0l0.1-1.4l-0.2,0L65.1,107z M65.3,107.1
		C65.3,107.1,65.3,107.1,65.3,107.1C65.3,107.1,65.3,107.1,65.3,107.1L65.3,107.1z M65.3,107.1C65.3,107.1,65.3,107.2,65.3,107.1
		c-0.1,0.4-0.1,0.8-0.2,1.3L65.3,107.1z M57.4,153.2L57.4,153.2 M57.7,153.2l-0.2,0L57.7,153.2L57.7,153.2z M57.5,153.5L57.5,153.5
		l0,0.2c0.1,2.1,0.4,6.3,1.1,10.5C58.1,160.7,57.7,157.1,57.5,153.5"/>
	<path class="st1" d="M62.3,120.2c-0.7,3.7-1.3,7.6-1.8,11.4c0,0.2,0,0.4,0,0.5c-0.1,1.4-0.2,2.8-0.3,4.3c-0.2,4.9-0.2,9.8,0.2,14.6
		c0.4,4.4,1.2,8.8,2.3,13.1c0.6,2.2,1.2,4.3,2,6.4c0.5,1.3,1.2,2.7,2.1,3.8c0.1-0.1,0.1-0.1,0.2-0.2c-0.9-1-1.6-2.4-2.1-3.7
		c-0.7-1.9-1.4-4-2-6.4c-1.2-4.6-1.9-9-2.3-13c-0.4-4.5-0.5-9.4-0.2-14.6c0.1-1.5,0.2-2.9,0.3-4.2C61.1,127.9,61.6,124,62.3,120.2
		 M61.4,157.1C61.4,157.1,61.4,157.1,61.4,157.1C61.4,157.1,61.4,157.1,61.4,157.1c0,0,0,0.1,0,0.1c0,0.4,0.1,0.8,0.1,1.2
		c0-0.5-0.1-0.9-0.1-1.2C61.4,157.2,61.4,157.2,61.4,157.1"/>
	<path class="st4" d="M65.3,107.1 M65.3,107.1L65.3,107.1C65.3,107.1,65.3,107.1,65.3,107.1C65.3,107.1,65.3,107.1,65.3,107.1
		 M65.3,107.1c-0.1,0.3-0.3,0.7-0.4,1.1C65,107.8,65.2,107.5,65.3,107.1C65.3,107.1,65.3,107.1,65.3,107.1 M65.3,107.1
		C65.3,107.1,65.3,107.1,65.3,107.1l-0.2,1.4C65.1,108,65.2,107.5,65.3,107.1c-2.6,8-4,16.2-4.8,24.5c0.5-3.8,1.1-7.7,1.8-11.4
		c0.8-4.2,1.7-8,2.8-11.8l0.2,0C65.3,108.1,65.3,107.6,65.3,107.1l-0.1,1.4C65.2,108,65.3,107.5,65.3,107.1
		C65.3,107.1,65.3,107.1,65.3,107.1"/>
	<path class="st5" d="M65.3,107.1C65.3,107.1,65.3,107.1,65.3,107.1c-0.1,0.4-0.1,0.9-0.1,1.4L65.3,107.1L65.3,107.1z M65.3,107.1
		C65.3,107.1,65.3,107.1,65.3,107.1C65.3,107.1,65.3,107.1,65.3,107.1C65.3,107.1,65.3,107.1,65.3,107.1c-0.1,0.4-0.3,0.7-0.4,1.1
		c-5.4,14.5-7.2,29.6-7.3,45.1l0.2,0h0h0l-0.2,0c0,0,0,0,0,0l0.2,0v0c0-14.4,1.7-27.2,5.1-38.7c-1.3,5.3-2.2,11.1-2.8,17.6
		c-0.1,1.4-0.2,2.8-0.3,4.3c-0.2,5.2-0.1,10.2,0.2,14.7c0.4,4.1,1.1,8.5,2.3,13.1c0.6,2.5,1.3,4.6,2.1,6.5c0.5,1.3,1.2,2.8,2.2,3.9
		c0.1,0,0.1-0.1,0.2-0.2c-0.9-1.1-1.6-2.5-2.1-3.8c-0.8-2.1-1.5-4.2-2-6.4c-1.1-4.3-1.9-8.6-2.3-13.1c-0.4-4.9-0.5-9.8-0.2-14.6
		c0.1-1.4,0.1-2.9,0.3-4.3c0-0.2,0-0.4,0-0.5C61.3,123.3,62.7,115.2,65.3,107.1C65.3,107.2,65.3,107.1,65.3,107.1
		C65.3,107.1,65.3,107.1,65.3,107.1C65.3,107.1,65.3,107.1,65.3,107.1 M57.7,153.2L57.7,153.2L57.7,153.2
		C57.7,153.2,57.7,153.2,57.7,153.2 M57.9,153.2c0,0,0,0.1,0,0.1L57.9,153.2L57.9,153.2z"/>
	<path class="st6" d="M238,209.4c-1.7-2.7-5.1-8.2-5.1-8.2l-5.3-8.9c0,0-7.5-3.2-11.3-5.3c3.1,5.1,6,12.6,10.9,16
		c4,2.7,7.9,5.5,11.9,8.2C238.7,210.5,238.4,210,238,209.4C237.8,209.1,237.9,209.3,238,209.4C238.1,209.6,238.2,209.7,238,209.4"/>
	<path class="st7" d="M228.4,194.2c-0.2,0.4-0.3,0.9-0.5,1.3l3.8,6.4c0.1,0.1,1.3,2.1,2.6,4.3c-0.6-0.4-1.1-0.8-1.7-1.1l-4.7-3.3
		c-0.6-0.4-1.2-0.9-1.7-1.5c-0.2,0.5-0.3,0.9-0.5,1.4c0.5,0.4,1,0.9,1.5,1.2c3.8,2.6,7.6,5.2,11.4,7.8c-2.7-4-5.2-8.3-7.7-12.4
		C230.1,197,229.3,195.6,228.4,194.2"/>
	<g>
		<defs>
			<path id="SVGID_1_" d="M96.8,68.8c-4.6,41-2.2,142.3,31.5,165.2c-1.2-0.6-2.7-1.4-4.2-2.2c-7.9-4-16.2-8,7.2,3.9
				c6.7,2.5,13.5,4.6,20.5,5.9c-17.7-22.3-23.3-54.8-26.7-82.6c-3.6-29.6-4.7-60.8,0.3-90.3H96.8z"/>
		</defs>
		<clipPath id="SVGID_2_">
			<use xlink:href="#SVGID_1_"  style="overflow:visible;"/>
		</clipPath>
		
			<radialGradient id="SVGID_3_" cx="-222.5832" cy="461.9097" r="8.2139" gradientTransform="matrix(12.971 0 0 -36.1093 2998.0383 16847.8184)" gradientUnits="userSpaceOnUse">
			<stop  offset="0" style="stop-color:#FFF5AE"/>
			<stop  offset="0.2912" style="stop-color:#8FBF25"/>
			<stop  offset="0.6923" style="stop-color:#056732"/>
			<stop  offset="1" style="stop-color:#056732"/>
		</radialGradient>
		<rect x="92.1" y="68.8" class="st8" width="59.6" height="172.9"/>
	</g>
	<path class="st0" d="M175.5,240.7c-24.9-9.2-34-45.4-38.9-69c-7-33.4-9.1-68.9-5.8-102.9h-34c-4.3,38-2.6,79,6.1,116.2
		c3.7,16,8.9,34.8,21.1,46.2c7,6.6,17.4,8.5,26.5,10.2c12.6,2.4,25,2.1,37.7,0.4C183.9,242.5,179.5,242.2,175.5,240.7
		c-24.8-9.1-16.5-6.1-8.1-3C172.1,239.5,176.9,241.2,175.5,240.7"/>
	<path class="st3" d="M131.8,140.4c0,0.2-0.1,0.5-0.2,0.7c1.2,10.3,2.9,20.6,5,30.6c1.1,5.3,2.4,11.1,4,17.2
		c0.1-0.1,0.1-0.1,0.2-0.2c-1.6-5.9-2.9-11.6-4-17.1C134.7,161.4,133,151,131.8,140.4 M144.1,199.7c-0.1,0-0.1,0-0.2,0.1
		c2.6,7.8,5.9,15.5,10.1,22.1c0-0.1,0.1-0.1,0.2-0.2c-1.9-3.1-3.8-6.4-5.5-10.2C147,207.7,145.4,203.7,144.1,199.7"/>
	<path class="st1" d="M131.6,141.1c0,0.2-0.1,0.4-0.1,0.6c1.2,10.1,2.8,20.1,4.9,30c1.1,5.5,2.5,11.4,4.1,17.4
		c0.1-0.1,0.1-0.1,0.2-0.2c-1.6-6.1-2.9-12-4-17.2C134.5,161.7,132.8,151.4,131.6,141.1 M143.9,199.8c-0.1,0-0.1,0-0.2,0.1
		c1.4,4,2.9,8,4.7,11.9c1.7,3.8,3.6,7.2,5.6,10.3c0-0.1,0.1-0.1,0.1-0.2C149.8,215.2,146.5,207.5,143.9,199.8"/>
	<path class="st2" d="M159.5,249.5c-3.1-2.4-6-7.5-9.7-8.2c8.3-8.7,14.1-19.8,19.1-30.8c2.6-5.7,4.9-11.5,7.1-17.3
		c0.9-2.4,2.6-4.5,1.1-6.7c-1.1-1.5-2.2-3-3.4-4.6c-4.5,12.6-9.6,25.3-16.9,36.5c-5.2,7.9-13.7,18.3-24.1,16.9
		c-6.6-0.6-12-8-15.5-13.3c-5.3-8.1-8.8-17.4-11.6-26.8c-6.3-21.6-8.9-44.4-10-66.9c-1-19.8-1-39.9,1.2-59.6h23.9h4.2
		c1.1,0,1.8-6.9,2.1-8.2c1.4-5.8,2.7-13.8,8.2-17c-8.5,2.7-15.9,4.7-23.7,9.3c-4.1,2.4-7.8,5.1-11.6,7.9c-1.8,2.1-4.6,4.1-6.3,5.9
		c-4.4,10.1-5,24.2-5.4,35c-1.6,38.5-0.1,80.9,13.4,117.2c4.1,11,10,22.7,19.9,29.2c7.9,5.2,19.2,7,28.3,8.2
		c10.4,1.4,22.6-0.3,18.5-1.8C162.1,252.2,162.2,251.6,159.5,249.5"/>
	<path class="st3" d="M137.1,42.8l-0.4,0.1c0,0,0.1,0,0.1,0L137.1,42.8z M114.7,50.9c-1.1,0.6-2.2,1.2-3.4,1.8
		c-0.9,0.5-1.7,1-2.5,1.5C110.7,53.1,112.6,51.9,114.7,50.9 M93.4,66.6L93.4,66.6C93.4,66.6,93.3,66.6,93.4,66.6
		C93.3,66.6,93.4,66.6,93.4,66.6 M93.3,66.7c-4.3,10.1-4.9,23.9-5.4,34.9v0.1c-0.1,2.8-0.2,5.7-0.3,8.7c0.1-0.4,0.2-0.8,0.3-1.2
		c0.1-2.5,0.2-5,0.3-7.4c0.4-10.5,1-24,5-34C93.2,67.3,93.2,67,93.3,66.7 M170.2,191.2c-0.1,0-0.2,0.1-0.3,0.1
		c-3.5,9-7.8,18.4-13.4,27c-0.8,1.2-1.6,2.3-2.3,3.4c0,0.1,0.1,0.1,0.1,0.2c0.9-1.2,1.7-2.3,2.4-3.5
		C162.2,210,166.5,200.7,170.2,191.2 M100.8,216.9c-0.1,0.1-0.1,0.1-0.2,0.2c0.2,0.6,0.5,1.3,0.7,1.9c3.4,9.2,9.3,22.3,20,29.3
		c3.2,2.1,6.9,3.6,10.8,4.8c-3.1-0.9-5.7-2-7.6-3.1l0-0.1c-1.1-0.6-2.1-1.1-3.1-1.8c-9.9-6.5-15.8-18.2-19.9-29.2
		C101.3,218.2,101.1,217.6,100.8,216.9"/>
	<path class="st1" d="M109.2,205.7c0,0.1-0.1,0.2-0.1,0.2c2.1,5.6,4.7,11.1,8,16.1c3.5,5.3,8.9,12.7,15.5,13.3
		c0.6,0.1,1.3,0.1,1.9,0.1c7.9,0,14.7-6.6,19.5-13.2c0-0.1-0.1-0.1-0.1-0.2c-6.5,8.7-13,13.1-19.4,13.1c-0.6,0-1.2,0-1.9-0.1
		c-6.3-0.6-11.5-7.3-15.3-13.2C114.3,217.3,111.6,212,109.2,205.7"/>
	<path class="st9" d="M154.2,221.7c0,0.1-0.1,0.1-0.2,0.2c0,0.1,0.1,0.1,0.1,0.2c0-0.1,0.1-0.1,0.1-0.2
		C154.3,221.8,154.2,221.8,154.2,221.7"/>
	<path class="st4" d="M154,221.9c0,0.1-0.1,0.1-0.1,0.2c0,0.1,0.1,0.1,0.1,0.2c0-0.1,0.1-0.1,0.1-0.2C154.1,222,154.1,222,154,221.9
		"/>
	<path class="st5" d="M93.2,67.7c-4,10-4.6,23.6-5,34c-0.1,2.5-0.2,5-0.3,7.4c0.1-0.4,0.2-0.8,0.3-1.2c0.1-2.1,0.1-4.2,0.2-6.2v-0.1
		c0.5-10.5,1-23.5,4.8-33.4C93.1,68.1,93.1,67.9,93.2,67.7 M177.6,188.2c0,0-0.1,0-0.1,0c0,0.1,0,0.2,0,0.3
		C177.5,188.4,177.5,188.3,177.6,188.2 M170.5,191.1c-0.1,0-0.2,0.1-0.3,0.1c-3.7,9.5-8,18.8-13.5,27.3c-0.7,1.1-1.5,2.3-2.4,3.5
		c0,0.1-0.1,0.1-0.1,0.2c0,0.1-0.1,0.1-0.1,0.2c-4.8,6.5-11.6,13.2-19.5,13.2c-0.6,0-1.2,0-1.9-0.1c-6.6-0.6-12-8-15.5-13.3
		c-3.3-5-5.9-10.4-8-16.1c0,0.1-0.1,0.2-0.1,0.2c2.4,6.2,5,11.4,8,16c3.9,5.9,9.1,12.8,15.7,13.4c0.6,0.1,1.3,0.1,1.9,0.1
		c7.4,0,15-5.8,22.4-17.1C162.6,209.8,167,200.2,170.5,191.1 M176,192.5c-0.1,0.2-0.1,0.4-0.2,0.6c-2.3,6.3-4.7,11.9-7.1,17.3
		c-1.7,3.7-3.5,7.5-5.5,11.3C168.4,212,172.6,201.9,176,192.5 M101,216.7c-0.1,0.1-0.1,0.1-0.2,0.2c0.2,0.7,0.5,1.4,0.7,2
		c4.1,11,10,22.7,19.9,29.2c1,0.6,2.1,1.3,3.1,1.8l0.1-0.2c-1.1-0.6-2.1-1.1-3.1-1.8c-10.6-6.9-16.4-19.9-19.8-29
		C101.5,218.1,101.2,217.4,101,216.7 M154,236c-1.4,1.8-2.9,3.5-4.4,5.1l-0.3,0.3l0,0C150.9,239.8,152.5,238,154,236"/>
	<path class="st6" d="M211.6,46.8c-3.4,5.7-8.4,11.7-9.8,18.3c-3.4,16.4-10.5,32.7-17,48c-7.9,18.5-16.8,36.6-27.5,53.5
		c-5.1,8.1-10.7,15.9-17,23c-2,2.3-3.7,3.7-4.6,6.6c-0.6,1.9-1.1,3.7-1.7,5.6c21.7-22.3,37-51.3,50.2-79.7
		c6.7-14.5,12.8-29.3,18.2-44.3c2.2-6.2,4.4-12.4,6.3-18.8C209.7,56,212.4,50.2,211.6,46.8"/>
	<path class="st10" d="M211.7,46.2l-0.3,0.5c-0.9,1.5-1.8,2.9-2.9,4.5c-2.9,4.4-5.9,8.9-6.9,13.9c-3.3,15.8-9.9,31.3-16.3,46.2
		l-0.7,1.7c-8.8,20.8-17.8,38.3-27.5,53.5c-5.5,8.7-10.9,16-16.4,22.3c0,0.1,0,0.2,0.1,0.3c6.1-7,11.5-14.6,16.5-22.4
		c10.7-16.9,19.6-35,27.5-53.5c6.5-15.3,13.6-31.6,17-48c1.3-6.4,6.2-12.3,9.6-18c0-0.1,0-0.2,0-0.2l0.4-0.2c0,0,0,0,0,0L211.7,46.2
		z"/>
	<path class="st11" d="M140.4,189.1c-0.1,0.1-0.2,0.2-0.2,0.3c-0.4,0.4-0.7,0.8-1.1,1.2c-1.5,1.6-2.8,3-3.5,5.4
		c-0.5,1.5-0.9,3-1.4,4.5l-0.3,1l0,0c0.1-0.1,0.2-0.2,0.3-0.3c0.5-1.7,1-3.4,1.6-5.1c0.9-2.9,2.6-4.3,4.6-6.6c0-0.1,0.1-0.1,0.2-0.2
		C140.5,189.3,140.5,189.2,140.4,189.1 M134.2,201.9C134.1,201.9,134.1,201.9,134.2,201.9l-0.4,0.1l-0.2,0.5L134.2,201.9z"/>
	<path class="st12" d="M140.8,188.7c-0.1,0.1-0.1,0.1-0.2,0.2c0,0.1,0,0.2,0.1,0.3c0.1-0.1,0.1-0.1,0.2-0.2
		C140.8,188.9,140.8,188.8,140.8,188.7"/>
	<path class="st13" d="M140.6,188.9c-0.1,0.1-0.1,0.1-0.2,0.2c0,0.1,0,0.2,0.1,0.3c0.1-0.1,0.1-0.1,0.2-0.2
		C140.7,189.1,140.6,189,140.6,188.9"/>
	<path class="st14" d="M211.4,47.1c-3.4,5.7-8.2,11.5-9.6,18c-3.4,16.4-10.5,32.7-17,48c-7.9,18.5-16.8,36.6-27.5,53.5
		c-5,7.9-10.4,15.5-16.5,22.4c-0.1,0.1-0.1,0.1-0.2,0.2c-0.1,0.1-0.1,0.1-0.2,0.2c0,0.1-0.1,0.1-0.1,0.2c-2,2.3-3.7,3.7-4.6,6.6
		c-0.5,1.7-1,3.4-1.6,5.1c0.1-0.1,0.2-0.2,0.3-0.4l0.1-0.2c0.5-1.5,0.9-3,1.4-4.5c0.7-2.3,1.9-3.6,3.4-5.3c0.4-0.4,0.7-0.8,1.1-1.2
		c5.7-6.5,11.3-14,17-23c9.7-15.2,18.7-32.7,27.5-53.5l0.7-1.7c6.4-15,13-30.5,16.3-46.3c1-4.8,4-9.3,6.9-13.7
		c0.9-1.4,1.7-2.7,2.5-4C211.5,47.3,211.5,47.2,211.4,47.1 M208.6,58.9C208.6,58.9,208.5,58.9,208.6,58.9c-0.3,1.1-0.6,2.1-0.9,3.1
		C207.9,60.9,208.3,59.9,208.6,58.9 M182.6,125c-8.8,18.9-19.4,39.4-32.9,57.7C163.2,164.4,173.8,143.9,182.6,125 M149.7,182.7
		C149.7,182.7,149.7,182.7,149.7,182.7C149.7,182.7,149.7,182.7,149.7,182.7"/>
	<path class="st15" d="M140,82c0.6-10.2,1.1-21.1-0.5-31.2c-0.5-3-1-9.1-5-7.8c-3.2,1-6.3,2-9.5,3.3c-7.9,3.3-15.5,7.3-22.5,12.4
		c-2.5,1.8-4.9,3.9-7.2,6c-1.2,1.1-1.2,1.1-1.7,2c-0.4,0.8,0,3.3-0.1,5.2c-1.4,25.1-8.2,50.4-15,74.4c-2.5,8.6-4.9,22.4-11.8,28.5
		c-6.4,5.6-8.8-18.8-9-21.7c1.1,17.3,5.3,34.6,14,49.5c3.7,6.4,7.9,15.3,15,18.2c8.4,3.4,15.6-5,19.9-11.3
		c11.5-17.1,17.6-38.7,22.5-58.7C134.7,128.3,138.6,105.2,140,82c0.1-1.1,0,0.8-0.2,2.7C139.7,87.6,139.5,90.5,140,82"/>
	<path class="st16" d="M135.5,42.6c-0.3,0-0.7,0.1-1.1,0.2c-3.1,1-6.3,2-9.5,3.3c-3.6,1.5-7,3.1-10.2,4.8c1.8-0.9,3.6-1.7,5.5-2.4
		c1.6-0.7,3.2-1.4,4.8-2.1c3.1-1.3,6.3-2.3,9.5-3.3c0.4-0.1,0.7-0.2,1-0.2c0.3,0,0.6,0.1,0.9,0.2l0.3-0.1
		C136.3,42.7,135.9,42.6,135.5,42.6 M136.8,42.9l-0.2,0.1c2.1,1.1,2.5,5.4,2.9,7.7c1.6,10.1,1.1,20.8,0.6,31c0,0,0,0.1,0,0.2
		c0,0,0,0,0,0c-0.2,4.2-0.3,5.7-0.3,5.7s0.1-1.5,0.2-3c0-0.7,0.1-1.4,0.1-1.9c-1.2,19.2-4.1,38.3-8.2,57c0,0.2,0,0.5,0.1,0.7
		c4-18.1,6.7-35.8,8-52.6l0-0.2h0c0,0,0-0.3,0-0.7c0-0.1,0-0.3,0-0.5l0.3-4.4l0-0.3c0.6-10.1,1-20.9-0.6-30.9c0-0.2-0.1-0.5-0.1-0.7
		C139.2,47.6,138.7,44,136.8,42.9 M108.8,54.2c-2.2,1.4-4.4,2.8-6.4,4.3c-2.6,1.9-5,4-7.2,6c-1.2,1.1-1.2,1.1-1.7,2.1l0-0.1
		c0.2-0.2,0.4-0.4,0.6-0.6c0.2-0.3,0.5-0.6,1.3-1.3c1.1-1,2.3-2,3.4-3c0.3-0.3,0.7-0.7,1-1l0,0C102.6,58.5,105.6,56.3,108.8,54.2
		 M93.4,66.6c0,0,0,0.1,0,0.1C93.3,66.7,93.3,66.7,93.4,66.6 M87.6,110.4c-2.7,12.2-6,24.2-9.4,35.9c-0.4,1.5-0.9,3.1-1.3,4.9
		c-1.1,4-2.2,8.6-3.8,12.8c0,0.1,0.1,0.2,0.1,0.3c2.3-6,3.8-12.9,5.2-17.9c3.2-11.3,6.5-23,9.1-34.7
		C87.6,111.2,87.6,110.8,87.6,110.4 M57.4,153.2L57.4,153.2 M57.4,153.2L57.4,153.2c0,0.1,0,0.2,0,0.3l0-0.2L57.4,153.2z
		 M58.6,164.2c2.1,14.4,6.5,27.5,12.9,38.6c0.5,0.8,1,1.7,1.5,2.6c3.5,6.1,7.4,13.1,13.6,15.6c1.3,0.5,2.7,0.8,4,0.8
		c3.3,0,6.6-1.6,10-4.8c0-0.1-0.1-0.2-0.1-0.2c-2.9,2.7-6.3,4.8-10,4.8c-1.3,0-2.6-0.2-3.9-0.8c-7.1-2.9-11.3-11.8-15-18.2
		c-6-10.3-9.9-21.8-12.1-33.7C59.1,167.5,58.8,165.8,58.6,164.2"/>
	<path class="st17" d="M72.8,164.6c-1.5,3.8-3.4,7.2-5.8,9.6c0.1,0.1,0.1,0.1,0.2,0.2c2.4-2.4,4.3-5.7,5.8-9.4
		C72.9,164.8,72.9,164.7,72.8,164.6"/>
	<path class="st18" d="M73.1,163.9c-0.1,0.2-0.2,0.4-0.3,0.7c0,0.1,0.1,0.2,0.1,0.3c0.1-0.2,0.2-0.4,0.3-0.6
		C73.2,164.1,73.1,164,73.1,163.9"/>
	<path class="st19" d="M57.9,153.2L57.9,153.2L57.9,153.2C57.9,153.2,57.9,153.2,57.9,153.2z M57.9,153.4l0,0.2l0,0.1
		c0.1,1.4,0.2,3.7,0.5,6.4c1,6.7,3,15.6,6.3,15.6c0.6,0,1.2-0.3,1.8-0.8c0.1-0.1,0.1-0.1,0.2-0.2c-0.1-0.1-0.1-0.1-0.2-0.2
		c-0.1,0.1-0.1,0.1-0.2,0.2c-0.6,0.5-1.2,0.8-1.7,0.8C60.3,175.5,58.2,157.3,57.9,153.4"/>
	<path class="st20" d="M57.7,153.2l-0.2,0l0,0.1l0,0.2c0.2,3.6,0.6,7.2,1.1,10.7c0.3,1.6,0.6,3.3,1,4.8c-0.3-1.8-0.6-3.5-0.9-5.3
		c-0.6-4.1-0.9-8.2-1-10.1L57.7,153.2l-0.2,0.1L57.7,153.2L57.7,153.2z"/>
	<path class="st18" d="M67,174.2c-0.1,0-0.1,0.1-0.2,0.2c0,0.1,0.1,0.1,0.2,0.2c0.1,0,0.1-0.1,0.2-0.2
		C67.1,174.3,67.1,174.2,67,174.2"/>
	<path class="st21" d="M57.9,153.2l-0.2,0c0,0,0,0,0,0L57.9,153.2z M57.7,153.2L57.7,153.2L57.7,153.2
		C57.7,153.2,57.7,153.2,57.7,153.2 M57.9,153.2l-0.2,0c0,0,0,0,0,0c0.1,0.9,0.3,3.6,0.8,6.8c-0.3-2.6-0.4-5-0.5-6.4l0-0.1l0-0.2
		C57.9,153.3,57.9,153.3,57.9,153.2L57.9,153.2z M57.7,153.2L57.7,153.2l0,0.3c0.1,2,0.4,6,1,10.1C58.2,160.2,57.9,156.7,57.7,153.2
		C57.7,153.2,57.7,153.2,57.7,153.2 M66.8,174.3c-0.1,0-0.1,0.1-0.2,0.2c0,0.1,0.1,0.1,0.1,0.2c0.1-0.1,0.1-0.1,0.2-0.2
		C66.9,174.4,66.9,174.4,66.8,174.3"/>
	<path class="st17" d="M131.4,141.1c-0.7,3.3-1.5,6.5-2.3,9.8c-4.6,18.5-10.1,38.2-20,54.6c0,0.1,0.1,0.2,0.1,0.3
		c10-16.6,15.6-36.9,20.1-54.8c0.8-3.1,1.5-6.1,2.2-9.1C131.5,141.5,131.4,141.3,131.4,141.1"/>
	<path class="st20" d="M131.7,139.8c0,0.2-0.1,0.5-0.2,0.7c0,0.2,0.1,0.5,0.1,0.7c0-0.2,0.1-0.5,0.1-0.7
		C131.8,140.2,131.7,140,131.7,139.8"/>
	<path class="st18" d="M131.6,140.4c0,0.2-0.1,0.4-0.1,0.6c0,0.2,0.1,0.4,0.1,0.7c0-0.2,0.1-0.4,0.1-0.6
		C131.6,140.9,131.6,140.7,131.6,140.4"/>
	<path class="st19" d="M93.4,67.7c-0.1,0.2-0.1,0.4-0.2,0.6c0,0.4,0,0.8,0.1,1.2c0,0.8,0.1,1.7,0.1,2.4c-0.7,12-2.6,24.1-5.1,36.1
		c0,0.4,0,0.9,0,1.3c2.7-12.4,4.7-24.9,5.4-37.4C93.6,70.6,93.3,68.9,93.4,67.7 M108.8,205.9c-0.7,1.2-1.5,2.4-2.3,3.6
		c-1.5,2.3-3.4,4.8-5.6,7c0,0.1,0.1,0.2,0.1,0.2c1.9-1.9,3.8-4.2,5.7-7.1c0.8-1.1,1.5-2.3,2.2-3.4
		C108.9,206.1,108.9,206,108.8,205.9"/>
	<path class="st20" d="M136.7,42.9l-0.3,0.1c0.1,0,0.1,0.1,0.2,0.1L136.7,42.9C136.7,42.9,136.7,42.9,136.7,42.9 M120.1,48.4
		c-1.8,0.7-3.6,1.5-5.5,2.4c-2,1.1-4,2.2-5.9,3.4c-3.2,2-6.2,4.3-9.1,6.4l0,0c-0.3,0.3-0.6,0.7-1,1c1.2-1,2.5-2,3.8-2.9
		c2-1.5,4.1-2.9,6.2-4.2c0.9-0.6,1.8-1.1,2.7-1.7c1.2-0.7,2.4-1.3,3.6-1.9C116.7,50.1,118.4,49.2,120.1,48.4 M94,65.9
		c-0.2,0.2-0.4,0.4-0.6,0.6l0,0.1c0,0,0,0,0,0c0,0,0,0.1,0,0.1c-0.1,0.2-0.1,0.6-0.1,1c0.1-0.3,0.2-0.6,0.4-0.9c0,0,0-0.1,0-0.1
		c0,0,0,0,0,0c0,0,0,0,0,0C93.7,66.4,93.9,66.1,94,65.9 M87.9,109.2c-0.1,0.4-0.2,0.8-0.3,1.2c0,0.4,0,0.8,0,1.3
		c0.1-0.4,0.2-0.8,0.3-1.2C87.8,110,87.9,109.6,87.9,109.2 M100.7,216.6c-0.1,0.1-0.1,0.1-0.2,0.2c0,0.1,0.1,0.2,0.1,0.2
		c0.1-0.1,0.1-0.1,0.2-0.2C100.8,216.8,100.8,216.7,100.7,216.6"/>
	<path class="st18" d="M109.1,205.4c0,0.1-0.1,0.2-0.1,0.2c0,0.1,0.1,0.2,0.1,0.3c0-0.1,0.1-0.2,0.1-0.2
		C109.2,205.6,109.2,205.5,109.1,205.4"/>
	<path class="st21" d="M115,51c-1.2,0.6-2.4,1.2-3.6,1.9c-0.9,0.5-1.8,1.1-2.7,1.7C110.7,53.3,112.8,52.1,115,51 M93.6,66.7
		C93.6,66.7,93.6,66.7,93.6,66.7C93.6,66.7,93.5,66.7,93.6,66.7C93.5,66.7,93.6,66.7,93.6,66.7C93.6,66.7,93.6,66.7,93.6,66.7
		 M93.5,66.8c-0.1,0.3-0.2,0.6-0.4,0.9c0,0.2,0,0.4,0,0.6c0.1-0.2,0.1-0.4,0.2-0.6C93.4,67.4,93.4,67,93.5,66.8 M88.1,108
		c-0.1,0.4-0.2,0.8-0.3,1.2c0,0.4,0,0.9,0,1.3c0.1-0.4,0.2-0.8,0.3-1.2C88.1,108.9,88.1,108.4,88.1,108 M109,205.7
		c0,0.1-0.1,0.2-0.1,0.2c0,0.1,0.1,0.2,0.1,0.3c0-0.1,0.1-0.2,0.1-0.2C109.1,205.9,109,205.8,109,205.7 M100.9,216.5
		c-0.1,0.1-0.1,0.1-0.2,0.2c0,0.1,0.1,0.2,0.1,0.2c0.1-0.1,0.1-0.1,0.2-0.2C101,216.6,100.9,216.6,100.9,216.5"/>
	<path class="st15" d="M135.5,42.8c-0.3,0-0.7,0.1-1,0.2c-3.2,1-6.3,2-9.5,3.3c-1.6,0.7-3.2,1.4-4.8,2.1c-1.7,0.8-3.5,1.7-5.2,2.5
		c-2.1,1.1-4.2,2.3-6.3,3.6c-2.1,1.3-4.2,2.7-6.2,4.2c-1.3,0.9-2.5,1.9-3.8,2.9c-1.2,1-2.3,2-3.4,3c-0.8,0.7-1,0.9-1.3,1.3
		c-0.1,0.2-0.2,0.4-0.4,0.7c0,0,0,0,0,0c0,0,0,0,0,0c0,0,0,0.1,0,0.1c-0.1,0.2-0.1,0.5-0.1,0.9c0,1.1,0.2,2.8,0.1,4.2
		c-0.7,12.5-2.7,25-5.4,37.4c-0.1,0.4-0.2,0.8-0.3,1.2c-0.1,0.4-0.2,0.8-0.3,1.2c-2.7,11.8-5.9,23.4-9.1,34.7
		c-1.4,5-2.9,11.9-5.2,17.9c-0.1,0.2-0.2,0.4-0.3,0.6c-1.5,3.7-3.4,7.1-5.8,9.5c-0.1,0-0.1,0.1-0.2,0.2c-0.1,0-0.1,0.1-0.2,0.2
		c-0.1,0.1-0.1,0.1-0.2,0.2c-0.7,0.6-1.3,0.8-1.8,0.8c-3.4,0-5.3-9-6.3-15.6c-0.5-3.2-0.7-5.9-0.8-6.8c0.2,3.5,0.6,7,1,10.4
		c0.2,1.8,0.5,3.5,0.9,5.3c2.2,11.8,6.1,23.3,12.1,33.7c3.7,6.4,7.9,15.3,15,18.2c1.3,0.6,2.7,0.8,3.9,0.8c3.7,0,7.1-2.1,10-4.8
		c0.1-0.1,0.1-0.1,0.2-0.2c0.1-0.1,0.1-0.1,0.2-0.2c2.2-2.2,4.1-4.7,5.6-7c0.8-1.2,1.6-2.4,2.3-3.6c0-0.1,0.1-0.2,0.1-0.2
		c0-0.1,0.1-0.2,0.1-0.2c9.9-16.4,15.4-36.1,20-54.6c0.8-3.2,1.6-6.5,2.3-9.8c0-0.2,0.1-0.4,0.1-0.7c0-0.2,0.1-0.5,0.2-0.7
		c4.2-18.7,7.1-37.9,8.2-57c0,0.5-0.1,1.2-0.1,1.9l-0.2,3c0,0,0.1-1.4,0.3-5.7v0c0-0.1,0-0.2,0-0.2c0.6-10.1,1-20.9-0.6-31
		c-0.4-2.4-0.8-6.6-2.9-7.7c-0.1,0-0.1-0.1-0.2-0.1C136.1,42.9,135.8,42.8,135.5,42.8 M64.8,175.9L64.8,175.9c0.6,0,1.3-0.3,2-0.9
		c5.8-5.1,8.4-15.4,10.6-23.8c0.5-1.7,0.9-3.4,1.3-4.9c6.9-24,13.7-49.5,15.1-74.5c0-0.8,0-1.6-0.1-2.5c-0.1-1.1-0.1-2.2,0.1-2.7
		c0.5-0.9,0.5-0.9,1.6-2c2.2-2,4.6-4,7.2-6c6.7-4.8,14-8.9,22.5-12.4c3.1-1.3,6.3-2.3,9.4-3.3c0.3-0.1,0.7-0.2,1-0.2
		c2.6,0,3.2,4.3,3.7,7.1c0,0.2,0.1,0.5,0.1,0.7c1.6,10,1.1,20.7,0.6,30.8h0h0l0,0.6c0,0.1,0,0.3,0,0.4c-1.3,21.6-5,44.5-10.8,68.2
		c-4.8,19.3-10.9,41.4-22.5,58.6c-5.4,8-10.7,12-15.8,12c-1.3,0-2.6-0.3-3.8-0.8c-6.1-2.5-10-9.4-13.4-15.4c-0.5-0.9-1-1.8-1.5-2.6
		c-6.2-10.6-10.5-23.1-12.6-36.8C60.4,171,62.2,175.9,64.8,175.9 M57.7,153.2L57.7,153.2C57.7,153.2,57.7,153.2,57.7,153.2
		C57.7,153.2,57.7,153.2,57.7,153.2 M57.7,153.2L57.7,153.2L57.7,153.2L57.7,153.2"/>
	<path class="st22" d="M61.3,157C61.4,157.1,61.4,157.1,61.3,157C61.4,157.1,61.4,157.1,61.3,157 M61.4,157.1c0,0,0,0.1,0,0.1
		C61.4,157.2,61.4,157.2,61.4,157.1 M61.4,157.2c0,0.3,0.1,0.7,0.1,1.2C61.4,158.1,61.4,157.7,61.4,157.2"/>
	<path class="st15" d="M242.3,173.7c-0.4-22.7-3.6-45.4-8.7-67.4c-4.7-20.5-11.1-41.5-22-59.5c0.7,2.9-1.6,7.9-2.4,10.5
		c-1.9,6.3-4,12.5-6.2,18.7c-5.4,15-11.4,29.7-18,44.1c-13.3,29-28.9,58.8-51,81.6c15.2-3,29.6-7.9,43.9-14
		c-5.1,14.4-10.9,28.8-19,41.6c-7.3,11.6-19.4,25.7-34.3,20.4c6.5,3.8,20.4,6.6,33.4,7.2c10.9,0.5,23.4,0.2,33.1-5.6
		c19.5-11.6,29.9-36.8,37.2-57.7c3.5,5.8,6.9,11.8,10.8,17.4C241.6,200.9,242.5,188,242.3,173.7
		C242.1,166.6,242.2,170.2,242.3,173.7C242.3,177.3,242.4,180.9,242.3,173.7"/>
	<path class="st16" d="M211.8,46.7L211.8,46.7c0.1,0.2,0.1,0.4,0.1,0.6c10.7,17.8,17,38.6,21.7,58.9c5.1,22,8.3,44.7,8.7,67.4
		c-0.1-3-0.1-4.1-0.1-4.1s0,2.1,0.1,4.1c0,2.1,0.1,4.1,0.1,4.1s0-1.1-0.1-4.1c0.3,14.3-0.7,27.2-3.2,37.4v0
		c-0.2-0.1-0.3-0.2-0.5-0.3c0.1,0.2,0.2,0.3,0.3,0.5l0.3,0.4l0.1-0.5c2.1-9,3.2-20.2,3.2-33.3l0-0.1h0c0,0,0-0.9-0.1-3.1
		c0-1.2,0-2.6-0.1-3.6c0-1.1,0-1.5,0-1.6h0l0-0.1v0c-0.7-20.3-3.6-41.6-8.6-63.2C229.8,88.7,223.6,66.1,211.8,46.7 M177.9,187.7
		C177.9,187.8,177.9,187.8,177.9,187.7c-0.1,0.1-0.1,0.2-0.1,0.2C177.9,187.9,177.9,187.8,177.9,187.7 M170.1,191
		c-8.6,3.4-17.2,6.2-26,8.5c0,0.1,0,0.1,0.1,0.2c8.3-2.1,16.8-4.9,25.8-8.4C170,191.2,170,191.1,170.1,191 M225.5,201.6
		c-7.1,19-17.3,39.7-34.3,49.9c-7.7,4.6-17.2,5.7-26.3,5.7c-2,0-4-0.1-5.9-0.1c-0.4,0-0.7,0-1,0c-2.9,0-5.7-0.2-8.2-0.5
		c-5.7-0.8-11.9-1.7-17.6-3.4c7.1,2.2,16.6,3.7,25.9,4.1c2.5,0.1,4.8,0.2,6.9,0.2c11.4,0,19.8-1.8,26.4-5.8
		c16.7-10,26.9-30.1,34.4-49.9C225.6,201.7,225.6,201.6,225.5,201.6"/>
	<path class="st23" d="M227.8,195.3c-0.6,1.6-1.2,3.2-1.8,4.9c0.1,0.1,0.1,0.1,0.2,0.2c0.6-1.6,1.2-3.2,1.7-4.8L227.8,195.3z"/>
	<path class="st24" d="M228.4,193.7c-0.2,0.5-0.4,1.1-0.6,1.6l0.1,0.2c0.2-0.4,0.3-0.9,0.5-1.3c0.8,1.4,1.7,2.8,2.5,4.2
		c2.5,4.1,5,8.4,7.7,12.4c0.2,0.1,0.3,0.2,0.5,0.3C235.3,205.5,231.9,199.6,228.4,193.7 M226,200.2c-0.2,0.5-0.4,0.9-0.5,1.4
		c0.1,0.1,0.1,0.1,0.2,0.2c0.2-0.5,0.4-0.9,0.5-1.4C226.2,200.3,226.1,200.2,226,200.2"/>
	<path class="st17" d="M143.6,199.6c-3,0.8-6.1,1.4-9.1,2.1c-0.1,0.1-0.2,0.2-0.2,0.2l0,0.1c3.2-0.6,6.3-1.3,9.5-2.1
		C143.6,199.7,143.6,199.7,143.6,199.6 M133.9,201.6l-0.5,0.5l0.4-0.1L133.9,201.6z"/>
	<path class="st20" d="M144,199.5c-0.1,0-0.1,0-0.2,0.1c0,0.1,0,0.1,0.1,0.2c0.1,0,0.1,0,0.2,0C144.1,199.6,144,199.6,144,199.5"/>
	<path class="st25" d="M143.8,199.5c-0.1,0-0.1,0-0.2,0.1c0,0.1,0,0.1,0.1,0.2c0.1,0,0.1,0,0.2,0
		C143.9,199.7,143.8,199.6,143.8,199.5"/>
	<path class="st23" d="M177.4,188c-2.3,1-4.5,1.9-6.8,2.8c0,0.1-0.1,0.2-0.1,0.3c2.3-0.9,4.6-1.8,6.9-2.8
		C177.4,188.1,177.4,188.1,177.4,188 M177.4,188.5c-0.5,1.3-1,2.7-1.5,4c0.1-0.4,0.3-0.7,0.5-1.1
		C176.9,190.4,177.4,189.4,177.4,188.5 M163.1,221.7c-1.4,2.5-2.9,5.1-4.4,7.5c-1.6,2.5-3.1,4.7-4.7,6.7
		C157.5,231.5,160.5,226.6,163.1,221.7 M149.3,241.5c-6,6.1-12.1,9.2-18.3,9.2c-2.1,0-4.2-0.4-6.4-1.1l0,0.1
		c0.3,0.2,0.6,0.3,0.9,0.5c1.9,0.6,3.7,0.8,5.5,0.8c7.1,0,13.3-4.1,18.5-9.4L149.3,241.5z"/>
	<path class="st20" d="M177.8,187.8c-0.1,0-0.1,0.1-0.2,0.1c0,0.2,0,0.4,0,0.7c0.1-0.2,0.1-0.4,0.2-0.6
		C177.9,187.9,177.8,187.8,177.8,187.8 M170.3,190.9c-0.1,0-0.2,0.1-0.3,0.1c0,0.1-0.1,0.2-0.1,0.3c0.1,0,0.2-0.1,0.3-0.1
		C170.3,191.1,170.3,191,170.3,190.9 M176.2,192.7c-0.1,0.2-0.1,0.3-0.2,0.5c-2.2,5.9-4.5,11.7-7.1,17.3c-1.7,3.8-3.5,7.6-5.5,11.3
		C168.4,212.5,172.5,202.6,176.2,192.7 M124.6,249.9l-0.1,0.1c1.9,1.1,4.5,2.2,7.6,3.1c5.7,1.7,11.9,2.7,17.6,3.4
		c2.5,0.3,5.4,0.5,8.2,0.5c0.3,0,0.7,0,1,0c-0.3,0-0.6,0-0.9,0c-11.2-0.5-23-2.7-30.3-5.7C126.7,250.9,125.6,250.4,124.6,249.9"/>
	<path class="st25" d="M153.5,237.1c-1.1,1.4-2.3,2.7-3.5,4h0C151.2,239.8,152.3,238.5,153.5,237.1"/>
	<path class="st26" d="M150,241.1c-0.1,0.1-0.1,0.1-0.2,0.2h0C149.9,241.2,149.9,241.2,150,241.1L150,241.1z"/>
	<path class="st27" d="M177.6,187.9c-0.1,0-0.1,0.1-0.2,0.1c0,0.1,0,0.2,0,0.2c0,0,0.1,0,0.1,0c0,0.1-0.1,0.2-0.1,0.3
		c0,1-0.5,1.9-1,3c-0.2,0.3-0.3,0.7-0.5,1.1c-3.4,9.3-7.5,19.5-12.8,29.2c-2.6,4.9-5.6,9.8-9.1,14.3c-1.6,2-3.1,3.8-4.7,5.4l0.3,0
		c0.1-0.1,0.1-0.1,0.2-0.2c0,0,0,0,0,0c0.1-0.1,0.1-0.1,0.2-0.2c1.2-1.3,2.4-2.6,3.5-4c2-2.5,3.9-5.2,5.5-7.7c1.6-2.5,3-5,4.5-7.6
		c2-3.7,3.8-7.5,5.5-11.3c2.6-5.7,4.9-11.5,7.1-17.3c0.1-0.2,0.1-0.3,0.2-0.5c0.5-1.4,1-2.8,1.5-4.1
		C177.7,188.3,177.7,188.1,177.6,187.9 M170.6,190.8c-0.1,0-0.2,0.1-0.3,0.1c0,0.1-0.1,0.2-0.1,0.3c0.1,0,0.2-0.1,0.3-0.1
		C170.6,191,170.6,190.9,170.6,190.8 M124.7,249.7l-0.1,0.2c1,0.5,2.1,1,3.2,1.4c-1.2-0.5-2.2-1-3.1-1.5c0.3,0.1,0.6,0.2,0.9,0.3
		C125.3,250,124.9,249.8,124.7,249.7"/>
	<path class="st23" d="M211.5,47.5C211.5,47.5,211.5,47.5,211.5,47.5c0.2,2.2-0.8,5.2-1.7,7.6c-0.3,0.8-0.6,1.6-0.7,2.2
		c-0.2,0.5-0.3,1-0.5,1.6c0.2-0.7,0.5-1.5,0.9-2.4C210.5,53.5,211.8,49.9,211.5,47.5 M207.6,61.9c-1.3,4.2-2.9,8.8-4.8,14.1
		c-5.3,14.7-11.3,29.6-18,44.1c-0.7,1.6-1.5,3.2-2.3,4.9c0.5-1,0.9-2,1.4-3c6.7-14.5,12.8-29.4,18.2-44.3
		C204.4,71.7,206.1,66.6,207.6,61.9 M149.8,182.7C149.8,182.7,149.8,182.7,149.8,182.7C149.8,182.7,149.8,182.7,149.8,182.7
		 M149.7,182.7c-4.7,6.4-9.7,12.5-15.2,18.1C140,195.2,145,189.1,149.7,182.7"/>
	<path class="st28" d="M211.8,46.7l-0.4,0.2c0,0.1,0,0.2,0,0.2c0.1-0.1,0.1-0.2,0.2-0.3v0c0,0,0,0,0,0c0.1,0.2,0.2,0.4,0.3,0.5
		C211.9,47.2,211.9,47,211.8,46.7L211.8,46.7C211.8,46.7,211.8,46.7,211.8,46.7 M208.8,58.9C208.8,59,208.8,59,208.8,58.9
		c-0.3,0.8-0.5,1.6-0.7,2.4C208.3,60.5,208.5,59.7,208.8,58.9 M182.8,125.2c-10.2,21.7-21.7,43.6-36.5,62.5
		C161.1,168.8,172.6,146.9,182.8,125.2"/>
	<path class="st29" d="M134.2,201.2c-0.1,0.1-0.2,0.2-0.3,0.3l0,0l-0.1,0.4l0.4-0.1c0,0,0,0,0.1,0l0,0c0.1-0.1,0.2-0.2,0.2-0.2
		c-0.1,0-0.3,0.1-0.4,0.1l0,0C134.1,201.6,134.2,201.4,134.2,201.2"/>
	<path class="st23" d="M211.6,46.8C211.6,46.8,211.6,46.8,211.6,46.8L211.6,46.8C211.6,46.8,211.6,46.8,211.6,46.8 M211.6,46.8
		c-0.1,0.1-0.1,0.2-0.2,0.3c0,0.1,0,0.2,0,0.4c0,0,0,0,0,0c0.3,2.5-1,6.1-2.1,9c-0.3,0.9-0.6,1.7-0.9,2.4c-0.3,1-0.6,2-1,3.1
		c-1.5,4.7-3.2,9.8-5.4,15.8c-5.4,14.9-11.5,29.8-18.2,44.3c-0.5,1-0.9,2-1.4,3c-8.9,19-19.4,39.5-32.9,57.7c0,0,0,0,0,0s0,0,0,0
		c-4.7,6.4-9.7,12.5-15.2,18.1h0c-0.1,0.1-0.2,0.2-0.4,0.4c0,0.2-0.1,0.3-0.1,0.5c4.3-4.5,8.4-9.2,12.2-14.1
		c14.8-18.9,26.3-40.8,36.5-62.5c0.8-1.7,1.6-3.4,2.3-5c6.6-14.4,12.6-29.1,18-44.1c1.7-4.9,3.4-9.8,5-14.7c0.2-0.8,0.5-1.6,0.7-2.3
		c0,0,0,0,0-0.1c0.2-0.5,0.3-1.1,0.5-1.6C210,54.7,212.3,49.7,211.6,46.8"/>
	<path class="st30" d="M211.6,46.8L211.6,46.8c0.7,2.9-1.6,7.8-2.3,10.5c-0.2,0.5-0.3,1.1-0.5,1.6c-0.2,0.8-0.5,1.6-0.7,2.4
		c-1.6,4.9-3.2,9.8-5,14.7c-5.4,15-11.4,29.7-18,44.1c-0.8,1.7-1.5,3.3-2.3,5c-10.1,21.7-21.7,43.6-36.5,62.5
		c-3.9,4.9-7.9,9.6-12.2,14.1c0,0,0,0,0,0c0.1,0,0.3-0.1,0.4-0.1c3.1-0.6,6.1-1.3,9.1-2.1c0.1,0,0.1,0,0.2-0.1c0.1,0,0.1,0,0.2-0.1
		c8.9-2.3,17.5-5.1,26-8.5c0.1,0,0.2-0.1,0.3-0.1c0.1,0,0.2-0.1,0.3-0.1c2.3-0.9,4.5-1.8,6.8-2.8c0.1,0,0.1-0.1,0.2-0.1
		c0.1,0,0.1-0.1,0.2-0.1c0,0,0.1,0,0.1,0c0,0.1,0,0.2-0.1,0.2c-0.1,0.2-0.1,0.4-0.2,0.6c-0.5,1.4-1,2.8-1.5,4.1
		c-3.7,10-7.8,19.9-12.8,29.1c-1.4,2.6-2.9,5.1-4.5,7.6c-1.6,2.5-3.4,5.2-5.5,7.7c-1.1,1.4-2.3,2.7-3.5,4c-0.1,0.1-0.1,0.1-0.2,0.2
		c-0.1,0.1-0.1,0.1-0.2,0.2c-5.2,5.4-11.5,9.4-18.5,9.4c-1.8,0-3.6-0.3-5.5-0.8c-0.3-0.1-0.6-0.2-0.9-0.3c0.9,0.5,2,1,3.1,1.5
		c7.3,3,19.1,5.2,30.3,5.7c0.3,0,0.6,0,0.9,0c1.9,0.1,3.9,0.1,5.9,0.1c9.1,0,18.6-1.1,26.3-5.7c17.1-10.2,27.2-30.9,34.3-49.9
		c0.2-0.5,0.4-0.9,0.5-1.4c0.6-1.6,1.2-3.3,1.8-4.9c0.2-0.5,0.4-1.1,0.6-1.6c3.5,5.8,6.9,11.8,10.8,17.4l0,0
		c2.4-10.2,3.4-23.2,3.1-37.4c-0.4-22.7-3.6-45.4-8.7-67.4c-4.7-20.3-10.9-41.1-21.7-58.9C211.8,47.2,211.7,47,211.6,46.8
		C211.6,46.8,211.6,46.8,211.6,46.8 M134.7,201.3c22.6-23.5,38.2-54.1,50.6-81.1c6.6-14.5,12.7-29.4,18-44.1
		c2.6-7.2,4.6-13.2,6.2-18.7c0.2-0.6,0.4-1.4,0.7-2.2c0.8-2.3,1.8-5.2,1.8-7.4c11.4,19.1,17.4,41.3,21.4,58.5
		c5.3,23.1,8.3,45.7,8.7,67.2l0,0.2c0.3,14.6-0.7,27-3,36.9c-2.7-4.1-5.3-8.3-7.7-12.4c-0.9-1.5-1.8-3.1-2.7-4.6l-0.2-0.4l-0.2,0.4
		c-7.7,22.2-18.2,46.4-37.1,57.6c-6.5,3.9-14.8,5.7-26.2,5.7c-2.1,0-4.3-0.1-6.8-0.2c-11.9-0.5-24.2-3-31.1-6.1
		c1.4,0.3,2.8,0.5,4.1,0.5c9.5,0,19-7.3,28-21.7c8.6-13.6,14.5-28.7,19.1-41.7l0.2-0.5l-0.5,0.2
		C162.3,194.2,148.5,198.6,134.7,201.3 M242.2,169.6c0,0,0,1.1,0.1,4.1c0.1,3,0.1,4.1,0.1,4.1s0-2.1-0.1-4.1
		C242.2,171.7,242.2,169.6,242.2,169.6"/>
</g>
</svg>
