<?xml version="1.0" encoding="utf-8"?>
<!-- Generator: Adobe Illustrator 22.1.0, SVG Export Plug-In . SVG Version: 6.00 Build 0)  -->
<svg version="1.1" id="Слой_1" xmlns="http://www.w3.org/2000/svg" xmlns:xlink="http://www.w3.org/1999/xlink" x="0px" y="0px"
	 viewBox="0 0 300 300" style="enable-background:new 0 0 300 300;" xml:space="preserve">
<style type="text/css">
	.st0{fill:#7AC041;}
	.st1{fill:#55AADD;}
	.st2{fill:#9AD171;}
</style>
<g>
	<path class="st0" d="M127.9,43c1.1,0.1,2,0.4,2.4,0.6c3.2,1.3,5.2,3.7,5.5,7.2c0.3,3.3-0.9,5.9-3.6,7.9c-0.7,0.5-1.5,0.9-2.3,1.4
		c-13.8,8.2-24.4,19.4-30.4,34.5c-7,17.5-6.2,34.6,3.3,51c3,5.2,0.4,11.9-5.6,13.1c-3.5,0.7-7-0.9-9-4.2c-2.9-4.7-5.2-9.8-6.9-15
		c-1.5-4.6-2.3-9.3-3-14.1c-0.7-5-0.2-15.3,0-16.3c0.8-4.1,1.3-8.3,2.4-12.4c4.9-17.7,14.9-32,29.1-43.5c4.9-4,10-7.6,15.8-10
		C126.8,42.9,127,43,127.9,43z"/>
	<path class="st1" d="M141.1,256.9c-1.8-0.2-4.2-0.2-6.6-0.6c-2.7-0.5-3.4-1.4-3-4.2c0.9-7.1,1.8-14.1,2.7-21.2
		c1-7.9,2.1-15.7,3.1-23.6c1.2-8.9,2.3-17.8,3.5-26.7c1.2-9,2.4-17.9,3.5-26.9c0.3-2.3,0.6-4.7,0.9-7c0.2-1.7,1-3.1,2.6-3.7
		c1.8-0.7,3.7-1.5,5.7-1.8c6.1-1,12.2-1.6,18.3-0.7c0.5,0.1,1,0.2,1.4,0.3c2.4,0.8,3,1.6,2.7,4.1c-1.6,12.6-3.3,25.2-5,37.8
		c-1.4,11-2.9,22-4.3,33.1c-1.5,11.5-3,23-4.5,34.5c-0.3,2.1-1.4,3.5-3.3,4.1c-2.7,0.8-5.5,1.4-8.3,1.8
		C147.7,256.6,144.7,256.6,141.1,256.9z"/>
	<path class="st2" d="M111.4,115.8c0.9-18,9.8-33.1,27.2-43.2c3.1-1.8,6.6-0.7,8.2,2.2c1.6,2.8,0.7,6.3-2.3,8.1
		c-4.9,2.8-9.2,6.3-12.7,10.8c-9.9,12.6-11.2,29.4-3.4,43.4c0.9,1.6,1.6,3.2,1.2,5.1c-0.5,2.4-1.9,4-4.3,4.6c-2.5,0.6-4.7,0-6.2-2.2
		c-0.8-1.1-1.4-2.4-2.1-3.6C113.2,133.7,111.4,126,111.4,115.8z"/>
	<path class="st1" d="M161.3,133.3c-2.2-0.2-4.4-0.3-6.6-0.7c-3.4-0.7-5.6-2.8-6.2-6.3c-0.7-3.8,0-7.6,0.7-11.3
		c0.2-1.1,0.6-2.3,1-3.4c1.5-4.2,4.3-7,8.5-8.4c5.9-2,12-2.4,18.2-1.5c4.8,0.7,7.2,3.5,7.4,8.5c0.2,4-0.3,7.9-1.4,11.7
		c-1.5,5.3-5,8.6-10.3,10C168.9,132.8,165.1,133.1,161.3,133.3z"/>
</g>
</svg>
