<?xml version="1.0" encoding="utf-8"?>
<!-- Generator: Adobe Illustrator 23.0.4, SVG Export Plug-In . SVG Version: 6.00 Build 0)  -->
<svg version="1.1" id="Слой_1" xmlns="http://www.w3.org/2000/svg" xmlns:xlink="http://www.w3.org/1999/xlink" x="0px" y="0px"
	 viewBox="0 0 300 300" style="enable-background:new 0 0 300 300;" xml:space="preserve">
<style type="text/css">
	.st0{fill:#FF9900;}
</style>
<g>
	<path d="M104.7,153c0-8.4,2.1-15.7,6.2-21.6c4.2-6,9.8-10.5,17.1-13.6c6.6-2.8,14.7-4.8,24.4-6.1c3.3-0.4,8.7-0.9,16.1-1.5v-3.1
		c0-7.8-0.9-13.1-2.6-15.8c-2.6-3.7-6.6-5.5-12.1-5.5h-1.5c-4,0.4-7.5,1.7-10.5,3.9c-2.9,2.2-4.8,5.3-5.7,9.2
		c-0.5,2.4-1.7,3.9-3.7,4.2l-21.1-2.6c-2.1-0.5-3.1-1.6-3.1-3.3c0-0.4,0.1-0.8,0.2-1.3c2.1-10.9,7.2-19,15.3-24.2
		c8.1-5.3,17.6-8.2,28.5-8.8h4.6c13.9,0,24.8,3.6,32.6,10.8c1.2,1.2,2.4,2.5,3.4,3.9c1,1.4,1.9,2.7,2.5,3.8c0.6,1.1,1.2,2.7,1.7,4.8
		c0.5,2.1,0.9,3.5,1.1,4.3c0.2,0.8,0.4,2.5,0.6,5.1c0.1,2.6,0.2,4.2,0.2,4.7v44.4c0,3.2,0.5,6.1,1.4,8.7c0.9,2.6,1.8,4.5,2.7,5.7
		c0.9,1.2,2.3,3,4.2,5.6c0.7,1.1,1.1,2.1,1.1,2.9c0,1-0.5,1.8-1.5,2.6c-10.1,8.8-15.7,13.6-16.5,14.3c-1.5,1.1-3.2,1.2-5.3,0.4
		c-1.7-1.5-3.2-2.9-4.5-4.2c-1.3-1.3-2.2-2.3-2.8-2.9s-1.4-1.8-2.7-3.6c-1.2-1.8-2.1-3-2.6-3.6c-6.8,7.5-13.6,12.1-20.2,13.9
		c-4.2,1.2-9.3,1.8-15.4,1.8c-9.4,0-17.1-2.9-23.2-8.7C107.7,171.8,104.7,163.6,104.7,153z M136.2,149.3c0,4.8,1.2,8.6,3.6,11.5
		c2.4,2.9,5.6,4.3,9.6,4.3c0.4,0,0.9-0.1,1.6-0.2c0.7-0.1,1.1-0.2,1.4-0.2c5.1-1.3,9.1-4.6,11.9-9.9c1.3-2.3,2.4-4.9,3-7.6
		c0.7-2.8,1-5,1.1-6.7c0.1-1.7,0.1-4.5,0.1-8.4v-4.6c-7.1,0-12.5,0.5-16.1,1.5C141.6,132,136.2,138.8,136.2,149.3z"/>
	<path class="st0" d="M49.5,205.2c0.6-1,1.6-1,2.9-0.2c30.6,17.7,63.8,26.6,99.8,26.6c24,0,47.6-4.5,71-13.4
		c0.6-0.2,1.5-0.6,2.7-1.1c1.2-0.5,2-0.9,2.5-1.1c1.8-0.7,3.3-0.4,4.3,1.1c1,1.5,0.7,2.8-1,4c-2.2,1.6-5,3.4-8.4,5.5
		c-10.5,6.2-22.3,11.1-35.2,14.5c-13,3.4-25.6,5.1-38,5.1c-19.1,0-37.1-3.3-54.1-10c-17-6.7-32.2-16-45.7-28.2
		c-0.7-0.6-1.1-1.2-1.1-1.8C49.1,206,49.2,205.6,49.5,205.2z M213.3,208.3c0.2-0.5,0.6-1,1.1-1.5c3.1-2.1,6-3.5,8.8-4.2
		c4.6-1.2,9.2-1.9,13.6-2c1.2-0.1,2.4-0.1,3.5,0.2c5.5,0.5,8.8,1.4,9.9,2.8c0.5,0.7,0.7,1.8,0.7,3.3v1.3c0,4.3-1.2,9.3-3.5,15.1
		c-2.3,5.8-5.6,10.5-9.7,14c-0.6,0.5-1.2,0.7-1.7,0.7c-0.2,0-0.5-0.1-0.7-0.2c-0.7-0.4-0.9-1-0.6-2c4.5-10.6,6.8-18,6.8-22.2
		c0-1.3-0.2-2.3-0.7-2.9c-1.2-1.5-4.6-2.2-10.3-2.2c-2.1,0-4.5,0.1-7.3,0.4c-3.1,0.4-5.9,0.7-8.4,1.1c-0.7,0-1.2-0.1-1.5-0.4
		c-0.2-0.2-0.3-0.5-0.2-0.7C213.1,208.8,213.2,208.6,213.3,208.3z"/>
</g>
</svg>
