<?xml version="1.0" encoding="utf-8"?>
<!-- Generator: Adobe Illustrator 24.2.3, SVG Export Plug-In . SVG Version: 6.00 Build 0)  -->
<svg version="1.1" id="Слой_1" xmlns="http://www.w3.org/2000/svg" xmlns:xlink="http://www.w3.org/1999/xlink" x="0px" y="0px"
	 viewBox="0 0 300 300" style="enable-background:new 0 0 300 300;" xml:space="preserve">
<style type="text/css">
	.st0{fill-rule:evenodd;clip-rule:evenodd;fill:#EC6702;}
	.st1{fill:#CECECE;}
</style>
<g>
	<g>
		<path class="st0" d="M164.3,129.3c-0.5-1.8-8.6-30.5-8.6-30.5c0-0.5-0.8-1-1.3-0.8c-0.3,0-0.3,0-0.5,0.3l-107.6,69
			c-1.8,1-1.5,1.5,0.5,1l109.1-29.7c3-0.5,6.1-2.3,8.1-4.8C164.8,132.6,164.8,130.8,164.3,129.3z"/>
		<path class="st0" d="M241.7,108.5l-1.5-0.3L163.3,97c-0.5-0.3-1,0.3-1,0.5c0,0.3,0,0.5,0,0.5s8.1,28.9,8.1,29.4c1,3,0.8,6.6-1,9.4
			c-2,3.6-6.1,6.1-11.9,7.9L46.3,174.9c-1.3,0.3-1,0.8,0,1l107.1,26.9c9.1,2.3,20.3,0,24.4-4.8l72.1-84
			C251.6,111.8,247.8,109.5,241.7,108.5z"/>
	</g>
	<path class="st1" d="M0,244.8v0.2c48.4,2.1,91-9.6,124.7-39.8c-40.6-10.7-26.9-6.9-55.6-14C40.9,211.8,22.1,230.6,0,244.8z"/>
</g>
</svg>
