<?xml version="1.0" encoding="utf-8"?>
<!-- Generator: Adobe Illustrator 23.1.1, SVG Export Plug-In . SVG Version: 6.00 Build 0)  -->
<svg version="1.1" id="Слой_1" xmlns="http://www.w3.org/2000/svg" xmlns:xlink="http://www.w3.org/1999/xlink" x="0px" y="0px"
	 viewBox="0 0 300 300" style="enable-background:new 0 0 300 300;" xml:space="preserve">
<style type="text/css">
	.st0{fill:url(#SVGID_1_);}
	.st1{fill:url(#SVGID_2_);}
	.st2{fill:url(#SVGID_3_);}
	.st3{fill:url(#SVGID_4_);}
	.st4{fill:url(#SVGID_5_);}
	.st5{fill:url(#SVGID_6_);}
</style>
<g>
	
		<linearGradient id="SVGID_1_" gradientUnits="userSpaceOnUse" x1="181.7317" y1="130.3358" x2="118.7179" y2="166.7165" gradientTransform="matrix(1 0 0 -1 -1.243830e-03 298.1089)">
		<stop  offset="0" style="stop-color:#D31888"/>
		<stop  offset="0.52" style="stop-color:#B31E65"/>
		<stop  offset="1" style="stop-color:#922541"/>
	</linearGradient>
	<path class="st0" d="M113.7,149c0.3-20.1,16.8-36.1,36.9-35.9s36.1,16.8,35.9,36.9c-0.3,20.1-16.8,36.1-36.9,35.9
		c-19.7-0.3-35.6-16.2-35.9-35.9c0-4,3.3-7.3,7.3-7.3s7.3,3.3,7.3,7.3c0.2,12.1,10.2,21.8,22.3,21.6c12.1-0.2,21.8-10.2,21.6-22.3
		c-0.2-12.1-10.2-21.8-22.3-21.6c-11.8,0.2-21.4,9.7-21.6,21.6"/>
	
		<linearGradient id="SVGID_2_" gradientUnits="userSpaceOnUse" x1="212.0156" y1="112.3168" x2="88.4772" y2="183.6355" gradientTransform="matrix(1 0 0 -1 -1.243830e-03 298.1089)">
		<stop  offset="0" style="stop-color:#07B2D7"/>
		<stop  offset="0.67" style="stop-color:#1C6099"/>
		<stop  offset="1" style="stop-color:#253D7F"/>
	</linearGradient>
	<path class="st1" d="M78.4,150c0.7-38.9,32.5-71.6,71.6-71.6c39.5,0,71.6,32,71.6,71.6s-32,71.6-71.6,71.6S78.5,189.5,78.4,150
		C78.4,150,78.4,150,78.4,150c0-4.1,3.3-7.4,7.4-7.4s7.4,3.3,7.4,7.4c0,31.4,25.4,56.9,56.8,56.9s56.9-25.4,56.9-56.8
		S181.4,93.2,150,93.1c0,0,0,0,0,0c-31,0-56.3,26-56.8,56.8"/>
	
		<linearGradient id="SVGID_3_" gradientUnits="userSpaceOnUse" x1="42.0016" y1="148.1101" x2="258.0034" y2="148.1101" gradientTransform="matrix(1 0 0 -1 -1.243830e-03 298.1089)">
		<stop  offset="0" style="stop-color:#0C6B4B"/>
		<stop  offset="1" style="stop-color:#7BC042"/>
	</linearGradient>
	<path class="st2" d="M42,150C42.3,90.7,90.7,42,150,42c59.6,0,108,48.4,108,108s-48.4,108-108,108S42,209.5,42,150
		c0-4,3.3-7.3,7.3-7.3s7.3,3.3,7.3,7.3c0,51.5,41.9,93.5,93.4,93.5c51.6,0.5,93.8-41,94.3-92.6s-41-93.8-92.6-94.3
		c-0.5,0-1.1,0-1.6,0c-51.4,0-93.2,42.1-93.4,93.5"/>
	
		<linearGradient id="SVGID_4_" gradientUnits="userSpaceOnUse" x1="42.0016" y1="97.7612" x2="258.0034" y2="97.7612" gradientTransform="matrix(1 0 0 -1 -1.243830e-03 298.1089)">
		<stop  offset="0" style="stop-color:#7BC042"/>
		<stop  offset="0.17" style="stop-color:#7ABF42;stop-opacity:0.98"/>
		<stop  offset="0.31" style="stop-color:#76BC42;stop-opacity:0.93"/>
		<stop  offset="0.43" style="stop-color:#6FB743;stop-opacity:0.84"/>
		<stop  offset="0.55" style="stop-color:#65AF44;stop-opacity:0.71"/>
		<stop  offset="0.67" style="stop-color:#59A645;stop-opacity:0.55"/>
		<stop  offset="0.78" style="stop-color:#499A46;stop-opacity:0.35"/>
		<stop  offset="0.89" style="stop-color:#378C47;stop-opacity:0.12"/>
		<stop  offset="0.94" style="stop-color:#2E8548;stop-opacity:0"/>
	</linearGradient>
	<path class="st3" d="M42,150c0,59.6,48.5,108,108,108s108-48.4,108-108h-14.5c-0.1,51.6-41.9,93.4-93.5,93.5
		c-51.5,0-93.4-41.9-93.4-93.5c0-4-3.3-7.3-7.3-7.3S42,146,42,150"/>
	
		<linearGradient id="SVGID_5_" gradientUnits="userSpaceOnUse" x1="113.6499" y1="133.3048" x2="186.3842" y2="133.3048" gradientTransform="matrix(1 0 0 -1 -1.243830e-03 298.1089)">
		<stop  offset="0" style="stop-color:#D31888"/>
		<stop  offset="0.19" style="stop-color:#D21887;stop-opacity:0.83"/>
		<stop  offset="0.61" style="stop-color:#CF1A83;stop-opacity:0.42"/>
		<stop  offset="1" style="stop-color:#CC1B7F;stop-opacity:0"/>
	</linearGradient>
	<path class="st4" d="M186.4,150c0.3,20.1-15.8,36.6-35.8,36.9c-20.1,0.3-36.6-15.8-36.9-35.8c0-0.3,0-0.7,0-1c0-4,3.3-7.3,7.3-7.3
		c4,0,7.3,3.3,7.3,7.3c0,12.1,9.8,21.8,21.8,21.8s21.8-9.8,21.8-21.8H186.4z"/>
	
		<linearGradient id="SVGID_6_" gradientUnits="userSpaceOnUse" x1="78.445" y1="115.6461" x2="221.5892" y2="115.6461" gradientTransform="matrix(1 0 0 -1 -1.243830e-03 298.1089)">
		<stop  offset="0.11" style="stop-color:#07B2D7"/>
		<stop  offset="0.22" style="stop-color:#09B0D4;stop-opacity:0.98"/>
		<stop  offset="0.33" style="stop-color:#11A8CC;stop-opacity:0.93"/>
		<stop  offset="0.44" style="stop-color:#1D9BBF;stop-opacity:0.84"/>
		<stop  offset="0.55" style="stop-color:#2F8AAC;stop-opacity:0.71"/>
		<stop  offset="0.66" style="stop-color:#457394;stop-opacity:0.55"/>
		<stop  offset="0.77" style="stop-color:#615776;stop-opacity:0.35"/>
		<stop  offset="0.87" style="stop-color:#813653;stop-opacity:0.12"/>
		<stop  offset="0.92" style="stop-color:#922541;stop-opacity:0"/>
	</linearGradient>
	<path class="st5" d="M221.6,150c0.4,39.5-31.3,71.9-70.8,72.3c-39.5,0.4-71.9-31.3-72.3-70.8c0-0.5,0-1,0-1.4
		c0-4.1,3.3-7.4,7.4-7.4s7.4,3.3,7.4,7.4c-0.4,31.4,24.8,57.1,56.2,57.5c31.4,0.4,57.1-24.8,57.5-56.2c0-0.4,0-0.9,0-1.3H221.6z"/>
</g>
</svg>
