<svg xmlns="http://www.w3.org/2000/svg" viewBox="0 0 300 300"><path d="M60.8 224.7h32.9v-77.1l-47-34v97.5c0 7.5 6.3 13.6 14.1 13.6z" fill="#4285f4"/><path d="M206.4 224.7h32.9c7.8 0 14.1-6.1 14.1-13.6v-97.5l-47 34v77.1z" fill="#34a853"/><path d="M206.4 88.6v59l47-34V95.4c0-16.8-19.9-26.4-33.8-16.3l-13.2 9.5z" fill="#fbbc04"/><path d="M93.6 147.6v-59l56.4 40.8 56.4-40.8v59L150 188.4l-56.4-40.8z" fill="#ea4335"/><path d="M46.7 95.4v18.1l47 34v-59L80.5 79c-14-10-33.8-0.4-33.8 16.4z" fill="#c5221f"/></svg>