<?xml version="1.0" encoding="utf-8"?>
<!-- Generator: Adobe Illustrator 24.1.3, SVG Export Plug-In . SVG Version: 6.00 Build 0)  -->
<svg version="1.1" id="Слой_1" xmlns="http://www.w3.org/2000/svg" xmlns:xlink="http://www.w3.org/1999/xlink" x="0px" y="0px"
	 viewBox="0 0 300 300" style="enable-background:new 0 0 300 300;" xml:space="preserve">
<g>
	<path d="M179.8,186.4c1.9,4.9,5.2,8.7,9.9,11.1c7.2,3.7,14.5,3.5,21.4-0.8c5.8-3.6,9.1-8.9,9.8-15.7c0.8-7.2-1.6-13.4-7-18.2
		c-5.5-4.9-11.9-6.4-19-4.8c-5.9,1.3-10.3,4.7-13.4,9.9c-0.7,1.2-1.2,2.4-1.9,3.7c-14.4,0-28.9,0-43.6,0c0,0.9,0,1.7,0,2.6
		c-0.2,3.3-0.2,6.5-0.6,9.8c-0.9,6.8-3.6,12.8-8.2,17.9c-9.5,10.5-21.3,14.5-35.1,11.4c-18.8-4.2-30.7-23.1-26.5-41.8
		c3.1-13.8,11.7-22.7,25.3-26.9c1.2-0.4,2.4-0.6,3.6-0.9c-0.9-4.6-1.8-9.2-2.7-13.9c-20.7,3.3-40.2,21.2-41.2,47.2
		c-1,23.9,15.7,46.3,41.1,50.8c11.8,2.1,23.1,0.1,33.5-6c13.7-8.1,21.7-20.2,24.3-35.9c0.2,0,0.3,0,0.4,0c9.7,0,19.4,0,29.1,0
		C179.5,185.8,179.6,186,179.8,186.4z M199.6,171.6c3.9,0,7.1,3.2,7.1,7.1c0,3.9-3.2,7.1-7.1,7.1c-3.9,0-7.1-3.2-7.1-7.1
		C192.6,174.8,195.7,171.6,199.6,171.6z"/>
	<path d="M247.8,166.5c-2.5-10.3-8-18.9-16.1-25.8c-8.6-7.3-18.6-11.2-29.9-11.7c-6.9-0.3-13.6,0.8-20.1,3.3
		c-0.6,0.2-0.8,0.1-1.2-0.4c-2.8-4.6-5.7-9.2-8.6-13.7c-2.1-3.4-4.3-6.8-6.4-10.3c0.1-0.2,0.3-0.3,0.4-0.4
		c4.7-5.5,6.3-11.9,4.7-18.9c-1.3-5.7-4.5-10.1-9.5-13.2c-4.4-2.8-9.3-3.8-14.5-3c-5.5,0.9-10,3.5-13.5,7.8
		c-3.8,4.8-5.2,10.4-4.3,16.5c0.8,5.4,3.4,9.9,7.6,13.3c4.6,3.7,9.9,5.2,15.7,4.6c0.6-0.1,0.8,0.1,1.1,0.6
		c7.3,11.7,14.7,23.5,22,35.2c0.2,0.3,0.3,0.5,0.5,0.8c2.4-1.3,4.7-2.5,7-3.8c8.1-4.3,16.6-5.4,25.5-3.1
		c18.6,4.6,30.1,23.4,25.9,42.1c-3.5,15.7-17,27.1-33,27.8c-9.4,0.4-17.7-2.5-24.9-8.7c-1.2-1-2.2-2.1-3.4-3.2
		c-3.4,3.2-6.8,6.4-10.3,9.7c0.6,0.6,1.1,1.3,1.8,1.8c1.5,1.3,2.9,2.7,4.5,3.9c12.3,9.4,26.1,12.7,41.3,9.5
		c13-2.7,23.3-9.8,30.6-20.8C249.1,194.2,251.3,180.8,247.8,166.5z M149.9,100.5c-3.9,0-7.1-3.3-7-7.2c0-3.9,3.3-7.1,7.2-7
		c3.9,0,7.1,3.3,7,7.2C157,97.4,153.8,100.6,149.9,100.5z"/>
	<path d="M82.9,166.3c-4.1,5.8-5.1,12.2-2.9,18.9c1.9,5.9,5.7,10.2,11.4,12.8c6.5,2.9,12.9,2.7,19.1-0.7c6.1-3.4,9.8-8.6,10.8-15.6
		c1-6.5-0.8-12.2-5.1-17.2c-0.4-0.4-0.4-0.7-0.2-1.3c6.4-11.9,12.8-23.9,19.2-35.8c0.1-0.2,0.2-0.5,0.4-0.7c-2-1.4-4-2.8-6-4.2
		c-2.4-1.7-4.6-3.6-6.5-5.9c-8-9.6-10.6-20.6-7.3-32.7c5.1-18.8,24.6-30.1,43.7-24.7c19.6,5.5,30.5,26.1,24.2,45.4
		c-0.1,0.2-0.1,0.5-0.2,0.8c4.5,1.5,9,3,13.4,4.4c7.3-20.4,0.5-45.6-20.9-58.8c-20-12.3-46.5-9-62.8,9.1c-8,8.9-12.4,19.3-12.8,31.3
		c-0.5,15.8,5.3,28.9,16.9,39.5c0,0.1-0.1,0.1-0.1,0.2c-4.6,8.6-9.3,17.3-13.9,25.9c-0.2,0.4-0.4,0.4-0.8,0.4
		c-2-0.2-4.1-0.2-6.1,0.2C90.7,158.8,86.2,161.7,82.9,166.3z M100.3,171.6c3.9,0,7.1,3.3,7,7.2c0,3.9-3.3,7.1-7.2,7
		c-3.9,0-7.1-3.3-7-7.2C93.1,174.7,96.4,171.6,100.3,171.6z"/>
</g>
</svg>
