<?xml version="1.0" encoding="utf-8"?>
<!-- Generator: Adobe Illustrator 23.0.3, SVG Export Plug-In . SVG Version: 6.00 Build 0)  -->
<svg version="1.1" id="Слой_1" xmlns="http://www.w3.org/2000/svg" xmlns:xlink="http://www.w3.org/1999/xlink" x="0px" y="0px"
	 viewBox="0 0 300 300" style="enable-background:new 0 0 300 300;" xml:space="preserve">
<style type="text/css">
	.st0{fill:#2E79D1;}
</style>
<g>
	<path class="st0" d="M96.5,42.2h-1.7C66,42.2,42.2,66,42.2,94.8v109.8c0,28.9,23.8,52.6,52.6,52.6h4c-13.6-35.7-20.4-73-20.4-111.5
		C78.4,110.1,84.6,75.6,96.5,42.2z"/>
	<path class="st0" d="M204.6,42.2h-70.2c-13,32.3-20.4,67.3-20.4,103.6c0,39.6,8.5,77,23.8,111.5h67.3c28.9,0,52.6-23.8,52.6-52.6
		V94.8C257.2,66,233.5,42.2,204.6,42.2z M171.2,243.7c-4,2.8-9.6,2.3-13-1.7l0,0l0,0c-19.8-26-30.6-57.7-30.6-90.5
		c0-33.4,10.8-65.1,30.6-91.1l0,0l0,0c3.4-4,9.1-4.5,13-1.7c4,3.4,4.5,9.1,1.7,13l0,0l0,0c-17,22.1-26.6,49.8-26.6,79.8
		s10.2,57.2,26.6,79.2l0,0c0,0,0,0,0.6,0.6C176.3,235.2,175.7,240.8,171.2,243.7z M205.2,217.6c-2.8,2.3-6.8,1.7-8.5-1.1l0,0l0,0
		c-14.1-18.1-22.6-40.2-22.6-65.1c0-24.3,8.5-47,22.6-65.1l0,0c0,0,0,0,0-0.6c2.3-2.8,6.2-2.8,8.5-1.1c2.8,2.3,2.8,6.2,1.1,8.5
		c0,0,0,0-0.6,0.6c-12.4,15.8-19.8,35.7-19.8,57.2s7.4,41.3,19.8,57.2l0,0c0,0,0,0,0.6,0.6C208.6,211.4,208,215.4,205.2,217.6z"/>
</g>
</svg>
