<?xml version="1.0" encoding="utf-8"?>
<!-- Generator: Adobe Illustrator 24.2.3, SVG Export Plug-In . SVG Version: 6.00 Build 0)  -->
<svg version="1.1" id="Слой_1" xmlns="http://www.w3.org/2000/svg" xmlns:xlink="http://www.w3.org/1999/xlink" x="0px" y="0px"
	 viewBox="0 0 300 300" style="enable-background:new 0 0 300 300;" xml:space="preserve">
<style type="text/css">
	.st0{fill:#32325C;}
</style>
<path class="st0" d="M213.6,108.9h-17.7V125h17.7c15.4,0,28,12.5,28,28c0,15.4-12.5,28-28,28H86.3c-15.4,0-28-12.5-28-28
	c0-15.4,12.5-28,28-28h62.5v12.2l35.1-20.3l-35.1-20.3v12.2H86.3c-24.3,0-44.1,19.8-44.1,44.1c0,24.3,19.8,44.1,44.1,44.1h127.4
	c24.3,0,44.1-19.8,44.1-44.1C257.8,128.6,238,108.9,213.6,108.9z"/>
</svg>
