<?xml version="1.0" encoding="utf-8"?>
<!-- Generator: Adobe Illustrator 23.1.1, SVG Export Plug-In . SVG Version: 6.00 Build 0)  -->
<svg version="1.1" id="Слой_1" xmlns="http://www.w3.org/2000/svg" xmlns:xlink="http://www.w3.org/1999/xlink" x="0px" y="0px"
	 viewBox="0 0 300 300" style="enable-background:new 0 0 300 300;" xml:space="preserve">
<style type="text/css">
	.st0{fill-rule:evenodd;clip-rule:evenodd;fill:#ACD432;}
	.st1{fill-rule:evenodd;clip-rule:evenodd;fill:#FFFFFF;}
</style>
<g>
	<path class="st0" d="M225.8,225.8C204.9,246.7,179.5,257,150,257s-54.9-10.2-75.8-31.2S43,179.5,43,150s10.2-54.9,31.2-75.8
		S120.5,43,150,43s54.9,10.2,75.8,31.2S257,120.5,257,150S246.7,204.9,225.8,225.8"/>
	<g>
		<path class="st1" d="M113.5,130.7l33.6,21.3c0.8,0.4,2,0.8,2.9,0.8c1.2,0,2-0.4,2.9-0.8l43-27.5l0.4-0.4c0.8-0.8,1.2-1.6,1.2-2.5
			v-8.6c0-1.6-0.8-2.9-1.6-3.7c-0.8-1.2-2.5-1.6-3.7-1.6H111C114.3,116.4,115.1,124.2,113.5,130.7z"/>
		<path class="st1" d="M197.1,134.4c0,0.4-0.4,0.8-0.8,1.2h-0.4l-43,27.5c-1.2,0.4-2,0.8-2.9,0.8c-1.2,0-2-0.4-2.9-0.8l-36.9-23.4
			c-2,2.9-4.5,5.7-7.8,8.2v7.8c0,13.1,4.5,24.2,13.9,33.2c9.4,9.4,20.5,14.3,33.6,14.3h1.2c12.7-0.4,23.4-4.9,32.4-14.3
			c9.4-9,13.9-20.1,13.9-33.2v-22.5C197.5,133.6,197.5,134,197.1,134.4z"/>
		<path class="st1" d="M105.3,136.5c1.6-2.9,2.5-5.7,2.9-9.4c0.8-5.7,0-11.9-2.5-18.9l-0.4-0.4c-5.3,2-9.4,4.5-13.1,7
			c-3.7,2.9-6.1,5.7-7.8,9.4l-1.2,2.5c-2.5,7-1.6,14.8,1.6,24.2c7.4-2.9,13.1-6.1,17.2-10.7C103.7,139.3,104.5,137.7,105.3,136.5z"
			/>
		<path class="st1" d="M86.4,111.9c2.9-2.5,7-4.9,11.9-7.4c-0.8-0.4-1.6-0.4-2.5-0.8c-15.6-4.5-27.5,1.6-36.1,18
			C66,125,71.7,126.6,77,127h0.8c0.4-1.6,0.8-3.7,1.6-5.3C81.1,118,83.2,114.7,86.4,111.9z"/>
	</g>
</g>
</svg>
