<svg version="1.1" id="Слой_1" xmlns="http://www.w3.org/2000/svg" xmlns:xlink="http://www.w3.org/1999/xlink" x="0" y="0" viewBox="0 0 300 300" xml:space="preserve"><defs/><style>.st0{fill-rule:evenodd;clip-rule:evenodd;fill:#2250fc}.st1,.st75,.st85,.st87{clip-path:url(#SVGID_2_);fill:#214df5}.st75,.st85,.st87{fill:#1431a8}.st85,.st87{fill:#122e9e}.st87{fill:#122d9c}</style><g id="Symbol-Blue"><path class="st0" d="M600 467.6l-69.8 39-69.8-39v78l69.8 39 69.8-39v-78z" transform="matrix(1.34555 0 0 1.38188 -563.4 -550)"/><path class="st0" d="M455.7 679.9l-21.6 17-21.6-17h43.2z" transform="matrix(-4.35329 0 0 -3.17827 2040 2257)"/><g transform="translate(-19.8 14.4)"><defs><path id="SVGID_1_" d="M169.8 135.6v107.8l-94-53.9z"/></defs><clipPath id="SVGID_2_"><use xlink:href="#SVGID_1_" overflow="visible"/></clipPath><path class="st1" d="M75.8 192.8l29.2 50.6H75.8z"/><path class="st1" d="M75.8 190.4l30.7 53H105l-29.2-50.6z"/><path clip-path="url(#SVGID_2_)" fill="#214df4" d="M75.8 188l32.1 55.4h-1.4l-30.7-53z"/><path clip-path="url(#SVGID_2_)" fill="#214cf3" d="M75.8 187.2l.8-.4 32.7 56.6h-1.4L75.8 188z"/><path clip-path="url(#SVGID_2_)" fill="#204cf2" d="M76.6 186.8l1-.6 33.1 57.2h-1.4z"/><path clip-path="url(#SVGID_2_)" fill="#204bf1" d="M77.6 186.2l1.1-.6 33.4 57.8h-1.4z"/><path clip-path="url(#SVGID_2_)" fill="#204bf0" d="M78.7 185.6l1-.6 33.8 58.4h-1.4z"/><path clip-path="url(#SVGID_2_)" fill="#204bef" d="M79.7 185l1.1-.6 34.1 59h-1.4z"/><path clip-path="url(#SVGID_2_)" fill="#204aed" d="M80.8 184.4l1-.6 34.5 59.6h-1.4z"/><path clip-path="url(#SVGID_2_)" fill="#204aec" d="M81.8 183.8l1.1-.7 34.8 60.3h-1.4z"/><path clip-path="url(#SVGID_2_)" fill="#1f4aeb" d="M82.9 183.1l1-.6 35.2 60.9h-1.4z"/><path clip-path="url(#SVGID_2_)" fill="#1f49ea" d="M83.9 182.5l1.1-.6 35.5 61.5h-1.4z"/><path clip-path="url(#SVGID_2_)" fill="#1f49e9" d="M85 181.9l1.1-.6 35.8 62.1h-1.4z"/><path clip-path="url(#SVGID_2_)" fill="#1f48e8" d="M86.1 181.3l1-.6 36.2 62.7h-1.4z"/><path clip-path="url(#SVGID_2_)" fill="#1f48e7" d="M87.1 180.7l1.1-.6 36.5 63.3h-1.4z"/><path clip-path="url(#SVGID_2_)" fill="#1e48e6" d="M88.2 180.1l1-.6 36.9 63.9h-1.4z"/><path clip-path="url(#SVGID_2_)" fill="#1e47e5" d="M89.2 179.5l1.1-.6 37.2 64.5h-1.4z"/><path clip-path="url(#SVGID_2_)" fill="#1e47e4" d="M90.3 178.9l1-.6 37.6 65.1h-1.4z"/><path clip-path="url(#SVGID_2_)" fill="#1e46e3" d="M91.3 178.3l1.1-.6 37.9 65.7h-1.4z"/><path clip-path="url(#SVGID_2_)" fill="#1e46e2" d="M92.4 177.7l1-.6 38.3 66.3h-1.4z"/><path clip-path="url(#SVGID_2_)" fill="#1e46e1" d="M93.4 177.1l1.1-.6 38.7 66.9h-1.5z"/><path clip-path="url(#SVGID_2_)" fill="#1d45e0" d="M94.5 176.5l1-.7 39.1 67.6h-1.4z"/><path clip-path="url(#SVGID_2_)" fill="#1d45de" d="M95.5 175.8l1.1-.6 39.4 68.2h-1.4z"/><path clip-path="url(#SVGID_2_)" fill="#1d45dd" d="M96.6 175.2l1-.6 39.8 68.8H136z"/><path clip-path="url(#SVGID_2_)" fill="#1d44dc" d="M97.6 174.6l1.1-.6 40.1 69.4h-1.4z"/><path clip-path="url(#SVGID_2_)" fill="#1d44db" d="M98.7 174l1.1-.6 40.4 70h-1.4z"/><path clip-path="url(#SVGID_2_)" fill="#1c43da" d="M99.8 173.4l1-.6 40.8 70.6h-1.4z"/><path clip-path="url(#SVGID_2_)" fill="#1c43d9" d="M100.8 172.8l1.1-.6 41.1 71.2h-1.4z"/><path clip-path="url(#SVGID_2_)" fill="#1c43d8" d="M101.9 172.2l1-.6 41.5 71.8H143z"/><path clip-path="url(#SVGID_2_)" fill="#1c42d7" d="M102.9 171.6l1.1-.6 41.8 72.4h-1.4z"/><path clip-path="url(#SVGID_2_)" fill="#1c42d6" d="M104 171l1-.6 42.2 73h-1.4z"/><path clip-path="url(#SVGID_2_)" fill="#1c41d5" d="M105 170.4l1.1-.6 42.5 73.6h-1.4z"/><path clip-path="url(#SVGID_2_)" fill="#1b41d4" d="M106.1 169.8l1-.6 42.9 74.2h-1.4z"/><path clip-path="url(#SVGID_2_)" fill="#1b41d3" d="M107.1 169.2l1.1-.7 43.2 74.9H150z"/><path clip-path="url(#SVGID_2_)" fill="#1b40d2" d="M108.2 168.5l1-.6 43.6 75.5h-1.4z"/><path clip-path="url(#SVGID_2_)" fill="#1b40d1" d="M109.2 167.9l1.1-.6 43.9 76.1h-1.4z"/><path clip-path="url(#SVGID_2_)" fill="#1b40d0" d="M110.3 167.3l1-.6 44.3 76.7h-1.4z"/><path clip-path="url(#SVGID_2_)" fill="#1b3fcf" d="M111.3 166.7l1.1-.6 44.6 77.3h-1.4z"/><path clip-path="url(#SVGID_2_)" fill="#1a3fce" d="M112.4 166.1l1.1-.6 44.9 77.9H157z"/><path clip-path="url(#SVGID_2_)" fill="#1a3ecd" d="M113.5 165.5l1-.6 45.4 78.5h-1.5z"/><path clip-path="url(#SVGID_2_)" fill="#1a3ecc" d="M114.5 164.9l1.1-.6 45.7 79.1h-1.4z"/><path clip-path="url(#SVGID_2_)" fill="#1a3ecb" d="M115.6 164.3l1-.6 46.1 79.7h-1.4z"/><path clip-path="url(#SVGID_2_)" fill="#1a3dca" d="M116.6 163.7l1.1-.6 46.4 80.3h-1.4z"/><path clip-path="url(#SVGID_2_)" fill="#193dc8" d="M117.7 163.1l1-.6 46.8 80.9h-1.4z"/><path clip-path="url(#SVGID_2_)" fill="#193dc7" d="M118.7 162.5l1.1-.6 47.1 81.5h-1.4z"/><path clip-path="url(#SVGID_2_)" fill="#193cc6" d="M119.8 161.9l1-.7 47.5 82.2h-1.4z"/><path clip-path="url(#SVGID_2_)" fill="#193cc5" d="M120.8 161.2l1.1-.6 47.8 82.8h-1.4z"/><path clip-path="url(#SVGID_2_)" fill="#193cc4" d="M121.9 160.6l1-.6 46.9 81.2v2.2h-.1z"/><path clip-path="url(#SVGID_2_)" fill="#193bc3" d="M122.9 160l1.1-.6 45.8 79.3v2.5z"/><path clip-path="url(#SVGID_2_)" fill="#183bc2" d="M124 159.4l1-.6 44.8 77.5v2.4z"/><path clip-path="url(#SVGID_2_)" fill="#183ac1" d="M125 158.8l1.1-.6 43.7 75.7v2.4z"/><path clip-path="url(#SVGID_2_)" fill="#183ac0" d="M126.1 158.2l1.1-.6 42.6 73.8v2.5z"/><path clip-path="url(#SVGID_2_)" fill="#183abf" d="M127.2 157.6l1-.6 41.6 72v2.4z"/><path clip-path="url(#SVGID_2_)" fill="#1839be" d="M128.2 157l1.1-.6 40.5 70.2v2.4z"/><path clip-path="url(#SVGID_2_)" fill="#1839bd" d="M129.3 156.4l1-.6 39.5 68.3v2.5z"/><path clip-path="url(#SVGID_2_)" fill="#1739bc" d="M130.3 155.8l1.1-.6 38.4 66.5v2.4z"/><path clip-path="url(#SVGID_2_)" fill="#1738bb" d="M131.4 155.2l1-.6 37.4 64.7v2.4z"/><path clip-path="url(#SVGID_2_)" fill="#1738ba" d="M132.4 154.6l1.1-.7 36.3 62.9v2.5z"/><path clip-path="url(#SVGID_2_)" fill="#1737b9" d="M133.5 153.9l1-.6 35.3 61.1v2.4z"/><path clip-path="url(#SVGID_2_)" fill="#1737b8" d="M134.5 153.3l1.1-.6 34.2 59.3v2.4z"/><path clip-path="url(#SVGID_2_)" fill="#1737b7" d="M135.6 152.7l1-.6 33.2 57.4v2.5z"/><path clip-path="url(#SVGID_2_)" fill="#1636b6" d="M136.6 152.1l1.1-.6 32.1 55.6v2.4z"/><path clip-path="url(#SVGID_2_)" fill="#1636b5" d="M137.7 151.5l1-.6 31.1 53.8v2.4z"/><path clip-path="url(#SVGID_2_)" fill="#1636b4" d="M138.7 150.9l1.1-.6 30 51.9v2.5z"/><path clip-path="url(#SVGID_2_)" fill="#1635b3" d="M139.8 150.3l1.1-.6 28.9 50.1v2.4z"/><path clip-path="url(#SVGID_2_)" fill="#1635b2" d="M140.9 149.7l1-.6 27.9 48.3v2.4z"/><path clip-path="url(#SVGID_2_)" fill="#1635b1" d="M141.9 149.1l1.1-.6 26.8 46.4v2.5z"/><path clip-path="url(#SVGID_2_)" fill="#1534b0" d="M143 148.5l1-.6 25.8 44.6v2.4z"/><path clip-path="url(#SVGID_2_)" fill="#1534af" d="M144 147.9l1.1-.7 24.7 42.9v2.4z"/><path clip-path="url(#SVGID_2_)" fill="#1534ae" d="M145.1 147.2l1-.6 23.7 41v2.5z"/><path clip-path="url(#SVGID_2_)" fill="#1533ad" d="M146.1 146.6l1.1-.6 22.6 39.2v2.4z"/><path clip-path="url(#SVGID_2_)" fill="#1533ac" d="M147.2 146l1-.6 21.6 37.4v2.4z"/><path clip-path="url(#SVGID_2_)" fill="#1533ab" d="M148.2 145.4l1.1-.6 20.5 35.5v2.5z"/><path clip-path="url(#SVGID_2_)" fill="#1432aa" d="M149.3 144.8l1-.6 19.5 33.7v2.4z"/><path clip-path="url(#SVGID_2_)" fill="#1432a9" d="M150.3 144.2l1.1-.6 18.4 31.9v2.4z"/><path class="st75" d="M151.4 143.6l1-.6 17.4 30v2.5z"/><path class="st75" d="M152.4 143l1.1-.6 16.3 28.2v2.4z"/><path clip-path="url(#SVGID_2_)" fill="#1431a7" d="M153.5 142.4l1.1-.6 15.2 26.3v2.5z"/><path clip-path="url(#SVGID_2_)" fill="#1430a6" d="M154.6 141.8l1-.6 14.2 24.5v2.4z"/><path clip-path="url(#SVGID_2_)" fill="#1330a5" d="M155.6 141.2l1.1-.6 13.1 22.7v2.4z"/><path clip-path="url(#SVGID_2_)" fill="#1330a4" d="M156.7 140.6l1-.7 12.1 20.9v2.5z"/><path clip-path="url(#SVGID_2_)" fill="#132fa3" d="M157.7 139.9l1.1-.6 11 19.1v2.4z"/><path clip-path="url(#SVGID_2_)" fill="#132fa2" d="M158.8 139.3l1-.6 10 17.3v2.4z"/><path clip-path="url(#SVGID_2_)" fill="#132fa1" d="M159.8 138.7l1.1-.6 8.9 15.4v2.5z"/><path clip-path="url(#SVGID_2_)" fill="#132ea0" d="M160.9 138.1l1-.6 7.9 13.6v2.4z"/><path clip-path="url(#SVGID_2_)" fill="#132e9f" d="M161.9 137.5l1.1-.6 6.8 11.8v2.4z"/><path class="st85" d="M163 136.9l1-.6 5.8 9.9v2.5z"/><path class="st85" d="M164 136.3l1.1-.6 4.7 8.1v2.4z"/><path clip-path="url(#SVGID_2_)" fill="#122d9d" d="M165.1 135.7l.1-.1h1.3l3.3 5.8v2.4z"/><path class="st87" d="M167.9 135.6l1.9 3.3v2.5l-3.3-5.8z"/><path class="st87" d="M169.8 138.9l-1.9-3.3h1.9z"/></g></g></svg>