<?xml version="1.0" encoding="utf-8"?>
<!-- Generator: Adobe Illustrator 22.1.0, SVG Export Plug-In . SVG Version: 6.00 Build 0)  -->
<svg version="1.1" id="Слой_1" xmlns="http://www.w3.org/2000/svg" xmlns:xlink="http://www.w3.org/1999/xlink" x="0px" y="0px"
	 viewBox="0 0 300 300" style="enable-background:new 0 0 300 300;" xml:space="preserve">
<style type="text/css">
	.st0{fill:#36344B;}
</style>
<g>
	<path class="st0" d="M255.7,42.2h-16.9c-1,0-3.1,0.4-3.7,1.3l-82.6,94.8c-1.1,1.6-3.4,1.6-4.5,0L64.9,43.5
		c-0.5-0.8-2.3-1.3-3.2-1.3H44.8c-1.5,0-2.7,1.2-2.7,2.7v162.5c0,1.5,1.2,2.7,2.7,2.7h16.9c1.5,0,4.7-1.2,4.7-2.7V83.7
		c0-2.3,0.8-3.6,2.2-1.8l79.4,91c1.1,1.6,3.4,1.6,4.5,0l79.4-91.7c1.4-1.8,2.2-1,2.2,1.3v124.9c0,1.5,3.2,2.7,4.7,2.7h16.9
		c1.5,0,2.7-1.2,2.7-2.7V44.9C258.3,43.4,257.1,42.2,255.7,42.2"/>
	<g>
		<path class="st0" d="M234.2,254.6v-16.9c0-2,1.6-3.6,3.6-3.6h16.9c2,0,3.6,1.6,3.6,3.6v16.9c0,2-1.6,3.6-3.6,3.6h-16.9
			C235.8,258.2,234.2,256.6,234.2,254.6z"/>
		<path class="st0" d="M138,254.6v-16.9c0-2,1.6-3.6,3.6-3.6h16.9c2,0,3.6,1.6,3.6,3.6v16.9c0,2-1.6,3.6-3.6,3.6h-16.9
			C139.7,258.2,138,256.6,138,254.6z"/>
		<path class="st0" d="M42.2,254.6v-16.9c0-2,1.6-3.6,3.6-3.6h16.9c2,0,3.6,1.6,3.6,3.6v16.9c0,2-1.6,3.6-3.6,3.6H45.8
			C43.8,258.2,42.2,256.6,42.2,254.6z"/>
	</g>
</g>
</svg>
