<?xml version="1.0" encoding="utf-8"?>
<!-- Generator: Adobe Illustrator 23.0.3, SVG Export Plug-In . SVG Version: 6.00 Build 0)  -->
<svg version="1.1" id="Слой_1" xmlns="http://www.w3.org/2000/svg" xmlns:xlink="http://www.w3.org/1999/xlink" x="0px" y="0px"
	 viewBox="0 0 300 300" style="enable-background:new 0 0 300 300;" xml:space="preserve">
<style type="text/css">
	.st0{fill-rule:evenodd;clip-rule:evenodd;fill:#0092FF;}
</style>
<path class="st0" d="M230.1,196.5c-5.5,9.6-14.5,16.7-25.2,19.7c1.5-5.2,2.3-10.6,2.3-16c0-27-18.6-49.7-43.6-55.9
	c5.2-5.1,11.6-8.7,18.6-10.6c10.9-3,22.6-1.4,32.3,4.3C234.9,149.8,241.9,176.1,230.1,196.5 M150,243c-11.1,0-21.7-4.4-29.6-12
	c5.2-1.3,10.3-3.3,14.9-6c23.3-13.5,33.5-41.1,26.3-65.9c17.8,5.1,30.9,21.6,30.9,41.1C192.6,223.8,173.5,243,150,243 M69.9,196.5
	c-5.6-9.7-7-21.1-4.4-31.7c3.7,3.9,8,7.3,12.6,10c8.7,5,18.5,7.7,28.5,7.7c15.6,0,30.6-6.4,41.4-17.7c4.5,18.1-3.2,37.7-20,47.4
	c-6.4,3.8-13.8,5.7-21.2,5.7C91.6,217.9,77.5,209.8,69.9,196.5 M69.9,103.5c5.5-9.6,14.5-16.7,25.2-19.7c-1.5,5.2-2.3,10.6-2.3,16
	c0,27,18.6,49.7,43.6,55.9c-13.3,12.9-34.1,16.1-50.9,6.3c-9.9-5.7-16.9-15-19.8-26C62.7,125,64.2,113.3,69.9,103.5 M150,57
	c11.1,0,21.7,4.4,29.5,12c-5.2,1.3-10.3,3.3-14.9,6c-13.2,7.7-22.7,20.1-26.7,35c-2.7,10.2-2.6,20.9,0.4,30.9
	c-17.8-5.1-30.9-21.6-30.9-41.1C107.4,76.2,126.5,57,150,57 M230.1,103.5c5.6,9.7,7,21.1,4.4,31.8c-3.7-3.9-8-7.3-12.6-10
	c-13.2-7.7-28.7-9.7-43.5-5.8c-10.1,2.7-19.3,8.2-26.5,15.8c-1.8-7.1-1.7-14.4,0.2-21.5c2.9-11,10-20.3,19.8-26
	c9.9-5.7,21.3-7.2,32.3-4.3C215.3,86.5,224.5,93.6,230.1,103.5 M242.9,96.1c-7.6-13.3-20-22.9-34.8-26.8c-3.5-0.9-7.1-1.5-10.7-1.8
	C186.8,51.8,169,42.2,150,42.2c-19.7,0-37,10-47.4,25.3c-18.8,1.4-36,12.1-45.5,28.6c-7.7,13.3-9.7,28.8-5.7,43.7
	c0.9,3.5,2.2,6.9,3.8,10.2c-8.2,17.1-7.6,37.4,1.9,53.9c9.8,17.1,27.1,27.2,45.4,28.6c10.6,15.7,28.4,25.3,47.4,25.3
	c19.7,0,37-10,47.4-25.3c18.8-1.4,36-12.1,45.5-28.6c9.8-17.1,9.9-37.3,1.9-53.9C253,132.9,252.4,112.7,242.9,96.1"/>
</svg>
