<?xml version="1.0" encoding="utf-8"?>
<!-- Generator: Adobe Illustrator 23.0.3, SVG Export Plug-In . SVG Version: 6.00 Build 0)  -->
<svg version="1.1" id="Слой_1" xmlns="http://www.w3.org/2000/svg" xmlns:xlink="http://www.w3.org/1999/xlink" x="0px" y="0px"
	 viewBox="0 0 300 300" style="enable-background:new 0 0 300 300;" xml:space="preserve">
<style type="text/css">
	.st0{fill:#FA6423;}
</style>
<path class="st0" d="M191.5,100.4c-13.2,10-15.9,27.6-16.2,39.6c-20.9-24.4,38.9-95.9-29.1-140c42.1,54.5-60,108.4-60,188.8
	c0,31.6,19.7,59.3,63,69c42.3-9,63.5-37.4,63.5-69C212.5,141.7,183.1,126,191.5,100.4L191.5,100.4z M149.2,231.9
	c-23.2,0-41.8-18.7-41.8-41.8s18.7-41.8,41.8-41.8S191,166.9,191,190S172.1,231.9,149.2,231.9L149.2,231.9z"/>
</svg>
