<?xml version="1.0" encoding="utf-8"?>
<!-- Generator: Adobe Illustrator 23.1.1, SVG Export Plug-In . SVG Version: 6.00 Build 0)  -->
<svg version="1.1" id="Слой_1" xmlns="http://www.w3.org/2000/svg" xmlns:xlink="http://www.w3.org/1999/xlink" x="0px" y="0px"
	 viewBox="0 0 300 300" style="enable-background:new 0 0 300 300;" xml:space="preserve">
<style type="text/css">
	.st0{fill-rule:evenodd;clip-rule:evenodd;fill:#FFFFFF;}
	.st1{fill:#E4E4E4;}
	.st2{fill-rule:evenodd;clip-rule:evenodd;fill:#FFE000;}
	.st3{fill-rule:evenodd;clip-rule:evenodd;fill:#22252B;}
</style>
<g>
	<path class="st0" d="M60.7,67.2v8.9c3.7,0.1,6.6,3.1,6.6,6.8s-3,6.7-6.6,6.8v8.9c3.7,0.1,6.6,3.1,6.6,6.8c0,3.7-3,6.7-6.6,6.8v8.9
		c3.7,0.1,6.6,3.1,6.6,6.8s-3,6.7-6.6,6.8v8.9c3.7,0.1,6.6,3.1,6.6,6.8c0,3.7-3,6.7-6.6,6.8v8.9c3.7,0.1,6.6,3.1,6.6,6.8
		c0,3.7-3,6.7-6.6,6.8v8.9c3.7,0.1,6.6,3.1,6.6,6.8c0,3.7-3,6.7-6.6,6.8v8.9c3.7,0.1,6.6,3.1,6.6,6.8c0,3.7-3,6.7-6.6,6.8v8.9
		c3.7,0.1,6.6,3.1,6.6,6.8h8.9c0-3.7,3-6.8,6.8-6.8c3.7,0,6.8,3,6.8,6.8h8.9c0-3.7,3-6.8,6.8-6.8c3.7,0,6.8,3,6.8,6.8h8.9
		c0-3.7,3-6.8,6.8-6.8c3.7,0,6.8,3,6.8,6.8h8.9c0-3.7,3-6.8,6.8-6.8c3.7,0,6.8,3,6.8,6.8h8.9c0-3.7,3-6.8,6.8-6.8
		c3.7,0,6.8,3,6.8,6.8h8.9c0-3.7,3-6.8,6.8-6.8c3.7,0,6.8,3,6.8,6.8h8.9c0-3.7,3-6.8,6.8-6.8c3.7,0,6.8,3,6.8,6.8h8.9
		c0-3.7,3-6.8,6.8-6.8c0,0,0.1,0,0.1,0V224c0,0-0.1,0-0.1,0c-3.7,0-6.8-3-6.8-6.8s3-6.8,6.8-6.8c0,0,0.1,0,0.1,0v-8.9
		c0,0-0.1,0-0.1,0c-3.7,0-6.8-3-6.8-6.8c0-3.7,3-6.8,6.8-6.8c0,0,0.1,0,0.1,0v-8.9c0,0-0.1,0-0.1,0c-3.7,0-6.8-3-6.8-6.8
		c0-3.7,3-6.8,6.8-6.8c0,0,0.1,0,0.1,0v-8.9c0,0-0.1,0-0.1,0c-3.7,0-6.8-3-6.8-6.8s3-6.8,6.8-6.8c0,0,0.1,0,0.1,0v-8.9
		c0,0-0.1,0-0.1,0c-3.7,0-6.8-3-6.8-6.8c0-3.7,3-6.8,6.8-6.8c0,0,0.1,0,0.1,0V112c0,0-0.1,0-0.1,0c-3.7,0-6.8-3-6.8-6.8
		c0-3.7,3-6.8,6.8-6.8c0,0,0.1,0,0.1,0v-8.9c0,0-0.1,0-0.1,0c-3.7,0-6.8-3-6.8-6.8c0-3.7,3-6.8,6.8-6.8c0,0,0.1,0,0.1,0v-8.9
		c0,0-0.1,0-0.1,0c-3.7,0-6.8-3-6.8-6.8h-8.9c0,3.7-3,6.8-6.8,6.8c-3.7,0-6.8-3-6.8-6.8h-8.9c0,3.7-3,6.8-6.8,6.8
		c-3.7,0-6.8-3-6.8-6.8h-8.9c0,3.7-3,6.8-6.8,6.8c-3.7,0-6.8-3-6.8-6.8h-8.9c0,3.7-3,6.8-6.8,6.8s-6.8-3-6.8-6.8h-8.9
		c0,3.7-3,6.8-6.8,6.8c-3.7,0-6.8-3-6.8-6.8h-8.9c0,3.7-3,6.8-6.8,6.8c-3.7,0-6.8-3-6.8-6.8h-8.9c0,3.7-3,6.8-6.8,6.8
		c-3.7,0-6.8-3-6.8-6.8h-8.9C67.3,64.2,64.4,67.2,60.7,67.2z"/>
	<path class="st1" d="M234.1,240.8h-11.2v-1.2c0-3.1-2.5-5.6-5.6-5.6c-3.1,0-5.6,2.5-5.6,5.6v1.2h-11.2v-1.2c0-3.1-2.5-5.6-5.6-5.6
		s-5.6,2.5-5.6,5.6v1.2h-11.2v-1.2c0-3.1-2.5-5.6-5.6-5.6c-3.1,0-5.6,2.5-5.6,5.6v1.2h-11.2v-1.2c0-3.1-2.5-5.6-5.6-5.6
		s-5.6,2.5-5.6,5.6v1.2h-11.2v-1.2c0-3.1-2.5-5.6-5.6-5.6s-5.6,2.5-5.6,5.6v1.2h-11.2v-1.2c0-3.1-2.5-5.6-5.6-5.6s-5.6,2.5-5.6,5.6
		v1.2H88.5v-1.2c0-3.1-2.5-5.6-5.6-5.6c-3.1,0-5.6,2.5-5.6,5.6v1.2H66.1v-1.2c0-3-2.5-5.5-5.5-5.6l-1.1,0v-11.2l1.1,0
		c3-0.1,5.5-2.6,5.5-5.6c0-3-2.5-5.5-5.5-5.6l-1.1,0v-11.2l1.1,0c3-0.1,5.5-2.6,5.5-5.6c0-3-2.5-5.5-5.5-5.6l-1.1,0v-11.2l1.1,0
		c3-0.1,5.5-2.6,5.5-5.6c0-3-2.5-5.5-5.5-5.6l-1.1,0v-11.2l1.1,0c3-0.1,5.5-2.6,5.5-5.6c0-3-2.5-5.5-5.5-5.6l-1.1,0v-11.2l1.1,0
		c3-0.1,5.5-2.6,5.5-5.6c0-3-2.5-5.5-5.5-5.6l-1.1,0v-11.2l1.1,0c3-0.1,5.5-2.6,5.5-5.6s-2.5-5.5-5.5-5.6l-1.1,0V88.5l1.1,0
		c3-0.1,5.5-2.6,5.5-5.6s-2.5-5.5-5.5-5.6l-1.1,0V66.1l1.1,0c3-0.1,5.5-2.6,5.5-5.6v-1.2h11.2v1.2c0,3.1,2.5,5.6,5.6,5.6
		c3.1,0,5.6-2.5,5.6-5.6v-1.2h11.2v1.2c0,3.1,2.5,5.6,5.6,5.6s5.6-2.5,5.6-5.6v-1.2h11.2v1.2c0,3.1,2.5,5.6,5.6,5.6s5.6-2.5,5.6-5.6
		v-1.2h11.2v1.2c0,3.1,2.5,5.6,5.6,5.6s5.6-2.5,5.6-5.6v-1.2h11.2v1.2c0,3.1,2.5,5.6,5.6,5.6c3.1,0,5.6-2.5,5.6-5.6v-1.2h11.2v1.2
		c0,3.1,2.5,5.6,5.6,5.6s5.6-2.5,5.6-5.6v-1.2h11.2v1.2c0,3.1,2.5,5.6,5.6,5.6c3.1,0,5.6-2.5,5.6-5.6v-1.2h11.2v1.2
		c0,3.1,2.5,5.6,5.6,5.6c0,0,0.1,0,0.1,0l1.2,0v11.3l-1.2,0c0,0-0.1,0-0.1,0c-3.1,0-5.6,2.5-5.6,5.6s2.5,5.6,5.6,5.6
		c0,0,0.1,0,0.1,0l1.2,0v11.2l-1.2,0c0,0-0.1,0-0.1,0c-3.1,0-5.6,2.5-5.6,5.6s2.5,5.6,5.6,5.6c0,0,0.1,0,0.1,0l1.2,0v11.2l-1.2,0
		c0,0-0.1,0-0.1,0c-3.1,0-5.6,2.5-5.6,5.6c0,3.1,2.5,5.6,5.6,5.6c0,0,0.1,0,0.1,0l1.2,0v11.2l-1.2,0c0,0-0.1,0-0.1,0
		c-3.1,0-5.6,2.5-5.6,5.6c0,3.1,2.5,5.6,5.6,5.6c0,0,0.1,0,0.1,0l1.2,0v11.3l-1.2,0c0,0-0.1,0-0.1,0c-3.1,0-5.6,2.5-5.6,5.6
		c0,3.1,2.5,5.6,5.6,5.6c0,0,0.1,0,0.1,0l1.2,0v11.3l-1.2,0c0,0-0.1,0-0.1,0c-3.1,0-5.6,2.5-5.6,5.6c0,3.1,2.5,5.6,5.6,5.6
		c0,0,0.1,0,0.1,0l1.2,0v11.3l-1.2,0c0,0-0.1,0-0.1,0c-3.1,0-5.6,2.5-5.6,5.6c0,3.1,2.5,5.6,5.6,5.6c0,0,0.1,0,0.1,0l1.2,0v11.3
		l-1.2,0c0,0-0.1,0-0.1,0c-3.1,0-5.6,2.5-5.6,5.6V240.8z M225.2,238.5h6.7c0.5-3.5,3.3-6.2,6.8-6.7v-6.7c-3.9-0.5-6.9-3.8-6.9-7.9
		c0-4,3-7.4,6.9-7.9v-6.7c-3.9-0.5-6.9-3.8-6.9-7.9c0-4,3-7.4,6.9-7.9v-6.7c-3.9-0.5-6.9-3.8-6.9-7.9c0-4,3-7.4,6.9-7.9v-6.7
		c-3.9-0.5-6.9-3.8-6.9-7.9c0-4,3-7.4,6.9-7.9v-6.7c-3.9-0.5-6.9-3.8-6.9-7.9c0-4,3-7.4,6.9-7.9v-6.7c-3.9-0.5-6.9-3.8-6.9-7.9
		s3-7.4,6.9-7.9v-6.7c-3.9-0.5-6.9-3.8-6.9-7.9s3-7.4,6.9-7.9v-6.7c-3.5-0.5-6.3-3.2-6.8-6.7h-6.7c-0.6,3.8-3.9,6.8-7.8,6.8
		c-4,0-7.3-2.9-7.8-6.8h-6.7c-0.6,3.8-3.9,6.8-7.8,6.8s-7.3-2.9-7.8-6.8h-6.7c-0.6,3.8-3.9,6.8-7.8,6.8c-4,0-7.3-2.9-7.8-6.8H158
		c-0.6,3.8-3.9,6.8-7.8,6.8s-7.3-2.9-7.8-6.8h-6.7c-0.6,3.8-3.9,6.8-7.8,6.8s-7.3-2.9-7.8-6.8h-6.7c-0.6,3.8-3.9,6.8-7.8,6.8
		s-7.3-2.9-7.8-6.8h-6.7c-0.6,3.8-3.9,6.8-7.8,6.8c-4,0-7.3-2.9-7.8-6.8h-6.7c-0.5,3.4-3.2,6.1-6.6,6.7v6.8c3.8,0.6,6.6,3.9,6.6,7.8
		c0,3.9-2.9,7.2-6.6,7.8v6.8c3.8,0.6,6.6,3.9,6.6,7.8c0,3.9-2.9,7.2-6.6,7.8v6.8c3.8,0.6,6.6,3.9,6.6,7.8c0,3.9-2.9,7.2-6.6,7.8v6.8
		c3.8,0.6,6.6,3.9,6.6,7.8c0,3.9-2.9,7.2-6.6,7.8v6.8c3.8,0.6,6.6,3.9,6.6,7.8c0,3.9-2.9,7.2-6.6,7.8v6.8c3.8,0.6,6.6,3.9,6.6,7.8
		c0,3.9-2.9,7.2-6.6,7.8v6.8c3.8,0.6,6.6,3.9,6.6,7.8c0,3.9-2.9,7.2-6.6,7.8v6.8c3.4,0.6,6,3.3,6.6,6.7h6.7c0.6-3.8,3.9-6.8,7.8-6.8
		c4,0,7.3,2.9,7.8,6.8h6.7c0.6-3.8,3.9-6.8,7.8-6.8s7.3,2.9,7.8,6.8h6.7c0.6-3.8,3.9-6.8,7.8-6.8s7.3,2.9,7.8,6.8h6.7
		c0.6-3.8,3.9-6.8,7.8-6.8s7.3,2.9,7.8,6.8h6.7c0.6-3.8,3.9-6.8,7.8-6.8c4,0,7.3,2.9,7.8,6.8h6.7c0.6-3.8,3.9-6.8,7.8-6.8
		s7.3,2.9,7.8,6.8h6.7c0.6-3.8,3.9-6.8,7.8-6.8C221.3,231.7,224.6,234.7,225.2,238.5z"/>
	<rect x="84.9" y="84.7" class="st2" width="130.6" height="130.6"/>
	<path class="st3" d="M129.3,120.3h-9.9v-9.9h35.2c22,0,26.6,14.5,26.6,24.6c0,8.1-3.3,14.3-6.7,17.7c-5.5,5.5-13,6.8-24.3,6.8h-8.9
		v20.5h10.4v9.9h-32.3v-9.9h9.9V120.3z M151.2,149.8c14.6,0,17.8-6.8,17.8-15c0-9.4-5.3-14.5-14-14.5h-13.7v29.5
		C141.2,149.8,151.2,149.8,151.2,149.8z"/>
</g>
</svg>
