<?xml version="1.0" encoding="utf-8"?>
<!-- Generator: Adobe Illustrator 23.0.3, SVG Export Plug-In . SVG Version: 6.00 Build 0)  -->
<svg version="1.1" id="Слой_1" xmlns="http://www.w3.org/2000/svg" xmlns:xlink="http://www.w3.org/1999/xlink" x="0px" y="0px"
	 viewBox="0 0 300 300" style="enable-background:new 0 0 300 300;" xml:space="preserve">
<style type="text/css">
	.st0{fill:url(#SVGID_1_);}
</style>
<linearGradient id="SVGID_1_" gradientUnits="userSpaceOnUse" x1="434.8793" y1="-885.2233" x2="434.8793" y2="-656.847" gradientTransform="matrix(0.7071 0 0 -0.7071 -157.4644 -394.871)">
	<stop  offset="0" style="stop-color:#EFC119"/>
	<stop  offset="0.3314" style="stop-color:#92C84E"/>
	<stop  offset="0.4859" style="stop-color:#71BF5B"/>
	<stop  offset="0.7506" style="stop-color:#15B158"/>
	<stop  offset="0.903" style="stop-color:#23AC69"/>
	<stop  offset="1" style="stop-color:#23AC69"/>
</linearGradient>
<path class="st0" d="M35.2,142.7l107.3-71.1c4.7-2.7,10.4-2.7,15.1,0l107.3,71.1c4.3,2.1,6,7.2,4,11.4c-0.8,1.7-2.2,3.1-4,4
	l-14.4,9.5c-35.1-55.5-108.7-72.1-164.2-36.9c-14.9,9.4-27.5,22-36.9,36.9L35,158.1c-4.2-2.2-5.9-7.4-3.7-11.6
	C32.2,144.9,33.5,143.5,35.2,142.7z M150,141.9c-30.8,0.1-59.4,15.9-75.8,42l24.7,16.4c17-28.1,53.5-37.2,81.7-20.2
	c8.3,5,15.2,11.9,20.2,20.2l24.7-16.4C209.3,157.7,180.7,141.8,150,141.9z M150,201.3c-10.9,0.1-20.9,5.9-26.2,15.4l16.6,10.8
	c2.7,2.3,6.1,3.5,9.6,3.6c3.5,0,7-1.2,9.6-3.6l16.6-10.8C170.9,207.2,160.9,201.3,150,201.3z"/>
</svg>
