<svg version="1.1" id="Слой_1" xmlns="http://www.w3.org/2000/svg" x="0" y="0" viewBox="0 0 300 300" xml:space="preserve">
  <style>
    .st1{fill:#28a8ea}.st5{fill:#0078d4}.st7,.st9{enable-background:new}.st7{fill:#0a2767;opacity:.1}.st9{opacity:5.000000e-02}
  </style>
  <path d="M234 153.9l-.1.8-.1.4-.1.3-.2.5c-.4.7-.9 1.3-1.6 1.6l-7.1 4-.6.4-7.6 4.3-1.7 1-33 18.7-.6.4-12.6 7.1-1.6.9-1.5.9-.8.4-.8.4h-.1l-1.8.7a9 9 0 01-6.4-.7 2 2 0 01-.6-.4l-.2-.1-9.8-5.6-1.3-.8-1-.5-.2-.1-.7-.4-.1-.1-.3-.2-.2-.1-.2-.1-.3-.2-.4-.2-.2-.1-.5-.3-.4-.2-.1-.1-.6-.3-27.8-15.7-5.9-3.3-1.7-1-7.6-4.3-.8-.5-6.9-3.9c-.7-.4-1.3-.9-1.6-1.6l-.2-.5-.3-1.5a4 4 0 012-3.5h.1l6.9-3.9.8-.5 32.7-18.5 2.1-1.2 8.1-4.6.6-.3.1-.1.4-.2.5-.3.2-.1.4-.2.3-.2.2-.1.2-.1.3-.2.1-.1.7-.4.2-.1 1-.5 1.3-.8 9.8-5.6.9-.5a9.3 9.3 0 018.3 0l.9.5 16.5 9.3 10.2 5.8L224 146l.6.4 7.1 4h.1a4 4 0 012.2 3.5z" fill="#123b6d"/>
  <path class="st1" d="M181.8 86.4h-43v39.9l43 39.9h43v-39.9z"/>
  <path d="M181.8 166.2v39.9h-43l-.8-.6-.1-.1-.1-.1-.3-.2-.5-.4-.7-.6-.2-.1-.1-.1-.1-.1-.9-.8-.2-.2-.1-.1-.1-.1-.2-.2-.4-.4-.9-.8-37.2-30.5-1.5-1.3v-43.2h44.5l.9.9.2.2.7.6.5.4.4.4.7.7.2.2 1 .9 38.3 35.7z" fill="#0364b8"/>
  <path fill="#14447d" d="M95.9 166.2h43v39.9h-43z"/>
  <path fill="#50d9ff" d="M181.8 86.4h43v39.9h-43z"/>
  <path class="st5" d="M94.4 86.4h44.5v39.9H94.4zM181.8 166.2h43v39.9h-43z"/>
  <path class="st5" d="M138.8 126.3h43v39.9h-43z"/>
  <path d="M102.6 63.4h113.9c4.6 0 8.3 3.7 8.3 8.3v14.8H94.4V71.6c0-4.5 3.6-8.2 8.2-8.2z" fill="#0358a7"/>
  <path class="st7" d="M224.8 155.2l-63 34.2-.3.2-.3.2-.3.1-2.1-1.2-.3-.1-.4-.2-.2-.1-12.5-6.9-1-.6-.8-.5-1.8-1-47.5-26.4v49.5h130.4v-47.2z"/>
  <path class="st7" d="M224.8 156.7l-63 34.2-.3.2-.3.2-.3.1-2.1-1.2-.3-.1-.4-.2-.2-.1-12.5-6.9-1-.6-.8-.5-1.8-1-47.5-26.4v49.5h130.4v-47.2z"/>
  <path class="st7" d="M224.8 158.2l-63 34.2-.3.2-.3.2-.3.1-2.1-1.2-.3-.1-.4-.2-.2-.1-12.5-6.9-1-.6-.8-.5-1.8-1-47.5-26.4v49.5h130.4v-47.2z"/>
  <path class="st7" d="M224.8 159.8l-63 34.2-.3.2-.3.2-.3.1-2.1-1.2-.3-.1-.4-.2-.2-.1-12.5-6.9-1-.6-.8-.5-1.8-1-47.5-26.4V207h130.4v-47.2z"/>
  <path d="M231.9 157.3l-.1.1-67.2 36.5-.9.5a10 10 0 01-8.3 0l-.9-.5 3.2 22.7 67 20c2 0 3.9-.6 5.5-1.7a8.6 8.6 0 003.8-7.2v-73.8c0 1.5-.8 2.8-2.1 3.4z" fill="#1490df"/>
  <path class="st9" d="M167.2 192.5l-2.5 1.4-.9.5a10 10 0 01-8.3 0l-.9-.5 3.2 22.7 67 20c2 0 3.9-.6 5.5-1.7a8.8 8.8 0 003.6-5.1l-66.7-37.3z"/>
  <path class="st9" d="M233.3 231.3l-67.7-37.9-.9.5-.9.5a10 10 0 01-8.3 0l-.9-.5 3.2 22.7 67 20c2 0 3.9-.6 5.5-1.7a8.7 8.7 0 003-3.6z"/>
  <path class="st9" d="M232.6 232.6L164 194.3l-.2.1a10 10 0 01-8.3 0l-.9-.5 3.2 22.7 67 20a9.7 9.7 0 007.8-4z"/>
  <path class="st9" d="M231.6 233.8l-68.8-38.5-.3-.2-.3-.2c-2.2.6-4.5.4-6.6-.6l-.9-.5 3.2 22.7 67 20a9.7 9.7 0 006.7-2.7z"/>
  <path class="st1" d="M230.3 234.9l-.6.4-.6.3-.7.3-.8.3a3 3 0 01-1 .2h-.2l-.5.1-1 .1H94.6c-5.1.1-9.3-4-9.3-9.1v-73.6l2.1 1.2 6.9 3.9 12.9 7.2 31.6 17.6.9.5.2.1.7.4.5.3.4.2.7.4.2.1 1 .5 11.4 6.4.9.5 3.8 2.1 2.4 1.4 10.2 5.7 2.7 1.5 2.7 1.5 1.2.6 1.6.9 50 28z"/>
  <path class="st9" d="M143.5 107.9v91.5a8 8 0 01-1.4 4.5 6.4 6.4 0 01-2.1 2.1 5 5 0 01-1.6.9c-1 .4-2.1.6-3.2.6H85.1v-6.1h.1v-47.5a4 4 0 012-3.5h.1l6.9-3.9V98.7H135a7 7 0 013.7 1.1c3 1.7 4.7 4.7 4.8 8.1z"/>
  <path d="M142.3 108v89.8c0 1.6-.5 3.2-1.3 4.5-.4.6-.8 1.1-1.3 1.5l-.8.7-1 .6-.5.2c-1 .4-2.1.6-3.2.6h-49v-4.6h.1v-47.5a4 4 0 012-3.5h.1l6.9-3.9V99H134c1.8 0 3.5.7 4.8 1.8a9.3 9.3 0 013.5 7.2z" opacity=".1"/>
  <path d="M141.2 108.2v88.1c0 2.2-.8 4.3-2.3 5.9l-.2.2a7 7 0 01-2.3 1.5c-1 .4-2.1.6-3.1.6h-48v-3.1h.1v-47.5a4 4 0 012-3.5h.1l6.9-3.9v-47h38.5c2.3 0 4.5 1.1 6 2.8a9.6 9.6 0 012.3 5.9z" opacity=".1"/>
  <path d="M140 108.3v86.5c0 1.5-.4 3.1-1.2 4.4-.8 1.4-2 2.5-3.5 3.2l-.6.2c-.8.3-1.7.4-2.6.4h-47v-1.5h.1V154a4 4 0 012-3.5h.1l6.9-3.9V99.8h37.4c3 0 5.7 1.7 7.1 4.2a7.5 7.5 0 011.3 4.3z" opacity=".1"/>
  <path d="M138.8 108.5v84.8c.2 3.7-2.2 7-5.7 8-.6.2-1.3.3-1.9.2H85.3V154a4 4 0 012-3.5h.1l6.9-3.9v-46.2h36.2a8 8 0 018.3 8.1z" opacity=".2"/>
  <linearGradient id="SVGID_1_" gradientUnits="userSpaceOnUse" x1="56.4" y1="206.3" x2="121.5" y2="93.6" gradientTransform="matrix(1 0 0 -1 0 300)">
    <stop offset="0" stop-color="#1784d9"/>
    <stop offset=".5" stop-color="#107ad5"/>
    <stop offset="1" stop-color="#0a63c9"/>
  </linearGradient>
  <path d="M47.4 100.2h83.2c4.6 0 8.3 3.7 8.3 8.3v83.2c0 4.6-3.7 8.3-8.3 8.3H47.4a8.3 8.3 0 01-8.3-8.3v-83.2c0-4.6 3.7-8.3 8.3-8.3z" fill="url(#SVGID_1_)"/>
  <path d="M66.8 136.5c1.9-4 5-7.4 8.8-9.7 4.3-2.4 9.1-3.7 14-3.5a26 26 0 0113 3.3 22 22 0 018.6 9.3c2.1 4.3 3.1 8.9 3 13.7a32 32 0 01-3.1 14.3c-1.9 4-5 7.3-8.8 9.6a26.2 26.2 0 01-13.4 3.4c-4.6.1-9.2-1.1-13.2-3.4a23 23 0 01-8.7-9.3 28.7 28.7 0 01-3-13.5 29 29 0 012.8-14.2zm9.4 22.8c1 2.6 2.7 4.8 5 6.4 2.3 1.6 5 2.4 7.7 2.3 2.9.1 5.8-.7 8.3-2.4 2.2-1.6 3.9-3.9 4.8-6.4 1.1-2.9 1.6-5.9 1.5-8.9 0-3.1-.5-6.1-1.4-9.1-.9-2.6-2.5-4.9-4.6-6.7a12.3 12.3 0 00-8.2-2.5c-2.8-.1-5.6.8-7.9 2.4-2.3 1.6-4 3.9-5.1 6.5a24.9 24.9 0 00-.1 18.4z" fill="#fff"/>
</svg>
