<?xml version="1.0" encoding="utf-8"?>
<!-- Generator: Adobe Illustrator 24.0.3, SVG Export Plug-In . SVG Version: 6.00 Build 0)  -->
<svg version="1.1" id="Слой_1" xmlns="http://www.w3.org/2000/svg" xmlns:xlink="http://www.w3.org/1999/xlink" x="0px" y="0px"
	 viewBox="0 0 300 300" style="enable-background:new 0 0 300 300;" xml:space="preserve">
<style type="text/css">
	.st0{clip-path:url(#SVGID_2_);fill:url(#SVGID_3_);}
	.st1{clip-path:url(#SVGID_2_);fill:url(#SVGID_4_);}
	.st2{clip-path:url(#SVGID_2_);fill:url(#SVGID_5_);}
	.st3{clip-path:url(#SVGID_2_);fill:url(#SVGID_6_);}
	.st4{clip-path:url(#SVGID_2_);fill:url(#SVGID_7_);}
	.st5{clip-path:url(#SVGID_2_);fill:url(#SVGID_8_);}
</style>
<g>
	<defs>
		<path id="SVGID_1_" d="M52,111.8h18.7l165.7-46.3c5.9-1.9,12.1,2.8,12.1,9V224c0,6.2-6.2,10.9-11.8,9l-114.1-28.9l-9.3,40.7
			c-0.9,4.4-4.7,7.2-9,7.2H93.3c-5.3,0-9.3-4.7-9.3-10v-47.6l-14-3.7l-18.7,0.6c-5.3,0-9.3-4.4-9.3-9.3v-61
			C42.7,116.1,46.7,111.8,52,111.8z"/>
	</defs>
	<clipPath id="SVGID_2_">
		<use xlink:href="#SVGID_1_"  style="overflow:visible;"/>
	</clipPath>
	
		<linearGradient id="SVGID_3_" gradientUnits="userSpaceOnUse" x1="43.9972" y1="713.5498" x2="80.4144" y2="613.494" gradientTransform="matrix(1 0 0 1 0 -523.3856)">
		<stop  offset="0" style="stop-color:#303C4D"/>
		<stop  offset="1" style="stop-color:#576B7C"/>
	</linearGradient>
	<path class="st0" d="M70.6,191.4H52c-5.3,0-9.3-4.4-9.3-9.3v-61c0-5.3,4.4-9.3,9.3-9.3h18.7V191.4z"/>
	
		<linearGradient id="SVGID_4_" gradientUnits="userSpaceOnUse" x1="80.993" y1="705.1375" x2="98.9411" y2="655.8254" gradientTransform="matrix(1 0 0 1 0 -523.3856)">
		<stop  offset="0" style="stop-color:#F2A300"/>
		<stop  offset="1" style="stop-color:#FFC533"/>
	</linearGradient>
	<polygon class="st1" points="70.6,191.4 70.6,111.8 128.5,149.7 	"/>
	
		<linearGradient id="SVGID_5_" gradientUnits="userSpaceOnUse" x1="87.4747" y1="769.7945" x2="114.2054" y2="696.3524" gradientTransform="matrix(1 0 0 1 0 -523.3856)">
		<stop  offset="0" style="stop-color:#303C4D"/>
		<stop  offset="1" style="stop-color:#576B7C"/>
	</linearGradient>
	<path class="st2" d="M112.6,244.8l14-58.5h-42v56c0,5.3,4.4,9.3,9.3,9.3h10C108,252,111.7,249.2,112.6,244.8z"/>
	
		<linearGradient id="SVGID_6_" gradientUnits="userSpaceOnUse" x1="175.8881" y1="745.0709" x2="228.5422" y2="600.4043" gradientTransform="matrix(1 0 0 1 0 -523.3856)">
		<stop  offset="0" style="stop-color:#CD2332"/>
		<stop  offset="0.3178" style="stop-color:#D52A3A"/>
		<stop  offset="0.8204" style="stop-color:#EC3C4F"/>
		<stop  offset="1" style="stop-color:#F64458"/>
	</linearGradient>
	<polygon class="st3" points="120.7,157.4 248.5,238 248.5,60.4 	"/>
	
		<linearGradient id="SVGID_7_" gradientUnits="userSpaceOnUse" x1="151.6417" y1="765.5624" x2="169.3399" y2="716.937" gradientTransform="matrix(1 0 0 1 0 -523.3856)">
		<stop  offset="0" style="stop-color:#D11A37"/>
		<stop  offset="1" style="stop-color:#E21B3B"/>
	</linearGradient>
	<polygon class="st4" points="137.2,133.2 70.6,190.7 252.9,238 	"/>
	
		<linearGradient id="SVGID_8_" gradientUnits="userSpaceOnUse" x1="110.6084" y1="746.3875" x2="161.4582" y2="610.2935" gradientTransform="matrix(1 0 0 1 0 -523.3856)">
		<stop  offset="0" style="stop-color:#E91C2D"/>
		<stop  offset="1" style="stop-color:#FB4B5B"/>
	</linearGradient>
	<path class="st5" d="M139.7,163.7L252.9,60.4L70.6,111.8l62.2,51.9C135,165.5,137.8,165.5,139.7,163.7z"/>
</g>
</svg>
